<svg width="436" height="526" viewBox="0 0 436 526" fill="none" xmlns="http://www.w3.org/2000/svg">
<rect x="16" width="420" height="526" fill="#E2DCFC"/>
<path d="M90.4441 509.674C110.332 498.359 116.795 474.577 118.018 452.78C118.234 449.137 118.983 445.348 117.544 442.015C116.105 438.681 112.271 436.129 108.867 437.358C106.049 438.38 104.559 441.405 102.835 443.862C100.499 447.134 97.2813 449.681 93.5548 451.208C91.1334 452.187 88.1951 452.66 86.0236 451.208C83.0508 449.189 83.0766 444.833 83.4385 441.233C84.1049 434.503 84.7655 427.781 85.4204 421.068C85.7737 417.468 86.1184 413.782 85.3084 410.251C84.4984 406.72 82.3011 403.318 78.9491 402.046C75.5972 400.774 71.1939 402.355 70.1082 405.826C69.6687 407.261 69.8325 408.816 69.5912 410.303C69.3499 411.789 68.5055 413.387 67.0061 413.671C65.5068 413.954 64.1625 412.811 63.1802 411.651C59.7852 407.674 57.6826 402.75 55.7438 397.862C53.805 392.973 51.9438 387.999 48.9192 383.711C45.8947 379.424 41.4915 375.85 36.3386 375.12C31.1857 374.389 25.3693 377.044 23.5942 381.993C21.8191 386.942 24.318 392.389 27.1788 396.805C31.4198 403.352 36.5889 409.253 42.5255 414.324C43.594 415.234 44.7487 416.222 45.0589 417.597C45.6276 420.071 43.1201 422.254 40.6643 422.821C37.8896 423.474 34.9857 422.924 32.1335 423.001C29.2813 423.078 26.1017 424.032 24.8005 426.592C22.9824 430.149 25.7139 434.325 28.5317 437.109C34.1621 442.733 40.7203 447.351 47.9197 450.761C50.5048 451.972 53.2191 453.081 55.1923 455.143C57.1656 457.205 58.1652 460.564 56.6314 462.987C55.0976 465.41 51.7025 465.925 48.9623 465.152C46.2222 464.379 43.8611 462.643 41.2933 461.406C36.4937 459.078 30.0913 458.829 26.4636 462.824C24.1112 465.453 23.5683 469.353 24.318 472.807C25.0677 476.261 26.9462 479.354 28.9884 482.258C36.0973 492.31 45.6104 500.748 56.7779 505.791C67.9454 510.834 78.5355 512.888 90.3838 509.752" fill="#656BE8" fill-opacity="0.09"/>
<path d="M89.2463 525.818C89.1595 515.647 88.0948 505.509 86.0667 495.541C83.5379 483.372 80.3098 471.358 76.3985 459.559C75.376 456.42 74.3678 453.321 73.374 450.263C72.3744 447.212 71.3835 444.188 70.2374 441.284C68.0251 435.724 65.508 430.288 62.6976 425.003C60.035 419.942 57.3207 415.234 54.7529 410.852C52.185 406.471 49.7034 402.433 47.282 398.824C43.499 393.151 39.2691 387.787 34.6324 382.783C32.9952 381.013 31.6768 379.682 30.772 378.788C30.3412 378.359 29.9965 378.032 29.738 377.783C29.6275 377.663 29.5064 377.554 29.3761 377.456C29.4696 377.59 29.5764 377.714 29.6949 377.826L30.6773 378.883C31.5389 379.802 32.8315 381.159 34.4428 382.955C38.9903 388.017 43.1524 393.41 46.8943 399.09C49.2811 402.682 51.7283 406.728 54.2789 411.119C56.8295 415.509 59.5094 420.226 62.1548 425.278C64.9259 430.559 67.4083 435.985 69.5912 441.533C70.7372 444.412 71.7109 447.419 72.7105 450.477C73.71 453.536 74.7096 456.629 75.7264 459.774C79.6324 471.545 82.8717 483.527 85.429 495.661C87.4809 505.587 88.5888 515.684 88.7379 525.818" fill="#656BE8" fill-opacity="0.2"/>
<path d="M70.0479 441.241C70.2659 440.759 70.4306 440.255 70.539 439.738C70.8234 438.758 71.1853 437.323 71.6075 435.554C72.4692 432.005 73.4429 427.073 74.52 421.626C75.5971 416.179 76.657 411.273 77.5445 407.751C77.9926 405.989 78.4062 404.563 78.6303 403.584C78.8038 403.083 78.9194 402.564 78.9749 402.037C78.7242 402.504 78.5249 402.997 78.3804 403.506C78.0357 404.469 77.5962 405.869 77.0965 407.622C76.0797 411.127 74.9422 416.042 73.8651 421.497C72.788 426.953 71.866 431.739 71.1422 435.45C70.8061 437.126 70.5218 438.543 70.2805 439.678C70.1469 440.189 70.0689 440.713 70.0479 441.241V441.241Z" fill="#656BE8" fill-opacity="0.2"/>
<path d="M24.3267 428.328C24.9254 428.512 25.5398 428.641 26.1621 428.715C27.3426 428.929 29.0573 429.23 31.1685 429.677C35.3821 430.536 41.1727 431.894 47.4889 433.689C53.8051 435.485 59.4491 437.375 63.4905 438.844C65.5241 439.566 67.144 440.193 68.2728 440.623C68.8432 440.883 69.4377 441.088 70.0479 441.233C69.5191 440.894 68.9594 440.607 68.3762 440.374C67.2733 439.867 65.6705 439.171 63.6628 438.389C59.6473 436.791 54.0033 434.84 47.6698 433.028C42.2822 431.468 36.8176 430.186 31.2977 429.187C29.1694 428.809 27.4374 428.577 26.2396 428.44C25.6076 428.336 24.9665 428.299 24.3267 428.328V428.328Z" fill="#656BE8" fill-opacity="0.2"/>
<path d="M85.5756 494.639C85.7217 494.475 85.8462 494.293 85.9461 494.097L86.8939 492.491C87.7556 491.099 88.8414 489.054 90.2115 486.476C92.943 481.373 96.4932 474.199 100.302 466.226C104.111 458.253 107.6 451.053 110.22 445.898L113.348 439.798L114.21 438.131C114.32 437.942 114.407 437.74 114.468 437.53C114.319 437.688 114.195 437.868 114.097 438.062L113.141 439.669C112.279 441.069 111.194 443.106 109.832 445.683C107.101 450.795 103.542 457.969 99.7331 465.942C95.9245 473.915 92.4346 481.107 89.8151 486.27C88.5312 488.77 87.4799 490.832 86.6958 492.37C86.3597 493.032 86.084 493.582 85.8341 494.029C85.7219 494.22 85.6351 494.425 85.5756 494.639V494.639Z" fill="#656BE8" fill-opacity="0.2"/>
<path d="M25.5847 469.121C25.7644 469.251 25.9617 469.356 26.1707 469.431L27.894 470.195L34.3223 472.936C39.7423 475.256 47.1959 478.546 55.425 482.189C63.6542 485.832 71.1509 489.063 76.6226 491.262C79.3628 492.362 81.5859 493.238 83.1284 493.839L84.9207 494.484C85.1242 494.574 85.3385 494.638 85.5583 494.673C85.3762 494.542 85.1759 494.438 84.9638 494.364L83.2404 493.599L76.8208 490.858C71.4008 488.538 63.9472 485.248 55.7094 481.605C47.4716 477.962 39.9922 474.732 34.5204 472.532C31.7803 471.432 29.5571 470.556 28.0147 469.955L26.2224 469.31C26.0189 469.22 25.8045 469.157 25.5847 469.121V469.121Z" fill="#656BE8" fill-opacity="0.2"/>
<path d="M408.912 114.111C408.912 114.111 399.872 111.456 396.219 132.153C392.565 152.851 392.272 164.252 392.272 164.252C392.272 164.252 391.006 168.745 387.671 167.079C384.336 165.412 378.649 159.535 374.634 162.138C370.48 164.828 370.532 170.361 373.694 177.543C376.857 184.726 383.173 200.741 383.767 202.184C384.362 203.628 384.147 206.008 381.691 205.243C379.235 204.478 363.595 195.07 359.537 202.743C355.478 210.415 367.611 229.008 368.895 231.095C370.179 233.183 370.032 234.248 369.136 235.125C368.24 236.001 363.276 232.35 358.709 229.858C354.143 227.367 348.412 225.279 346.456 229.901C344.5 234.523 348.18 250.109 370.428 270.48L381.337 279.226L394.547 274.38C422.182 262.283 430.738 248.743 430.411 243.734C430.083 238.725 423.965 238.854 418.83 239.739C413.694 240.624 407.817 242.479 407.257 241.354C406.697 240.228 406.912 239.154 408.791 237.625C410.669 236.096 428.17 222.418 426.886 213.852C425.602 205.286 407.697 209.126 405.12 209.058C402.544 208.989 403.155 206.661 404.146 205.501C405.137 204.341 416.357 191.221 421.682 185.439C427.007 179.657 428.86 174.442 425.801 170.558C422.845 166.804 415.564 170.558 411.859 171.022C408.153 171.486 408.412 166.855 408.412 166.855C408.412 166.855 411.859 155.987 415.116 135.212C418.373 114.437 408.739 114.068 408.739 114.068" fill="#656BE8" fill-opacity="0.13"/>
<path d="M405.56 132.651C405.555 132.801 405.541 132.95 405.517 133.098L405.336 134.378C405.172 135.521 404.922 137.179 404.603 139.293C403.966 143.589 402.992 149.74 401.76 157.335C399.295 172.586 395.728 193.618 391.678 216.833C387.628 240.048 384.017 261.089 381.467 276.322C380.209 283.926 379.183 290.069 378.468 294.364L377.65 299.27C377.555 299.812 377.477 300.233 377.425 300.542C377.374 300.851 377.331 300.971 377.331 300.971C377.331 300.971 377.331 300.825 377.331 300.533L377.512 299.253C377.684 298.102 377.925 296.452 378.244 294.33C378.89 290.034 379.864 283.891 381.096 276.287C383.552 261.037 387.128 239.996 391.169 216.773C395.211 193.549 398.838 172.534 401.38 157.301C402.647 149.697 403.673 143.554 404.379 139.258L405.198 134.353C405.301 133.811 405.37 133.382 405.43 133.081C405.491 132.78 405.56 132.651 405.56 132.651Z" fill="#656BE8" fill-opacity="0.5"/>
<path d="M382.199 170.695C382.438 170.935 382.647 171.203 382.82 171.494C383.199 172.019 383.681 172.809 384.353 173.78C385.62 175.73 387.3 178.462 389.093 181.512L393.651 189.348L395.047 191.719C395.236 191.988 395.394 192.276 395.521 192.579C395.281 192.34 395.07 192.075 394.892 191.788C394.513 191.255 394.03 190.474 393.367 189.494C392.117 187.527 390.48 184.769 388.688 181.719L384.069 173.909L382.664 171.546C382.476 171.282 382.32 170.996 382.199 170.695V170.695Z" fill="#656BE8" fill-opacity="0.5"/>
<path d="M396.848 192.484C396.779 192.372 402.285 188.678 409.144 184.219C416.003 179.76 421.63 176.237 421.699 176.349C421.768 176.46 416.27 180.163 409.403 184.614C402.535 189.064 396.908 192.596 396.848 192.484Z" fill="#656BE8" fill-opacity="0.5"/>
<path d="M389.024 227.865C389.333 227.709 389.66 227.591 389.997 227.513L392.686 226.696C394.961 226 398.089 225.038 401.51 223.844C404.931 222.65 407.99 221.49 410.196 220.622L412.781 219.6C413.093 219.449 413.423 219.339 413.763 219.273C413.483 219.473 413.179 219.637 412.858 219.763C412.255 220.055 411.385 220.459 410.273 220.931C408.093 221.876 405.043 223.105 401.613 224.291C398.184 225.476 395.03 226.404 392.729 227.014C391.583 227.315 390.644 227.547 389.997 227.693C389.68 227.786 389.354 227.844 389.024 227.865V227.865Z" fill="#656BE8" fill-opacity="0.5"/>
<path d="M371.445 211.059C371.727 211.217 371.985 211.414 372.212 211.643C372.678 212.039 373.341 212.623 374.16 213.362C375.788 214.831 378.029 216.876 380.476 219.153C382.923 221.429 385.12 223.517 386.689 225.047C387.481 225.803 388.11 226.43 388.541 226.868C388.782 227.077 388.993 227.317 389.17 227.581C388.893 227.423 388.638 227.23 388.412 227.005C387.947 226.602 387.275 226.017 386.465 225.287C384.827 223.826 382.596 221.782 380.148 219.496C377.701 217.211 375.504 215.132 373.927 213.611C373.143 212.846 372.514 212.219 372.083 211.781C371.842 211.567 371.628 211.324 371.445 211.059V211.059Z" fill="#656BE8" fill-opacity="0.5"/>
<path d="M360.579 241.422C360.924 241.644 361.247 241.897 361.545 242.179L364.052 244.369C366.155 246.234 369.033 248.829 372.195 251.724C375.357 254.619 378.227 257.257 380.252 259.182L382.656 261.484C382.97 261.742 383.259 262.03 383.518 262.343C383.174 262.128 382.853 261.877 382.561 261.596L380.054 259.405C377.951 257.541 375.064 254.937 371.902 252.042C368.74 249.146 365.87 246.517 363.845 244.584L361.441 242.29C361.123 242.034 360.834 241.743 360.579 241.422Z" fill="#656BE8" fill-opacity="0.5"/>
<path d="M383.061 261.681C383.455 261.49 383.864 261.332 384.285 261.209L387.662 260.049C390.506 259.07 394.435 257.704 398.726 256.08C403.018 254.456 406.878 252.892 409.661 251.784L412.962 250.418C413.357 250.23 413.77 250.08 414.194 249.971C413.826 250.213 413.437 250.42 413.031 250.59C412.272 250.959 411.169 251.449 409.791 252.085C407.042 253.322 403.207 254.937 398.899 256.561C394.59 258.185 390.644 259.508 387.766 260.41C386.327 260.857 385.181 261.2 384.319 261.424C383.909 261.55 383.488 261.637 383.061 261.681Z" fill="#656BE8" fill-opacity="0.5"/>
<path d="M391.083 276.743C391.448 275.525 391.888 274.332 392.402 273.169C392.768 271.95 393.205 270.754 393.711 269.586C393.647 270.87 393.355 272.132 392.85 273.315C392.465 274.551 391.867 275.711 391.083 276.743V276.743Z" fill="#FAFAFA"/>
<path d="M194 32C194 85.5716 150.572 129 97 129C43.4284 129 0 85.5716 0 32C0 -21.5716 43.4284 -65 97 -65C150.572 -65 194 -21.5716 194 32ZM28.0236 32C28.0236 70.0946 58.9054 100.976 97 100.976C135.095 100.976 165.976 70.0946 165.976 32C165.976 -6.09463 135.095 -36.9764 97 -36.9764C58.9054 -36.9764 28.0236 -6.09463 28.0236 32Z" fill="#D2CDF9"/>
<circle cx="114" cy="409" r="7" fill="#D2CDF9"/>
<circle cx="372.5" cy="136.5" r="11.5" fill="#D2CDF9"/>
<circle cx="357" cy="188" r="4" fill="#D2CDF9"/>
</svg>
