<svg width="530" height="60" viewBox="0 0 530 60" fill="none" xmlns="http://www.w3.org/2000/svg">
<g opacity="0.7">
<path d="M429.228 38.9323L431.784 40.9009L435.818 35.6634L433.262 33.6948L429.228 38.9323Z" fill="#FF9500"/>
<path d="M501.029 25.6428L503.416 28.3198L507.812 24.3999L505.425 21.7229L501.029 25.6428Z" fill="#2AAC7E"/>
<path d="M414.012 5.30811C413.257 6.97472 413.956 8.92278 415.573 9.65547C417.19 10.3882 419.116 9.6299 419.871 7.96329C420.626 6.29667 419.927 4.34862 418.31 3.61592C416.694 2.88322 414.768 3.64149 414.012 5.30811Z" fill="#FF3B30"/>
<path d="M516.193 2.18253C515.519 3.22309 516.584 5.11175 518.569 6.39734C520.554 7.68293 522.713 7.88187 523.387 6.84131C524.061 5.80075 522.996 3.9121 521.011 2.62651C519.026 1.34092 516.867 1.14197 516.193 2.18253Z" fill="#FF9500"/>
<path d="M501.886 22.2148C504.297 24.5503 506.361 27.0279 506.855 30.1486C508.061 37.7583 499.608 44.6928 499.478 52.2093" stroke="#FF9500" stroke-width="1.06034" stroke-linecap="round" stroke-linejoin="round"/>
<path d="M372.654 0.983887C376.008 5.05788 380.138 8.90967 380.398 13.8712C380.573 17.2103 378.896 20.1608 376.881 23.0559" stroke="#2AAC7E" stroke-width="0.872727" stroke-linecap="round" stroke-linejoin="round"/>
<path d="M450.909 32.9352L448.291 34.9521L452.228 40.0641L454.847 38.0471L450.909 32.9352Z" fill="#0D0D80"/>
<path d="M530 25.7589L529.422 22.8712L522.389 24.2798L522.967 27.1675L530 25.7589Z" fill="#FF9500"/>
<path d="M357.044 17.254C355.788 15.8644 353.725 15.6791 352.441 16.8403C351.157 18.0016 351.134 20.0727 352.391 21.4622C353.648 22.8518 355.71 23.0371 356.995 21.8758C358.279 20.7146 358.301 18.6435 357.044 17.254Z" fill="#0D0D80"/>
<path d="M458.389 -5.84047C457.172 -7.58424 455.2 -8.31316 453.987 -7.46717C452.775 -6.62118 452.777 -4.5185 453.994 -2.77474C455.21 -1.03097 457.183 -0.30205 458.395 -1.14804C459.608 -1.99403 459.605 -4.09671 458.389 -5.84047Z" fill="#FF9500"/>
<path d="M436.836 30.3823C433.768 34.1847 430.36 37.9001 430.244 42.4642C430.152 46.0527 432.182 49.136 434.473 52.177" stroke="#2AAC7E" stroke-width="0.860676" stroke-linecap="round" stroke-linejoin="round"/>
<path d="M400.946 12.9387C405.198 17.7575 412.673 20.9342 414.218 27.1318C414.822 29.557 414.37 31.9664 413.507 34.376" stroke="#0D0D80" stroke-width="0.913005" stroke-linecap="round" stroke-linejoin="round"/>
<path d="M88.194 26.4179L83.4201 31.7719L79.024 27.852L83.7979 22.498L88.194 26.4179Z" fill="#0D0D80"/>
<path d="M319.59 1.23745L317.034 3.20605L313 -2.0314L315.556 -4L319.59 1.23745Z" fill="#FF9500"/>
<path d="M58.655 32.3547L56.268 35.0317L51.8718 31.1118L54.2588 28.4348L58.655 32.3547Z" fill="#2AAC7E"/>
<path d="M252.355 5.30811C253.11 6.97472 252.411 8.92278 250.794 9.65547C249.177 10.3882 247.251 9.6299 246.496 7.96329C245.741 6.29667 246.44 4.34862 248.057 3.61592C249.674 2.88322 251.6 3.64149 252.355 5.30811Z" fill="#FF3B30"/>
<path d="M7.41532 19.5165C8.08918 20.5571 7.02449 22.4457 5.0393 23.7313C3.05412 25.0169 0.895188 25.2159 0.221328 24.1753C-0.452531 23.1347 0.61216 21.2461 2.59734 19.9605C4.58252 18.6749 6.74146 18.476 7.41532 19.5165Z" fill="#FF9500"/>
<path d="M57.7908 28.9267C55.3796 31.2622 53.3158 33.7398 52.8215 36.8605C51.6162 44.4703 60.0688 51.4047 60.1987 58.9212" stroke="#FF9500" stroke-width="1.06034" stroke-linecap="round" stroke-linejoin="round"/>
<path d="M252.941 0.983887C249.588 5.05788 245.458 8.90967 245.198 13.8712C245.023 17.2103 246.7 20.1608 248.714 23.0559" stroke="#2AAC7E" stroke-width="0.872727" stroke-linecap="round" stroke-linejoin="round"/>
<path d="M215.458 32.9352L218.076 34.9521L214.139 40.0641L211.521 38.0471L215.458 32.9352Z" fill="#0D0D80"/>
<path d="M29.6803 32.4706L30.2586 29.5829L37.2922 30.9915L36.7139 33.8792L29.6803 32.4706Z" fill="#FF9500"/>
<path d="M167.206 -5.83974C168.422 -7.5835 170.395 -8.31243 171.607 -7.46644C172.82 -6.62045 172.817 -4.51777 171.601 -2.774C170.385 -1.03024 168.412 -0.301317 167.199 -1.14731C165.987 -1.9933 165.99 -4.09598 167.206 -5.83974Z" fill="#FF9500"/>
<path d="M188.752 30.3831C191.82 34.1855 195.228 37.9008 195.344 42.4649C195.436 46.0534 193.405 49.1367 191.115 52.1777" stroke="#2AAC7E" stroke-width="0.860676" stroke-linecap="round" stroke-linejoin="round"/>
<path d="M224.649 12.9385C220.397 17.7572 212.923 20.934 211.378 27.1316C210.773 29.5568 211.225 31.9661 212.088 34.3757" stroke="#0D0D80" stroke-width="0.913005" stroke-linecap="round" stroke-linejoin="round"/>
<path d="M130.244 18.2037L122.599 14.4024L124.499 10.5798L132.145 14.3811L130.244 18.2037Z" fill="#FF9500"/>
<path d="M79.4749 54.8115L81.652 51.1394L86.8295 54.2089L84.6523 57.8811L79.4749 54.8115Z" fill="#FF9500"/>
<path d="M241.803 39.6654C240.678 40.2181 238.921 38.9498 237.882 36.835C236.844 34.7202 236.914 32.5544 238.04 32.0016C239.165 31.4489 240.922 32.7171 241.961 34.8319C243 36.9468 242.929 39.1126 241.803 39.6654Z" fill="#FF3B30"/>
<path d="M73.4882 56.379C72.1225 55.6802 71.8849 53.4099 72.958 51.3124C74.0311 49.2149 76.0113 48.0792 77.377 48.7779C78.7428 49.4767 78.9804 51.747 77.9073 53.8445C76.8342 55.942 74.854 57.0777 73.4882 56.379Z" fill="#FF9500"/>
<path d="M154.473 30.7222L156.417 33.0789L149.831 38.5124L147.887 36.1558L154.473 30.7222Z" fill="#FF9500"/>
<path d="M32.9749 15.5276C33.4073 13.2116 34.6986 11.5066 35.8567 11.7228C37.0147 11.9391 37.6038 13.9951 37.1714 16.3111C36.739 18.6272 35.4477 20.3321 34.2897 20.1159C33.1316 19.8997 32.5425 17.8437 32.9749 15.5276Z" fill="#0D0D80"/>
<path d="M281.994 7.29907C283.061 5.19872 284.84 3.95698 285.964 4.52795C287.087 5.09892 287.132 7.26782 286.065 9.36817C284.997 11.4685 283.218 12.7103 282.095 12.1393C280.972 11.5683 280.926 9.39942 281.994 7.29907Z" fill="#FF9500"/>
<path d="M455.672 20.8818L457.585 19.9355L453.8 12.2823L451.887 13.2285L455.672 20.8818Z" fill="#2AAC7E"/>
<path d="M400.179 40.0682C401.305 40.6209 403.062 39.3527 404.1 37.2379C405.139 35.1231 405.068 32.9572 403.943 32.4044C402.817 31.8517 401.06 33.12 400.021 35.2348C398.983 37.3496 399.053 39.5154 400.179 40.0682Z" fill="#FF3B30"/>
<path d="M490.363 39.0479C491.729 38.3492 491.967 36.0788 490.894 33.9813C489.82 31.8838 487.84 30.7481 486.475 31.4469C485.109 32.1456 484.871 34.4159 485.944 36.5135C487.017 38.611 488.998 39.7466 490.363 39.0479Z" fill="#FF9500"/>
<path d="M472.699 22.9999L470 23.5786L471.791 31.9268L474.489 31.3481L472.699 22.9999Z" fill="#0D0D80"/>
<path d="M157.944 9.00005L156 11.3567L162.586 16.7903L164.53 14.4336L157.944 9.00005Z" fill="#FF9500"/>
<path d="M490.107 -1.80345C489.675 -4.1195 488.383 -5.82441 487.225 -5.60821C486.067 -5.392 485.478 -3.336 485.911 -1.01994C486.343 1.29611 487.634 3.00102 488.792 2.78482C489.95 2.56861 490.54 0.51261 490.107 -1.80345Z" fill="#0D0D80"/>
<path d="M343.067 7.30004C341.999 5.1997 340.22 3.95796 339.097 4.52893C337.974 5.0999 337.928 7.2688 338.996 9.36915C340.063 11.4695 341.842 12.7112 342.966 12.1403C344.089 11.5693 344.134 9.40039 343.067 7.30004Z" fill="#FF9500"/>
</g>
</svg>
