<svg width="144" height="74" viewBox="0 0 144 74" fill="none" xmlns="http://www.w3.org/2000/svg">
<g clip-path="url(#clip0_3261_3664)">
<rect width="144" height="74" rx="8" fill="white"/>
<rect x="0.5" y="0.5" width="143" height="73" rx="7.5" fill="white" stroke="#AEAEAE"/>
<g opacity="0.7">
<path d="M135.141 10.3386C137.098 12.717 139.51 14.9657 139.661 17.8623C139.764 19.8117 138.785 21.5342 137.608 23.2244" stroke="#2AAC7E" stroke-width="0.509501" stroke-linecap="round" stroke-linejoin="round"/>
<path d="M126.028 19.8373C125.295 19.026 124.09 18.9178 123.341 19.5958C122.591 20.2737 122.578 21.4828 123.311 22.294C124.045 23.1053 125.249 23.2135 125.999 22.5355C126.749 21.8576 126.762 20.6485 126.028 19.8373Z" fill="#0D0D80"/>
<path d="M104.162 10.4866L102.669 11.6359L100.314 8.57823L101.807 7.42896L104.162 10.4866Z" fill="#FF9500"/>
<path d="M64.9093 12.8631C65.3503 13.836 64.9419 14.9733 63.9981 15.4011C63.0542 15.8288 61.9299 15.3861 61.4889 14.4132C61.048 13.4402 61.4563 12.3029 62.4002 11.8752C63.344 11.4474 64.4684 11.8901 64.9093 12.8631Z" fill="#FF3B30"/>
<path d="M65.252 10.3386C63.2941 12.717 60.883 14.9657 60.7312 17.8623C60.6291 19.8117 61.6079 21.5342 62.7842 23.2244" stroke="#2AAC7E" stroke-width="0.509501" stroke-linecap="round" stroke-linejoin="round"/>
<path d="M43.3689 28.992L44.8977 30.1695L42.5991 33.1538L41.0703 31.9763L43.3689 28.992Z" fill="#0D0D80"/>
<path d="M75.382 4.40516C76.4434 4.14087 77.5034 4.72262 77.7476 5.70342C77.9919 6.68422 77.3284 7.69513 76.2671 7.95942C75.2058 8.22371 74.1458 7.64196 73.9015 6.66116C73.6573 5.68037 74.3207 4.66945 75.382 4.40516Z" fill="#0D0D80"/>
<path d="M15.1998 6.3549C15.9099 5.33688 17.0613 4.91133 17.7694 5.40523C18.4774 5.89912 18.4757 7.12667 17.7656 8.14469C17.0554 9.1627 15.904 9.58825 15.196 9.09436C14.488 8.60047 14.4897 7.37291 15.1998 6.3549Z" fill="#FF9500"/>
<path d="M27.7783 27.502C29.5694 29.7218 31.5592 31.8908 31.627 34.5554C31.6803 36.6504 30.495 38.4504 29.1578 40.2257" stroke="#2AAC7E" stroke-width="0.502466" stroke-linecap="round" stroke-linejoin="round"/>
<path d="M48.7354 17.3176C46.253 20.1308 41.8895 21.9854 40.9874 25.6036C40.6344 27.0195 40.8984 28.426 41.4021 29.8328" stroke="#0D0D80" stroke-width="0.533016" stroke-linecap="round" stroke-linejoin="round"/>
<path d="M58.7498 32.9209C58.0927 33.2436 57.0669 32.5032 56.4606 31.2685C55.8543 30.0339 55.8955 28.7695 56.5526 28.4468C57.2097 28.1241 58.2355 28.8645 58.8418 30.0991C59.4481 31.3338 59.4069 32.5982 58.7498 32.9209Z" fill="#FF3B30"/>
<path d="M7.76581 27.6999L8.90091 29.0758L5.05599 32.2479L3.9209 30.8721L7.76581 27.6999Z" fill="#FF9500"/>
<path d="M82.2132 14.0253C82.8365 12.7991 83.875 12.0742 84.5308 12.4075C85.1866 12.7409 85.2131 14.0071 84.5898 15.2333C83.9666 16.4594 82.9281 17.1844 82.2723 16.851C81.6165 16.5177 81.59 15.2515 82.2132 14.0253Z" fill="#FF9500"/>
<path d="M9.79278 15.0186L8.65769 16.3944L12.5026 19.5665L13.6377 18.1907L9.79278 15.0186Z" fill="#FF9500"/>
<path d="M117.868 14.026C117.245 12.7998 116.206 12.0749 115.55 12.4082C114.894 12.7416 114.868 14.0078 115.491 15.234C116.114 16.4602 117.153 17.1851 117.809 16.8518C118.465 16.5184 118.491 15.2522 117.868 14.026Z" fill="#FF9500"/>
</g>
</g>
<rect x="0.5" y="0.5" width="143" height="73" rx="7.5" stroke="#AEAEAE"/>
<defs>
<clipPath id="clip0_3261_3664">
<rect width="144" height="74" rx="8" fill="white"/>
</clipPath>
</defs>
</svg>
