<svg xmlns="http://www.w3.org/2000/svg" width="32" height="32" viewBox="0 0 32 32" fill="none" xmlns="http://www.w3.org/2000/svg"><path fill-rule="evenodd" clip-rule="evenodd" d="M29.3633 16.3938C29.241 16.1435 29.241 15.8565 29.3633 15.6063L30.4972 13.2868C31.1284 11.9954 30.6283 10.4561 29.3585 9.78236L27.0779 8.57232C26.8319 8.44181 26.6632 8.20954 26.615 7.93529L26.169 5.39235C25.9206 3.97651 24.611 3.02509 23.1879 3.22643L20.6317 3.58802C20.3558 3.62697 20.083 3.53826 19.8828 3.34465L18.0273 1.54964C16.9941 0.550133 15.3756 0.550074 14.3425 1.54964L12.4869 3.34482C12.2867 3.5385 12.0139 3.62703 11.738 3.5882L9.18178 3.22661C7.75828 3.02515 6.44908 3.97668 6.20071 5.39252L5.75469 7.93535C5.70654 8.20966 5.53786 8.44187 5.29187 8.57244L3.0113 9.78248C1.74152 10.4561 1.24136 11.9955 1.87262 13.287L3.00638 15.6064C3.12869 15.8567 3.12869 16.1437 3.00638 16.3939L1.87256 18.7133C1.2413 20.0047 1.74146 21.544 3.01124 22.2177L5.29181 23.4278C5.53786 23.5583 5.70654 23.7905 5.75469 24.0648L6.20071 26.6077C6.42681 27.8966 7.532 28.8006 8.8022 28.8004C8.9273 28.8004 9.05424 28.7916 9.18184 28.7736L11.7381 28.412C12.0138 28.3729 12.2868 28.4618 12.487 28.6554L14.3425 30.4504C14.8592 30.9502 15.5219 31.2 16.1849 31.2C16.8477 31.1999 17.5108 30.9501 18.0272 30.4504L19.8828 28.6554C20.083 28.4618 20.3559 28.3733 20.6317 28.412L23.1879 28.7736C24.6116 28.975 25.9206 28.0235 26.169 26.6077L26.6151 24.0649C26.6632 23.7905 26.8319 23.5583 27.0779 23.4278L29.3585 22.2177C30.6283 21.5441 31.1284 20.0047 30.4972 18.7132L29.3633 16.3938ZM12.6782 8.11003C14.4506 8.11003 15.8926 9.55205 15.8926 11.3245C15.8926 13.0969 14.4506 14.539 12.6782 14.539C10.9057 14.539 9.46369 13.0969 9.46369 11.3245C9.46369 9.55205 10.9057 8.11003 12.6782 8.11003ZM11.019 22.4056C10.8478 22.5768 10.6234 22.6624 10.3991 22.6624C10.1748 22.6624 9.95038 22.5768 9.77926 22.4056C9.43691 22.0632 9.43691 21.5081 9.77926 21.1658L21.3507 9.59439C21.693 9.25203 22.2481 9.25203 22.5905 9.59439C22.9328 9.93674 22.9328 10.4918 22.5905 10.8342L11.019 22.4056ZM19.6914 23.8901C17.919 23.8901 16.477 22.448 16.477 20.6756C16.477 18.9031 17.919 17.4611 19.6914 17.4611C21.4639 17.4611 22.9059 18.9031 22.9059 20.6756C22.9059 22.448 21.4639 23.8901 19.6914 23.8901ZM19.6915 19.2145C18.8858 19.2145 18.2303 19.87 18.2303 20.6756C18.2303 21.4813 18.8858 22.1367 19.6915 22.1367C20.4971 22.1367 21.1525 21.4813 21.1525 20.6756C21.1525 19.87 20.4971 19.2145 19.6915 19.2145ZM11.2171 11.3244C11.2171 10.5188 11.8725 9.86336 12.6782 9.86336C13.4838 9.86336 14.1392 10.5189 14.1393 11.3244C14.1393 12.1302 13.4838 12.7856 12.6782 12.7856C11.8725 12.7856 11.2171 12.1301 11.2171 11.3244Z"/></svg>