<svg xmlns="http://www.w3.org/2000/svg" width="35" height="35" fill="none"><g stroke="#374151" stroke-width="2.235" stroke-linejoin="round"><path d="M29.177 16.971V31.5H6.824V16.971" stroke-linecap="round"/><path d="M31.971 9.985H4.029v6.985h27.941V9.985z"/><path d="M18 9.985h-6.287c-.926 0-1.815-.368-2.47-1.023s-1.023-1.543-1.023-2.47.368-1.815 1.023-2.47S10.787 3 11.713 3C16.603 3 18 9.985 18 9.985z"/><path d="M18 9.985h6.287a3.49 3.49 0 0 0 2.47-1.023c.655-.655 1.023-1.543 1.023-2.47s-.368-1.815-1.023-2.47A3.49 3.49 0 0 0 24.287 3C19.397 3 18 9.985 18 9.985z"/></g><g fill="#374151"><path fill-rule="evenodd" d="M19.118 9.985A1.12 1.12 0 0 0 18 8.868a1.12 1.12 0 0 0-1.118 1.118v8.103h2.235V9.985zm0 20.397h-2.235v.559A1.12 1.12 0 0 0 18 32.059a1.12 1.12 0 0 0 1.118-1.118v-.559z"/><path d="M14.402 28.438c-.197 0-.295-.082-.295-.246 0-.049.016-.094.049-.135l6.073-7.991c.057-.074.115-.131.172-.172.066-.041.156-.061.27-.061h1.279c.197 0 .295.082.295.246 0 .049-.016.094-.049.135l-6.073 7.991a.72.72 0 0 1-.184.172c-.057.041-.143.061-.258.061h-1.279zm6.663.062c-.574 0-1.041-.143-1.402-.43-.352-.295-.549-.689-.59-1.18l-.025-.578.025-.615c.033-.5.221-.893.566-1.18.352-.295.828-.443 1.426-.443.607 0 1.082.148 1.426.443.344.287.533.68.566 1.18l.025.615-.025.578c-.033.492-.229.885-.59 1.18-.361.287-.828.43-1.402.43zm0-1.328c.074 0 .131-.016.172-.049s.074-.078.098-.135.037-.119.037-.184a5.19 5.19 0 0 0 .025-.516l-.025-.504c-.008-.106-.037-.193-.086-.258-.041-.074-.115-.111-.221-.111s-.184.037-.234.111c-.041.066-.066.152-.074.258l-.012.504.012.516a1.22 1.22 0 0 0 .037.184.34.34 0 0 0 .098.135c.049.033.107.049.172.049zm-5.729-2.975c-.574 0-1.041-.143-1.402-.43-.353-.295-.549-.689-.59-1.18l-.025-.578.025-.615c.033-.5.221-.893.566-1.18.352-.295.828-.443 1.426-.443.606 0 1.082.147 1.426.443.344.287.533.68.566 1.18l.025.615-.025.578c-.033.492-.23.885-.59 1.18-.361.287-.828.43-1.402.43zm0-1.328c.074 0 .131-.016.172-.049a.34.34 0 0 0 .098-.135c.024-.057.037-.119.037-.184a5.19 5.19 0 0 0 .025-.516l-.025-.504c-.008-.107-.037-.193-.086-.258-.041-.074-.115-.111-.221-.111s-.184.037-.234.111c-.041.066-.066.152-.074.258l-.012.504.012.516c.008.066.021.127.037.184a.34.34 0 0 0 .098.135c.049.033.107.049.172.049z"/></g></svg>