<svg width="531" height="94" viewBox="0 0 531 94" fill="none" xmlns="http://www.w3.org/2000/svg">
<circle opacity="0.1" cx="475.5" cy="25.5" r="4.5" fill="#656BE8"/>
<path opacity="0.05" d="M232 0C232 11.0457 223.046 20 212 20C200.954 20 192 11.0457 192 0C192 -11.0457 200.954 -20 212 -20C223.046 -20 232 -11.0457 232 0ZM197.778 0C197.778 7.85456 204.145 14.2219 212 14.2219C219.855 14.2219 226.222 7.85456 226.222 0C226.222 -7.85456 219.855 -14.2219 212 -14.2219C204.145 -14.2219 197.778 -7.85456 197.778 0Z" fill="black"/>
<g opacity="0.05" clip-path="url(#clip0_3261_3842)">
<path d="M49.2659 35.457L53.1943 36.85L45.3004 59.111L41.372 57.718L49.2659 35.457ZM21.0937 37.997L56.5701 21.0945C59.0313 19.9219 61.9449 20.9551 63.1175 23.4163L67.3431 32.2854C66.167 32.8457 65.2616 33.8503 64.8262 35.0782C64.3908 36.3061 64.461 37.6566 65.0214 38.8327C65.5817 40.0088 66.5863 40.9142 67.8142 41.3496C69.0421 41.785 70.3926 41.7148 71.5687 41.1545L75.7944 50.0236C76.967 52.4847 75.9338 55.3983 73.4726 56.5709L37.9962 73.4734C36.8201 74.0338 35.4696 74.104 34.2417 73.6686C33.0138 73.2332 32.0092 72.3278 31.4489 71.1517L27.2232 62.2826C29.6844 61.11 30.7176 58.1964 29.545 55.7352C28.9846 54.5591 27.98 53.6538 26.7521 53.2184C25.5243 52.783 24.1737 52.8532 22.9976 53.4135L18.772 44.5444C18.2116 43.3683 18.1414 42.0178 18.5769 40.7899C19.0123 39.562 19.9176 38.5574 21.0937 37.997ZM23.2065 42.4316L25.8898 48.0635C27.6074 48.1984 29.2591 48.7834 30.6788 49.7594C32.0985 50.7355 33.2361 52.0683 33.9771 53.6236C34.7181 55.1789 35.0365 56.902 34.9001 58.6194C34.7637 60.3369 34.1774 61.9881 33.2001 63.407L35.8834 69.0389L71.3598 52.1364L68.6765 46.5045C66.959 46.3695 65.3073 45.7846 63.8876 44.8085C62.4679 43.8325 61.3303 42.4997 60.5893 40.9444C59.8482 39.389 59.5299 37.666 59.6663 35.9485C59.8027 34.2311 60.389 32.5799 61.3662 31.161L58.6829 25.5291L23.2065 42.4316ZM37.5144 41.0559C39.3547 40.1791 41.5481 40.9569 42.4249 42.7972C43.3017 44.6375 42.5239 46.8309 40.6836 47.7077C38.8432 48.5845 36.6499 47.8068 35.7731 45.9664C34.8962 44.1261 35.674 41.9327 37.5144 41.0559ZM53.8828 46.8602C55.7231 45.9834 57.9165 46.7612 58.7933 48.6015C59.6701 50.4419 58.8923 52.6352 57.052 53.5121C55.2116 54.3889 53.0183 53.6111 52.1415 51.7708C51.2646 49.9304 52.0424 47.7371 53.8828 46.8602Z" fill="black"/>
</g>
<g opacity="0.05">
<path d="M505.228 49.9999L507.528 46.0249C507.804 45.5467 507.879 44.9782 507.737 44.4446C507.594 43.9109 507.245 43.4557 506.767 43.1791L502.788 40.8791V36.2958C502.788 35.7432 502.569 35.2133 502.178 34.8226C501.787 34.4319 501.257 34.2124 500.705 34.2124H496.124L493.826 30.2353C493.548 29.7581 493.094 29.4093 492.561 29.2645C492.297 29.1929 492.021 29.1744 491.75 29.2102C491.478 29.2459 491.217 29.3352 490.98 29.4728L487.001 31.7728L483.022 29.4708C482.543 29.1945 481.974 29.1196 481.441 29.2626C480.907 29.4056 480.452 29.7548 480.176 30.2333L477.876 34.2124H473.294C472.742 34.2124 472.212 34.4319 471.821 34.8226C471.431 35.2133 471.211 35.7432 471.211 36.2958V40.877L467.232 43.177C466.995 43.3136 466.786 43.4957 466.62 43.713C466.453 43.9302 466.33 44.1783 466.26 44.4429C466.189 44.7076 466.171 44.9836 466.208 45.2551C466.244 45.5265 466.334 45.7882 466.472 46.0249L468.772 49.9999L466.472 53.9749C466.196 54.4536 466.122 55.0216 466.264 55.5551C466.406 56.0886 466.753 56.5443 467.23 56.8228L471.209 59.1228V63.7041C471.209 64.2566 471.429 64.7865 471.819 65.1772C472.21 65.5679 472.74 65.7874 473.292 65.7874H477.876L480.176 69.7666C480.36 70.0819 480.623 70.3437 480.94 70.5264C481.256 70.709 481.615 70.8062 481.98 70.8083C482.342 70.8083 482.703 70.7124 483.024 70.527L486.999 68.227L490.978 70.527C491.456 70.8029 492.024 70.8777 492.558 70.7352C493.091 70.5926 493.547 70.2443 493.824 69.7666L496.122 65.7874H500.703C501.255 65.7874 501.785 65.5679 502.176 65.1772C502.567 64.7865 502.786 64.2566 502.786 63.7041V59.1228L506.765 56.8228C507.002 56.6859 507.21 56.5035 507.377 56.2862C507.543 56.0689 507.665 55.821 507.736 55.5565C507.806 55.292 507.824 55.0162 507.788 54.7448C507.752 54.4734 507.663 54.2118 507.526 53.9749L505.228 49.9999ZM481.79 39.5624C482.619 39.5627 483.414 39.8923 484 40.4788C484.586 41.0652 484.916 41.8604 484.915 42.6895C484.915 43.5186 484.585 44.3136 483.999 44.8997C483.412 45.4857 482.617 45.8148 481.788 45.8145C480.959 45.8142 480.164 45.4846 479.578 44.8982C478.992 44.3117 478.663 43.5165 478.663 42.6874C478.663 41.8583 478.993 41.0633 479.58 40.4773C480.166 39.8912 480.961 39.5622 481.79 39.5624ZM482.415 59.5624L479.082 57.0645L491.582 40.3978L494.915 42.8958L482.415 59.5624ZM492.207 60.3958C491.796 60.3956 491.39 60.3146 491.011 60.1574C490.632 60.0002 490.287 59.7698 489.997 59.4794C489.707 59.1891 489.476 58.8444 489.319 58.465C489.163 58.0857 489.082 57.6792 489.082 57.2687C489.082 56.8582 489.163 56.4517 489.32 56.0725C489.478 55.6933 489.708 55.3487 489.998 55.0585C490.289 54.7684 490.633 54.5382 491.013 54.3812C491.392 54.2243 491.799 54.1435 492.209 54.1437C493.038 54.144 493.833 54.4736 494.419 55.06C495.005 55.6465 495.334 56.4417 495.334 57.2708C495.334 58.0998 495.004 58.8948 494.418 59.4809C493.831 60.067 493.036 60.396 492.207 60.3958Z" fill="black"/>
</g>
<defs>
<clipPath id="clip0_3261_3842">
<rect width="58.9458" height="58.9458" fill="white" transform="translate(8 33.3538) rotate(-25.4752)"/>
</clipPath>
</defs>
</svg>
