<svg width="144" height="74" viewBox="0 0 144 74" fill="none" xmlns="http://www.w3.org/2000/svg">
<rect x="0.5" y="0.5" width="143" height="73" rx="7.5" fill="white"/>
<g clip-path="url(#clip0_3261_3781)">
<circle opacity="0.1" cx="122.936" cy="13.5844" r="2.31222" fill="#656BE8"/>
<path opacity="0.05" d="M119.207 0.481861C119.207 6.15744 114.606 10.7584 108.931 10.7584C103.255 10.7584 98.6543 6.15744 98.6543 0.481861C98.6543 -5.19371 103.255 -9.79468 108.931 -9.79468C114.606 -9.79468 119.207 -5.19371 119.207 0.481861ZM101.623 0.481861C101.623 4.51775 104.895 7.78948 108.931 7.78948C112.967 7.78948 116.238 4.51775 116.238 0.481861C116.238 -3.55403 112.967 -6.82576 108.931 -6.82576C104.895 -6.82576 101.623 -3.55403 101.623 0.481861Z" fill="black"/>
<path opacity="0.05" d="M10.5531 5.27654C10.5531 8.19069 8.19069 10.5531 5.27654 10.5531C2.36239 10.5531 0 8.19069 0 5.27654C0 2.36239 2.36239 0 5.27654 0C8.19069 0 10.5531 2.36239 10.5531 5.27654ZM1.52441 5.27654C1.52441 7.34878 3.20429 9.02867 5.27654 9.02867C7.34878 9.02867 9.02867 7.34878 9.02867 5.27654C9.02867 3.20429 7.34878 1.52441 5.27654 1.52441C3.20429 1.52441 1.52441 3.20429 1.52441 5.27654Z" fill="black"/>
<g opacity="0.05" clip-path="url(#clip1_3261_3781)">
<path d="M25.3138 18.7008L27.3323 19.4165L23.2762 30.8549L21.2577 30.1391L25.3138 18.7008ZM10.8382 20.0059L29.0669 11.321C30.3315 10.7184 31.8286 11.2493 32.4311 12.5139L34.6023 17.0711C33.998 17.359 33.5328 17.8752 33.3091 18.5062C33.0854 19.1371 33.1214 19.831 33.4094 20.4353C33.6973 21.0396 34.2135 21.5048 34.8444 21.7286C35.4753 21.9523 36.1693 21.9162 36.7736 21.6283L38.9448 26.1855C39.5473 27.4501 39.0165 28.9472 37.7518 29.5497L19.5231 38.2347C18.9188 38.5226 18.2249 38.5586 17.5939 38.3349C16.963 38.1112 16.4468 37.646 16.1589 37.0417L13.9877 32.4845C15.2523 31.882 15.7832 30.3849 15.1806 29.1203C14.8927 28.516 14.3765 28.0508 13.7456 27.8271C13.1147 27.6033 12.4208 27.6394 11.8164 27.9273L9.64519 23.3701C9.35727 22.7658 9.3212 22.0719 9.54492 21.441C9.76865 20.8101 10.2338 20.2939 10.8382 20.0059ZM11.9238 22.2845L13.3025 25.1783C14.185 25.2477 15.0337 25.5482 15.7632 26.0498C16.4927 26.5513 17.0772 27.2361 17.458 28.0353C17.8387 28.8344 18.0023 29.7198 17.9322 30.6023C17.8621 31.4847 17.5609 32.3332 17.0588 33.0623L18.4375 35.9561L36.6662 27.2711L35.2875 24.3773C34.405 24.3079 33.5563 24.0074 32.8268 23.5059C32.0973 23.0043 31.5128 22.3195 31.132 21.5204C30.7513 20.7212 30.5877 19.8358 30.6578 18.9533C30.7279 18.0709 31.0291 17.2224 31.5312 16.4934L30.1525 13.5996L11.9238 22.2845ZM19.2755 21.5777C20.2211 21.1271 21.3482 21.5268 21.7987 22.4724C22.2492 23.418 21.8496 24.545 20.904 24.9955C19.9583 25.4461 18.8313 25.0464 18.3808 24.1008C17.9303 23.1552 18.3299 22.0282 19.2755 21.5777ZM27.6861 24.5601C28.6317 24.1095 29.7587 24.5092 30.2092 25.4548C30.6597 26.4004 30.2601 27.5274 29.3145 27.978C28.3689 28.4285 27.2419 28.0289 26.7913 27.0832C26.3408 26.1376 26.7404 25.0106 27.6861 24.5601Z" fill="black"/>
</g>
<g opacity="0.05">
<path d="M138.211 26.1731L139.393 24.1306C139.535 23.8849 139.574 23.5928 139.5 23.3186C139.427 23.0444 139.248 22.8105 139.002 22.6683L136.958 21.4865V19.1315C136.958 18.8476 136.845 18.5753 136.644 18.3745C136.443 18.1738 136.171 18.061 135.887 18.061H133.533L132.353 16.0175C132.21 15.7723 131.977 15.593 131.703 15.5186C131.567 15.4818 131.425 15.4723 131.286 15.4907C131.146 15.5091 131.012 15.555 130.89 15.6257L128.846 16.8075L126.801 15.6246C126.555 15.4827 126.263 15.4442 125.989 15.5177C125.715 15.5912 125.481 15.7705 125.339 16.0164L124.157 18.061H121.803C121.519 18.061 121.247 18.1738 121.046 18.3745C120.845 18.5753 120.733 18.8476 120.733 19.1315V21.4855L118.688 22.6673C118.566 22.7374 118.459 22.831 118.373 22.9426C118.288 23.0543 118.225 23.1817 118.189 23.3177C118.152 23.4537 118.143 23.5955 118.162 23.735C118.18 23.8745 118.226 24.0089 118.297 24.1306L119.479 26.1731L118.297 28.2155C118.156 28.4615 118.118 28.7533 118.191 29.0275C118.264 29.3016 118.442 29.5357 118.687 29.6789L120.732 30.8607V33.2146C120.732 33.4985 120.844 33.7708 121.045 33.9716C121.246 34.1723 121.518 34.2851 121.802 34.2851H124.157L125.339 36.3297C125.434 36.4917 125.569 36.6262 125.731 36.7201C125.894 36.8139 126.078 36.8639 126.266 36.8649C126.452 36.8649 126.637 36.8157 126.802 36.7204L128.845 35.5386L130.889 36.7204C131.135 36.8622 131.427 36.9006 131.701 36.8274C131.975 36.7541 132.209 36.5752 132.352 36.3297L133.532 34.2851H135.886C136.17 34.2851 136.442 34.1723 136.643 33.9716C136.844 33.7708 136.957 33.4985 136.957 33.2146V30.8607L139.001 29.6789C139.123 29.6085 139.23 29.5148 139.315 29.4031C139.401 29.2915 139.464 29.1641 139.5 29.0282C139.536 28.8923 139.545 28.7505 139.527 28.6111C139.508 28.4717 139.463 28.3372 139.392 28.2155L138.211 26.1731ZM126.168 20.81C126.594 20.8101 127.003 20.9795 127.304 21.2808C127.605 21.5822 127.774 21.9908 127.774 22.4168C127.774 22.8428 127.605 23.2513 127.303 23.5524C127.002 23.8535 126.593 24.0226 126.167 24.0225C125.741 24.0223 125.333 23.853 125.032 23.5516C124.731 23.2503 124.562 22.8417 124.562 22.4157C124.562 21.9897 124.731 21.5812 125.033 21.2801C125.334 20.9789 125.742 20.8098 126.168 20.81ZM126.49 31.0865L124.777 29.803L131.2 21.2392L132.912 22.5227L126.49 31.0865ZM131.521 31.5147C131.31 31.5146 131.101 31.473 130.906 31.3922C130.711 31.3115 130.534 31.1931 130.385 31.0439C130.236 30.8947 130.118 30.7176 130.037 30.5227C129.957 30.3278 129.915 30.1189 129.915 29.9079C129.915 29.697 129.957 29.4881 130.038 29.2933C130.118 29.0984 130.237 28.9214 130.386 28.7723C130.535 28.6232 130.712 28.5049 130.907 28.4243C131.102 28.3436 131.311 28.3022 131.522 28.3022C131.948 28.3024 132.356 28.4717 132.658 28.7731C132.959 29.0744 133.128 29.483 133.128 29.909C133.127 30.335 132.958 30.7435 132.657 31.0446C132.355 31.3458 131.947 31.5149 131.521 31.5147Z" fill="black"/>
</g>
</g>
<rect x="0.5" y="0.5" width="143" height="73" rx="7.5" stroke="#AEAEAE"/>
<defs>
<clipPath id="clip0_3261_3781">
<rect width="144" height="49.2632" fill="white"/>
</clipPath>
<clipPath id="clip1_3261_3781">
<rect width="30.2879" height="30.2879" fill="white" transform="translate(4.11133 17.6199) rotate(-25.4752)"/>
</clipPath>
</defs>
</svg>
