<svg width="398" height="28" viewBox="0 0 398 28" fill="none" xmlns="http://www.w3.org/2000/svg">
<path opacity="0.05" d="M398 29C398 40.0457 389.046 49 378 49C366.954 49 358 40.0457 358 29C358 17.9543 366.954 9 378 9C389.046 9 398 17.9543 398 29ZM363.778 29C363.778 36.8546 370.145 43.2219 378 43.2219C385.855 43.2219 392.222 36.8546 392.222 29C392.222 21.1454 385.855 14.7781 378 14.7781C370.145 14.7781 363.778 21.1454 363.778 29Z" fill="black"/>
<g opacity="0.05">
<path d="M43.2278 24.9999L45.5278 21.0249C45.8042 20.5467 45.8794 19.9782 45.7368 19.4446C45.5942 18.9109 45.2455 18.4557 44.7674 18.1791L40.7882 15.8791V11.2958C40.7882 10.7432 40.5687 10.2133 40.178 9.82262C39.7873 9.43192 39.2574 9.21243 38.7049 9.21243H34.1236L31.8257 5.23534C31.5482 4.75809 31.0939 4.40931 30.5611 4.26451C30.2969 4.19288 30.021 4.17441 29.7496 4.21017C29.4782 4.24593 29.2165 4.33521 28.9799 4.47284L25.0007 6.77284L21.0215 4.47076C20.543 4.1945 19.9744 4.11964 19.4407 4.26264C18.907 4.40563 18.452 4.75477 18.1757 5.23326L15.8757 9.21243H11.2944C10.7419 9.21243 10.212 9.43192 9.8213 9.82262C9.43059 10.2133 9.2111 10.7432 9.2111 11.2958V15.877L5.23193 18.177C4.9945 18.3136 4.78639 18.4957 4.61957 18.713C4.45274 18.9302 4.33049 19.1783 4.25983 19.4429C4.18917 19.7076 4.17149 19.9836 4.20782 20.2551C4.24415 20.5265 4.33376 20.7882 4.47152 21.0249L6.77152 24.9999L4.47152 28.9749C4.19649 29.4536 4.12187 30.0216 4.26393 30.5551C4.40599 31.0886 4.75319 31.5443 5.22985 31.8228L9.20902 34.1228V38.7041C9.20902 39.2566 9.42851 39.7865 9.81921 40.1772C10.2099 40.5679 10.7398 40.7874 11.2924 40.7874H15.8757L18.1757 44.7666C18.3601 45.0819 18.6235 45.3437 18.9398 45.5264C19.2561 45.709 19.6146 45.8062 19.9799 45.8083C20.3424 45.8083 20.7028 45.7124 21.0236 45.527L24.9986 43.227L28.9778 45.527C29.4561 45.8029 30.0244 45.8777 30.5579 45.7352C31.0914 45.5926 31.5466 45.2443 31.8236 44.7666L34.1215 40.7874H38.7028C39.2553 40.7874 39.7852 40.5679 40.1759 40.1772C40.5666 39.7865 40.7861 39.2566 40.7861 38.7041V34.1228L44.7653 31.8228C45.0023 31.6859 45.21 31.5035 45.3765 31.2862C45.543 31.0689 45.6651 30.821 45.7357 30.5565C45.8063 30.292 45.8241 30.0162 45.7881 29.7448C45.7521 29.4734 45.6629 29.2118 45.5257 28.9749L43.2278 24.9999ZM19.7903 14.5624C20.6193 14.5627 21.4144 14.8923 22.0004 15.4788C22.5865 16.0652 22.9155 16.8604 22.9153 17.6895C22.915 18.5186 22.5854 19.3136 21.9989 19.8997C21.4125 20.4857 20.6173 20.8148 19.7882 20.8145C18.9591 20.8142 18.1641 20.4846 17.578 19.8982C16.992 19.3117 16.6629 18.5165 16.6632 17.6874C16.6635 16.8583 16.9931 16.0633 17.5795 15.4773C18.166 14.8912 18.9612 14.5622 19.7903 14.5624ZM20.4153 34.5624L17.0819 32.0645L29.5819 15.3978L32.9153 17.8958L20.4153 34.5624ZM30.2069 35.3958C29.7964 35.3956 29.3899 35.3146 29.0107 35.1574C28.6315 35.0002 28.287 34.7698 27.9968 34.4794C27.7066 34.1891 27.4765 33.8444 27.3195 33.465C27.1625 33.0857 27.0818 32.6792 27.0819 32.2687C27.0821 31.8582 27.1631 31.4517 27.3203 31.0725C27.4775 30.6933 27.7079 30.3487 27.9983 30.0585C28.2886 29.7684 28.6333 29.5382 29.0127 29.3812C29.392 29.2243 29.7985 29.1435 30.209 29.1437C31.0381 29.144 31.8331 29.4736 32.4192 30.06C33.0052 30.6465 33.3343 31.4417 33.334 32.2708C33.3337 33.0998 33.0041 33.8948 32.4177 34.4809C31.8312 35.067 31.036 35.396 30.2069 35.3958Z" fill="black"/>
</g>
</svg>
