<svg xmlns="http://www.w3.org/2000/svg" width="160" height="160"><style><![CDATA[.B{fill:#0c2b34}.C{fill:#335863}.D{fill:#de5757}.E{fill:#a6b6bb}.F{fill:#fff}.G{fill:#fccbb6}.H{fill:#cc5749}.I{fill:#d88875}.J{fill:#f8a891}.K{fill:#e5e5e4}.L{fill:#a8abab}.M{fill:#915a53}.N{fill:#f9b299}.O{fill:#f9bab8}.P{fill:#d7d9d9}.Q{fill:#f79570}]]></style><defs><clipPath id="A"><path transform="translate(272 24)" d="M0 0h160v160H0z" class="F"/></clipPath></defs><g transform="translate(-272 -24)" clip-path="url(#A)"><path d="M281.464 144.032s-2.163.876.332 5.469a60.514 60.514 0 0 0 4.2 6.854s.449 1.069-.456 1.26-2.916-.075-3.293 1.048c-.39 1.165.477 2.233 2.2 3.144l5.764 3.24c.333.195.666.685.07.914s-5.088.816-4.682 2.931 5.628 3.864 6.2 4.066.708.437.67.746-1.566.365-2.837.584-2.706.7-2.37 1.9 3.467 3.66 10.926 4.2l3.473.022 1.812-2.981c3.49-6.614 3.058-10.571 2.217-11.492s-2.005.045-2.864 1.008-1.713 2.231-1.995 2.1-.407-.375-.279-.963 1.406-5.945-.175-7.408-4.454 2.039-4.963 2.424-.751-.164-.74-.543.16-4.66.3-6.606-.309-3.246-1.5-3.531c-1.152-.274-1.989 1.574-2.63 2.241s-1.311-.28-1.311-.28a60.5 60.5 0 0 0-3.6-7.189c-2.578-4.547-4.507-3.13-4.507-3.13z" class="K"/><g class="P"><path d="M301.885 181.207l-7.932-14.49-7.221-13.144-2.21-3.972-.6-1.08-.154-.283-.049-.1a1.68 1.68 0 0 0 .058.092l.164.278.618 1.07 2.24 3.955 7.248 13.129 7.9 14.505"/><path d="M285.047 159.157a1.283 1.283 0 0 1 .244.062l.65.21 2.117.776 2.1.82.637.245a1.139 1.139 0 0 1 .231.1 1.125 1.125 0 0 1-.245-.059l-.649-.213-2.111-.791-2.1-.806-.639-.242a1.037 1.037 0 0 1-.235-.102zm6.173 1.97c-.028-.009.469-1.578 1.111-3.5l1.214-3.469c.028.009-.469 1.578-1.111 3.5l-1.214 3.469zm3.98 8.053a1.117 1.117 0 0 1 .135-.218l.4-.573 1.271-1.914 1.185-1.968.348-.6a1.093 1.093 0 0 1 .139-.215 1.222 1.222 0 0 1-.1.235l-.318.621-1.161 1.989-1.3 1.9-.425.554a1.216 1.216 0 0 1-.174.189z"/><path d="M289.188 168.694a.966.966 0 0 1 .237 0l.643.035 2.12.153 2.117.186.641.068a1.07 1.07 0 0 1 .234.04 1.018 1.018 0 0 1-.237 0l-.644-.034-2.12-.154-2.117-.185-.641-.069a1.008 1.008 0 0 1-.233-.04zm2.578 7.577a1.684 1.684 0 0 1 .3 0l.825.041 2.718.175 2.717.208.822.075a1.706 1.706 0 0 1 .3.042 1.586 1.586 0 0 1-.3 0l-.825-.041-2.718-.176-2.717-.207-.822-.075a1.554 1.554 0 0 1-.3-.042z"/><path d="M299.266 176.713a1.836 1.836 0 0 1 .165-.28l.476-.745 1.534-2.479 1.449-2.532.427-.774a1.892 1.892 0 0 1 .168-.278 1.815 1.815 0 0 1-.13.3l-.4.79-1.423 2.551-1.563 2.466-.506.726a1.914 1.914 0 0 1-.197.255z"/></g><path d="M348.719,51.6a15.568,15.568,0,1,0,15.567-15.568A15.567,15.567,0,0,0,348.719,51.6Z" class="K"/><g fill="#f0f0f0"><path d="M353.592 51.567a10.74 10.74 0 1 0 10.74-10.74 10.752 10.752 0 0 0-10.74 10.74zm-2.217 0a12.957 12.957 0 1 1 12.957 12.957 12.971 12.971 0 0 1-12.957-12.957zm10.498-.373a2.555 2.555 0 1 0 2.555-2.555 2.557 2.557 0 0 0-2.555 2.555zm-2.217 0a4.772 4.772 0 1 1 4.772 4.772 4.777 4.777 0 0 1-4.772-4.772z"/></g><g class="P"><path d="M364.422 51.188h6.032l-1.054 1.86 14.2 6.507-.478.8-14.245-6.431-.977 1.848z"/><path d="M383.576 59.575l.151-.147a2.885 2.885 0 0 1 2.819-.7l5.663 1.648-3.154 1.386 1.267 3.369-5.313-1.895a2.886 2.886 0 0 1-1.912-2.86zm-91.24 25.172a3.867 3.867 0 1 0 5.467-.1 3.866 3.866 0 0 0-5.467.1zm-1.921-4.8a8.827 8.827 0 0 1 2.155-.937l.444-2.133 3.6-.063.518 2.116a8.824 8.824 0 0 1 2.187.86l1.822-1.194 2.593 2.5-1.129 1.862a8.847 8.847 0 0 1 .937 2.156l2.132.444.064 3.6-2.116.519a8.815 8.815 0 0 1-.861 2.187l1.194 1.822-2.5 2.593-1.863-1.129a8.816 8.816 0 0 1-2.155.937l-.444 2.133-3.6.063-.519-2.116a8.833 8.833 0 0 1-2.186-.86l-1.822 1.194L286.269 94l1.13-1.862a8.8 8.8 0 0 1-.937-2.155l-2.133-.444-.063-3.6 2.116-.519a8.847 8.847 0 0 1 .86-2.186l-1.194-1.822 2.5-2.593z"/></g><g class="K"><path d="M285.112 103.593a2.315 2.315 0 1 0 3.273-.057 2.316 2.316 0 0 0-3.273.057zm-1.15-2.874a5.293 5.293 0 0 1 1.29-.56l.266-1.277 2.157-.038.311 1.266a5.346 5.346 0 0 1 1.309.515l1.09-.714 1.552 1.5-.675 1.115a5.3 5.3 0 0 1 .56 1.291l1.277.265.038 2.158-1.267.31a5.267 5.267 0 0 1-.515 1.309l.715 1.091-1.5 1.552-1.114-.676a5.265 5.265 0 0 1-1.291.561l-.265 1.277-2.158.038-.311-1.267a5.337 5.337 0 0 1-1.309-.515l-1.09.714-1.552-1.5.676-1.115a5.257 5.257 0 0 1-.561-1.29l-1.277-.266-.038-2.157 1.267-.311a5.267 5.267 0 0 1 .515-1.309l-.715-1.09 1.5-1.553z"/><path d="M285.112 103.577a1.736 1.736 0 0 1 .431-.378 2.3 2.3 0 0 1 1.51-.357 2.335 2.335 0 0 1 1.027.364 2.372 2.372 0 0 1 .83.936 2.235 2.235 0 0 1 .21.649 2.21 2.21 0 0 1 .013.713 2.361 2.361 0 0 1-1.954 2.024 2.248 2.248 0 0 1-.713.012 2.215 2.215 0 0 1-.656-.188 2.374 2.374 0 0 1-.964-.8 2.341 2.341 0 0 1-.1-2.535 1.759 1.759 0 0 1 .363-.444c.013.011-.14.152-.318.469a2.312 2.312 0 0 0-.256 1.482 2.266 2.266 0 0 0 1.321 1.713 2.13 2.13 0 0 0 .624.173 2.093 2.093 0 0 0 .674-.014 2.243 2.243 0 0 0 1.846-1.91 2.085 2.085 0 0 0-.009-.674 2.129 2.129 0 0 0-.2-.617 2.262 2.262 0 0 0-1.757-1.26 2.307 2.307 0 0 0-1.473.307c-.302.19-.438.347-.449.335zm-1.102-2.896a.5.5 0 0 1-.072-.038l-.214-.123-.84-.5h.026l-1.49 1.561v-.042l.719 1.087.013.02-.011.021a5.3 5.3 0 0 0-.507 1.3l-.006.026-.026.006-1.266.314.036-.046.043 2.157-.041-.05 1.277.263.032.006.009.033a5.273 5.273 0 0 0 .557 1.275l.019.03-.019.03-.674 1.115-.009-.073 1.554 1.5-.077-.007 1.09-.716.032-.021.033.018a5.2 5.2 0 0 0 1.294.508l.037.01.01.037.311 1.267-.064-.05 2.157-.039-.063.053.265-1.277.008-.039.039-.011a5.231 5.231 0 0 0 1.273-.553h0l.035-.02.034.02 1.114.676-.082.011 1.5-1.552-.008.081q-.361-.55-.714-1.09l-.022-.033.019-.035a5.228 5.228 0 0 0 .51-1.292l.009-.038.038-.009 1.267-.31-.049.063q-.018-1.105-.035-2.158l.049.059-1.277-.267-.036-.008-.009-.034a5.2 5.2 0 0 0-.553-1.277l-.018-.03.018-.03.678-1.113.009.068-1.549-1.5.063.006-1.092.712-.024.016-.026-.014a5.227 5.227 0 0 0-1.3-.514l-.026-.007-.006-.025-.306-1.268.039.03-2.158.028.029-.024-.274 1.275v.012h-.012a5.366 5.366 0 0 0-.987.38l-.232.121a.434.434 0 0 1-.077.039.507.507 0 0 1 .072-.049l.227-.131a5.135 5.135 0 0 1 .985-.4l-.015.016.258-1.278v-.023h.024l2.157-.047h.031l.008.031.315 1.266-.032-.032a5.314 5.314 0 0 1 1.322.516h-.05l1.089-.717.034-.022.029.029 1.555 1.5.032.03-.023.038-.674 1.116v-.06a5.315 5.315 0 0 1 .569 1.3l-.045-.042 1.277.264.048.01v.049q.02 1.053.04 2.157v.051l-.049.012-1.266.311.046-.047a5.36 5.36 0 0 1-.52 1.326v-.068l.715 1.09.028.044-.036.038-1.5 1.553-.037.038-.045-.028-1.115-.675h.068a5.38 5.38 0 0 1-1.306.566l.047-.05-.266 1.277-.011.051h-.053l-2.157.038h-.052l-.012-.05-.31-1.267.047.047a5.361 5.361 0 0 1-1.324-.522h.065l-1.091.714-.041.027-.036-.034-1.55-1.5-.034-.033.024-.04.678-1.114v.059a5.353 5.353 0 0 1-.565-1.3l.042.038-1.277-.268-.04-.009v-.041l-.033-2.158v-.038l.037-.009 1.267-.306-.031.031a5.3 5.3 0 0 1 .523-1.317v.04l-.71-1.093-.015-.023.019-.019 1.508-1.544.012-.012.014.009.821.511.211.134a.643.643 0 0 1 .083.038z"/></g><g fill="#f0f0f0"><path d="M406.844,96.412l.044-5.693,5.491,1.329Z"/><path d="M418.495,102.788l-2.521,1.988-8.036-10.2,2.521-1.987Z"/></g><g class="K"><path d="M399.656,110.3l.771-11.531,10.968,3.352Z"/><path d="M422.489,124.762l-5.347,3.725-15.064-21.621,5.346-3.725Z"/></g><path d="M427.593 180.575c0 .05-33.906.09-75.723.09s-75.729-.04-75.729-.09 33.9-.091 75.729-.091l75.723.091z" class="B"/><g class="C"><path d="M390.271 165.566a2.846 2.846 0 0 1 1.61 1.541 5.025 5.025 0 0 1 .386 2.239 8.861 8.861 0 0 1-1.546 4.27 6.01 6.01 0 0 1-1.931-3.778c-.261-1.507.183-4.39 1.481-4.272zm2.067 10.334a2.428 2.428 0 0 1 .588-2.366 3.219 3.219 0 0 1 2.307-.941 1.358 1.358 0 0 1 1.08.379 1.04 1.04 0 0 1 .105 1.048 2.11 2.11 0 0 1-.712.83 4.178 4.178 0 0 1-3.368 1.05z"/></g><g class="B"><path d="M391.143 180.506a1.851 1.851 0 0 1 .019-.3l.08-.826a8.533 8.533 0 0 1 .62-2.667 5.208 5.208 0 0 1 1.7-2.138 3.507 3.507 0 0 1 .731-.4 1.931 1.931 0 0 1 .214-.074c.05-.015.077-.022.078-.018a5.47 5.47 0 0 0-.979.553 5.394 5.394 0 0 0-1.643 2.121 9.19 9.19 0 0 0-.641 2.632l-.115.822a1.535 1.535 0 0 1-.064.295z"/><path d="M390.127 167.75a.635.635 0 0 1 .026.13l.054.375.174 1.384.447 4.579.288 4.593.049 1.393.007.38a.562.562 0 0 1-.006.132.691.691 0 0 1-.016-.131l-.026-.379-.084-1.391-.319-4.588-.416-4.58-.139-1.387-.034-.378a.571.571 0 0 1-.005-.132z"/></g><path d="M390.281,176.933a5.681,5.681,0,0,0-3.441-3.885,1.2,1.2,0,0,0-1.29.089,1.176,1.176,0,0,0,.011,1.292,4.856,4.856,0,0,0,4.7,2.628" class="C"/><path d="M387.156 174.47a1.337 1.337 0 0 1 .271.092 2.684 2.684 0 0 1 .31.132l.4.2a4.958 4.958 0 0 1 .457.288 5.548 5.548 0 0 1 .494.377 6.318 6.318 0 0 1 .965 1.045 6.207 6.207 0 0 1 .683 1.248 5.407 5.407 0 0 1 .2.59 4.417 4.417 0 0 1 .119.527 3.975 3.975 0 0 1 .058.443 2.356 2.356 0 0 1 .019.335 1.381 1.381 0 0 1-.008.286c-.024 0-.017-.408-.143-1.049a4.834 4.834 0 0 0-.13-.518 5.648 5.648 0 0 0-.2-.577 6.43 6.43 0 0 0-.678-1.222 6.606 6.606 0 0 0-.943-1.033 5.892 5.892 0 0 0-.48-.38 5.3 5.3 0 0 0-.445-.294l-.949-.49z" class="B"/><path d="M393.737 82.57l4.056-2.3a10.869 10.869 0 1 0-2.9-2.6h-.005z" class="F"/><path d="M393.721 82.571l1.112-4.919.015-.068.056.042h.005l-.063.063a10.85 10.85 0 0 1-2.2-5.214 9.727 9.727 0 0 1-.089-1.721l.049-.9q.069-.453.139-.919a10.966 10.966 0 0 1 4.36-6.8 10.838 10.838 0 0 1 4.2-1.839 11.086 11.086 0 0 1 4.839.128 10.74 10.74 0 0 1 4.474 2.331 10.933 10.933 0 0 1 2.992 4.192 11.084 11.084 0 0 1 .748 4.876 10.721 10.721 0 0 1-1.323 4.475 11.034 11.034 0 0 1-6.354 5.16 11.754 11.754 0 0 1-3.537.47 10.817 10.817 0 0 1-5.389-1.627h.044l-4.078 2.264 4.036-2.34.021-.013.023.013a10.781 10.781 0 0 0 5.347 1.576 11.651 11.651 0 0 0 3.491-.48 10.9 10.9 0 0 0 6.25-5.1 10.554 10.554 0 0 0 1.3-4.407 10.945 10.945 0 0 0-.741-4.8A10.761 10.761 0 0 0 410.5 62.9a10.564 10.564 0 0 0-4.4-2.295 10.932 10.932 0 0 0-4.762-.13 10.685 10.685 0 0 0-4.138 1.8 10.84 10.84 0 0 0-4.317 6.689l-.14.907-.053.89a9.613 9.613 0 0 0 .08 1.7 10.8 10.8 0 0 0 2.147 5.175l.214.277-.276-.214h-.005l.071-.025z" class="B"/><g class="D"><path d="M401.688 70.089h.634l1.386-1.931v-1.267s.981-.06.865 1.6.01 1.237.01 1.237a10.274 10.274 0 0 1 2.256.189 21.356 21.356 0 0 1 .205 3.323 1.216 1.216 0 0 1-.861 1.224.921.921 0 0 1-.224.03c-.52 0-3.175-.422-3.175-.422h-1.1zm-1.797-.389l.39 4.341h1.087V69.79zm-85.603 19.456l-5.21 1.91-2.746 5.783c-.127 1.194-3.127 13.245-3.127 13.245l-3 10.729c5.746 2.625 13.369 6.374 21 6.071l.98-9.2 5.235-20-3.995-7.935-1.366-.183z"/></g><path d="M290.053,167.634l-3.922,5.117s3.884,5.7,3.252,6.721l-10.2-7.248L284.972,164Z" class="C"/><path d="M283.158 170.964a.445.445 0 0 1-.16-.028.49.49 0 0 1-.262-.622.51.51 0 0 1 .467-.3.48.48 0 0 1 .114.013.509.509 0 0 1 .342.617.524.524 0 0 1-.501.32z" class="E"/><path d="M289.383 179.451l-10.2-7.248 10.2 7.248a.994.994 0 0 0 .017-.7c.075.164.185.495-.017.7z" class="F"/><path d="M289.383 179.476l-10.2-7.248.615-.806 9.545 7.251a1.4 1.4 0 0 0 .052.1.994.994 0 0 1-.012.703z" class="E"/><g class="B"><path d="M286.381 172.771c-.037.049-.3-.1-.661-.12s-.638.1-.67.051.247-.287.681-.263.693.295.65.332zm.726 1.229c-.023.057-.3-.012-.618.078s-.526.279-.574.241.121-.341.519-.446.706.083.673.127zm-.251 1.719c-.052-.021.055-.319.376-.5s.632-.125.624-.068-.256.1-.518.253-.429.346-.482.315zm.307-4.19c-.053.031-.232-.2-.527-.381s-.578-.248-.573-.309.341-.089.685.129.467.54.415.561z"/></g><path d="M287.622,170.98l-.075-.054.7-.91.075.051Z" fill="#999c9d"/><path d="M287.528,170.98l-4.9-3.554.593-.848,5.009,3.491Z" fill="#193a42"/><g class="B"><path d="M287.868 170.491c-.014.021-.232-.088-.508-.366a2.858 2.858 0 0 1-.6-.908.737.737 0 0 1-.069-.23.265.265 0 0 1 .165-.28.334.334 0 0 1 .3.041.845.845 0 0 1 .172.162 2.258 2.258 0 0 1 .24.335 2.2 2.2 0 0 1 .251.644 1.046 1.046 0 0 1 .006.628c-.035 0-.039-.238-.151-.589a2.475 2.475 0 0 0-.273-.581 2.287 2.287 0 0 0-.229-.3c-.088-.105-.179-.171-.241-.142-.023.011-.03.017-.03.064a.647.647 0 0 0 .052.169 3.256 3.256 0 0 0 .16.346 3.414 3.414 0 0 0 .359.54c.234.29.416.44.396.467z"/><path d="M287.788 170.478a1 1 0 0 1 .216-.589 2.018 2.018 0 0 1 .817-.727.519.519 0 0 1 .509-.026.293.293 0 0 1 .113.294.874.874 0 0 1-.081.224 1.373 1.373 0 0 1-.244.344 1.453 1.453 0 0 1-.593.373.81.81 0 0 1-.63.014 4.982 4.982 0 0 0 .576-.155 1.441 1.441 0 0 0 .5-.365 1.273 1.273 0 0 0 .2-.3c.061-.12.083-.236.034-.254a.355.355 0 0 0-.3.04 2.021 2.021 0 0 0-.323.187 2.246 2.246 0 0 0-.461.439c-.221.288-.3.513-.333.501z"/></g><path d="M321.135,171.031l-2.262,5.687s6.49,2.347,6.573,3.541l-12.509.1,1.951-9.295Z" class="C"/><path d="M315.062 177.159a.5.5 0 0 1-.472-.363.513.513 0 0 1 .3-.572.333.333 0 0 1 .155-.036.552.552 0 0 1 .484.335.538.538 0 0 1-.366.623.414.414 0 0 1-.101.013z" class="E"/><path d="M312.937,180.4l12.509-.1a.992.992,0,0,0-.4-.58c.158.09.442.294.4.58Zm0,0,.212-1.009Z" class="F"/><path d="M312.937,180.4l.212-1.009,11.8.278a.9.9,0,0,1,.1.051.992.992,0,0,1,.4.58Z" class="E"/><g class="B"><path d="M319.072 176.711c0 .062-.307.091-.6.29s-.457.457-.514.433.032-.377.4-.611.727-.168.714-.112zm1.251.516c.014.059-.25.165-.455.426s-.263.533-.323.531-.1-.347.158-.666.618-.349.62-.291zm.815 1.581c-.056.013-.143-.291.011-.627s.439-.471.465-.421-.149.231-.271.509-.143.531-.205.539zm-1.588-3.265c-.025.056-.306-.026-.652 0s-.613.137-.645.085.225-.272.632-.3.694.167.665.215zm.062-.783a1.162 1.162 0 0 1-.627 0 2.809 2.809 0 0 1-.657-.2 2.9 2.9 0 0 1-.361-.188.765.765 0 0 1-.191-.145.266.266 0 0 1-.03-.325.334.334 0 0 1 .266-.142.783.783 0 0 1 .235.031 2.16 2.16 0 0 1 .391.13 2.217 2.217 0 0 1 .581.375c.292.266.393.493.372.505s-.17-.169-.467-.389a2.5 2.5 0 0 0-.561-.31 2.332 2.332 0 0 0-.363-.102c-.133-.034-.245-.034-.279.025-.012.023-.014.032.014.07a.635.635 0 0 0 .14.107 3.183 3.183 0 0 0 .333.186 3.387 3.387 0 0 0 .607.227 4.8 4.8 0 0 1 .597.145zm-.012-.018a1.012 1.012 0 0 1-.17-.6 2.079 2.079 0 0 1 .08-.687 2.1 2.1 0 0 1 .157-.381.517.517 0 0 1 .4-.32.291.291 0 0 1 .263.173.838.838 0 0 1 .066.229 1.392 1.392 0 0 1 0 .422 1.432 1.432 0 0 1-.262.649c-.242.327-.5.4-.5.381s.192-.15.376-.463a1.462 1.462 0 0 0 .194-.59 1.3 1.3 0 0 0-.015-.362c-.02-.133-.071-.24-.121-.226s-.167.1-.217.207a1.975 1.975 0 0 0-.153.341 2.254 2.254 0 0 0-.116.626c-.02.359.047.591.018.601z"/></g><path d="M335.7 68.534l-1.92 13.075-8.811 8.445 3.264 5.625 10-9.338a4.061 4.061 0 0 0 1.5-2.314V70.51l-.065-4.4z" class="G"/><g class="B"><path d="M300.451,119.859c-.257.514-4.991,25.092-4.991,25.092l-13.226,21.52,6.875,5.006,16.341-21.3,8.935-27.066Z"/><path d="M318.424,122.432c.385.257,10.5,21.368,10.374,22.909s-7.757,29.726-7.757,29.726l-7.77-1.431,4.815-27.495-9.133-12.82,2.982-11.665Z"/></g><g class="D"><path d="M329.046,85.406l-5.015,4.165-.937.147,3.777,8.341,6.96-5.62Z"/><path d="M314.288,89.156l-5.21,1.91-2.746,5.783c-.127,1.194-3.127,13.245-3.127,13.245l-3,10.729c5.746,2.625,13.369,6.374,21,6.071l.98-9.2,5.283-20.183-4.043-7.754-1.366-.183Z"/></g><path d="M321.971 90.791l.252-1.864a3.911 3.911 0 0 0 3.954-3.071c.318-1.542.714-4.772 1.039-7.7a6.07 6.07 0 0 0-4.884-6.626l-.309-.06c-3.365-.449-5.628 2.159-5.983 5.536l-1.618 12.33a32.313 32.313 0 0 0 4.937 3.68c2.351 1.16 2.612-2.225 2.612-2.225z" class="G"/><path d="M322.192,88.882a7.577,7.577,0,0,1-3.942-1.991,4.015,4.015,0,0,0,3.789,2.822Z" class="J"/><g class="B"><path d="M326.4 79.652c-.068.055-.5-.133-1.1-.091s-1.035.283-1.1.236c-.033-.021.034-.117.223-.228a2.068 2.068 0 0 1 .88-.252 1.889 1.889 0 0 1 .878.136c.185.086.251.174.219.199zm-5.023-.407c-.085.019-.387-.337-.943-.565s-1.048-.208-1.088-.279c-.02-.033.082-.088.3-.1a2.091 2.091 0 0 1 .9.167 1.9 1.9 0 0 1 .724.506c.13.157.147.264.107.271zm-.302.772a.36.36 0 0 1-.409.291.345.345 0 0 1-.3-.389.36.36 0 0 1 .409-.29.344.344 0 0 1 .3.388zm4.843.86a.36.36 0 0 1-.409.29.344.344 0 0 1-.3-.389.36.36 0 0 1 .409-.29.343.343 0 0 1 .3.389zm-3.527 1.872a3.3 3.3 0 0 1 .826.01c.129.011.252.009.29-.072a.656.656 0 0 0-.012-.388l-.187-1.028a16.743 16.743 0 0 1-.35-2.662 16.829 16.829 0 0 1 .564 2.628q.088.539.17 1.03a.743.743 0 0 1-.031.505.321.321 0 0 1-.241.144.853.853 0 0 1-.219-.012 3.241 3.241 0 0 1-.81-.155zm-.872-6.032c-.067.113-.489-.028-1.01-.062s-.96.029-1.006-.094c-.02-.058.074-.159.262-.245a1.65 1.65 0 0 1 .784-.123 1.631 1.631 0 0 1 .752.242c.172.114.247.228.218.282zm5.029 1.671c-.068.091-.476-.067-.985-.144s-.941-.061-.983-.169c-.018-.052.077-.129.264-.186a1.79 1.79 0 0 1 .77-.035 1.858 1.858 0 0 1 .73.274c.164.112.235.216.204.26z"/></g><path d="M315.791 79.432c-.05-.034-2.073-1.075-2.426 1.126a1.676 1.676 0 0 0 1.944 2.038c.014-.062.482-3.164.482-3.164z" class="G"/><path d="M314.821 81.594c-.009-.009-.043.021-.112.04a.39.39 0 0 1-.288-.04.961.961 0 0 1-.3-.922 1.265 1.265 0 0 1 .2-.532.448.448 0 0 1 .336-.248.2.2 0 0 1 .209.141c.02.066 0 .108.01.114s.053-.029.049-.123a.246.246 0 0 0-.064-.152.293.293 0 0 0-.2-.09.544.544 0 0 0-.455.277 1.313 1.313 0 0 0-.232.592 1.009 1.009 0 0 0 .408 1.04.414.414 0 0 0 .359 0c.067-.045.087-.091.08-.097z" class="J"/><g class="B"><path d="M321.761 84.155c.031-.053-.387-.234-.643-.677a2.474 2.474 0 0 1-.237-.614c-.046-.168-.083-.275-.108-.27s-.03.114-.016.293a1.659 1.659 0 0 0 .208.68 1.334 1.334 0 0 0 .514.5c.16.088.274.106.282.088zm10.052-8.431a.531.531 0 0 0-.209-.334 1.616 1.616 0 0 0-.808-.231 4.688 4.688 0 0 1-2.338-1.025 10.957 10.957 0 0 0-.966-1.5 8.275 8.275 0 0 0-2.373-2.338 7.542 7.542 0 0 0-3.96-.788 3.047 3.047 0 0 0-2.565 2.083 2.343 2.343 0 0 0-2.314-.5l-.018-.011a2.945 2.945 0 0 0-1.836 1.887 10.88 10.88 0 0 1-1.127 2.484c-.115.152-.253.333-.189.513a.364.364 0 0 0 .357.209 1.061 1.061 0 0 0 .419-.133q-.183.325-.367.65a2.034 2.034 0 0 0 .936.048 20.007 20.007 0 0 0 .335 2.367 1.324 1.324 0 0 1 .877.329c.267.3.34.826.86.693.264-.068.558-.571.673-.818a12.673 12.673 0 0 0 1.177-5.262 4.073 4.073 0 0 1 1.356-.753l-.042.03a3.687 3.687 0 0 1 2.8.132 5.993 5.993 0 0 1 1.364 1.749 5.1 5.1 0 0 0 3.41 2.095l-.348 3.1.936-1.364v.008a3.72 3.72 0 0 0 .2-.3l.021-.031h0a5.656 5.656 0 0 1 .317-.487l.008.009a.571.571 0 0 0 .919-.66 1.31 1.31 0 0 0-.242-.308.9.9 0 0 0 .829.323.708.708 0 0 0 .58-.637.6.6 0 0 0-.3-.523 2.037 2.037 0 0 0 1.18-.117c.243-.108.491-.294.448-.589z"/></g><g class="C"><path d="M319.544 72.125a2.809 2.809 0 0 0-.358.257 2.326 2.326 0 0 0-.622 1.012 4.093 4.093 0 0 0-.18.81c-.037.3-.05.618-.067.956a8.39 8.39 0 0 1-.1 1.061 3.554 3.554 0 0 1-.139.549 1.17 1.17 0 0 1-.291.514.492.492 0 0 1-.474.1.733.733 0 0 1-.382-.28 1.677 1.677 0 0 1-.213-.857l.066.016a2.709 2.709 0 0 1-.472.629.967.967 0 0 1-.668.267.627.627 0 0 1-.326-.1.531.531 0 0 1-.2-.249.557.557 0 0 1-.035-.294.407.407 0 0 1 .133-.239l.031.035a2.1 2.1 0 0 1-.754.438 1.88 1.88 0 0 1-.225.058.361.361 0 0 1-.079.01.4.4 0 0 1 .076-.022l.219-.069a2.164 2.164 0 0 0 .732-.448l.03.035a.417.417 0 0 0-.078.477.48.48 0 0 0 .181.221.564.564 0 0 0 .3.085.906.906 0 0 0 .621-.255 2.689 2.689 0 0 0 .456-.616l.059-.1.008.114a1.617 1.617 0 0 0 .2.819.653.653 0 0 0 .341.25.414.414 0 0 0 .4-.084 1.114 1.114 0 0 0 .27-.481 3.607 3.607 0 0 0 .137-.538 8.749 8.749 0 0 0 .105-1.051l.074-.96a4.088 4.088 0 0 1 .192-.819 2.3 2.3 0 0 1 .653-1.017 1.331 1.331 0 0 1 .379-.234zm9.65 4.284l-.029.019-.088.049a1.006 1.006 0 0 1-.147.071 1.736 1.736 0 0 1-.208.08 2.881 2.881 0 0 1-1.41.085 3.687 3.687 0 0 1-1.862-.95 6.367 6.367 0 0 1-1.443-2.126l-.5-1.236a4.324 4.324 0 0 0-.6-1.068 2.225 2.225 0 0 0-.863-.674 1.578 1.578 0 0 0-.483-.115 1.741 1.741 0 0 0-.459.033 1.879 1.879 0 0 0-1.141.754 2.223 2.223 0 0 0-.224.464l.007-.034.027-.1a1.607 1.607 0 0 1 .166-.35 1.826 1.826 0 0 1 .419-.447 1.893 1.893 0 0 1 .734-.343 1.792 1.792 0 0 1 .475-.039 1.647 1.647 0 0 1 .5.115 2.272 2.272 0 0 1 .893.688 4.335 4.335 0 0 1 .618 1.083l.5 1.234a6.391 6.391 0 0 0 1.422 2.105 3.656 3.656 0 0 0 1.824.948 2.922 2.922 0 0 0 1.391-.06 4.613 4.613 0 0 0 .481-.186zm.456-1.331a.469.469 0 0 1-.125.067 2.537 2.537 0 0 1-.363.133 3.366 3.366 0 0 1-.563.114 3.543 3.543 0 0 1-1.4-.12 3.411 3.411 0 0 1-.535-.209 2.5 2.5 0 0 1-.335-.194.5.5 0 0 1-.112-.088c.008-.012.175.1.469.232a3.8 3.8 0 0 0 .533.19 4.148 4.148 0 0 0 .68.122 4.226 4.226 0 0 0 .69 0 3.838 3.838 0 0 0 .557-.1l.504-.147z"/></g><path d="M324.108 105.992a51.371 51.371 0 0 1-7.309-.974l-.52.936h-1.134c-3.123 0-7.442-6.251-7.442-6.251l7.34 3.93 1.652-.962 8.585 3.187a3.74 3.74 0 0 1-1.172.134z" class="H"/><path d="M313.094,102.615s15.615,4.551,17.454,4.128S343.8,97.176,343.8,97.176l-2.575-3.1-11.784,6.514L315.3,96.106Z" class="G"/><path d="M309.151,91.109s-2.611.577-2.995,4.865c-.459,5.119,9.65,9.122,9.65,9.122l4.995-8.355Z" class="D"/><g class="B"><path d="M314.54 94.391a.437.437 0 0 1 .112.041l.317.142 1.191.558 4.238 2.036.075.036-.042.073-3.4 5.885-1.106 1.9-.036.063-.07-.024a22 22 0 0 1-4.007-1.806 15.291 15.291 0 0 1-2.8-2.129 15.67 15.67 0 0 1-2.087-2.4 1.209 1.209 0 0 1 .149.16l.407.478a21.315 21.315 0 0 0 1.611 1.678 15.724 15.724 0 0 0 2.8 2.079 22.386 22.386 0 0 0 3.986 1.772l-.107.04 1.1-1.9L320.3 97.2l.033.108-4.21-2.093-1.172-.6-.306-.163a.449.449 0 0 1-.105-.061zm12.169 1.324c-.049.019-.48-1.032-1.112-2.279l-1.173-2.248a2.8 2.8 0 0 1 .444.6A18.112 18.112 0 0 1 326.49 95a2.833 2.833 0 0 1 .219.715z"/></g><g class="C"><path d="M289.11 171.422a.6.6 0 0 1 .069-.106l.22-.3.857-1.146 3.179-4.19 10.544-13.785 1.4-1.823-.014.026 4.984-15.005 1.505-4.471.415-1.206.112-.312a.577.577 0 0 1 .044-.1.729.729 0 0 1-.027.11l-.1.317-.384 1.216-1.453 4.489-4.929 15.023-.005.015-.009.012-1.4 1.823-10.586 13.753-3.225 4.155-.885 1.125-.233.289a.738.738 0 0 1-.079.091zm31.867-26.79a15.16 15.16 0 0 1-3.117 1.1 7.659 7.659 0 0 1 1.529-.635 7.527 7.527 0 0 1 1.588-.465z"/><path d="M320.9,146.872a10.509,10.509,0,0,1-2.653-.753,10.619,10.619,0,0,1,2.653.753Z"/></g><path d="M321.161 116.188a2.517 2.517 0 0 1-.4.277c-.261.171-.651.4-1.143.659a21.013 21.013 0 0 1-8.32 2.367l-1.318.041a2.535 2.535 0 0 1-.483-.026 2.391 2.391 0 0 1 .481-.044l1.309-.1a23.669 23.669 0 0 0 8.274-2.354l1.164-.606a2.517 2.517 0 0 1 .436-.214z" class="B"/><path d="M372.621,171.22l2.321,5.662s-6.465,2.415-6.536,3.61l12.509-.03-2.047-9.274Z" class="C"/><path d="M378.664 177.316a.43.43 0 0 1-.1-.012.54.54 0 0 1-.373-.619.554.554 0 0 1 .485-.341.318.318 0 0 1 .152.036.51.51 0 0 1 .309.567.5.5 0 0 1-.473.369z" class="E"/><path d="M368.415 180.484h-.008c-.017-.266.246-.459.4-.546a1.077 1.077 0 0 0-.392.546z" class="F"/><path d="M368.41 180.521v-.037h.009c0 .013 0 .025-.005.037l12.51-.03h0z" fill="#9da7aa"/><path d="M368.406 180.507v-.037a1.083 1.083 0 0 1 .388-.547 1.068 1.068 0 0 1 .1-.052l11.794-.4.222 1.007z" class="E"/><g class="B"><path d="M374.735 176.869c0 .061.308.089.608.284s.462.452.518.428-.036-.377-.4-.607-.74-.16-.726-.105zm-1.328.515c-.014.06.251.163.459.421s.269.531.329.527.1-.348-.166-.663-.621-.343-.622-.285zm-.681 1.575c.055.013.14-.292-.018-.626s-.444-.467-.469-.416.151.229.276.506.15.53.211.536zm1.542-3.253c.025.055.3-.03.651-.007s.614.131.646.078-.228-.27-.635-.291-.692.172-.662.22zm-.159-.772a1.186 1.186 0 0 0 .627-.005 2.823 2.823 0 0 0 .655-.2 3 3 0 0 0 .36-.192.775.775 0 0 0 .188-.148.263.263 0 0 0 .027-.324.332.332 0 0 0-.267-.14.807.807 0 0 0-.235.033 2.321 2.321 0 0 0-.39.135 2.239 2.239 0 0 0-.576.38c-.29.27-.389.5-.367.51s.168-.171.463-.394a2.5 2.5 0 0 1 .558-.316 2.39 2.39 0 0 1 .359-.112c.133-.035.245-.036.279.023.013.022.014.031-.013.07a.628.628 0 0 1-.139.108 3.652 3.652 0 0 1-.33.19 3.413 3.413 0 0 1-.606.233 4.3 4.3 0 0 0-.593.149z"/><path d="M374.153 174.971a1 1 0 0 0 .164-.606 2.035 2.035 0 0 0-.087-.685 2.06 2.06 0 0 0-.161-.38.513.513 0 0 0-.4-.315.289.289 0 0 0-.261.175.793.793 0 0 0-.064.23 1.382 1.382 0 0 0 0 .421 1.433 1.433 0 0 0 .27.647c.245.323.5.4.5.376.02-.031-.193-.149-.381-.46a1.427 1.427 0 0 1-.2-.588 1.3 1.3 0 0 1 .01-.362c.02-.133.069-.24.119-.227a.47.47 0 0 1 .22.2 2.1 2.1 0 0 1 .156.339 2.273 2.273 0 0 1 .122.625c.024.372-.04.601-.007.61z"/><path d="M380.812,124.315c-.353.179-13.2,18.147-16.9,23.1a3.775,3.775,0,0,0-.715,3.17c1.643,6.388,8.377,26.01,8.377,26.01l9.019-1.872-5.665-23.453,14-15.017-1.58-11.936Z"/></g><path d="M374.8,151.625a4.672,4.672,0,0,1-1.169-.567,4.785,4.785,0,0,1-1.08-.725,9.409,9.409,0,0,1,2.249,1.292Z" class="C"/><path d="M343.637 82.438l1.076.538a3.235 3.235 0 0 1 1.369 1.284l.863 1.448 1.856 1.442-2.524 3.467-.694-.56a13.472 13.472 0 0 1-3.472-.6c-.949-.462-1.829-1.212-1.717-1.542l.145-.433a1.562 1.562 0 0 1-.242-1.13s-.577-.667-.472-1.142a1.118 1.118 0 0 1 .889-.868s-.281-.776 0-1.191a1.525 1.525 0 0 1 .851-.535l2.36 1.019z" class="I"/><path d="M407.859,172.212l4.127,4.954s-3.648,5.859-2.974,6.848l9.891-7.657-6.114-7.982Z" class="C"/><path d="M414.935 175.259a.52.52 0 0 1-.492-.3.51.51 0 0 1 .318-.631.453.453 0 0 1 .132-.019.509.509 0 0 1 .459.28.49.49 0 0 1-.237.632.448.448 0 0 1-.18.038z" class="E"/><path d="M409,183.986c-.211-.2-.113-.534-.045-.7a.994.994,0,0,0,.045.7l4.321-3.345Z" class="F"/><path d="M408.958,184a.851.851,0,0,1,0-.8l9.242-7.634.648.781-5.571,4.312Z" class="E"/><g class="B"><path d="M411.771 177.176c.039.047.3-.118.655-.146s.642.076.671.022-.258-.277-.691-.234-.68.322-.635.358zm-.706 1.224c.025.056.3-.024.62.053s.537.257.584.218-.135-.337-.537-.425-.701.104-.667.154zm.395 1.739c.052-.023-.068-.317-.4-.485s-.636-.1-.625-.043.26.089.527.232.446.329.498.296zm-.541-4.196c.054.028.224-.21.512-.4s.566-.272.56-.333-.345-.075-.68.157-.445.556-.392.576z"/></g><path d="M410.469,175.486l-.735-.884.073-.055.734.881Z" class="L"/><path d="M410.547,175.371l-.735-.882,4.863-3.692.627.823Z" fill="#193a42"/><g class="B"><path d="M410.129 174.98c.015.02.229-.1.493-.386a2.746 2.746 0 0 0 .395-.561 2.872 2.872 0 0 0 .168-.371.788.788 0 0 0 .06-.233.265.265 0 0 0-.177-.273.333.333 0 0 0-.3.053.8.8 0 0 0-.166.169 2.148 2.148 0 0 0-.226.345 2.191 2.191 0 0 0-.225.653 1.045 1.045 0 0 0 .02.628c.034 0 .029-.239.126-.6a2.532 2.532 0 0 1 .25-.591 2.33 2.33 0 0 1 .216-.308c.084-.109.172-.179.235-.153.024.011.031.017.032.064a.6.6 0 0 1-.044.17 3.248 3.248 0 0 1-.146.353 3.513 3.513 0 0 1-.336.554c-.22.307-.396.461-.375.487z"/><path d="M410.267 174.954c.023-.006-.016-.253-.24-.579a2.047 2.047 0 0 0-.847-.694.518.518 0 0 0-.509-.005.291.291 0 0 0-.1.3.869.869 0 0 0 .089.221 1.413 1.413 0 0 0 .258.334 1.439 1.439 0 0 0 .608.348.811.811 0 0 0 .63-.011 5.183 5.183 0 0 1-.582-.132 1.428 1.428 0 0 1-.517-.344 1.254 1.254 0 0 1-.213-.293c-.066-.117-.092-.232-.044-.252a.36.36 0 0 1 .3.028 2.151 2.151 0 0 1 .331.173 2.27 2.27 0 0 1 .478.42c.237.278.326.499.358.486z"/><path d="M398.955,123.922c.194.54,2.489,28.278,2.489,28.278l15.467,20.5-6.574,4.584-17.48-17.951a6.213,6.213,0,0,1-1.661-3.092l-6.462-30.73Z"/></g><g class="D"><path d="M362.373,94.843l13.615.3.937.148-3.778,8.342-13.9-2-13.652-10.1,3.647-5.107Z"/><path d="M384.12,94.469l5.226,1.354a4.39,4.39,0,0,1,2.871,2.706l1.469,5.308,3.075,11.829,3,10.73c-5.345,2.442-9.581,5.773-16.29,5.983a6.46,6.46,0,0,1-2.734-.51L376.353,130l1.429-6.738-5.235-20,4-7.934,1.365-.183Z"/></g><path d="M364.545 87.929a.878.878 0 0 1 .115-.6 2.185 2.185 0 0 1 1.145-.8 5.726 5.726 0 0 0-.13-1.882 1.153 1.153 0 0 1-.663.06.623.623 0 0 1-.109.008.9.9 0 0 1-.668-1.138 2.608 2.608 0 0 1 .876-1.2c-.313.143-.505.461-.775.674s-.743.275-.9-.031a.755.755 0 0 1-.062-.306l-.039-.635a.678.678 0 0 1 .1-.491 1.582 1.582 0 0 1 .3-.2c.321-.235.339-.742.658-.98a1.761 1.761 0 0 1 .846-.191c.291-.039.623-.228.605-.52a2.743 2.743 0 0 1-1.209-.419.939.939 0 0 1-.339-1.136 1.38 1.38 0 0 1 .831-.532c.356-.12.823-.208 1.046.094a.977.977 0 0 1 1.395.284l.868-.44a9.834 9.834 0 0 1-1.112-.417c-.333-.216-.5-.771-.169-.988.122-.079.282-.092.389-.191.077-.071.12-.182.217-.223a.373.373 0 0 1 .224 0l2.387.509-.977-1c-.3-.308-.62-.768-.378-1.123s.823-.205 1.037.151a.664.664 0 0 1 .974.28.674.674 0 0 1 1.109.675 1.907 1.907 0 0 1 1.012-.079.586.586 0 0 1 .738-.717 1.017 1.017 0 0 1-.069-.6c.058-.2.3-.349.47-.244a.685.685 0 0 1 .794-1.024l.167-.5a.9.9 0 0 1 .973.108.525.525 0 0 1-.145.848c.225-.091.313.29.251.524q-.128.49-.256.98a.759.759 0 0 1 .846-.415.586.586 0 0 1 .793-.3.474.474 0 0 1 .847-.172c0-.169.2-.257.362-.3a1.1 1.1 0 0 1 .714-.027c.223.1.35.428.167.589.151-.183.482-.066.571.154a.853.853 0 0 1-.1.682 1.978 1.978 0 0 0-.27.654 1 1 0 0 1 .586-.381 2.6 2.6 0 0 1 1.243-.215c.007-.182.222-.273.4-.3a2.9 2.9 0 0 1 1.665.218c.244.111.505.318.47.584a.714.714 0 0 1-.166.322l-.932 1.229a3.572 3.572 0 0 1 2.131.541 6.272 6.272 0 0 1 .9.034c.29.091.453.564.17.673a.556.556 0 0 1 .383.544.533.533 0 0 1-.11.285.76.76 0 0 1-.076.2 1.024 1.024 0 0 1-.262.3.687.687 0 0 1-.45.464 2.79 2.79 0 0 1 .848.465 1.17 1.17 0 0 1 .432 1.124l-.025.064a.574.574 0 0 1-.1.43.481.481 0 0 1 .158.281 1.281 1.281 0 0 1 1.076 1.991c-.205.308-.741.472-.9.139a1 1 0 0 1-.507.786.966.966 0 0 1 .006 1.423 1.029 1.029 0 0 1 .3 1.687.788.788 0 1 1-1.2 1.018 1.673 1.673 0 0 1-.285.9.578.578 0 0 1-.838.095 1.082 1.082 0 0 1-1.3 1.053.7.7 0 0 1-1.254.616l-1.693.634a6.455 6.455 0 0 1-1.146.35 3.243 3.243 0 0 1-1.515-.1 1.091 1.091 0 0 0-.48-.087 1.13 1.13 0 0 0-.486.278 2.923 2.923 0 0 1-2.828.387 1.5 1.5 0 0 0-.447-.141 1.328 1.328 0 0 0-.525.123 5.263 5.263 0 0 1-1.294.3 1.4 1.4 0 0 1-1.083-.234c-.284-.254-.283-.816.075-.947a.818.818 0 0 0-.435-.568.494.494 0 0 0-.634.214c-.1.227.119.538.36.48a.73.73 0 0 1-1.2-.19.977.977 0 0 1 .586-1.2 2.239 2.239 0 0 1-.42-1.01.8.8 0 0 1-.977.51 1.385 1.385 0 0 1-.605.924.83.83 0 0 1-1.035-.137.6.6 0 0 1 .253-.922.715.715 0 0 1 .22-1.192 1.112 1.112 0 0 1 .209-1.345.585.585 0 0 1-.892 0c-.084.421-.639.54-1.063.471-.34-.058-.688-.184-.765-.621z" class="B"/><path d="M364.59 88a.581.581 0 0 0 .034.145.637.637 0 0 0 .279.339 1.4 1.4 0 0 0 .709.169 1.214 1.214 0 0 0 .466-.094.583.583 0 0 0 .354-.406l-.039.009a.611.611 0 0 0 .931 0l-.039-.035a1.144 1.144 0 0 0-.218 1.38l.019-.045a.689.689 0 0 0-.46.535.7.7 0 0 0 .227.715l.012-.062a.6.6 0 0 0-.4.643.659.659 0 0 0 .554.59.955.955 0 0 0 .842-.238 1.547 1.547 0 0 0 .443-.815l-.055.032a.85.85 0 0 0 1.033-.537l-.088-.007a2.293 2.293 0 0 0 .427 1.032l.02-.072a1.1 1.1 0 0 0-.538.475.926.926 0 0 0-.1.735.769.769 0 0 0 .574.5.692.692 0 0 0 .738-.241l.079-.116-.134.036c-.134.036-.28-.095-.311-.244a.316.316 0 0 1 .23-.356.488.488 0 0 1 .476.086.839.839 0 0 1 .272.453l.035-.065a.473.473 0 0 0-.276.286.688.688 0 0 0-.021.391.677.677 0 0 0 .187.349.936.936 0 0 0 .338.2 1.878 1.878 0 0 0 .771.065 5.319 5.319 0 0 0 .767-.127c.514-.084.991-.49 1.474-.168a2.942 2.942 0 0 0 1.631.175 3 3 0 0 0 .807-.258 4.266 4.266 0 0 0 .71-.469.508.508 0 0 1 .361-.095 3.039 3.039 0 0 1 .4.111 3.331 3.331 0 0 0 .874.125 4.618 4.618 0 0 0 1.737-.4l1.7-.635-.083-.03a.769.769 0 0 0 1.377-.676l-.082.094a1.154 1.154 0 0 0 1.388-1.124l-.124.05a.525.525 0 0 0 .475.161.755.755 0 0 0 .454-.238 1.694 1.694 0 0 0 .318-.958l-.126.038a.861.861 0 1 0 1.314-1.112l-.01.1a1.027 1.027 0 0 0 .331-.966 1.042 1.042 0 0 0-.657-.849l.024.128a1.042 1.042 0 0 0-.007-1.537l-.012.123a1.072 1.072 0 0 0 .547-.846l-.143.027a.39.39 0 0 0 .2.191.516.516 0 0 0 .266.03.858.858 0 0 0 .455-.22 1.279 1.279 0 0 0 .333-.934 1.315 1.315 0 0 0-.411-.922 1.39 1.39 0 0 0-.951-.382l.076.064a.561.561 0 0 0-.182-.326l.009.1a.655.655 0 0 0 .119-.488v.037a1.139 1.139 0 0 0-.275-1.118 2.484 2.484 0 0 0-1.025-.633l-.005.146a.764.764 0 0 0 .5-.516l-.026.039a.969.969 0 0 0 .366-.546l-.014.029a.578.578 0 0 0 .094-.542.634.634 0 0 0-.406-.406l.005.146a.293.293 0 0 0 .183-.2.449.449 0 0 0-.015-.258.562.562 0 0 0-.344-.358 5.871 5.871 0 0 0-.915-.037l.029.011a3.661 3.661 0 0 0-2.177-.552l.067.125.427-.564.323-.427a3.887 3.887 0 0 0 .317-.449.46.46 0 0 0 .037-.311.574.574 0 0 0-.153-.263 1.3 1.3 0 0 0-.478-.293 2.972 2.972 0 0 0-1.6-.168.818.818 0 0 0-.274.1.344.344 0 0 0-.175.273l.09-.074a2.214 2.214 0 0 0-1.016.129l-.475.17a.836.836 0 0 0-.418.336l.145.046c.032-.324.31-.6.39-.975a.58.58 0 0 0-.143-.563.5.5 0 0 0-.28-.126.344.344 0 0 0-.3.116l.111.107a.347.347 0 0 0 .112-.282.52.52 0 0 0-.1-.267.5.5 0 0 0-.223-.176.743.743 0 0 0-.267-.048 1.91 1.91 0 0 0-.5.085.874.874 0 0 0-.244.107.319.319 0 0 0-.154.262l.145-.036a.55.55 0 0 0-.991.2l.112-.061a.661.661 0 0 0-.9.339l.092-.047a.831.831 0 0 0-.933.455l.14.052q.109-.417.217-.831a.975.975 0 0 0 .05-.451.513.513 0 0 0-.088-.231.241.241 0 0 0-.121-.089.235.235 0 0 0-.154.01l.049.142a.511.511 0 0 0 .345-.453.635.635 0 0 0-.181-.532.981.981 0 0 0-1.042-.112l-.031.013-.01.032-.168.5.094-.047a.758.758 0 0 0-.878 1.134l.1-.1a.356.356 0 0 0-.368.018.481.481 0 0 0-.213.278 1.1 1.1 0 0 0 .073.632l.1-.089a.657.657 0 0 0-.834.811l.08-.1a1.985 1.985 0 0 0-1.05.083l.093.086a.745.745 0 0 0-1.225-.745l.114.026a.732.732 0 0 0-1.081-.31l.1.02a.821.821 0 0 0-.423-.333.7.7 0 0 0-.538.011.536.536 0 0 0-.288.456.916.916 0 0 0 .148.5 4.351 4.351 0 0 0 .645.74l.667.681.061-.112-1.474-.313-.721-.153a1.607 1.607 0 0 0-.38-.058.3.3 0 0 0-.193.111l-.11.137a.955.955 0 0 1-.3.145.474.474 0 0 0-.271.291.785.785 0 0 0 .2.713 1.361 1.361 0 0 0 .635.342 4.416 4.416 0 0 1 .641.214v-.109l-.867.44.079.025a1.035 1.035 0 0 0-1.483-.3l.082.011a.665.665 0 0 0-.614-.225 2.4 2.4 0 0 0-.61.15 1.767 1.767 0 0 0-.551.286.762.762 0 0 0-.285.551 1.127 1.127 0 0 0 .6.99 3.249 3.249 0 0 0 1.079.326l-.042-.048a.4.4 0 0 1-.226.351.986.986 0 0 1-.44.128 3.287 3.287 0 0 0-.48.06.724.724 0 0 0-.415.259c-.2.259-.252.576-.446.781-.089.106-.233.143-.354.253a.563.563 0 0 0-.141.432q.027.426.051.835a.5.5 0 0 0 .182.384.565.565 0 0 0 .407.086.926.926 0 0 0 .377-.139 1.839 1.839 0 0 0 .287-.256 1.935 1.935 0 0 1 .539-.459l-.041-.063a4.6 4.6 0 0 0-.6.64 1.463 1.463 0 0 0-.305.754 1.077 1.077 0 0 0 .218.716.667.667 0 0 0 .62.273h-.008a1.16 1.16 0 0 0 .679-.064l-.037-.019a5.782 5.782 0 0 1 .137 1.873l.012-.016a3.36 3.36 0 0 0-.806.429 1.261 1.261 0 0 0-.4.5.876.876 0 0 0-.067.368.5.5 0 0 0 .017.121.912.912 0 0 1 .068-.481 1.273 1.273 0 0 1 .4-.482 3.422 3.422 0 0 1 .8-.416h.01v-.012a5.723 5.723 0 0 0-.123-1.89l-.007-.031-.03.012a1.113 1.113 0 0 1-.647.056h-.008a.608.608 0 0 1-.565-.254 1.021 1.021 0 0 1-.2-.673 1.417 1.417 0 0 1 .3-.715 4.5 4.5 0 0 1 .6-.626l.176-.163-.218.1a1.983 1.983 0 0 0-.565.473 1.793 1.793 0 0 1-.275.244.836.836 0 0 1-.342.124.48.48 0 0 1-.346-.072.41.41 0 0 1-.147-.323q-.022-.406-.046-.829a.472.472 0 0 1 .113-.364c.091-.088.25-.132.358-.255.219-.234.272-.556.455-.784.177-.245.512-.257.828-.28a1.084 1.084 0 0 0 .483-.141.5.5 0 0 0 .276-.444v-.04l-.039-.007a3.15 3.15 0 0 1-1.043-.316 1.022 1.022 0 0 1-.542-.892.655.655 0 0 1 .247-.472 1.679 1.679 0 0 1 .517-.265 2.3 2.3 0 0 1 .582-.142.552.552 0 0 1 .512.179l.035.049.047-.038a.921.921 0 0 1 1.308.267l.029.05.05-.025.868-.439.11-.056-.11-.053a4.467 4.467 0 0 0-.659-.222 1.247 1.247 0 0 1-.577-.307.663.663 0 0 1-.171-.592.344.344 0 0 1 .2-.213 1 1 0 0 0 .338-.171c.1-.1.142-.208.229-.211a1.672 1.672 0 0 1 .338.056l.721.155 1.473.315.215.046-.153-.158-.666-.682a4.257 4.257 0 0 1-.624-.715.8.8 0 0 1-.129-.424.4.4 0 0 1 .213-.34.663.663 0 0 1 .781.271l.04.066.061-.047a.6.6 0 0 1 .866.25l.038.1.076-.072a.6.6 0 0 1 .992.6l-.038.134.131-.047a1.839 1.839 0 0 1 .974-.076l.134.026-.054-.124a.515.515 0 0 1 .642-.624l.15.067-.051-.157a.984.984 0 0 1-.071-.547c.038-.155.24-.289.366-.21l.286.181-.188-.285a.611.611 0 0 1 .708-.914l.071.024.024-.071.167-.5-.04.044a.835.835 0 0 1 .88.084c.216.189.177.653-.1.732l.049.142a.074.074 0 0 1 .1.031.375.375 0 0 1 .06.164.839.839 0 0 1-.047.389l-.218.831.141.052a.684.684 0 0 1 .757-.375l.068.019.024-.066a.511.511 0 0 1 .685-.258l.107.059.005-.12a.4.4 0 0 1 .7-.143l.17.345-.025-.381c-.007-.1.144-.182.286-.22a1.762 1.762 0 0 1 .455-.079.421.421 0 0 1 .365.16.262.262 0 0 1 .009.344l.11.106c.075-.1.257-.071.362.027a.427.427 0 0 1 .1.417c-.059.322-.342.591-.393.989l-.049.378.193-.332c.145-.249.5-.324.8-.433a2.067 2.067 0 0 1 .944-.123l.09.014v-.088c0-.117.168-.2.322-.227a2.824 2.824 0 0 1 1.517.159 1.151 1.151 0 0 1 .423.256.334.334 0 0 1 .087.4 3.8 3.8 0 0 1-.3.421l-.323.427-.427.563-.1.136.171-.012a3.506 3.506 0 0 1 2.084.529l.014.009h.015a6.764 6.764 0 0 1 .893.031.411.411 0 0 1 .244.26c.041.119.018.236-.077.267l-.234.075.24.072a.483.483 0 0 1 .3.307.422.422 0 0 1-.073.4l-.009.013v.016a.8.8 0 0 1-.31.459l-.019.016-.007.024a.612.612 0 0 1-.4.411l-.225.063.219.083a2.343 2.343 0 0 1 .964.59.988.988 0 0 1 .247.964l-.007.018v.02a.5.5 0 0 1-.088.372l-.045.056.054.048a.416.416 0 0 1 .135.237l.009.065h.067a1.235 1.235 0 0 1 .844.34 1.157 1.157 0 0 1 .364.816 1.133 1.133 0 0 1-.285.818.7.7 0 0 1-.371.182.277.277 0 0 1-.309-.136l-.122-.269-.021.3a.927.927 0 0 1-.469.726l-.1.052.086.072a.894.894 0 0 1 .007 1.307l-.106.085.131.043a.9.9 0 0 1 .558.73.879.879 0 0 1-.277.829l-.06.047.05.058a.715.715 0 1 1-1.092.924l-.108-.131-.019.169a1.572 1.572 0 0 1-.281.878.506.506 0 0 1-.716.08l-.137-.166.012.216a.96.96 0 0 1-.4.791.95.95 0 0 1-.813.191l-.139-.038.056.132a.631.631 0 0 1-1.131.555l-.029-.051-.054.021-1.7.637a4.507 4.507 0 0 1-1.69.392 3.2 3.2 0 0 1-.84-.118 3.128 3.128 0 0 0-.424-.114.643.643 0 0 0-.446.115 4.272 4.272 0 0 1-.7.463 2.91 2.91 0 0 1-.773.248 2.827 2.827 0 0 1-1.564-.164 1.542 1.542 0 0 0-.393-.129.918.918 0 0 0-.415.059 6.4 6.4 0 0 1-.74.236 5.16 5.16 0 0 1-.749.126 1.763 1.763 0 0 1-.723-.058.639.639 0 0 1-.454-.468.458.458 0 0 1 .225-.549l.048-.017-.013-.049a.948.948 0 0 0-.312-.511.594.594 0 0 0-.579-.1.422.422 0 0 0-.3.48.389.389 0 0 0 .438.322l-.055-.08a.59.59 0 0 1-.629.2.667.667 0 0 1-.5-.429.942.942 0 0 1 .574-1.092l.058-.022-.037-.05a2.2 2.2 0 0 1-.413-.988l-.03-.2-.059.19a.762.762 0 0 1-.92.482l-.045-.015-.01.047a1.465 1.465 0 0 1-.414.773.873.873 0 0 1-.771.222.581.581 0 0 1-.5-.519.531.531 0 0 1 .344-.569l.069-.017-.057-.045a.683.683 0 0 1 .208-1.134l.039-.01-.02-.035a1.088 1.088 0 0 1 .2-1.31l-.038-.035a.563.563 0 0 1-.854 0l-.023-.023-.01.05a.541.541 0 0 1-.327.38 1.192 1.192 0 0 1-.451.1 1.4 1.4 0 0 1-.7-.155.644.644 0 0 1-.28-.323L364.59 88z" class="C"/><path d="M384.248 94.8l-4.131-11.916c-.981-3.244-3.686-5.377-6.9-4.306l-.291.116a6.06 6.06 0 0 0-3.544 7.415l2.458 7.346a3.9 3.9 0 0 0 4.451 2.269c.006 0 .258.708.574 1.609 0 0 .513 3.023 2.877 2.3s4.506-4.833 4.506-4.833z" class="I"/><path d="M376.3,95.794a7.857,7.857,0,0,0,3.468-2.732,4,4,0,0,1-3.133,3.6Z" class="M"/><g class="B"><path d="M371.088 88.264a.463.463 0 0 0 .589.269.444.444 0 0 0 .289-.566.464.464 0 0 0-.589-.27.444.444 0 0 0-.289.567zm-.552-1.116c.075.035.306-.337.77-.521s.9-.088.925-.164c.015-.035-.08-.115-.271-.164a1.279 1.279 0 0 0-.769.062 1.224 1.224 0 0 0-.585.485c-.099.166-.106.287-.07.302zm4.848-.29a.465.465 0 0 0 .59.269.444.444 0 0 0 .289-.566.464.464 0 0 0-.589-.269.444.444 0 0 0-.29.566zm-.239-1.351c.076.035.306-.337.771-.521s.9-.088.925-.164c.014-.035-.08-.115-.272-.164a1.274 1.274 0 0 0-.768.062 1.227 1.227 0 0 0-.586.485c-.099.166-.106.288-.07.302zm-.259 4.241a3.327 3.327 0 0 0-.808.165c-.124.035-.245.056-.3-.017a.645.645 0 0 1-.061-.383l-.01-1.042a16.612 16.612 0 0 0-.155-2.675 16.655 16.655 0 0 0-.061 2.681l.027 1.042a.741.741 0 0 0 .124.489.32.32 0 0 0 .264.1.885.885 0 0 0 .213-.052 3.242 3.242 0 0 0 .767-.308zm-.451-5.758c.1.108.536-.136 1.107-.286s1.071-.177 1.1-.319c.011-.067-.113-.155-.339-.208a1.987 1.987 0 0 0-1.68.462c-.17.161-.231.299-.188.351zm-4.352 1.504c.122.076.4-.155.789-.305s.743-.2.777-.335c.013-.066-.078-.154-.259-.2a1.224 1.224 0 0 0-1.262.516c-.097.16-.101.286-.045.324z"/></g><path d="M374.894,91.122a2.109,2.109,0,0,0,.427.421.7.7,0,0,0,.569.119.635.635,0,0,0,.419-.447,1.024,1.024,0,0,0-.049-.627c-.069-.181-.226-.371-.415-.333a.481.481,0,0,0-.2.122l-.829.7" class="M"/><g class="B"><path d="M375.521 91.748a1.471 1.471 0 0 0 .489-.232.767.767 0 0 0 .27-.478.808.808 0 0 0-.2-.63.7.7 0 0 0-.13-.115c-.051-.027-.043-.028-.083-.008s-.089.074-.134.111l-.135.116-.476.394a1.863 1.863 0 0 1-.469.329c-.017-.019.132-.18.385-.425l.45-.423.132-.12c.049-.042.083-.08.151-.13a.237.237 0 0 1 .143-.043.279.279 0 0 1 .133.049.86.86 0 0 1 .168.146.947.947 0 0 1 .224.775.862.862 0 0 1-.356.553.813.813 0 0 1-.409.153c-.098.006-.154-.012-.153-.022zm-7.864-7.802a3.684 3.684 0 0 1-.108-.481 1.479 1.479 0 0 1 .186-.724 5.012 5.012 0 0 1 1.4-2.084c.4-.287.88-.422 1.284-.7a8.341 8.341 0 0 0 .7-.606 7.106 7.106 0 0 1 3.366-1.511 5.863 5.863 0 0 1 2.078-.113 7.1 7.1 0 0 1 2.237.868 10.831 10.831 0 0 1 2.99 2.258 5.3 5.3 0 0 1 1.347 2.7 2.559 2.559 0 0 1-.956 2.554l-.429-.275-.67-.4c.162.2.08.21-.067.391a.415.415 0 0 1-.612.007c-.092.247-.5.141-.527-.137-.157.159-.475-.021-.483-.273-.193.147-.424-.166-.606-.368a3.894 3.894 0 0 0-.327-.292 2.535 2.535 0 0 1-.737-1.2 2.478 2.478 0 0 1-.783-1.156l-.357-.829-.219-.153a.486.486 0 0 1-.179.537 1.031 1.031 0 0 1-.523.145l-.543.051-.293.187a1.35 1.35 0 0 1 .151.865.842.842 0 0 1-.16.554.252.252 0 0 1-.414-.16.281.281 0 0 1-.436.056.919.919 0 0 1-.272-.5 2.35 2.35 0 0 1 .046-1.367l-.647 1.1a.432.432 0 0 1-.178.2.246.246 0 0 1-.175.335.64.64 0 0 1-.4-.126c-.284-.165-.628-.485-.51-.8-.108.01-.21-.146-.17-.257l-.785 1.069c.083-.089.241.036.258.173a.561.561 0 0 1-.123.362.824.824 0 0 1 .258.446c.134-.218.5.005.516.284a.6.6 0 0 1-.413.576.415.415 0 0 1-.538-.162c-.208.112-.513-.13-.508-.4-.128.155-.355-.093-.428-.309a3.257 3.257 0 0 1-.17-1.175c-.012.034-.042.06-.075.048l-.034-.036q-.077.729-.151 1.458a3.373 3.373 0 0 0 .028 1.251c.045.167.093.4-.041.457a.223.223 0 0 1-.119 0 2.172 2.172 0 0 1-1.225-.793 1.636 1.636 0 0 1-.284-.448 7.007 7.007 0 0 1-.17-1.097z"/></g><g class="C"><path d="M371.746 81.84a.5.5 0 0 1-.2-.21.351.351 0 0 1 0-.316.378.378 0 0 1 .341-.2h.087l-.056-.068a.4.4 0 0 1-.023-.457.388.388 0 0 1 .484-.122l.047-.078-.041-.041a.226.226 0 0 1-.022-.19.259.259 0 0 1 .128-.145.429.429 0 0 1 .2-.048.547.547 0 0 0 .23-.015c.087-.043.109-.124.147-.168a.781.781 0 0 1 .122-.136.861.861 0 0 1 .289-.161.876.876 0 0 1 .481-.022c.113.028.171.061.175.053a.4.4 0 0 0-.165-.088.858.858 0 0 0-.51 0 .9.9 0 0 0-.318.164.816.816 0 0 0-.139.147c-.044.057-.071.121-.116.138a.538.538 0 0 1-.2 0 .5.5 0 0 0-.237.055.345.345 0 0 0-.173.2.313.313 0 0 0 .033.27l.065.064.046-.078a.461.461 0 0 0-.562.71l.031-.064a.444.444 0 0 0-.4.251.4.4 0 0 0 .013.364.407.407 0 0 0 .164.166c.05.025.079.028.079.025zm-1.921 1.193a.609.609 0 0 1-.235-.194.448.448 0 0 1-.075-.332.469.469 0 0 1 .268-.345l.059-.026-.056-.035a.562.562 0 0 1-.284-.428.3.3 0 0 1 .117-.245.24.24 0 0 1 .266-.04l.321.19-.27-.259a.469.469 0 0 1-.133-.37.429.429 0 0 1 .224-.342.455.455 0 0 1 .3-.055l.116.02-.073-.093a.3.3 0 0 1 .144-.411.767.767 0 0 1 .49-.018l.1.021-.052-.082a.331.331 0 0 1 .014-.338.621.621 0 0 1 .258-.218 1.563 1.563 0 0 1 .558-.147 2.492 2.492 0 0 1 .513.032.41.41 0 0 0-.13-.044 1.466 1.466 0 0 0-.386-.037 1.544 1.544 0 0 0-.585.135.678.678 0 0 0-.292.239.41.41 0 0 0-.02.422l.044-.062a.841.841 0 0 0-.547.019.422.422 0 0 0-.208.225.321.321 0 0 0 .033.321l.043-.073a.547.547 0 0 0-.358.065.518.518 0 0 0-.268.414.548.548 0 0 0 .163.44l.051-.069a.322.322 0 0 0-.362.051.383.383 0 0 0-.144.313.629.629 0 0 0 .329.485v-.061a.528.528 0 0 0-.294.4.485.485 0 0 0 .1.364.474.474 0 0 0 .186.149.177.177 0 0 0 .075.019zm-4.588 1.697a.34.34 0 0 1 .043-.269.432.432 0 0 1 .257-.187 1.286 1.286 0 0 1 .441-.022h.053l-.021-.049a.387.387 0 0 1 .2-.452 1.128 1.128 0 0 1 .642-.079l.3.022-.282-.1a.32.32 0 0 1-.1-.448.728.728 0 0 1 .5-.284h.027l.175-.034-.17-.055a.343.343 0 0 1-.114-.531.519.519 0 0 1 .57-.107l.218.089-.174-.159a.777.777 0 0 1-.218-.759.724.724 0 0 1 .417-.475.817.817 0 0 1 .422-.066c.1.012.153.033.156.027l-.037-.019a.532.532 0 0 0-.114-.034.8.8 0 0 0-.447.046.775.775 0 0 0-.465.5.847.847 0 0 0 .23.84l.044-.069a.6.6 0 0 0-.669.126.437.437 0 0 0-.1.37.383.383 0 0 0 .25.307l.006-.088-.029.005a.806.806 0 0 0-.561.329.46.46 0 0 0-.048.324.333.333 0 0 0 .2.249l.018-.083a1.187 1.187 0 0 0-.687.1.456.456 0 0 0-.218.544l.031-.046a1.3 1.3 0 0 0-.459.038.466.466 0 0 0-.273.218.324.324 0 0 0-.041.216c.008.045.025.066.027.065zm1.138-5.123a.267.267 0 0 0 .126.008 1.571 1.571 0 0 0 .343-.08 1.042 1.042 0 0 1 .507-.068.324.324 0 0 1 .231.162.233.233 0 0 1-.015.28l.071.025c-.014-.117.1-.227.207-.337a1.488 1.488 0 0 1 .356-.293.546.546 0 0 1 .432-.056.361.361 0 0 1 .271.269l.018.111.06-.095a1.006 1.006 0 0 1 .5-.4 1.131 1.131 0 0 1 .506-.071 1.425 1.425 0 0 1 .441.13s-.031-.032-.1-.074a.967.967 0 0 0-.335-.108 1.137 1.137 0 0 0-.536.056 1.062 1.062 0 0 0-.547.42l.078.016a.447.447 0 0 0-.33-.341.634.634 0 0 0-.5.062 1.553 1.553 0 0 0-.377.311 1.865 1.865 0 0 0-.153.176.331.331 0 0 0-.073.234l.012.085.06-.06a.312.312 0 0 0 .024-.38.394.394 0 0 0-.286-.193 1.051 1.051 0 0 0-.537.089 1.931 1.931 0 0 1-.329.1 1.148 1.148 0 0 0-.125.022zm3.825-2.872a.975.975 0 0 1 .238-.034.576.576 0 0 1 .257.075.5.5 0 0 1 .224.252l.018.046.039-.028a.3.3 0 0 1 .37.086.9.9 0 0 1 .156.475l.023.178.066-.17.01-.027a.383.383 0 0 1 .262-.21.431.431 0 0 1 .321.041.684.684 0 0 1 .324.463 1.28 1.28 0 0 1 .011.4.681.681 0 0 0-.013.152.422.422 0 0 0 .048-.146 1.1 1.1 0 0 0 .016-.422.733.733 0 0 0-.346-.524.5.5 0 0 0-.707.207l-.013.035.088.008a.949.949 0 0 0-.181-.52.375.375 0 0 0-.478-.092l.058.018a.555.555 0 0 0-.266-.28.6.6 0 0 0-.287-.064.485.485 0 0 0-.183.042c-.035.022-.055.036-.055.039zm4.613 1.532s.044-.011.107-.059a.75.75 0 0 0 .209-.262.806.806 0 0 0 .072-.494.413.413 0 0 1-.012-.253c.032-.075.127-.145.163-.265a.455.455 0 0 0-.282-.555l.022.063a1.455 1.455 0 0 0 .222-.624.577.577 0 0 0-.009-.255c-.01 0-.011.093-.041.248a1.6 1.6 0 0 1-.241.586l-.031.046.053.017a.373.373 0 0 1 .22.448c-.022.088-.107.149-.157.255a.469.469 0 0 0 .011.306.779.779 0 0 1-.049.451 1.145 1.145 0 0 1-.257.347zm1.328.41s.027 0 .075-.011a1.026 1.026 0 0 0 .2-.078 1.21 1.21 0 0 0 .536-.551l-.056.015a.778.778 0 0 0 .59.122.809.809 0 0 0 .313-.132.493.493 0 0 0 .214-.3.971.971 0 0 0 0-.135.178.178 0 0 1 .031-.1.56.56 0 0 1 .175-.147.714.714 0 0 0 .2-.156.258.258 0 0 0 .062-.25l-.044.054a.8.8 0 0 0 .534-.142.866.866 0 0 0 .286-.32.71.71 0 0 0 .079-.266.268.268 0 0 0-.005-.1 1.161 1.161 0 0 1-.117.34.858.858 0 0 1-.28.287.741.741 0 0 1-.487.117l-.066-.008.022.062a.178.178 0 0 1-.05.168.639.639 0 0 1-.178.136.635.635 0 0 0-.2.173.261.261 0 0 0-.047.144 1.114 1.114 0 0 1 0 .125.417.417 0 0 1-.177.237.729.729 0 0 1-.277.12.708.708 0 0 1-.529-.1l-.038-.026-.019.042a1.226 1.226 0 0 1-.489.544c-.158.101-.261.126-.258.136zm7.63.686v-.033a.457.457 0 0 0-.012-.095.946.946 0 0 0-.142-.334 2.152 2.152 0 0 0-.375-.421 2.047 2.047 0 0 0-.274-.22.532.532 0 0 0-.185-.072.238.238 0 0 0-.213.062l.065.02a.6.6 0 0 0-1.09-.23l.08.014a.418.418 0 0 0-.257-.279.4.4 0 0 0-.385.062.411.411 0 0 0-.133.179l.088.007a.26.26 0 0 0-.152-.178.357.357 0 0 0-.22-.025.824.824 0 0 0-.345.2h.058a.644.644 0 0 0-.453-.154.9.9 0 0 0-.427.124 2.291 2.291 0 0 0-.561.517l.057.026a.162.162 0 0 0-.062-.146.274.274 0 0 0-.131-.051.463.463 0 0 0-.242.032 1.284 1.284 0 0 0-.316.205 1.144 1.144 0 0 0-.163.173.241.241 0 0 0-.044.07c.007.006.072-.089.229-.215a1.392 1.392 0 0 1 .314-.185.413.413 0 0 1 .213-.022c.075.01.149.056.136.13l-.019.11.077-.084a2.277 2.277 0 0 1 .551-.492.826.826 0 0 1 .389-.109.567.567 0 0 1 .393.135l.028.026.029-.025a.751.751 0 0 1 .307-.183.221.221 0 0 1 .264.133l.031.157.056-.151a.32.32 0 0 1 .1-.138.311.311 0 0 1 .3-.05.33.33 0 0 1 .2.217l.025.1.055-.081a.534.534 0 0 1 .562-.209.54.54 0 0 1 .379.4l.015.074.05-.054c.078-.082.213-.039.309.017a1.994 1.994 0 0 1 .267.206 2.238 2.238 0 0 1 .381.4 1.213 1.213 0 0 1 .193.44zm.299 2.677a.235.235 0 0 0 .027-.068 1.407 1.407 0 0 0 .052-.2.644.644 0 0 0-.023-.339.472.472 0 0 0-.124-.181.338.338 0 0 0-.233-.091l.031.042a.423.423 0 0 0-.615-.5l.058.05a.342.342 0 0 0-.125-.384.507.507 0 0 0-.422-.065 1.862 1.862 0 0 1-.194.056.175.175 0 0 1-.152-.069.738.738 0 0 0-.167-.155.39.39 0 0 0-.238-.054 2.251 2.251 0 0 0-.467.124.521.521 0 0 1-.407 0 1.8 1.8 0 0 1-.168-.132.457.457 0 0 0-.216-.084.478.478 0 0 0-.4.14l.067.039a.36.36 0 0 0-.164-.387.506.506 0 0 0-.373-.067 1.624 1.624 0 0 0-.549.236 2 2 0 0 0-.3.236.484.484 0 0 0-.091.1 4.755 4.755 0 0 1 .417-.3 1.645 1.645 0 0 1 .534-.211.443.443 0 0 1 .322.063.288.288 0 0 1 .13.3l-.054.163.12-.124a.4.4 0 0 1 .333-.111.368.368 0 0 1 .175.07 1.829 1.829 0 0 0 .175.139.474.474 0 0 0 .24.055 1.045 1.045 0 0 0 .237-.045 2.258 2.258 0 0 1 .447-.119.3.3 0 0 1 .186.041.682.682 0 0 1 .149.141.265.265 0 0 0 .225.1 1.82 1.82 0 0 0 .207-.059.419.419 0 0 1 .349.048.26.26 0 0 1 .1.286l-.043.109.1-.059a.358.358 0 0 1 .415.044.367.367 0 0 1 .1.364l-.014.043h.045a.345.345 0 0 1 .308.227.618.618 0 0 1 .035.315l-.045.273zm1.996 4.532s.031-.012.077-.052a.625.625 0 0 0 .153-.214.645.645 0 0 0 .039-.412.685.685 0 0 0-.32-.434l.018.045a1.248 1.248 0 0 0 .1-.5.511.511 0 0 0-.1-.273.375.375 0 0 0-.269-.156l.031.074a.525.525 0 0 0 .085-.518.585.585 0 0 0-.172-.258.5.5 0 0 0-.278-.115c-.093-.013-.143-.04-.17-.124a.729.729 0 0 0-.132-.238.915.915 0 0 0-.426-.253l-.4-.14a1.509 1.509 0 0 0-.6-.1.684.684 0 0 0-.164.033c-.037.014-.055.022-.054.025s.079-.021.219-.023a1.626 1.626 0 0 1 .582.121l.391.15a.85.85 0 0 1 .387.237.613.613 0 0 1 .116.215.259.259 0 0 0 .09.129.352.352 0 0 0 .147.051.47.47 0 0 1 .312.743l-.061.068.092.006a.361.361 0 0 1 .291.346 1.219 1.219 0 0 1-.089.468l-.01.03.027.015a.63.63 0 0 1 .3.383.613.613 0 0 1-.021.38.9.9 0 0 1-.191.291zm-9.924-4.747a.684.684 0 0 0 .227-.178.755.755 0 0 0 .175-.271.5.5 0 0 0-.025-.4l-.061-.081v.066a.438.438 0 0 0 .131-.35.4.4 0 0 0-.138-.267c-.136-.111-.253-.092-.249-.084a.75.75 0 0 1 .206.129.346.346 0 0 1 .1.228.362.362 0 0 1-.111.278l-.033.031.032.035.047.061a.438.438 0 0 1 .024.332.8.8 0 0 1-.144.254c-.112.129-.192.206-.181.217zm-2.288-.35a.532.532 0 0 1-.154-.3.376.376 0 0 1 .126-.332.407.407 0 0 1 .435-.056l.07.036-.008-.078a.751.751 0 0 1 .025-.286.342.342 0 0 1 .172-.219c.134-.059.328.025.323.151l.087-.007a.693.693 0 0 1 .113-.5.673.673 0 0 1 .332-.252 1.055 1.055 0 0 1 .384-.04.222.222 0 0 0-.1-.033.685.685 0 0 0-.3.02.708.708 0 0 0-.376.261.756.756 0 0 0-.138.562l.087-.007a.257.257 0 0 0-.16-.228.362.362 0 0 0-.286-.007.427.427 0 0 0-.223.276.823.823 0 0 0-.024.321l.062-.043a.478.478 0 0 0-.522.078.426.426 0 0 0-.13.395.44.44 0 0 0 .124.241c.046.039.079.05.081.047z"/></g><path d="M380.75 85.279c.043-.043 1.83-1.442 2.588.649a1.672 1.672 0 0 1-1.523 2.362c-.025-.058-1.065-3.011-1.065-3.011z" class="I"/><path d="M382.157 87.226c.007-.01.046.012.118.018a.388.388 0 0 0 .275-.093.961.961 0 0 0 .123-.96 1.283 1.283 0 0 0-.291-.484.448.448 0 0 0-.375-.18.2.2 0 0 0-.179.178c-.007.069.022.105.012.113s-.058-.019-.072-.111a.245.245 0 0 1 .034-.161.3.3 0 0 1 .183-.126.544.544 0 0 1 .5.186 1.306 1.306 0 0 1 .337.537 1.006 1.006 0 0 1-.2 1.1.414.414 0 0 1-.353.066c-.089-.034-.117-.077-.112-.083z" class="M"/><path d="M376.234,117.246l-.093-.355Z" class="L"/><path d="M377.531 117.326a12.425 12.425 0 0 1-1.3-.061l-.093-.356-.228-.871c6.569-1.034 13.528-9.069 13.528-9.069s-3.469 7.123-6.253 8.958a10.68 10.68 0 0 1-5.654 1.399z" class="H"/><path d="M384.118 100.1l-6.839 8.913-16.529 2.424.863 5.479 16.423-.943a9.579 9.579 0 0 0 6.285-3.158l6.453-7.527a4.22 4.22 0 1 0-6.656-5.188z" class="D"/><g class="C"><path d="M391.19 156.17c-.049.01-1.113-4.857-2.378-10.87l-2.2-10.909c.05-.009 1.113 4.856 2.378 10.871l2.2 10.908zm9.774-3.964c.036.035-.209.349-.547.7s-.643.613-.679.578.209-.349.548-.7.642-.612.678-.578z"/></g><g class="B"><path d="M386.8 96.969l-.163.225-.493.644-1.9 2.44-6.879 8.775-.018.023-.03.005-16.527 2.44.076-.1.513 3.159q.2 1.209.389 2.4l-.094-.076 17.5-1.088h-.007a9.532 9.532 0 0 0 3.013-1.253 9.834 9.834 0 0 0 2.235-1.919l3.16-3.637 2.03-2.324.538-.607.19-.2s-.055.077-.172.217l-.521.622-2 2.351-3.133 3.661a9.957 9.957 0 0 1-5.315 3.239h-.007l-17.5 1.12-.081.005-.014-.08q-.192-1.185-.389-2.4l-.513-3.159-.014-.09.09-.013 16.532-2.41-.048.028 6.929-8.736 1.931-2.415q.33-.408.511-.63l.181-.217zm2.04 18.672a1.853 1.853 0 0 1-.2.363c-.14.228-.362.547-.653.928a15.98 15.98 0 0 1-5.788 4.662l-1.046.439a1.843 1.843 0 0 1-.4.123c-.012-.029.539-.245 1.388-.677a17.961 17.961 0 0 0 5.744-4.626l.955-1.212zm1.536 2.501c.024.044-1.446.926-3.284 1.97l-3.373 1.814c-.025-.043 1.446-.925 3.284-1.97l3.373-1.814zm-16.547-9.797a2.192 2.192 0 0 1-.115-.35l-.281-.963-.894-3.185-.855-3.2q-.143-.57-.241-.974a1.479 1.479 0 0 1-.065-.364 1.436 1.436 0 0 1 .133.345l.3.959.906 3.183.843 3.2a7 7 0 0 1 .269 1.349z"/></g><path d="M382.391 123.259a53.759 53.759 0 0 0 8.37-4.025 6.391 6.391 0 0 1-3.565 3.2 17.567 17.567 0 0 1-4.805.825z" class="H"/><path d="M353.606 118.558c-.035.038-.339.335-.623.611a2.556 2.556 0 0 0-.688 1.144l-.245.9-.675 2.15 2.5 1.831.4-1.807a5.977 5.977 0 0 0 1.592-.942 2.834 2.834 0 0 0 .943-1.23.61.61 0 0 0-.069-.514s-.032-.987-.388-1.017a1.334 1.334 0 0 0 .07-.792c-.23-.495-.923-.457-.923-.457a.232.232 0 0 0-.022-.388.328.328 0 0 0-.454.078l-1.4 1.241z" class="N"/><path d="M333.541 124.8a3.86 3.86 0 0 0 .72 4.982c3.3 2.874 12.215 7.873 13.554 7.65 1.935-.321 6.993-11.583 6.993-11.583l-3.763-3.1-4.708 7.63s-3.885-3.667-6.922-6.072c-1.847-1.462-4.615-1.492-5.874.493z" class="D"/><path d="M339.237 124.2a1.3 1.3 0 0 1 .133.1l.377.318 1.432 1.231 5.209 4.526-.105.015 4.693-7.639.053-.084.076.063 3.765 3.1.053.044-.028.063-1.291 2.743-2.455 4.709-1.321 2.156-.729.991a4.331 4.331 0 0 1-.868.853.925.925 0 0 1-.6.178 2.925 2.925 0 0 1-.581-.128 11.436 11.436 0 0 1-1.071-.4l-1.965-.932-3.412-1.888-4.728-3.081-1.209-.945-.3-.262a.857.857 0 0 1-.1-.1.706.706 0 0 1 .109.08l.312.249 1.228.916c1.083.772 2.694 1.831 4.751 3.028l3.415 1.864 1.959.92 1.055.392a2.832 2.832 0 0 0 .548.12.756.756 0 0 0 .5-.153 4.228 4.228 0 0 0 .827-.821c.254-.308.486-.642.718-.98l1.31-2.147 2.446-4.7 1.29-2.738.025.106-3.761-3.1.128-.021-4.722 7.621-.044.07-.061-.055-5.168-4.571-1.408-1.259-.364-.332a.92.92 0 0 1-.121-.12z" class="B"/><path d="M334.882,63.049a1.309,1.309,0,0,1-.162.329,2.194,2.194,0,0,0,.059,2.3l.789,1.209.1,1.859,4.032.967-.189-3.277a7.088,7.088,0,0,0,.674-2.317c.008-.935-.241-1.929-.547-1.971l-.4-.055a1.389,1.389,0,0,0-.8-.638s-.243-1.209-.661-1.314-.788.325-.788.325-.514-.987-.954-.922a1.049,1.049,0,0,0-.895,1.031l-.266,2.554Z" class="G"/><path d="M325.483,24.873a1.023,1.023,0,1,0-1.952.611l48.633,154.932,2.13.088Z" class="P"/><path d="M326.712 26.891S313.787 35.7 303.788 36.5s-21.31 1.558-27.257 8.234c0 0 21.97 3.448 23.209 6.368 0 0-13.133 10.432-15.123 16.42l11.4-4.174c6.476-2.743 19.068-1.521 23.862-3.251 5.313-1.917 10.339-7.307 14.711-8.145z" class="D"/><path d="M311.938,54.731l-.89-5.723-5.22-2.512L311,43.881l.776-5.74,4.084,4.108,5.7-1.036-2.644,5.154,2.746,5.1-5.718-.922Z" fill="#f6948e"/><g class="B"><path d="M322.765 35.953a1.217 1.217 0 0 1-.076.236l-.252.665-.431 1.04-.624 1.355-.832 1.605-1.046 1.793a41.219 41.219 0 0 1-2.762 3.871 41.271 41.271 0 0 1-3.227 3.5l-1.542 1.39-1.4 1.142-1.2.887-.93.634-.6.382a1.231 1.231 0 0 1-.216.123 1.3 1.3 0 0 1 .2-.153l.58-.41.911-.657 1.179-.906 1.384-1.155 1.525-1.4a43.642 43.642 0 0 0 3.2-3.489 43.475 43.475 0 0 0 2.761-3.846l1.056-1.778.849-1.59.646-1.339.458-1.026.283-.652a1.321 1.321 0 0 1 .106-.222zm7.298 13.422a.9.9 0 0 1-.077-.189l-.185-.551-.649-2.038-2.062-6.748-1.975-6.776-.55-2.068-.125-.569a1.04 1.04 0 0 1-.018-.152l.021-.034.005.014c-.026-.035 0 .035.028.165l.157.559.605 2.05 2.025 6.759 2.011 6.763.594 2.055.153.561a.884.884 0 0 1 .042.199z"/></g><path d="M330.809 51.54a17.832 17.832 0 0 1-4.213-8.421 47.872 47.872 0 0 1-.955-8.419l1.5 5.1 1.223 4.037q1.155 3.874 2.445 7.703zm-4.695-15.8l-.5-1.677-.017-.375q.252 1.027.517 2.052z" class="H"/><path d="M328.348 43.855l-1.223-4.037-1.5-5.1-.03-.637.5 1.677q1.052 4.067 2.253 8.097z" fill="#011721"/><path d="M352.128 109.859c.1.008 1.652 0 2.578 0a1.768 1.768 0 0 1 1.186.452l1.963 1.766 2.866-.328.8 4.738-3.967-.149a12.429 12.429 0 0 1-2.755.475c-1.056-.015-2.171-.321-2.211-.668l-.051-.453a1.563 1.563 0 0 1-.7-.92s-1.358-.305-1.466-.779.386-.881.386-.881-1.1-.6-1.016-1.1a1.2 1.2 0 0 1 .557-.765l2.149-.288z" class="I"/><g class="B"><path d="M345.782,107.984a4.9,4.9,0,0,1,.668,4.484c-.256.72-.687,1.5-.361,2.2s1.257.92,1.556,1.615c.352.819-.368,1.7-.4,2.589a1.764,1.764,0,0,0,1.467,1.756,6.875,6.875,0,0,1-3.68.535l-.6-1.432a1.264,1.264,0,0,1-.488,1.474,2.876,2.876,0,0,1-1.6.444,8.733,8.733,0,0,1-7.06-3.2"/><path d="M330.224 110.747a17.462 17.462 0 0 0 1.069-1.5c.605-1.174.379-2.743 1.288-3.7a3.675 3.675 0 0 1 2.61-.857 5.931 5.931 0 0 0 2.752-.466c.6-.338 1.045-.908 1.645-1.248a4.147 4.147 0 0 1 2.873-.243 5.9 5.9 0 0 1 2.726 1.237 3.229 3.229 0 0 1 1.16 2.673 9.587 9.587 0 0 0-.217 1.456 10.041 10.041 0 0 0 .428 1.561 2.59 2.59 0 0 1-1.438 2.825l-9.013 6.809c-1.545.149-4.769-1.413-5.571-2.743s-1.164-4.506-.312-5.804z"/></g><path d="M345.267 111.34c.256-2.032-.6-4.748-2.645-4.918l-6.548.389a1.2 1.2 0 0 0-1.28.993L332.592 123h-.045s.6 4.52 4.98 4.019c.868-.1 1.157.269 1.5-.621l.022-.109.764-3.446.34-1.7c-.001.012 2.646.063 3.815-3.183a36.382 36.382 0 0 0 1.299-6.62z" class="N"/><g class="B"><path d="M339.667 113.3a.437.437 0 0 1-.5.354.418.418 0 0 1-.368-.471.437.437 0 0 1 .5-.355.419.419 0 0 1 .368.472zm4.375.707a.439.439 0 0 1-.5.355.418.418 0 0 1-.368-.472.437.437 0 0 1 .5-.355.419.419 0 0 1 .368.472zm.527-1.336c-.067.065-.391-.288-.9-.35s-.914.189-.962.11c-.023-.036.051-.158.229-.276a1.168 1.168 0 0 1 .78-.177 1.155 1.155 0 0 1 .7.369c.147.159.184.296.153.324zm-4.68-.671c-.077.055-.386-.329-.919-.449s-.987.076-1.029-.007c-.022-.038.068-.149.268-.243a1.329 1.329 0 0 1 .843-.08 1.284 1.284 0 0 1 .712.444c.136.174.162.312.125.335zm.939 3.545a3.08 3.08 0 0 1 .776.007c.12.01.236.008.272-.068a.614.614 0 0 0-.013-.365l-.177-.965a15.722 15.722 0 0 1-.336-2.5 15.852 15.852 0 0 1 .536 2.466l.162.967a.694.694 0 0 1-.027.474.3.3 0 0 1-.227.136.82.82 0 0 1-.205-.011 3.131 3.131 0 0 1-.761-.141z"/></g><path d="M340.16,121.127a8.66,8.66,0,0,1-4.254-2.049s.649,2.506,4.058,2.831Z" class="Q"/><path d="M340.472,116.641a.847.847,0,0,0-.687-.451.775.775,0,0,0-.578.182.49.49,0,0,0-.142.543.57.57,0,0,0,.577.269,1.793,1.793,0,0,0,.657-.24.537.537,0,0,0,.158-.111.158.158,0,0,0,.032-.172" class="D"/><g class="B"><path d="M339.4 115.641c.076.01-.018.512.343.949s.9.484.9.555c0 .033-.138.075-.364.038a1.27 1.27 0 0 1-.754-.435 1.107 1.107 0 0 1-.255-.79c.021-.213.101-.326.13-.317zm.842-5.231c-.07.117-.52-.03-1.074-.069s-1.021.027-1.071-.1c-.022-.06.077-.163.277-.251a1.864 1.864 0 0 1 1.633.128c.184.118.266.236.235.292zm4.244.834c-.113.087-.456-.091-.892-.18s-.821-.083-.886-.209c-.027-.061.052-.154.233-.223a1.392 1.392 0 0 1 .759-.033 1.369 1.369 0 0 1 .672.346c.134.137.165.255.114.299z"/><path d="M334.613 106.89a2.78 2.78 0 0 1 1.611-.535 31.243 31.243 0 0 1 7.429.116 1.271 1.271 0 0 1-.833 1.391 5.679 5.679 0 0 1-1.743.273 2.2 2.2 0 0 0-1.583.681c-.386.5-.368 1.213-.728 1.728-.621.885-2.077.83-2.692 1.72-.466.673-.25 1.582-.354 2.393a2.923 2.923 0 0 1-3.642 2.46l1.806-8.586a2.922 2.922 0 0 1 .729-1.641z"/><path d="M326.951 112.5a3.5 3.5 0 0 0 1.537-.994c.484-.761.081-1.919.717-2.56.579-.584 1.725-.235 2.281-.842.434-.474.239-1.05.479-1.5a1.367 1.367 0 0 1 1.518-.5l2.334 6.622c-.15 1.968-.061 3.062-.759 4.047a9.181 9.181 0 0 0-1.088 1.658 1.885 1.885 0 0 0 .125 1.888c-2.35-.445-4.179-2.234-5.856-3.939l-1.775-1.805a1.594 1.594 0 0 1-.448-.64c-.17-.601.384-1.158.935-1.435z"/></g><path d="M328.406 115.726a1.134 1.134 0 0 0 .233.114 2.172 2.172 0 0 0 .73.144 2.307 2.307 0 0 0 1.146-.267 2.26 2.26 0 0 0 1.023-1.166 2.344 2.344 0 0 0 .165-.9 3.756 3.756 0 0 0-.2-.971 3.531 3.531 0 0 1-.2-1.007 1.186 1.186 0 0 1 .388-.943 2.167 2.167 0 0 1 1.093-.234 1.087 1.087 0 0 0 .589-.23 1.066 1.066 0 0 0 .322-.56 6.72 6.72 0 0 0 .064-1.27 1.358 1.358 0 0 1 .156-.589.849.849 0 0 1 .459-.376 2.381 2.381 0 0 1 1.248 0 2.58 2.58 0 0 0 1.28-.027 2.32 2.32 0 0 0 1.051-.66 3.843 3.843 0 0 0 .6-1.021 5.281 5.281 0 0 1 .506-.973 2.376 2.376 0 0 1 .762-.669 2.677 2.677 0 0 1 3.132.394 3.282 3.282 0 0 1 .7.916 4.249 4.249 0 0 1 .334.934.234.234 0 0 0 0-.066l-.034-.19a3.142 3.142 0 0 0-.247-.7 3.25 3.25 0 0 0-.7-.949 2.807 2.807 0 0 0-1.379-.723 2.848 2.848 0 0 0-1.861.284 2.513 2.513 0 0 0-.806.7 5.386 5.386 0 0 0-.524.992 3.727 3.727 0 0 1-.581.985 2.18 2.18 0 0 1-.99.618 2.449 2.449 0 0 1-1.219.022 2.5 2.5 0 0 0-1.32 0 .985.985 0 0 0-.53.437 1.488 1.488 0 0 0-.174.648 6.92 6.92 0 0 1-.057 1.247.938.938 0 0 1-.278.491.967.967 0 0 1-.519.2l-.589.053a1.13 1.13 0 0 0-.565.211 1.3 1.3 0 0 0-.432 1.043 3.606 3.606 0 0 0 .212 1.041 3.649 3.649 0 0 1 .2.941 2.254 2.254 0 0 1-.148.864 2.191 2.191 0 0 1-.969 1.134 2.276 2.276 0 0 1-1.108.281 2.573 2.573 0 0 1-.963-.203z" class="C"/><g class="B"><path d="M326.352 110.994a.5.5 0 0 0-.127.168.853.853 0 0 0-.056.6.9.9 0 0 0 .211.39.95.95 0 0 0 .455.264 1.192 1.192 0 0 0 1.182-.366 1.6 1.6 0 0 0 .354-.657 2.228 2.228 0 0 0 .045-.805 4.909 4.909 0 0 1-.1-1.706 1.1 1.1 0 0 1 .482-.719 1.207 1.207 0 0 1 .907-.034 2.932 2.932 0 0 0 1.025.167.9.9 0 0 0 .5-.234 1.288 1.288 0 0 0 .306-.462 4.225 4.225 0 0 0 .194-1.045 2.337 2.337 0 0 1 .311-.934 2.484 2.484 0 0 1 1.459-1.121 3.511 3.511 0 0 1 1.694.069 4.9 4.9 0 0 0 1.519.166 3.206 3.206 0 0 0 1.969-.941 2.265 2.265 0 0 0 .472-.656 4.266 4.266 0 0 1-.51.617 3.156 3.156 0 0 1-.76.542 3.105 3.105 0 0 1-1.179.34 4.843 4.843 0 0 1-1.486-.181 3.6 3.6 0 0 0-1.753-.079 2.6 2.6 0 0 0-1.535 1.168 2.475 2.475 0 0 0-.331.985 4.163 4.163 0 0 1-.186 1.012.889.889 0 0 1-.7.611 2.849 2.849 0 0 1-.974-.162 1.334 1.334 0 0 0-1.006.051 1.227 1.227 0 0 0-.54.8 2.339 2.339 0 0 0-.022.915l.128.834a2.112 2.112 0 0 1-.034.765 1.476 1.476 0 0 1-.323.618 1.109 1.109 0 0 1-1.09.358.894.894 0 0 1-.427-.235.872.872 0 0 1-.177-.929c.051-.117.109-.168.103-.174zm23.91 7.906a.94.94 0 0 1-.171.6.821.821 0 0 1-.61.355.862.862 0 0 1-.782-.46.792.792 0 0 1-.067-.536 1.638 1.638 0 0 1 .246-.558 3.52 3.52 0 0 0 .692-1.231 1.924 1.924 0 0 0-.339-1.52 2.271 2.271 0 0 0-.615-.572 3.287 3.287 0 0 0-.787-.34 4.529 4.529 0 0 1-.773-.3 1.093 1.093 0 0 1-.515-.553 1.348 1.348 0 0 1-.039-.742 2.691 2.691 0 0 1 .252-.694 5.573 5.573 0 0 0 .572-1.29 2.122 2.122 0 0 0-.108-1.229 2.734 2.734 0 0 0-.578-.837 5.122 5.122 0 0 1-.487-.577 1.615 1.615 0 0 1-.246-.587v.043a.686.686 0 0 0 .016.126 1.239 1.239 0 0 0 .186.447 4.765 4.765 0 0 0 .474.6 2.689 2.689 0 0 1 .544.821 2.022 2.022 0 0 1 .087 1.169 5.607 5.607 0 0 1-.573 1.257 2.771 2.771 0 0 0-.268.726 1.471 1.471 0 0 0 .042.816 1.229 1.229 0 0 0 .574.624 4.506 4.506 0 0 0 .8.311 3.214 3.214 0 0 1 .757.325 2.119 2.119 0 0 1 .579.535 1.8 1.8 0 0 1 .324 1.415 3.479 3.479 0 0 1-.664 1.194 1.743 1.743 0 0 0-.254.6.89.89 0 0 0 .085.6.941.941 0 0 0 .874.491.911.911 0 0 0 .8-.864.509.509 0 0 0-.028-.165z"/></g><path d="M305.129,170.121l6.755-1.433,1.125,5.538-4.965.11.05,4.478c2.228.628,2.541,1.755,2.541,1.755l-4.659-.106-4.054-8.243Z" class="D"/><path d="M301.922,172.259l.2-.128Zm.381-.249.3-.2Z" fill="#f4f5f4" fill-rule="evenodd"/><path d="M302.078,172.09l.186-.121Z" fill="#eee"/><path d="M310.635,180.608l-4.659-.106-4.054-8.243.2-.128.186-.121.3-.2,3.738,7.789,3.784.295Z" class="O"/><g class="B"><path d="M308.1 176.815c-.036.047-.3-.112-.662-.11s-.628.146-.663.1.226-.309.665-.3.698.274.66.31zm-.014-1.172c-.047.032-.248-.248-.618-.328s-.67.082-.7.033c-.015-.021.04-.1.173-.166a.87.87 0 0 1 1.06.237c.091.118.108.211.085.224zm.002-1.422c-.051.025-.2-.248-.526-.367s-.616-.021-.639-.073c-.011-.024.049-.088.179-.133a.808.808 0 0 1 .94.356c.068.12.071.208.046.217zm.351.023c-.057-.014-.022-.308-.161-.622s-.367-.5-.338-.548.362.077.526.467.023.728-.027.703zm.548-.495a2.01 2.01 0 0 1-.11-.626l-.062-.682a1.458 1.458 0 0 1 0-.434.372.372 0 0 1 .166-.231.291.291 0 0 1 .317.012.867.867 0 0 1 .265.413 1.62 1.62 0 0 1 .084.421 1.585 1.585 0 0 1-.123.705c-.167.38-.4.517-.409.5a4.85 4.85 0 0 0 .273-.55 1.605 1.605 0 0 0 .07-.64 1.452 1.452 0 0 0-.084-.366.736.736 0 0 0-.192-.312.082.082 0 0 0-.1-.007.173.173 0 0 0-.076.108 1.506 1.506 0 0 0-.006.371l.019.685a2.011 2.011 0 0 1-.032.633z"/><path d="M309.062 173.915c-.019-.012.119-.216.477-.333a1.167 1.167 0 0 1 1.323.472.22.22 0 0 1-.021.181.266.266 0 0 1-.122.1.738.738 0 0 1-.218.044 2.176 2.176 0 0 1-.379 0 2.013 2.013 0 0 1-.617-.157c-.334-.147-.488-.316-.473-.334s.2.1.523.2a2.28 2.28 0 0 0 .58.1 2.118 2.118 0 0 0 .345-.01.57.57 0 0 0 .157-.031c.041-.024.029-.017.029-.031a.351.351 0 0 0-.092-.111.937.937 0 0 0-.137-.109 1.129 1.129 0 0 0-.862-.174 4.294 4.294 0 0 0-.513.193z"/></g><path d="M305.054,172.762h-.013a.553.553,0,0,1,.012-1.106h.012a.553.553,0,0,1-.011,1.1Z" class="O"/><path d="M356.348,170.719l-.064,6.1s6.5,2.415,6.594,3.543H350.729l-.291-9.508Z" class="D"/><path d="M352.77 177.341a.47.47 0 0 1-.445-.337.485.485 0 0 1 .278-.544.3.3 0 0 1 .153-.038.523.523 0 0 1 .457.31.51.51 0 0 1-.335.6.432.432 0 0 1-.108.009z" class="O"/><path d="M362.9 180.36h0c-.022-.248-.352-.558-.854-.891h.055s.848.518.799.891z" class="F"/><path d="M362.9 180.428h-12.15l.008-.959 11.287.068c.502.334.832.644.855.891z" class="O"/><g class="B"><path d="M356.5 176.783c0 .058-.289.092-.569.285s-.424.44-.478.418.024-.357.366-.585.692-.171.681-.118zm1.265.517c.014.056-.233.16-.423.41s-.24.509-.3.508-.1-.327.139-.633.581-.337.584-.285zm.717 1.458c-.053.014-.14-.273 0-.593s.408-.453.433-.406-.137.221-.248.486-.128.506-.185.513zm-2.128-3.392c-.023.053-.29-.02-.616.01s-.578.14-.61.092.208-.261.593-.292.66.143.633.19z"/></g><path d="M350.548,173.1l-.032-.979h0Z" class="L"/><path d="M350.546,173.151l-.03-.978,5.856-.2-.01,1.087Z" class="H"/><g class="B"><path d="M356.395 174.134a1.115 1.115 0 0 1-.593.012 2.635 2.635 0 0 1-.625-.174 2.758 2.758 0 0 1-.344-.172.724.724 0 0 1-.183-.135.25.25 0 0 1-.034-.306.315.315 0 0 1 .25-.139.787.787 0 0 1 .223.025 2.062 2.062 0 0 1 .371.117 2.1 2.1 0 0 1 .556.344c.281.248.38.461.361.473s-.164-.158-.449-.361a2.408 2.408 0 0 0-.536-.284 2.206 2.206 0 0 0-.343-.1c-.126-.03-.233-.028-.264.028-.011.022-.012.031.015.066a.568.568 0 0 0 .134.1 3.1 3.1 0 0 0 .318.171 3.3 3.3 0 0 0 .578.205 4.192 4.192 0 0 1 .565.13z"/><path d="M356.316 174.251a.95.95 0 0 1-.17-.568 1.914 1.914 0 0 1 .206-1.015.489.489 0 0 1 .37-.308.275.275 0 0 1 .252.159.817.817 0 0 1 .066.215 1.346 1.346 0 0 1 .011.4 1.367 1.367 0 0 1-.238.619c-.223.312-.463.388-.468.368s.179-.145.348-.444a1.358 1.358 0 0 0 .173-.562 1.2 1.2 0 0 0-.019-.342c-.022-.125-.072-.225-.119-.211s-.156.1-.2.2a2 2 0 0 0-.138.325 2.125 2.125 0 0 0-.1.594c-.009.346.058.561.026.57zm-32.131-16.43c.416 0 2.408 8.124 2.408 8.124l-18.421 2.746 1.168 7.345 23.24-1.793a6.237 6.237 0 0 0 4.569-6.535c-.1-3.874-2.367-13-2.367-13z"/></g><path d="M332.2 162.089c-1.1 0-2.252-.024-3.255-.1-3.009-.215-3.9-2.063-3.9-2.063l10.689-.775.606 2.838-4.14.1z" fill="#011721"/><path d="M358.542 151.646a6.418 6.418 0 0 0-6.439-5.868h-3.275l-17.705.916-9.608-2.925s-3.34 5.974-1.419 10.965a9.123 9.123 0 0 0 7.06 5.786c4 .681 22.327-3.175 22.327-3.175v16.325l8.315-.214.76-21.489a6.63 6.63 0 0 0-.016-.321z" class="B"/><g class="C"><path d="M349.455 157.359a.491.491 0 0 1-.109.028l-.322.065-1.241.233-4.571.824-6.782 1.2-4.006.7a17.394 17.394 0 0 1-4.37.248 12.8 12.8 0 0 1-2.2-.349 9.007 9.007 0 0 1-2.035-.748 7.893 7.893 0 0 1-2.933-2.816 9.994 9.994 0 0 1-1.352-3.432 10.46 10.46 0 0 1-.117-3.213 19.738 19.738 0 0 1 1.205-4.488c.2-.51.388-.9.521-1.152l.158-.288a.451.451 0 0 1 .062-.094.49.49 0 0 1-.046.1l-.141.3-.488 1.162a20.562 20.562 0 0 0-1.144 4.476 10.4 10.4 0 0 0 .137 3.17 9.872 9.872 0 0 0 1.346 3.372 7.746 7.746 0 0 0 2.873 2.743 8.915 8.915 0 0 0 2 .73 12.809 12.809 0 0 0 2.171.343 17.35 17.35 0 0 0 4.326-.243l4.008-.691 6.789-1.161 4.58-.767 1.247-.2.325-.048a.5.5 0 0 1 .109-.004zm-21.834 17.403a.485.485 0 0 1-.089.014l-.264.026-1.025.084-3.826.289-13.124.933-.079.005-.013-.079-.956-5.989-.215-1.356-.014-.09.09-.013 18.426-2.709h.016l.015.007a12.909 12.909 0 0 1 2.741 1.8l.631.6.15.166a.274.274 0 0 1 .047.06.455.455 0 0 1-.057-.05l-.16-.156-.647-.578a13.465 13.465 0 0 0-2.751-1.75h.031l-18.416 2.784.076-.1.216 1.355.95 5.991-.092-.074 13.128-.869 3.829-.238 1.026-.055.266-.011a.383.383 0 0 1 .09.003zm23.679-19.426a3.718 3.718 0 0 0-1.873 1.991c-.022 0-.013-.169.074-.42a2.563 2.563 0 0 1 .541-.878 2.536 2.536 0 0 1 .843-.593c.25-.102.415-.121.415-.1zm-14.851-8.906a2.523 2.523 0 0 1-.493.072l-1.356.1-4.479.116-4.474.108-1.352.091a2.585 2.585 0 0 1-.5.027 2.638 2.638 0 0 1 .49-.1l1.352-.149c1.144-.1 2.73-.142 4.48-.162l4.476-.063 1.355-.046a2.7 2.7 0 0 1 .501.006z"/></g><path d="M332.939,120.641l-.182.22a6.735,6.735,0,0,0-5.109,4.8c-.675,2.378-.88,6.781-2.259,12.745,0,0-3.384,3.063-4.014,5.365l9.773,2.949,5.335-.3,2.058-6.4c2,0,2.847-1,3.565-2.638.955-2.178-2.193-12.178-2.193-12.178l.226,1.708Z" class="D"/><path d="M342.211 134.131l-.914-5.053 2.373 4.83z" class="H"/><path d="M339.5 139.988c-.005-.019.17-.055.46-.183a3.442 3.442 0 0 0 1.077-.776 4.43 4.43 0 0 0 .982-1.7 6.436 6.436 0 0 0 .225-2.4 17.157 17.157 0 0 0-.4-2.415l-.406-1.974a10.255 10.255 0 0 1-.141-1.353 2.115 2.115 0 0 1 .019-.5 3.448 3.448 0 0 1 .052.494c.028.318.088.776.2 1.336l.443 1.959a15.981 15.981 0 0 1 .416 2.439 6.446 6.446 0 0 1-.246 2.468 4.437 4.437 0 0 1-1.05 1.734 3.243 3.243 0 0 1-1.141.752 2.276 2.276 0 0 1-.358.1.4.4 0 0 1-.132.019z" class="B"/><path d="M337.547 143.058l.149-.464-.083.4s-.022.026-.066.064z" class="L"/><path d="M335.62 143.752a3.134 3.134 0 0 1-1.988-.771c-2.157-1.734-5.46-13.122-5.46-13.122l9.866 11.133-.317 1.556-.149.464a3.136 3.136 0 0 1-1.952.74z" class="H"/><path d="M359.32 128.986c-.378-.337-.6-.216-.6-.216s.2-.921-.279-1.245l-.27-.177c-.051-.122-.347-.784-.843-.9 0 0-.067-.865-.432-.946a.9.9 0 0 0-.981.586l-1.247 2.381-.6 2.418-10.2 4.75 1.093 4.679 11.449-5.915 2.043-1.959s1.247-3.12.867-3.456z" class="N"/><path d="M328.875 126.417c-.012.364 5.758 15.39 8.483 16.44 1.037.4 16.746-5.489 16.746-5.489l-1.911-5.789-11.353 3.678c-.364-.013-3.8-9.522-3.8-9.522s-2.157-4.51-5.394-3.1c-2.072.896-2.771 3.782-2.771 3.782z" class="D"/><g class="B"><path d="M340.862 135.3l.2-.078.6-.205 2.286-.763 8.243-2.7.071-.024.024.071 1.92 5.787.026.078-.076.029-8 2.972-5.076 1.711-2.46.679a4.713 4.713 0 0 1-.616.117l-.311.042a.85.85 0 0 1-.331-.027 2.5 2.5 0 0 1-1-.732 12.5 12.5 0 0 1-1.36-1.9l-1.067-1.918-1.7-3.55-2.183-5.258-.546-1.449-.134-.379a.809.809 0 0 1-.04-.132.837.837 0 0 1 .057.125l.151.373.577 1.436 2.235 5.232 1.712 3.533 1.07 1.9a12.389 12.389 0 0 0 1.346 1.867 2.343 2.343 0 0 0 .923.682 1.362 1.362 0 0 0 .572-.02 4.947 4.947 0 0 0 .6-.116c.807-.179 1.62-.43 2.445-.68l5.068-1.713 7.994-2.96-.051.106-1.9-5.793.094.048-8.262 2.643-2.3.724-.606.184c-.122.046-.195.058-.195.058zm-8.315-12.754a.58.58 0 0 1 .16-.022 3.714 3.714 0 0 1 .461 0 3.506 3.506 0 0 1 1.628.472 3.8 3.8 0 0 1 .894.771 8.966 8.966 0 0 1 .82 1.069 19.047 19.047 0 0 1 1.4 2.74c.869 2 1.5 3.869 1.944 5.223l.506 1.61a3.991 3.991 0 0 1 .161.6 4.036 4.036 0 0 1-.228-.577l-.56-1.591-1.989-5.192a20.229 20.229 0 0 0-1.37-2.721 9.243 9.243 0 0 0-.793-1.061 3.74 3.74 0 0 0-.849-.761 3.62 3.62 0 0 0-1.566-.511l-.619-.049z"/></g><g class="Q"><path d="M357.349 126.423c.044.025-.085.333-.287.687s-.4.622-.444.6.085-.332.287-.686.401-.624.444-.601zm.681.861c.041.029-.108.3-.3.633s-.36.594-.406.573.052-.326.25-.664.416-.571.456-.542zm.74 1.483c.045.022-.014.237-.132.481s-.25.425-.3.4.014-.237.132-.481.255-.422.3-.4z"/></g><path d="M340.919,135.1c.044.031-.3.555-.547,1.273s-.324,1.337-.377,1.333a3.657,3.657,0,0,1,.924-2.606Z" class="B"/><path d="M344.018 82.763l-2.735-1.107a1.023 1.023 0 0 0 .279 1.35 6.837 6.837 0 0 0 1.625 1.065 5.151 5.151 0 0 0 1.013 2.1c.7.709 2.286-.408 2.286-.408a3.424 3.424 0 0 0-2.468-3z" class="I"/><path d="M348.135 91.676c-.326-.457-.651-.186-.651-.186s.385-.972-.082-1.412l-.264-.242c-.034-.143-.24-.92-.762-1.133 0 0 0-.915-.391-1.062-.614-.234-1.3.466-1.3.466l-1.58 2.329-2.353 3.906 1.311 4.169 3.733-2.325.743-.721s1.976-3.255 1.596-3.789z" class="G"/><g class="J"><path d="M346.429 88.612c.042.026-.074.29-.258.59s-.37.521-.412.495.073-.29.258-.59.369-.522.412-.495zm.707 1.088a1.477 1.477 0 0 1-.343.906c-.311.451-.7.677-.728.637s.29-.318.58-.74.44-.814.491-.803zm.364 1.645c.045.019-.032.291-.243.56s-.454.412-.484.373.147-.233.341-.485.336-.469.386-.448z"/></g><path d="M340.359,86.356a4.439,4.439,0,0,0,1.659,1.231,1.381,1.381,0,0,0,.821.137.6.6,0,0,0,.5-.592.913.913,0,0,0-.331-.515l-1.238-1.194a2.627,2.627,0,0,0,.492.6.889.889,0,0,0,.721.216.546.546,0,0,0,.445-.552.9.9,0,0,0-.222-.423l-1.613-2.045" class="I"/><g class="M"><path d="M343.291 87.328c.009 0 .019.06-.023.157a.712.712 0 0 1-.3.308 1.261 1.261 0 0 1-.616.169 1.507 1.507 0 0 1-.745-.224 3.091 3.091 0 0 1-1.321-1.393 7.406 7.406 0 0 0 1.41 1.236 1.455 1.455 0 0 0 .659.215 1.243 1.243 0 0 0 .553-.116.853.853 0 0 0 .383-.352zm.064-1.405c.009 0 0 .06-.054.148a.574.574 0 0 1-.364.233 1.75 1.75 0 0 1-1.322-.37 3.171 3.171 0 0 1-.819-1.1 1.589 1.589 0 0 1-.2-.525c.024-.012.135.171.311.464a3.844 3.844 0 0 0 .818 1.014 1.8 1.8 0 0 0 1.188.387c.328-.038.414-.274.442-.251z"/><path d="M342.938 87.763c.005-.009.068.007.154.084a.664.664 0 0 1 .211.435.708.708 0 0 1-.329.644.988.988 0 0 1-.878.021 3.047 3.047 0 0 1-1.253-.886 1.338 1.338 0 0 1-.325-.545c.025-.015.154.188.42.459a3.434 3.434 0 0 0 1.22.8.852.852 0 0 0 .729.007.588.588 0 0 0 .288-.5.666.666 0 0 0-.135-.394c-.061-.075-.11-.112-.102-.125zm1.871-1.378a1.216 1.216 0 0 1-.833-.436 2.255 2.255 0 0 1-.519-.9 3.563 3.563 0 0 1-.133-.6.7.7 0 0 0-.076-.266.467.467 0 0 0-.221-.154 5.105 5.105 0 0 1-1.1-.614 1.971 1.971 0 0 1-.614-.838 1.208 1.208 0 0 1-.075-.7c.041-.165.106-.236.113-.231s-.026.089-.043.243a1.252 1.252 0 0 0 .123.636 1.939 1.939 0 0 0 .6.756 5.531 5.531 0 0 0 1.07.581.622.622 0 0 1 .3.222.839.839 0 0 1 .1.337 3.854 3.854 0 0 0 .117.572 2.271 2.271 0 0 0 .454.86 2.235 2.235 0 0 0 .737.532z"/></g><g class="N"><path d="M353.41 118.7l2.128-1.649a.932.932 0 0 1 .089 1.255 6.238 6.238 0 0 1-1.163 1.337 4.7 4.7 0 0 1-.372 2.092c-.441.8-2.109.207-2.109.207a3.124 3.124 0 0 1 1.427-3.242z"/><path d="M356.665,120.795a3.263,3.263,0,0,1-1.048,1.068,1.211,1.211,0,0,1-.658.057.434.434,0,0,1-.391-.4.656.656,0,0,1,.209-.389l.822-.928a1.881,1.881,0,0,1-.32.459.643.643,0,0,1-.506.2.392.392,0,0,1-.351-.372.636.636,0,0,1,.136-.317l1.043-1.562"/><path d="M356.648,121.578a2.325,2.325,0,0,1-1.024,1.033.785.785,0,0,1-.56.1.462.462,0,0,1-.142-.815"/></g><g class="Q"><path d="M354.908 121.894a.728.728 0 0 0-.124.39.411.411 0 0 0 .229.321.6.6 0 0 0 .5-.049 2.554 2.554 0 0 0 .828-.634c.178-.206.264-.356.289-.343s-.027.182-.188.421a2.161 2.161 0 0 1-.854.721.733.733 0 0 1-.654.032.527.527 0 0 1-.28-.464.481.481 0 0 1 .137-.332c.063-.057.109-.072.117-.063zm-.244-.375c.025-.007.077.143.3.215a.889.889 0 0 0 .4.045 1.032 1.032 0 0 0 .449-.189 7.379 7.379 0 0 0 .958-.948 2.015 2.015 0 0 1-.856 1.1 1.1 1.1 0 0 1-.535.206.913.913 0 0 1-.462-.093.518.518 0 0 1-.236-.215c-.035-.074-.028-.118-.018-.121zm-.164-.814c.025-.02.105.136.334.141a1.314 1.314 0 0 0 .813-.347 2.9 2.9 0 0 0 .531-.764c.114-.218.189-.354.213-.344s-.01.16-.1.4a2.225 2.225 0 0 1-.526.846 1.259 1.259 0 0 1-.949.34.424.424 0 0 1-.28-.158c-.036-.066-.041-.109-.036-.114z"/><path d="M353.642 122.056a2.149 2.149 0 0 0 .515-.644 2.081 2.081 0 0 0 .183-.865 3.384 3.384 0 0 0-.039-.53.789.789 0 0 1 0-.324.575.575 0 0 1 .209-.272 5.064 5.064 0 0 0 .795-.774 1.771 1.771 0 0 0 .34-.808 1.158 1.158 0 0 0-.047-.587c-.051-.132-.107-.194-.1-.2s.081.039.159.174a1.1 1.1 0 0 1 .109.632 1.791 1.791 0 0 1-.331.891 4.693 4.693 0 0 1-.812.813.41.41 0 0 0-.154.186.61.61 0 0 0 0 .249 3.319 3.319 0 0 1 .03.558 2.063 2.063 0 0 1-.237.919c-.262.482-.622.601-.62.582z"/></g><g class="J"><path d="M338.3 61.777a3.335 3.335 0 0 1 .119.929 3.148 3.148 0 0 1-.125 1.022 1.407 1.407 0 0 1-.3.555.653.653 0 0 1-.309.184.482.482 0 0 1-.383-.06.983.983 0 0 1-.343-.6 6.33 6.33 0 0 1-.117-.593 6.591 6.591 0 0 1-.072-1.018 2.9 2.9 0 0 1 .106-.931c.028 0 0 .358.021.928a8.232 8.232 0 0 0 .11.993l.123.575a.853.853 0 0 0 .27.492.378.378 0 0 0 .468-.1 1.3 1.3 0 0 0 .267-.483 3.381 3.381 0 0 0 .156-.97 8.465 8.465 0 0 1 .009-.923z"/><path d="M339.513 62.672a1.27 1.27 0 0 1 .041.506 2.536 2.536 0 0 1-.289 1.2 1.283 1.283 0 0 1-.223.295.509.509 0 0 1-.346.151.54.54 0 0 1-.47-.37.777.777 0 0 1-.025-.517c.035-.007.031.2.143.467a.421.421 0 0 0 .351.254c.156 0 .3-.175.414-.369a3.019 3.019 0 0 0 .318-1.123 1.636 1.636 0 0 1 .086-.494z"/></g><path d="M335.757,68.2c1.1-.7.179-4.446-.508-5.327a1.993,1.993,0,0,0,.561-2.55,5.348,5.348,0,0,0-2.091,3.472l.215,1.458Z" class="G"/><path d="M335.987 66.663a9.318 9.318 0 0 0 .114-1 3.515 3.515 0 0 0-.759-2.216 3.364 3.364 0 0 0-.37-.4l-.081-.075.09-.063a2.151 2.151 0 0 0 .907-1.694 4.506 4.506 0 0 0-.1-.813c.009 0 .051.064.1.2a2 2 0 0 1 .111.612 2.137 2.137 0 0 1-.181.924 2.243 2.243 0 0 1-.741.915l.009-.139a3.5 3.5 0 0 1 .391.419 3.436 3.436 0 0 1 .744 2.332 3.1 3.1 0 0 1-.131.739.716.716 0 0 1-.103.259z" class="J"/></g></svg>