<svg xmlns="http://www.w3.org/2000/svg" width="261" height="173"><g fill="#fff" stroke="#aeaeae"><rect width="261" height="173" rx="10" stroke="none"/><rect x=".5" y=".5" width="260" height="172" rx="9.5" fill="none"/></g><g fill="#f6f5fd" stroke="#d9d7e2"><rect width="239" height="151" rx="4" stroke="none" x="11" y="11"/><rect x="11.3" y="11.3" width="238.4" height="150.4" rx="3.7" fill="none" stroke-width=".6"/></g><g fill="#f0eff4"><path d="M18.001 32h41v15h-41zm0 92h41v32h-41zm47 0h41v32h-41zM112 124h41v32h-41z"/><path d="M18.001 52h135v68h-135zM159 52h85v13h-85zm0 36h85v33h-85zm0-19h85v4h-85zm0 56h85v5h-85zm0-50h85v2h-85zm0 57h85v2h-85zm0-51h85v2h-85zm0 57h85v2h-85zm0 4h85v4h-85zm0 6h85v2h-85zm0 5h85v3h-85zM67.001 36h38v6h-38zM113 36h39v6h-39zm47 0h38v6h-38zm47 0h37v6h-37z"/></g><path d="M1 140h259 0v22c0 5.523-4.477 10-10 10H11c-5.523 0-10-4.477-10-10v-22h0z" fill="#fff"/><g fill="#ebebf5"><rect width="78" height="2" rx="1" x="11" y="158"/><rect width="78" height="2" rx="1" x="99" y="158"/><rect width="78" height="2" rx="1" x="11" y="164"/><rect width="78" height="2" rx="1" x="99" y="164"/></g><text fill="#1e1e1e" font-size="6" font-family="EuclidCircularB-SemiBold,Euclid Circular B" font-weight="600"><tspan x="11" y="151">Your headline is here</tspan></text><rect width="46" height="8" rx="1" fill="#7e5ce7" x="187" y="158"/><g fill="#747488"><path d="M249.268 145l.707.707-4.243 4.243-.707-.707z"/><path d="M249.975 149.243l-.707.707-4.243-4.243.707-.707z"/></g><path d="M15 12h231a3 3 0 0 1 3 3v13h0H12h0V15a3 3 0 0 1 3-3z" fill="#fff"/><g fill="#dddcec"><ellipse cx="20" cy="20.5" rx="2" ry="2.5"/><circle cx="29.5" cy="20.5" r="2.5"/><circle cx="38.5" cy="20.5" r="2.5"/></g></svg>