<svg width="531" height="53" viewBox="0 0 531 53" fill="none" xmlns="http://www.w3.org/2000/svg">
    <g clip-path="url(#clip0_3296_3239)">
        <circle opacity="0.1" cx="502.263" cy="10.2627" r="3.26271" fill="#656BE8"/>
        <path opacity="0.05" d="M293.002 54.5009C293.002 62.5096 286.51 69.0019 278.501 69.0019C270.492 69.0019 264 62.5096 264 54.5009C264 46.4923 270.492 40 278.501 40C286.51 40 293.002 46.4923 293.002 54.5009ZM268.189 54.5009C268.189 60.1959 272.806 64.8125 278.501 64.8125C284.196 64.8125 288.813 60.1959 288.813 54.5009C288.813 48.806 284.196 44.1894 278.501 44.1894C272.806 44.1894 268.189 48.806 268.189 54.5009Z" fill="black"/>
        <g clip-path="url(#clip1_3296_3239)">
            <path opacity="0.05" d="M28.1083 17.0633C27.214 15.1113 25.0022 13.2833 21.7605 12.6003C20.4223 12.9859 19.807 14.1417 19.4881 15.5847C20.1132 15.5268 20.8249 15.5967 21.5825 15.7859C22.3198 15.9701 23.1001 16.267 23.8855 16.6685C25.1642 17.3226 26.6462 18.7435 27.3239 19.5597C27.4323 19.6903 27.6352 19.6795 27.7296 19.538L28.2106 17.6622C28.2835 17.3904 28.1651 17.1881 28.1082 17.0637L28.1083 17.0633Z" fill="black"/>
            <path opacity="0.05" d="M26.611 19.6008C26.0253 18.7996 24.8978 17.9118 23.5924 17.2443C22.1517 16.5075 20.7509 16.1464 19.6567 16.2186C20.3411 17.1248 21.5393 18.0311 22.9678 18.7065C24.3235 19.3478 25.6646 19.6712 26.611 19.6008Z" fill="black"/>
            <path opacity="0.05" d="M33.0073 21.0822C34.0022 20.7145 35.9958 20.2245 37.4306 20.2975C38.3116 20.3425 39.1358 20.4755 39.8664 20.6846C40.617 20.8996 41.2684 21.1949 41.7808 21.5576C42.2257 20.1483 42.271 18.8402 41.305 17.8372C38.1562 16.8075 35.3266 17.2847 33.576 18.5284C33.4647 18.6073 33.2609 18.7237 33.1881 18.9955L32.6668 20.8605C32.6777 21.0306 32.8481 21.1411 33.0073 21.0822Z" fill="black"/>
            <path opacity="0.05" d="M37.3957 20.9429C35.9314 20.8683 34.5105 21.0737 33.6032 21.4744C34.388 22.0087 35.7108 22.3991 37.2055 22.5216C38.7803 22.6509 40.2715 22.4652 41.3169 22.0224C40.4055 21.4128 39.0117 21.0252 37.3957 20.9429Z" fill="black"/>
            <path opacity="0.05" d="M17.7504 18.8615L16.7947 22.4282C16.6984 22.7875 16.9101 23.1565 17.2674 23.2522L25.9556 25.5802L27.2601 20.7119L18.5719 18.3839C18.2146 18.2882 17.8467 18.5019 17.7505 18.8611L17.7504 18.8615Z" fill="black"/>
            <path opacity="0.05" d="M15.2624 35.8932C15.1607 36.2727 15.3841 36.662 15.7615 36.7631L22.4772 38.5626L25.7884 26.2047L18.3896 24.2222L15.2625 35.8928L15.2624 35.8932Z" fill="black"/>
            <path opacity="0.05" d="M27.6253 39.9422L34.341 41.7417C34.7185 41.8428 35.1065 41.6173 35.2082 41.2378L38.3353 29.5672L30.9365 27.5847L27.6252 39.9426L27.6253 39.9422Z" fill="black"/>
            <path opacity="0.05" d="M41.0974 24.4199L32.4092 22.0919L31.1047 26.9603L39.7929 29.2883C40.1502 29.384 40.5181 29.1703 40.6143 28.811L41.57 25.2443C41.6663 24.8851 41.4546 24.5161 41.0973 24.4203L41.0974 24.4199Z" fill="black"/>
            <path opacity="0.05" d="M27.792 20.8549L31.8764 21.9493L27.0543 39.9455C26.998 40.1557 26.7823 40.281 26.5732 40.225L23.2468 39.3337C23.0377 39.2777 22.9136 39.0613 22.9699 38.8511L27.792 20.8549Z" fill="black"/>
            <path opacity="0.05" d="M32.2133 18.5879L29.1817 17.7756C28.891 17.6977 28.5918 17.8716 28.5134 18.1639L28.0579 19.8642C27.9795 20.1565 28.1517 20.4566 28.4424 20.5345L31.474 21.3468C31.7648 21.4247 32.0639 21.2509 32.1423 20.9586L32.5978 19.2583C32.6762 18.966 32.504 18.6658 32.2133 18.5879Z" fill="black"/>
        </g>
        <g clip-path="url(#clip2_3296_3239)">
            <path opacity="0.05" d="M500.892 20.8439C499.203 19.5193 496.399 18.9091 493.205 19.7887C492.192 20.7449 492.176 22.0542 492.554 23.4828C493.083 23.1447 493.747 22.8805 494.507 22.7012C495.247 22.5268 496.077 22.4328 496.959 22.4294C498.395 22.4243 500.364 23.0075 501.34 23.422C501.496 23.4884 501.672 23.3857 501.691 23.2167L501.258 21.3292C501.198 21.0542 501 20.9287 500.893 20.8443L500.892 20.8439Z" fill="black"/>
            <path opacity="0.05" d="M500.726 23.7853C499.838 23.3419 498.429 23.0699 496.963 23.0754C495.344 23.0813 493.934 23.4027 492.995 23.9686C494.018 24.4601 495.499 24.7161 497.078 24.6612C498.577 24.6094 499.917 24.2818 500.726 23.7853Z" fill="black"/>
            <path opacity="0.05" d="M507.089 22.1687C507.805 21.3858 509.351 20.0361 510.66 19.443C511.464 19.079 512.257 18.8193 513.002 18.6702C513.768 18.5169 514.482 18.4807 515.104 18.568C514.853 17.1117 514.293 15.9284 512.975 15.4801C509.704 16.0089 507.409 17.7305 506.423 19.6385C506.361 19.7597 506.233 19.9565 506.293 20.2315L506.685 22.1279C506.772 22.2741 506.975 22.2941 507.089 22.1687Z" fill="black"/>
            <path opacity="0.05" d="M510.926 20.0324C509.59 20.6376 508.422 21.4717 507.799 22.2438C508.742 22.3588 510.096 22.0991 511.481 21.5225C512.94 20.9153 514.18 20.0665 514.906 19.1936C513.816 19.0699 512.4 19.3645 510.926 20.0324Z" fill="black"/>
            <path opacity="0.05" d="M492.513 27.1917L493.299 30.7995C493.378 31.1629 493.735 31.3938 494.097 31.315L502.885 29.3997L501.812 24.4752L493.024 26.3905C492.662 26.4693 492.433 26.8279 492.513 27.1913L492.513 27.1917Z" fill="black"/>
            <path opacity="0.05" d="M498.112 43.468C498.196 43.8519 498.573 44.0954 498.954 44.0122L505.747 42.5318L503.023 30.0314L495.539 31.6625L498.112 43.4676L498.112 43.468Z" fill="black"/>
            <path opacity="0.05" d="M510.956 41.3967L517.749 39.9163C518.131 39.8331 518.372 39.4548 518.288 39.0709L515.716 27.2657L508.231 28.8967L510.956 41.3971L510.956 41.3967Z" fill="black"/>
            <path opacity="0.05" d="M515.809 21.4253L507.021 23.3406L508.094 28.2651L516.882 26.3497C517.244 26.271 517.472 25.9124 517.393 25.549L516.607 21.9411C516.528 21.5778 516.17 21.3469 515.809 21.4257L515.809 21.4253Z" fill="black"/>
            <path opacity="0.05" d="M502.351 24.3583L506.482 23.4579L510.449 41.6616C510.496 41.8743 510.361 42.0846 510.15 42.1307L506.785 42.864C506.574 42.9101 506.364 42.7747 506.318 42.562L502.351 24.3583Z" fill="black"/>
            <path opacity="0.05" d="M505.24 20.3165L502.173 20.9848C501.879 21.0489 501.693 21.3406 501.757 21.6363L502.132 23.3561C502.197 23.6518 502.487 23.8396 502.781 23.7755L505.848 23.1072C506.142 23.0431 506.328 22.7514 506.264 22.4557L505.889 20.7359C505.824 20.4402 505.534 20.2524 505.24 20.3165Z" fill="black"/>
        </g>
    </g>
    <defs>
        <clipPath id="clip0_3296_3239">
            <rect width="531" height="69" fill="white"/>
        </clipPath>
        <clipPath id="clip1_3296_3239">
            <rect width="24.6601" height="25.4555" fill="white" transform="translate(19.5889 12) rotate(15)"/>
        </clipPath>
        <clipPath id="clip2_3296_3239">
            <rect width="24.6601" height="25.4555" fill="white" transform="translate(491 20.251) rotate(-12.2945)"/>
        </clipPath>
    </defs>
</svg>
