<svg width="144" height="74" viewBox="0 0 144 74" fill="none" xmlns="http://www.w3.org/2000/svg">
<g clip-path="url(#clip0_3261_4807)">
<rect width="144" height="74" rx="8" fill="white"/>
<rect x="0.5" y="0.5" width="143" height="73" rx="7.5" fill="white" stroke="#AEAEAE"/>
<g clip-path="url(#clip1_3261_4807)">
<circle opacity="0.1" cx="123.639" cy="7.61013" r="2.99075" fill="#656BE8"/>
<path opacity="0.05" d="M11.0822 6.82723C11.0822 12.6562 6.35689 17.3815 0.527916 17.3815C-5.30105 17.3815 -10.0264 12.6562 -10.0264 6.82723C-10.0264 0.998263 -5.30105 -3.72705 0.527916 -3.72705C6.35689 -3.72705 11.0822 0.998263 11.0822 6.82723ZM-6.97721 6.82723C-6.97721 10.9722 -3.61705 14.3324 0.527916 14.3324C4.67288 14.3324 8.03304 10.9722 8.03304 6.82723C8.03304 2.68227 4.67288 -0.677889 0.527916 -0.677889C-3.61705 -0.677889 -6.97721 2.68227 -6.97721 6.82723Z" fill="black"/>
<path d="M35.232 30.1371C36.2294 29.8305 39.8636 28.3317 41.9898 26.5808C43.0218 25.7301 45.7263 22.9777 45.1316 22.1297C44.5369 21.2817 43.6791 22.0234 43.6791 22.0234C43.6791 22.0234 44.6346 20.6912 43.9754 19.8966C43.3163 19.102 42.0009 20.2911 42.0009 20.2911C42.0009 20.2911 42.8938 18.8477 42.1663 18.1042C41.4388 17.3607 40.3287 18.7771 40.3287 18.7771C40.3287 18.7771 41.2089 17.4945 40.3502 17.1307C39.3189 16.6983 37.9632 19.2435 36.7788 20.1253C36.5046 20.3267 31.0231 23.797 31.0231 23.797L35.232 30.1371Z" fill="#AD6359"/>
<path d="M40.301 18.7872C39.2992 20.6569 38.5397 21.3001 36.7258 22.3308C36.686 22.3415 36.711 22.4102 36.7422 22.392C38.6092 21.5472 39.6796 20.8765 40.3826 18.8343C40.4278 18.7336 40.3495 18.6988 40.301 18.7872Z" fill="#F0F0FD"/>
<path d="M42.0643 20.2345C40.8569 22.0838 40.0392 22.7918 38.217 24.0117C38.1894 24.0191 38.2173 24.074 38.2301 24.0607C40.1161 23.0173 41.1699 22.3215 42.147 20.3108C42.1917 20.2201 42.1205 20.1506 42.0643 20.2345Z" fill="#F0F0FD"/>
<path d="M43.5716 22.1765C42.2733 23.8827 41.4083 24.6953 39.4893 25.6524C39.4816 25.657 39.4757 25.664 39.4723 25.6723C39.469 25.6806 39.4684 25.6898 39.4707 25.6984C39.473 25.7071 39.4781 25.7147 39.4852 25.7202C39.4922 25.7257 39.5009 25.7288 39.5098 25.7289C41.5631 24.9425 42.6394 23.9388 43.6108 22.225C43.6864 22.103 43.6543 22.069 43.5716 22.1765Z" fill="#F0F0FD"/>
<path d="M30.2364 24.0531C30.2364 24.0531 31.2893 21.6152 31.988 20.6471C32.6867 19.6789 36.626 17.0288 37.2448 17.844C38.0467 18.9022 36.088 20.8741 34.9853 21.7306C34.9853 21.7306 36.843 24.1695 35.7365 25.8933C34.63 27.6171 30.2364 24.0531 30.2364 24.0531Z" fill="#AD6359"/>
<path d="M37.3696 18.2079C37.4078 19.6972 35.9041 20.7104 34.9044 21.6083C34.8891 21.6207 34.8771 21.6366 34.8694 21.6548C34.8617 21.6729 34.8585 21.6926 34.8602 21.7122C34.8619 21.7319 34.8684 21.7508 34.8791 21.7673C34.8898 21.7839 34.9044 21.7975 34.9216 21.8071C35.6301 22.8838 36.3271 24.6034 35.8164 25.8689C35.8139 25.8763 35.8142 25.8842 35.8171 25.8914C35.8201 25.8985 35.8256 25.9043 35.8325 25.9077C35.8395 25.9111 35.8474 25.9118 35.8549 25.9097C35.8623 25.9077 35.8688 25.9029 35.873 25.8964C36.5956 24.6135 36.0466 22.8706 35.2027 21.7416C36.243 20.8362 37.7063 19.7583 37.3849 18.2038L37.3696 18.2079Z" fill="#F0F0FD"/>
<path d="M40.7611 11.8429C40.8565 12.2922 40.8334 12.7586 40.6939 13.1963C40.6718 13.1137 40.6182 13.0361 40.573 12.9531C40.5283 12.8673 40.4786 12.7842 40.4242 12.7042C40.0457 12.1465 39.564 11.6663 39.0051 11.2897L38.8161 11.1599L38.7648 11.1277C38.736 11.1058 38.7027 11.0918 38.6739 11.07C33.4115 7.14158 31.8298 16.2146 31.8002 16.4226C31.8002 16.4226 29.4263 8.43254 33.6601 7.06513C36.9739 5.98689 40.2971 9.30291 40.7611 11.8429Z" fill="#F2F2F2"/>
<path d="M40.6846 13.1985C40.6245 13.3654 40.5392 13.5221 40.4318 13.6633C38.8015 15.7833 32.2209 16.3884 31.811 16.426L31.7926 16.4309C37.8597 15.4156 38.9056 12.8287 38.7564 11.1329L38.8076 11.1651L38.9966 11.2949C39.554 11.6736 40.0353 12.1534 40.4158 12.7095C40.471 12.7931 40.5193 12.8753 40.5645 12.9584C40.6097 13.0414 40.6625 13.1159 40.6846 13.1985Z" fill="#EDEDED"/>
<path d="M21.8433 17.8922C22.0241 18.3151 22.3139 18.6825 22.6831 18.9567C22.6627 18.8676 22.6483 18.7772 22.6401 18.6861C22.6262 18.5904 22.6179 18.494 22.6153 18.3974C22.5997 17.723 22.7139 17.0519 22.9518 16.4206C22.976 16.3518 22.9994 16.2799 23.0289 16.2063L23.0503 16.1514C23.0643 16.1181 23.0814 16.084 23.0924 16.0515C25.1014 9.79742 31.6528 16.2711 31.7952 16.4233C31.7952 16.4233 29.0887 8.53872 24.8467 9.87551C21.5247 10.9231 20.7499 15.5505 21.8433 17.8922Z" fill="#F2F2F2"/>
<path d="M22.6816 18.957C22.8268 19.0585 22.9872 19.1363 23.1568 19.1874C25.7123 19.9693 31.4261 16.6435 31.7809 16.4368L31.7993 16.4319C26.267 19.125 23.9162 17.6255 23.0488 16.1517L23.0274 16.2066C22.9979 16.2802 22.9745 16.352 22.9503 16.4209C22.7145 17.0527 22.6003 17.7234 22.6138 18.3977C22.6178 18.4984 22.6271 18.5943 22.6386 18.6864C22.6469 18.7774 22.6612 18.8679 22.6816 18.957Z" fill="#EDEDED"/>
<path d="M42.7713 15.8178L18.7305 22.2595L27.1192 45.6212L46.6977 40.3752L42.7713 15.8178Z" fill="#F2F2F2"/>
<path d="M22.4049 23.0775C22.4254 23.1501 22.4234 23.2273 22.3992 23.2987C22.375 23.3702 22.3298 23.4327 22.2694 23.478L22.0326 22.7901C22.1177 22.7899 22.2006 22.818 22.268 22.87C22.3354 22.9221 22.3836 22.9951 22.4049 23.0775ZM26.5754 21.5597C26.5013 21.5789 26.4345 21.6198 26.3836 21.677C26.3326 21.7342 26.2999 21.8053 26.2894 21.8812C26.2789 21.9571 26.2912 22.0344 26.3248 22.1032C26.3583 22.1721 26.4115 22.2295 26.4777 22.2681C26.5439 22.3066 26.6201 22.3247 26.6965 22.3199C26.773 22.3151 26.8463 22.2878 26.9072 22.2413C26.9681 22.1947 27.0137 22.1312 27.0384 22.0587C27.0631 21.9862 27.0658 21.9079 27.0459 21.8339C27.0195 21.7354 26.9553 21.6513 26.8671 21.5999C26.779 21.5486 26.6742 21.5341 26.5754 21.5597ZM31.2165 20.3162C31.1423 20.3354 31.0755 20.3762 31.0246 20.4334C30.9737 20.4907 30.9409 20.5617 30.9304 20.6376C30.92 20.7135 30.9323 20.7908 30.9658 20.8597C30.9993 20.9286 31.0526 20.9859 31.1188 21.0245C31.1849 21.0631 31.2611 21.0811 31.3376 21.0764C31.414 21.0716 31.4873 21.0442 31.5482 20.9977C31.6091 20.9512 31.6548 20.8876 31.6795 20.8151C31.7042 20.7426 31.7068 20.6644 31.687 20.5904C31.6606 20.4919 31.5963 20.4077 31.5082 20.3564C31.4201 20.305 31.3152 20.2906 31.2165 20.3162ZM35.8575 19.0726C35.7836 19.0924 35.7173 19.1336 35.6669 19.1911C35.6164 19.2486 35.5842 19.3198 35.5742 19.3956C35.5642 19.4714 35.577 19.5485 35.6108 19.6171C35.6446 19.6857 35.698 19.7427 35.7642 19.7809C35.8305 19.8192 35.9065 19.8369 35.9829 19.8319C36.0592 19.8269 36.1323 19.7994 36.193 19.7528C36.2536 19.7063 36.2991 19.6428 36.3237 19.5704C36.3483 19.498 36.3508 19.4199 36.3311 19.346C36.3045 19.2469 36.2397 19.1625 36.1509 19.1112C36.0621 19.0599 35.9565 19.046 35.8575 19.0726ZM40.4985 17.829C40.4247 17.8488 40.3583 17.8901 40.3079 17.9476C40.2575 18.0051 40.2252 18.0762 40.2152 18.152C40.2053 18.2279 40.218 18.3049 40.2518 18.3735C40.2856 18.4421 40.339 18.4991 40.4053 18.5374C40.4715 18.5756 40.5476 18.5934 40.6239 18.5883C40.7002 18.5833 40.7733 18.5558 40.834 18.5093C40.8947 18.4627 40.9402 18.3992 40.9647 18.3268C40.9893 18.2544 40.9919 18.1763 40.9721 18.1024C40.9455 18.0034 40.8807 17.9189 40.7919 17.8677C40.7031 17.8164 40.5976 17.8025 40.4985 17.829ZM28.4982 28.7356C28.424 28.7548 28.3573 28.7956 28.3063 28.8528C28.2554 28.9101 28.2226 28.9811 28.2122 29.057C28.2017 29.1329 28.214 29.2102 28.2475 29.2791C28.2811 29.348 28.3343 29.4053 28.4005 29.4439C28.4667 29.4825 28.5428 29.5005 28.6193 29.4958C28.6958 29.491 28.7691 29.4636 28.8299 29.4171C28.8908 29.3706 28.9365 29.307 28.9612 29.2345C28.9859 29.162 28.9885 29.0838 28.9687 29.0098C28.9423 28.9113 28.878 28.8272 28.7899 28.7758C28.7018 28.7244 28.5969 28.71 28.4982 28.7356ZM33.1392 27.492C33.0651 27.5112 32.9983 27.552 32.9474 27.6093C32.8964 27.6665 32.8637 27.7376 32.8532 27.8135C32.8427 27.8893 32.855 27.9666 32.8886 28.0355C32.9221 28.1044 32.9753 28.1618 33.0415 28.2003C33.1077 28.2389 33.1839 28.257 33.2603 28.2522C33.3368 28.2474 33.4101 28.22 33.471 28.1735C33.5319 28.127 33.5775 28.0635 33.6022 27.991C33.6269 27.9184 33.6295 27.8402 33.6097 27.7662C33.5833 27.6677 33.5191 27.5836 33.4309 27.5322C33.3428 27.4809 33.238 27.4664 33.1392 27.492ZM37.7803 26.2484C37.7064 26.2682 37.64 26.3095 37.5896 26.367C37.5392 26.4245 37.507 26.4956 37.497 26.5714C37.487 26.6473 37.4997 26.7243 37.5335 26.7929C37.5674 26.8615 37.6208 26.9185 37.687 26.9568C37.7532 26.995 37.8293 27.0128 37.9056 27.0078C37.9819 27.0028 38.055 26.9752 38.1157 26.9287C38.1764 26.8821 38.2219 26.8186 38.2465 26.7462C38.2711 26.6738 38.2736 26.5957 38.2538 26.5218C38.2273 26.4228 38.1625 26.3383 38.0737 26.2871C37.9848 26.2358 37.8793 26.2219 37.7803 26.2484ZM42.4213 25.0049C42.3474 25.0247 42.2811 25.0659 42.2307 25.1234C42.1802 25.1809 42.148 25.2521 42.138 25.3279C42.128 25.4037 42.1407 25.4808 42.1746 25.5494C42.2084 25.618 42.2618 25.675 42.328 25.7132C42.3943 25.7515 42.4703 25.7692 42.5466 25.7642C42.623 25.7592 42.6961 25.7317 42.7567 25.6851C42.8174 25.6386 42.8629 25.5751 42.8875 25.5026C42.9121 25.4302 42.9146 25.3522 42.8948 25.2783C42.8683 25.1792 42.8035 25.0948 42.7147 25.0435C42.6259 24.9922 42.5203 24.9783 42.4213 25.0049ZM25.2647 25.95C25.1905 25.9693 25.1238 26.0101 25.0728 26.0673C25.0219 26.1245 24.9891 26.1956 24.9787 26.2715C24.9682 26.3474 24.9805 26.4247 25.014 26.4936C25.0476 26.5624 25.1008 26.6198 25.167 26.6584C25.2332 26.697 25.3093 26.715 25.3858 26.7102C25.4623 26.7055 25.5356 26.6781 25.5964 26.6316C25.6573 26.5851 25.703 26.5215 25.7277 26.449C25.7524 26.3765 25.755 26.2983 25.7352 26.2243C25.7225 26.1753 25.7002 26.1292 25.6696 26.0889C25.6391 26.0485 25.6008 26.0146 25.5571 25.9891C25.5133 25.9636 25.465 25.9471 25.4148 25.9403C25.3646 25.9336 25.3136 25.9369 25.2647 25.95ZM29.9057 24.7065C29.8316 24.7257 29.7648 24.7665 29.7139 24.8237C29.6629 24.881 29.6302 24.952 29.6197 25.0279C29.6092 25.1038 29.6215 25.1811 29.6551 25.25C29.6886 25.3189 29.7418 25.3763 29.808 25.4148C29.8742 25.4534 29.9504 25.4715 30.0268 25.4667C30.1033 25.4619 30.1766 25.4345 30.2375 25.388C30.2984 25.3415 30.344 25.278 30.3687 25.2054C30.3934 25.1329 30.396 25.0547 30.3762 24.9807C30.3635 24.9317 30.3412 24.8857 30.3107 24.8453C30.2801 24.805 30.2418 24.7711 30.1981 24.7456C30.1544 24.7201 30.106 24.7035 30.0558 24.6968C30.0056 24.6901 29.9546 24.6934 29.9057 24.7065ZM34.5468 23.4629C34.4477 23.4895 34.3632 23.5543 34.312 23.6431C34.2607 23.7319 34.2468 23.8374 34.2733 23.9365C34.2999 24.0355 34.3647 24.12 34.4535 24.1713C34.5423 24.2225 34.6479 24.2364 34.7469 24.2099C34.846 24.1833 34.9304 24.1185 34.9817 24.0297C35.033 23.9409 35.0469 23.8354 35.0203 23.7363C34.9938 23.6373 34.929 23.5528 34.8402 23.5015C34.7514 23.4503 34.6458 23.4364 34.5468 23.4629ZM39.1878 22.2194C39.1139 22.2391 39.0476 22.2804 38.9972 22.3379C38.9467 22.3954 38.9145 22.4666 38.9045 22.5424C38.8945 22.6182 38.9073 22.6953 38.9411 22.7639C38.9749 22.8324 39.0283 22.8895 39.0945 22.9277C39.1608 22.9659 39.2368 22.9837 39.3131 22.9787C39.3895 22.9737 39.4626 22.9461 39.5232 22.8996C39.5839 22.853 39.6294 22.7895 39.654 22.7171C39.6786 22.6447 39.6811 22.5666 39.6613 22.4928C39.6348 22.3937 39.57 22.3093 39.4812 22.258C39.3924 22.2067 39.2868 22.1928 39.1878 22.2194ZM43.5515 21.4471C43.5662 21.5071 43.5954 21.5625 43.6363 21.6087C43.6773 21.6549 43.7289 21.6904 43.7866 21.7122L43.6711 21.0607C43.6174 21.1078 43.5779 21.1688 43.5568 21.237C43.5357 21.3052 43.5338 21.3779 43.5515 21.4471ZM30.4156 35.9161C30.3414 35.9354 30.2745 35.9763 30.2235 36.0337C30.1726 36.0911 30.1399 36.1623 30.1295 36.2384C30.1192 36.3144 30.1317 36.3918 30.1655 36.4607C30.1993 36.5296 30.2529 36.5869 30.3193 36.6253C30.3858 36.6636 30.4622 36.6813 30.5387 36.6762C30.6153 36.671 30.6886 36.6432 30.7493 36.5962C30.81 36.5492 30.8553 36.4853 30.8796 36.4124C30.9038 36.3396 30.9058 36.2612 30.8853 36.1873C30.8593 36.0901 30.7961 36.007 30.7094 35.956C30.6227 35.9049 30.5194 35.89 30.4218 35.9145L30.4156 35.9161ZM35.0567 34.6725C34.9824 34.6918 34.9155 34.7327 34.8646 34.7901C34.8136 34.8475 34.7809 34.9188 34.7706 34.9948C34.7602 35.0708 34.7728 35.1482 34.8066 35.2171C34.8404 35.286 34.8939 35.3433 34.9604 35.3817C35.0268 35.4201 35.1032 35.4378 35.1798 35.4326C35.2563 35.4274 35.3296 35.3996 35.3903 35.3526C35.451 35.3057 35.4964 35.2417 35.5206 35.1689C35.5448 35.0961 35.5468 35.0177 35.5264 34.9437C35.5003 34.8465 35.4371 34.7634 35.3504 34.7124C35.2637 34.6614 35.1604 34.6465 35.0628 34.6709L35.0567 34.6725ZM39.6977 33.429C39.6237 33.4488 39.5573 33.4902 39.5068 33.5478C39.4564 33.6055 39.4242 33.6768 39.4143 33.7528C39.4045 33.8288 39.4174 33.9059 39.4515 33.9745C39.4856 34.0432 39.5393 34.1001 39.6058 34.1381C39.6724 34.1761 39.7487 34.1936 39.8251 34.1882C39.9015 34.1828 39.9746 34.1548 40.0351 34.1078C40.0956 34.0608 40.1407 33.9968 40.1648 33.9241C40.1889 33.8514 40.1909 33.7732 40.1705 33.6993C40.1436 33.6021 40.0797 33.5192 39.9925 33.4684C39.9053 33.4175 39.8017 33.4028 39.7038 33.4273L39.6977 33.429ZM44.3387 32.1854C44.2647 32.2052 44.1983 32.2466 44.1479 32.3043C44.0974 32.3619 44.0652 32.4333 44.0554 32.5092C44.0455 32.5852 44.0585 32.6624 44.0926 32.731C44.1267 32.7996 44.1804 32.8565 44.2469 32.8946C44.3134 32.9326 44.3897 32.95 44.4661 32.9446C44.5425 32.9392 44.6156 32.9112 44.6761 32.8642C44.7366 32.8172 44.7817 32.7533 44.8059 32.6806C44.83 32.6078 44.8319 32.5296 44.8115 32.4558C44.7846 32.3585 44.7207 32.2756 44.6335 32.2248C44.5464 32.174 44.4428 32.1593 44.3449 32.1838L44.3387 32.1854ZM27.1874 33.1259C27.1133 33.1451 27.0465 33.1859 26.9956 33.2432C26.9447 33.3004 26.9119 33.3715 26.9014 33.4473C26.891 33.5232 26.9033 33.6005 26.9368 33.6694C26.9703 33.7383 27.0236 33.7957 27.0898 33.8342C27.1559 33.8728 27.2321 33.8909 27.3086 33.8861C27.385 33.8813 27.4583 33.8539 27.5192 33.8074C27.5801 33.7609 27.6258 33.6974 27.6505 33.6248C27.6752 33.5523 27.6778 33.4741 27.658 33.4001C27.6316 33.3016 27.5673 33.2175 27.4792 33.1661C27.391 33.1147 27.2862 33.1003 27.1874 33.1259ZM31.8285 31.8823C31.7543 31.9015 31.6875 31.9424 31.6366 31.9996C31.5857 32.0568 31.5529 32.1279 31.5425 32.2038C31.532 32.2797 31.5443 32.357 31.5778 32.4258C31.6114 32.4947 31.6646 32.5521 31.7308 32.5907C31.797 32.6292 31.8731 32.6473 31.9496 32.6425C32.026 32.6377 32.0994 32.6104 32.1602 32.5639C32.2211 32.5173 32.2668 32.4538 32.2915 32.3813C32.3162 32.3088 32.3188 32.2305 32.299 32.1566C32.2726 32.058 32.2083 31.9739 32.1202 31.9225C32.0321 31.8712 31.9272 31.8567 31.8285 31.8823ZM36.4695 30.6388C36.3956 30.6586 36.3293 30.6998 36.2789 30.7573C36.2285 30.8148 36.1962 30.886 36.1862 30.9618C36.1763 31.0376 36.189 31.1147 36.2228 31.1833C36.2566 31.2518 36.31 31.3089 36.3763 31.3471C36.4425 31.3853 36.5186 31.4031 36.5949 31.3981C36.6712 31.3931 36.7443 31.3656 36.805 31.319C36.8656 31.2724 36.9111 31.2089 36.9357 31.1365C36.9603 31.0641 36.9629 30.986 36.9431 30.9122C36.9165 30.8131 36.8517 30.7287 36.7629 30.6774C36.6741 30.6261 36.5686 30.6122 36.4695 30.6388ZM41.1105 29.3952C41.0367 29.415 40.9703 29.4562 40.9199 29.5137C40.8695 29.5712 40.8372 29.6424 40.8273 29.7182C40.8173 29.794 40.83 29.8711 40.8638 29.9397C40.8977 30.0083 40.9511 30.0653 41.0173 30.1035C41.0835 30.1418 41.1596 30.1595 41.2359 30.1545C41.3122 30.1495 41.3853 30.122 41.446 30.0754C41.5067 30.0289 41.5522 29.9654 41.5768 29.893C41.6013 29.8206 41.6039 29.7425 41.5841 29.6686C41.5576 29.5696 41.4928 29.4851 41.404 29.4338C41.3151 29.3826 41.2096 29.3687 41.1105 29.3952ZM32.3445 43.0903C32.2704 43.1095 32.2036 43.1503 32.1527 43.2076C32.1017 43.2648 32.069 43.3359 32.0585 43.4118C32.048 43.4877 32.0604 43.5649 32.0939 43.6338C32.1274 43.7027 32.1806 43.7601 32.2468 43.7987C32.313 43.8372 32.3892 43.8553 32.4656 43.8505C32.5421 43.8457 32.6154 43.8184 32.6763 43.7718C32.7372 43.7253 32.7829 43.6618 32.8076 43.5893C32.8323 43.5168 32.8349 43.4385 32.815 43.3645C32.8023 43.3155 32.7801 43.2695 32.7495 43.2292C32.7189 43.1888 32.6807 43.1549 32.6369 43.1294C32.5932 43.1039 32.5448 43.0873 32.4946 43.0806C32.4445 43.0739 32.3934 43.0772 32.3445 43.0903ZM36.9856 41.8467C36.9114 41.866 36.8446 41.9068 36.7937 41.964C36.7428 42.0212 36.71 42.0923 36.6995 42.1682C36.6891 42.2441 36.7014 42.3214 36.7349 42.3903C36.7684 42.4591 36.8217 42.5165 36.8879 42.5551C36.9541 42.5937 37.0302 42.6117 37.1067 42.6069C37.1831 42.6022 37.2564 42.5748 37.3173 42.5283C37.3782 42.4818 37.4239 42.4182 37.4486 42.3457C37.4733 42.2732 37.4759 42.195 37.4561 42.121C37.4434 42.072 37.4211 42.026 37.3905 41.9856C37.3599 41.9452 37.3217 41.9113 37.2779 41.8858C37.2342 41.8603 37.1858 41.8438 37.1357 41.8371C37.0855 41.8303 37.0345 41.8336 36.9856 41.8467ZM41.6266 40.6032C41.5527 40.623 41.4864 40.6642 41.436 40.7217C41.3855 40.7792 41.3533 40.8504 41.3433 40.9262C41.3333 41.002 41.3461 41.0791 41.3799 41.1477C41.4137 41.2163 41.4671 41.2733 41.5333 41.3115C41.5996 41.3498 41.6756 41.3675 41.752 41.3625C41.8283 41.3575 41.9014 41.33 41.9621 41.2834C42.0227 41.2369 42.0682 41.1734 42.0928 41.101C42.1174 41.0285 42.12 40.9505 42.1002 40.8766C42.0736 40.7775 42.0088 40.6931 41.92 40.6418C41.8312 40.5905 41.7257 40.5766 41.6266 40.6032ZM46.2676 39.3596C46.1938 39.3794 46.1274 39.4207 46.077 39.4782C46.0266 39.5357 45.9943 39.6068 45.9843 39.6826C45.9744 39.7585 45.9871 39.8355 46.0209 39.9041C46.0547 39.9727 46.1081 40.0297 46.1744 40.068C46.2406 40.1062 46.3167 40.1239 46.393 40.1189C46.4693 40.1139 46.5424 40.0864 46.6031 40.0399C46.6638 39.9933 46.7093 39.9298 46.7338 39.8574C46.7584 39.785 46.761 39.7069 46.7412 39.633C46.7146 39.534 46.6498 39.4495 46.561 39.3982C46.4722 39.347 46.3667 39.3331 46.2676 39.3596ZM29.1069 40.2895C29.0328 40.3087 28.966 40.3495 28.9151 40.4067C28.8641 40.464 28.8314 40.535 28.8209 40.6109C28.8104 40.6868 28.8228 40.7641 28.8563 40.833C28.8898 40.9019 28.943 40.9593 29.0092 40.9978C29.0754 41.0364 29.1516 41.0545 29.228 41.0497C29.3045 41.0449 29.3778 41.0175 29.4387 40.971C29.4996 40.9245 29.5452 40.861 29.57 40.7884C29.5947 40.7159 29.5973 40.6377 29.5774 40.5637C29.551 40.4652 29.4868 40.3811 29.3986 40.3297C29.3105 40.2783 29.2057 40.2639 29.1069 40.2895ZM33.748 39.0459C33.6738 39.0651 33.607 39.106 33.5561 39.1632C33.5052 39.2204 33.4724 39.2915 33.4619 39.3674C33.4515 39.4433 33.4638 39.5206 33.4973 39.5894C33.5308 39.6583 33.5841 39.7157 33.6503 39.7543C33.7165 39.7928 33.7926 39.8109 33.8691 39.8061C33.9455 39.8013 34.0188 39.774 34.0797 39.7275C34.1406 39.6809 34.1863 39.6174 34.211 39.5449C34.2357 39.4724 34.2383 39.3941 34.2185 39.3201C34.1921 39.2216 34.1278 39.1375 34.0397 39.0861C33.9516 39.0348 33.8467 39.0203 33.748 39.0459ZM38.389 37.8024C38.3151 37.8221 38.2488 37.8634 38.1984 37.9209C38.1479 37.9784 38.1157 38.0496 38.1057 38.1254C38.0957 38.2012 38.1085 38.2783 38.1423 38.3469C38.1761 38.4154 38.2295 38.4725 38.2957 38.5107C38.362 38.5489 38.4381 38.5667 38.5144 38.5617C38.5907 38.5567 38.6638 38.5292 38.7245 38.4826C38.7851 38.436 38.8306 38.3725 38.8552 38.3001C38.8798 38.2277 38.8824 38.1496 38.8626 38.0758C38.836 37.9767 38.7712 37.8923 38.6824 37.841C38.5936 37.7897 38.4881 37.7758 38.389 37.8024ZM43.03 36.5588C42.9562 36.5786 42.8898 36.6198 42.8394 36.6773C42.789 36.7348 42.7567 36.806 42.7467 36.8818C42.7368 36.9576 42.7495 37.0347 42.7833 37.1033C42.8171 37.1719 42.8705 37.2289 42.9368 37.2671C43.003 37.3054 43.0791 37.3231 43.1554 37.3181C43.2317 37.3131 43.3048 37.2856 43.3655 37.239C43.4262 37.1925 43.4717 37.129 43.4962 37.0566C43.5208 36.9842 43.5234 36.9061 43.5036 36.8322C43.477 36.7331 43.4122 36.6487 43.3234 36.5974C43.2346 36.5461 43.1291 36.5322 43.03 36.5588Z" fill="white"/>
<path d="M48.4851 14.2873L41.0307 16.2847L46.9922 40.2968L52.8303 38.4142L48.4851 14.2873Z" fill="#F2F2F2"/>
<path d="M45.6012 16.8619C45.6209 16.9357 45.6184 17.0138 45.5938 17.0862C45.5692 17.1586 45.5237 17.2221 45.4631 17.2687C45.4024 17.3152 45.3293 17.3428 45.253 17.3478C45.1766 17.3528 45.1006 17.335 45.0343 17.2968C44.9681 17.2586 44.9147 17.2015 44.8809 17.133C44.8471 17.0644 44.8343 16.9873 44.8443 16.9115C44.8543 16.8356 44.8865 16.7645 44.937 16.707C44.9874 16.6495 45.0537 16.6082 45.1276 16.5884C45.1766 16.5753 45.2278 16.572 45.2781 16.5786C45.3285 16.5852 45.377 16.6017 45.421 16.6271C45.465 16.6525 45.5035 16.6863 45.5344 16.7265C45.5653 16.7668 45.588 16.8128 45.6012 16.8619ZM47.0504 23.7643C46.9765 23.7841 46.9101 23.8253 46.8597 23.8828C46.8093 23.9403 46.7771 24.0115 46.7671 24.0873C46.7571 24.1631 46.7698 24.2402 46.8036 24.3088C46.8375 24.3774 46.8909 24.4344 46.9571 24.4726C47.0233 24.5109 47.0994 24.5286 47.1757 24.5236C47.252 24.5186 47.3251 24.4911 47.3858 24.4445C47.4465 24.398 47.492 24.3345 47.5166 24.2621C47.5412 24.1896 47.5437 24.1116 47.5239 24.0377C47.4978 23.9402 47.4347 23.8568 47.3479 23.8052C47.2611 23.7537 47.1576 23.7381 47.0595 23.7618L47.0504 23.7643ZM43.8169 20.9788C43.743 20.9986 43.6766 21.0398 43.6262 21.0973C43.5758 21.1548 43.5436 21.226 43.5336 21.3018C43.5236 21.3776 43.5363 21.4547 43.5701 21.5233C43.604 21.5919 43.6574 21.6489 43.7236 21.6871C43.7898 21.7254 43.8659 21.7431 43.9422 21.7381C44.0185 21.7331 44.0916 21.7056 44.1523 21.659C44.213 21.6125 44.2585 21.549 44.2831 21.4765C44.3077 21.4041 44.3102 21.326 44.2904 21.2522C44.2643 21.1547 44.2011 21.0713 44.1144 21.0197C44.0276 20.9682 43.9241 20.9526 43.826 20.9763L43.8169 20.9788ZM48.4579 19.7352C48.384 19.755 48.3177 19.7963 48.2673 19.8537C48.2168 19.9112 48.1846 19.9824 48.1746 20.0582C48.1646 20.134 48.1774 20.2111 48.2112 20.2797C48.245 20.3483 48.2984 20.4053 48.3646 20.4436C48.4309 20.4818 48.5069 20.4995 48.5832 20.4945C48.6596 20.4895 48.7327 20.462 48.7933 20.4155C48.854 20.3689 48.8995 20.3054 48.9241 20.233C48.9487 20.1606 48.9512 20.0825 48.9314 20.0086C48.9054 19.9111 48.8422 19.8277 48.7554 19.7762C48.6686 19.7246 48.5652 19.709 48.4671 19.7327L48.4579 19.7352ZM48.9739 30.9432C48.9006 30.9629 48.8347 31.0037 48.7844 31.0606C48.7342 31.1175 48.7018 31.188 48.6913 31.2632C48.6808 31.3384 48.6926 31.415 48.7254 31.4835C48.7582 31.552 48.8104 31.6093 48.8755 31.6483C48.9406 31.6873 49.0158 31.7063 49.0917 31.7029C49.1675 31.6995 49.2407 31.6738 49.302 31.6291C49.3634 31.5843 49.4102 31.5225 49.4366 31.4513C49.4631 31.3802 49.468 31.3028 49.4508 31.2288C49.4392 31.1791 49.4179 31.1322 49.3881 31.0907C49.3582 31.0492 49.3205 31.0141 49.277 30.9873C49.2335 30.9605 49.1852 30.9426 49.1347 30.9346C49.0843 30.9266 49.0328 30.9287 48.9831 30.9407L48.9739 30.9432ZM45.7396 28.1546C45.6658 28.1744 45.5994 28.2157 45.549 28.2732C45.4986 28.3306 45.4663 28.4018 45.4563 28.4776C45.4464 28.5534 45.4591 28.6305 45.4929 28.6991C45.5267 28.7677 45.5801 28.8247 45.6464 28.863C45.7126 28.9012 45.7887 28.9189 45.865 28.9139C45.9413 28.9089 46.0144 28.8814 46.0751 28.8349C46.1357 28.7883 46.1813 28.7248 46.2058 28.6524C46.2304 28.58 46.233 28.5019 46.2132 28.428C46.1871 28.3305 46.1239 28.2471 46.0371 28.1956C45.9504 28.144 45.8469 28.1284 45.7488 28.1522L45.7396 28.1546ZM50.3806 26.9111C50.2816 26.9376 50.1971 27.0024 50.1459 27.0912C50.0946 27.18 50.0807 27.2856 50.1072 27.3846C50.1338 27.4837 50.1986 27.5681 50.2874 27.6194C50.3762 27.6707 50.4817 27.6846 50.5808 27.658C50.6409 27.6429 50.6964 27.6133 50.7425 27.5718C50.7886 27.5302 50.8238 27.4781 50.8451 27.4199L50.7762 27.0282C50.7292 26.9745 50.6681 26.9349 50.5999 26.9138C50.5317 26.8927 50.459 26.8909 50.3898 26.9086L50.3806 26.9111ZM50.8967 38.119C50.8228 38.1388 50.7565 38.1801 50.7061 38.2376C50.6556 38.2951 50.6234 38.3662 50.6134 38.4421C50.6034 38.5179 50.6162 38.595 50.65 38.6635C50.6838 38.7321 50.7372 38.7891 50.8034 38.8274C50.8697 38.8656 50.9458 38.8834 51.0221 38.8784C51.0984 38.8734 51.1715 38.8458 51.2322 38.7993C51.2928 38.7527 51.3383 38.6892 51.3629 38.6168C51.3875 38.5444 51.3901 38.4663 51.3703 38.3924C51.3442 38.295 51.281 38.2115 51.1942 38.16C51.1075 38.1084 51.004 38.0929 50.9059 38.1166L50.8967 38.119ZM47.6683 35.3157C47.5944 35.3355 47.5281 35.3768 47.4777 35.4343C47.4272 35.4918 47.395 35.5629 47.385 35.6388C47.375 35.7146 47.3877 35.7917 47.4216 35.8602C47.4554 35.9288 47.5088 35.9859 47.575 36.0241C47.6413 36.0623 47.7173 36.0801 47.7937 36.0751C47.87 36.0701 47.9431 36.0425 48.0037 35.996C48.0644 35.9494 48.1099 35.8859 48.1345 35.8135C48.1591 35.7411 48.1616 35.663 48.1418 35.5892C48.1153 35.4901 48.0505 35.4056 47.9617 35.3544C47.8729 35.3031 47.7673 35.2892 47.6683 35.3157ZM52.0367 34.5488C52.0561 34.6271 52.1024 34.696 52.1676 34.7434L52.0778 34.2491C52.05 34.2955 52.0323 34.3473 52.0258 34.401C52.0193 34.4548 52.0241 34.5093 52.04 34.5611L52.0367 34.5488Z" fill="white"/>
<path opacity="0.1" d="M48.4851 14.2873L41.0307 16.2847L46.9922 40.2968L52.8303 38.4142L48.4851 14.2873Z" fill="black" fill-opacity="0.2"/>
<path d="M18.0803 20.4923L19.4305 25.5313L41.6711 18.9026L40.1257 13.135L18.0803 20.4923Z" fill="#F2F2F2"/>
<path d="M22.1303 23.5512C22.3365 23.4959 22.459 23.2839 22.4037 23.0776C22.3484 22.8714 22.1364 22.749 21.9301 22.8042C21.7239 22.8595 21.6014 23.0715 21.6567 23.2778C21.712 23.4841 21.924 23.6065 22.1303 23.5512Z" fill="white"/>
<path d="M26.7748 22.3066C26.9811 22.2513 27.1035 22.0393 27.0482 21.833C26.993 21.6267 26.7809 21.5043 26.5747 21.5596C26.3684 21.6149 26.246 21.8269 26.3012 22.0332C26.3565 22.2394 26.5685 22.3618 26.7748 22.3066Z" fill="white"/>
<path d="M31.4154 21.0632C31.6217 21.0079 31.7441 20.7959 31.6888 20.5896C31.6336 20.3833 31.4216 20.2609 31.2153 20.3162C31.009 20.3715 30.8866 20.5835 30.9419 20.7897C30.9971 20.996 31.2092 21.1184 31.4154 21.0632Z" fill="white"/>
<path d="M36.058 19.82C36.2643 19.7647 36.3867 19.5527 36.3314 19.3464C36.2762 19.1402 36.0641 19.0177 35.8579 19.073C35.6516 19.1283 35.5292 19.3403 35.5845 19.5466C35.6397 19.7529 35.8517 19.8753 36.058 19.82Z" fill="white"/>
<path d="M40.9701 18.1025C40.9899 18.1764 40.9873 18.2545 40.9628 18.3269C40.9382 18.3993 40.8927 18.4628 40.832 18.5094C40.7713 18.5559 40.6982 18.5834 40.6219 18.5884C40.5456 18.5934 40.4695 18.5757 40.4033 18.5375C40.337 18.4992 40.2836 18.4422 40.2498 18.3736C40.216 18.305 40.2033 18.228 40.2133 18.1521C40.2232 18.0763 40.2555 18.0052 40.3059 17.9477C40.3563 17.8902 40.4227 17.8489 40.4965 17.8291C40.5956 17.8026 40.7011 17.8165 40.7899 17.8678C40.8788 17.919 40.9436 18.0035 40.9701 18.1025Z" fill="white"/>
<path d="M23.8114 19.0453C23.8299 19.0957 23.8378 19.1494 23.8344 19.203C23.831 19.2567 23.8165 19.309 23.7917 19.3567C23.767 19.4044 23.7326 19.4464 23.6907 19.4801C23.6489 19.5137 23.6004 19.5383 23.5486 19.5522C23.4967 19.5661 23.4424 19.569 23.3893 19.5608C23.3362 19.5526 23.2854 19.5334 23.2402 19.5045C23.1949 19.4755 23.1562 19.4375 23.1264 19.3927C23.0967 19.348 23.0766 19.2975 23.0675 19.2446C23.0526 19.1898 23.0505 19.1324 23.0611 19.0767C23.0718 19.021 23.095 18.9684 23.1289 18.923L23.5555 18.7759C23.6169 18.7964 23.6723 18.8317 23.717 18.8787C23.7616 18.9257 23.794 18.9829 23.8114 19.0453Z" fill="white"/>
<path d="M28.1811 18.2743C28.3873 18.2191 28.5097 18.007 28.4545 17.8008C28.3992 17.5945 28.1872 17.4721 27.9809 17.5274C27.7746 17.5826 27.6522 17.7947 27.7075 18.0009C27.7628 18.2072 27.9748 18.3296 28.1811 18.2743Z" fill="white"/>
<path d="M32.8236 17.0312C33.0299 16.9759 33.1523 16.7639 33.097 16.5576C33.0418 16.3513 32.8298 16.2289 32.6235 16.2842C32.4172 16.3395 32.2948 16.5515 32.3501 16.7578C32.4053 16.964 32.6174 17.0864 32.8236 17.0312Z" fill="white"/>
<path d="M37.4623 15.7878C37.6686 15.7325 37.791 15.5205 37.7357 15.3142C37.6804 15.1079 37.4684 14.9855 37.2622 15.0408C37.0559 15.0961 36.9335 15.3081 36.9887 15.5144C37.044 15.7206 37.256 15.843 37.4623 15.7878Z" fill="white"/>
<path opacity="0.1" d="M18.0979 20.4881L19.4481 25.5271L41.6726 18.9027L40.1272 13.1351L18.0979 20.4881Z" fill="black" fill-opacity="0.2"/>
<path d="M49.5004 17.4742L41.6704 18.9029L40.125 13.1353L48.5849 12.3187L49.5004 17.4742Z" fill="#F2F2F2"/>
<path d="M45.602 16.8612C45.6218 16.9351 45.6193 17.0132 45.5947 17.0856C45.5701 17.158 45.5246 17.2215 45.4639 17.268C45.4033 17.3146 45.3301 17.3421 45.2538 17.3471C45.1775 17.3521 45.1014 17.3344 45.0352 17.2961C44.969 17.2579 44.9156 17.2009 44.8817 17.1323C44.8479 17.0637 44.8352 16.9866 44.8452 16.9108C44.8552 16.835 44.8874 16.7638 44.9378 16.7063C44.9883 16.6488 45.0546 16.6076 45.1285 16.5878C45.1775 16.5747 45.2287 16.5713 45.279 16.5779C45.3294 16.5846 45.3779 16.601 45.4219 16.6264C45.4658 16.6518 45.5044 16.6856 45.5353 16.7259C45.5662 16.7662 45.5889 16.8122 45.602 16.8612ZM41.895 13.8023C41.821 13.8221 41.7545 13.8635 41.7041 13.9211C41.6536 13.9788 41.6214 14.0501 41.6116 14.1261C41.6017 14.2021 41.6147 14.2792 41.6488 14.3478C41.6829 14.4164 41.7366 14.4734 41.8031 14.5114C41.8696 14.5494 41.9459 14.5669 42.0223 14.5615C42.0987 14.5561 42.1718 14.5281 42.2323 14.4811C42.2928 14.434 42.338 14.3701 42.3621 14.2974C42.3862 14.2247 42.3881 14.1465 42.3677 14.0726C42.341 13.9759 42.2776 13.8933 42.1911 13.8424C42.1046 13.7915 42.0017 13.7762 41.9042 13.7998L41.895 13.8023ZM46.536 12.5587C46.462 12.5785 46.3956 12.6199 46.3451 12.6776C46.2947 12.7352 46.2625 12.8065 46.2526 12.8825C46.2428 12.9585 46.2557 13.0357 46.2898 13.1043C46.3239 13.1729 46.3776 13.2298 46.4441 13.2678C46.5106 13.3059 46.5869 13.3233 46.6634 13.3179C46.7398 13.3125 46.8129 13.2845 46.8733 13.2375C46.9338 13.1905 46.979 13.1266 47.0031 13.0539C47.0272 12.9811 47.0292 12.9029 47.0087 12.8291C46.982 12.7323 46.9187 12.6498 46.8322 12.5988C46.7457 12.5479 46.6427 12.5327 46.5452 12.5562L46.536 12.5587Z" fill="white"/>
<path d="M40.4629 42.1548L35.675 43.4378L28.1341 17.2174L33.6845 15.3266L40.4629 42.1548Z" fill="#EDEDED"/>
<path d="M49.5104 39.7312L51.139 39.2948L45.781 12.5879L43.4047 12.8178L49.5104 39.7312Z" fill="#F2F2F2"/>
<path d="M131.441 27.5409C132.089 27.6893 134.569 28.0198 136.299 27.7313C137.139 27.5907 139.506 26.9341 139.448 26.2773C139.39 25.6205 138.681 25.7564 138.681 25.7564C138.681 25.7564 139.632 25.326 139.521 24.6782C139.411 24.0303 138.307 24.2672 138.307 24.2672C138.307 24.2672 139.259 23.7556 139.094 23.1141C138.93 22.4727 137.867 22.9002 137.867 22.9002C137.867 22.9002 138.76 22.4733 138.403 21.9994C137.972 21.4327 136.414 22.4044 135.481 22.5135C135.265 22.5373 131.139 22.7058 131.139 22.7058L131.441 27.5409Z" fill="#AD6359"/>
<path d="M137.848 22.8967C136.7 23.6086 136.077 23.7214 134.749 23.7123C134.724 23.7055 134.715 23.7514 134.738 23.7513C136.037 23.8798 136.84 23.8508 137.878 22.9486C137.935 22.9075 137.903 22.8634 137.848 22.8967Z" fill="#F0F0FD"/>
<path d="M138.361 24.2557C137.106 24.8909 136.43 25.021 135.037 25.1136C135.02 25.1089 135.018 25.148 135.029 25.1447C136.401 25.1698 137.203 25.1216 138.382 24.3241C138.435 24.2883 138.418 24.2273 138.361 24.2557Z" fill="#F0F0FD"/>
<path d="M138.572 25.806C137.313 26.3335 136.578 26.5061 135.215 26.423C135.209 26.4231 135.204 26.425 135.199 26.4285C135.195 26.432 135.192 26.4369 135.19 26.4424C135.189 26.4479 135.189 26.4538 135.191 26.459C135.193 26.4643 135.197 26.4688 135.202 26.4717C136.584 26.6917 137.497 26.481 138.578 25.8453C138.659 25.8021 138.652 25.7731 138.572 25.806Z" fill="#F0F0FD"/>
<path d="M130.624 22.597C130.624 22.597 131.98 21.5881 132.674 21.2768C133.367 20.9654 136.382 20.7583 136.464 21.4047C136.569 22.2433 134.862 22.707 133.981 22.8282C133.981 22.8282 134.229 24.7641 133.07 25.3623C131.912 25.9604 130.624 22.597 130.624 22.597Z" fill="#AD6359"/>
<path d="M136.416 21.6449C135.963 22.478 134.811 22.558 133.974 22.7348C133.962 22.7368 133.95 22.7417 133.94 22.7493C133.93 22.7568 133.922 22.7667 133.917 22.7781C133.911 22.7894 133.909 22.8019 133.91 22.8144C133.91 22.827 133.914 22.8391 133.92 22.8499C133.968 23.669 133.805 24.8389 133.121 25.3741C133.117 25.3773 133.115 25.3818 133.114 25.3867C133.113 25.3916 133.115 25.3965 133.117 25.4006C133.12 25.4047 133.124 25.4076 133.129 25.4088C133.134 25.41 133.139 25.4095 133.143 25.4072C133.95 24.9299 134.202 23.7943 134.096 22.9033C134.958 22.7352 136.108 22.6068 136.425 21.6475L136.416 21.6449Z" fill="#F0F0FD"/>
<path d="M140.311 19.2145C140.221 19.4926 140.06 19.7423 139.844 19.9392C139.858 19.8866 139.853 19.8268 139.854 19.7667C139.857 19.7051 139.856 19.6435 139.852 19.5821C139.82 19.1541 139.708 18.7361 139.519 18.3505L139.457 18.2188L139.439 18.1847C139.43 18.1635 139.416 18.1452 139.407 18.124C137.756 14.2832 133.996 18.7818 133.913 18.8871C133.913 18.8871 135.148 13.7264 137.917 14.3202C140.088 14.7805 140.864 17.6664 140.311 19.2145Z" fill="#F2F2F2"/>
<path d="M139.838 19.9381C139.752 20.0109 139.655 20.0702 139.551 20.1139C137.977 20.7638 134.157 19.0027 133.919 18.893L133.907 18.8898C137.575 20.2612 138.975 19.1679 139.433 18.1855L139.451 18.2196L139.513 18.3513C139.7 18.7375 139.813 19.1552 139.846 19.5829C139.849 19.6466 139.85 19.7073 139.848 19.7675C139.847 19.8276 139.852 19.8855 139.838 19.9381Z" fill="#EDEDED"/>
<path d="M127.957 16.5287C127.922 16.8193 127.964 17.1141 128.081 17.3828C128.098 17.3272 128.119 17.2728 128.143 17.2199C128.166 17.1628 128.192 17.107 128.221 17.0529C128.427 16.6761 128.704 16.3424 129.036 16.0701C129.071 16.0399 129.107 16.0077 129.147 15.9766L129.176 15.9531C129.194 15.9392 129.215 15.9258 129.231 15.9114C132.329 13.1029 133.881 18.7573 133.911 18.8865C133.911 18.8865 134.928 13.6781 132.164 13.0649C129.999 12.5851 128.099 14.8896 127.957 16.5287Z" fill="#F2F2F2"/>
<path d="M128.082 17.3825C128.13 17.4846 128.193 17.5786 128.271 17.6607C129.431 18.9052 133.639 18.8904 133.901 18.8894L133.912 18.8925C130.005 18.6163 129.186 17.0413 129.177 15.9527L129.148 15.9762C129.108 16.0074 129.073 16.0396 129.037 16.0698C128.706 16.3431 128.43 16.6765 128.223 17.0525C128.193 17.1093 128.167 17.1652 128.144 17.2196C128.12 17.2724 128.099 17.3268 128.082 17.3825Z" fill="#EDEDED"/>
<path d="M140.155 22.0466L124.851 17.9458L122.039 33.4956L134.503 36.8353L140.155 22.0466Z" fill="#F2F2F2"/>
<path d="M126.616 19.5655C126.604 19.6121 126.578 19.654 126.542 19.6857C126.506 19.7174 126.461 19.7374 126.413 19.7432L126.502 19.2886C126.549 19.3155 126.586 19.3574 126.606 19.4076C126.627 19.4577 126.63 19.5133 126.616 19.5655ZM129.398 20.0562C129.351 20.0432 129.301 20.0445 129.255 20.0598C129.209 20.0752 129.168 20.1039 129.138 20.1424C129.108 20.1809 129.09 20.2275 129.087 20.2761C129.083 20.3248 129.094 20.3733 129.119 20.4157C129.143 20.458 129.179 20.4922 129.223 20.5139C129.266 20.5356 129.316 20.5438 129.364 20.5376C129.412 20.5313 129.458 20.5108 129.494 20.4787C129.531 20.4466 129.557 20.4043 129.57 20.3572C129.587 20.2945 129.578 20.2276 129.546 20.1713C129.514 20.1149 129.461 20.0736 129.398 20.0562ZM132.352 20.8479C132.305 20.8349 132.256 20.8361 132.209 20.8515C132.163 20.8668 132.122 20.8956 132.092 20.9341C132.063 20.9726 132.045 21.0191 132.041 21.0678C132.038 21.1164 132.049 21.165 132.073 21.2073C132.097 21.2497 132.134 21.2838 132.177 21.3056C132.221 21.3273 132.27 21.3355 132.318 21.3292C132.367 21.323 132.412 21.3025 132.449 21.2704C132.486 21.2382 132.512 21.1959 132.525 21.1488C132.541 21.0861 132.533 21.0193 132.501 20.9629C132.468 20.9066 132.415 20.8652 132.352 20.8479ZM135.307 21.6395C135.26 21.6269 135.21 21.6286 135.164 21.6442C135.118 21.6599 135.078 21.6888 135.048 21.7275C135.018 21.7661 135.001 21.8126 134.998 21.8612C134.994 21.9098 135.006 21.9582 135.03 22.0004C135.054 22.0425 135.091 22.0765 135.134 22.0981C135.178 22.1196 135.227 22.1277 135.275 22.1214C135.324 22.115 135.369 22.0945 135.406 22.0624C135.442 22.0303 135.468 21.988 135.481 21.941C135.498 21.878 135.489 21.8108 135.456 21.7542C135.424 21.6977 135.37 21.6564 135.307 21.6395ZM138.261 22.4312C138.214 22.4186 138.165 22.4202 138.119 22.4359C138.073 22.4515 138.032 22.4805 138.002 22.5191C137.973 22.5577 137.955 22.6043 137.952 22.6529C137.949 22.7014 137.96 22.7499 137.985 22.792C138.009 22.8342 138.045 22.8682 138.089 22.8897C138.133 22.9113 138.182 22.9194 138.23 22.913C138.278 22.9067 138.323 22.8861 138.36 22.854C138.397 22.8219 138.423 22.7797 138.436 22.7327C138.452 22.6696 138.444 22.6024 138.411 22.5459C138.378 22.4894 138.325 22.4481 138.261 22.4312ZM128.174 24.6244C128.127 24.6114 128.077 24.6126 128.031 24.628C127.985 24.6433 127.944 24.6721 127.914 24.7106C127.884 24.7491 127.866 24.7956 127.863 24.8443C127.859 24.8929 127.87 24.9415 127.895 24.9838C127.919 25.0262 127.955 25.0604 127.999 25.0821C128.042 25.1038 128.092 25.112 128.14 25.1057C128.188 25.0995 128.234 25.079 128.27 25.0469C128.307 25.0148 128.333 24.9725 128.346 24.9253C128.363 24.8626 128.354 24.7958 128.322 24.7394C128.29 24.6831 128.237 24.6417 128.174 24.6244ZM131.128 25.4161C131.081 25.403 131.032 25.4043 130.985 25.4196C130.939 25.435 130.898 25.4637 130.868 25.5022C130.839 25.5407 130.821 25.5873 130.817 25.6359C130.814 25.6846 130.825 25.7331 130.849 25.7755C130.873 25.8178 130.91 25.852 130.953 25.8737C130.997 25.8954 131.046 25.9037 131.094 25.8974C131.143 25.8911 131.188 25.8706 131.225 25.8385C131.262 25.8064 131.288 25.7641 131.301 25.717C131.317 25.6543 131.309 25.5875 131.276 25.5311C131.244 25.4747 131.191 25.4334 131.128 25.4161ZM134.083 26.2077C134.036 26.1951 133.986 26.1967 133.94 26.2124C133.894 26.228 133.854 26.257 133.824 26.2956C133.794 26.3342 133.777 26.3808 133.774 26.4294C133.77 26.478 133.782 26.5264 133.806 26.5685C133.83 26.6107 133.867 26.6447 133.91 26.6662C133.954 26.6878 134.003 26.6959 134.051 26.6895C134.1 26.6832 134.145 26.6626 134.182 26.6305C134.218 26.5984 134.244 26.5562 134.257 26.5092C134.274 26.4461 134.265 26.3789 134.232 26.3224C134.2 26.2659 134.146 26.2246 134.083 26.2077ZM137.037 26.9994C136.99 26.9868 136.941 26.9884 136.895 27.004C136.849 27.0197 136.808 27.0487 136.778 27.0873C136.749 27.1259 136.731 27.1725 136.728 27.221C136.725 27.2696 136.736 27.318 136.761 27.3602C136.785 27.4024 136.821 27.4364 136.865 27.4579C136.909 27.4794 136.958 27.4875 137.006 27.4812C137.054 27.4748 137.099 27.4543 137.136 27.4222C137.173 27.3901 137.199 27.3479 137.211 27.3008C137.228 27.2378 137.22 27.1706 137.187 27.1141C137.154 27.0575 137.1 27.0163 137.037 26.9994ZM127.278 22.0595C127.231 22.0465 127.181 22.0477 127.135 22.0631C127.089 22.0784 127.048 22.1072 127.018 22.1457C126.988 22.1842 126.97 22.2307 126.967 22.2793C126.963 22.328 126.974 22.3766 126.999 22.4189C127.023 22.4612 127.059 22.4954 127.103 22.5171C127.146 22.5388 127.196 22.5471 127.244 22.5408C127.292 22.5346 127.338 22.5141 127.374 22.4819C127.411 22.4498 127.437 22.4075 127.45 22.3604C127.459 22.3294 127.461 22.2969 127.457 22.2649C127.453 22.2329 127.443 22.2021 127.427 22.1741C127.411 22.1461 127.389 22.1216 127.364 22.1019C127.338 22.0822 127.309 22.0678 127.278 22.0595ZM130.232 22.8511C130.185 22.8381 130.136 22.8394 130.089 22.8547C130.043 22.8701 130.002 22.8988 129.972 22.9373C129.942 22.9758 129.925 23.0224 129.921 23.071C129.918 23.1196 129.929 23.1682 129.953 23.2106C129.977 23.2529 130.014 23.2871 130.057 23.3088C130.101 23.3305 130.15 23.3387 130.198 23.3325C130.247 23.3262 130.292 23.3057 130.329 23.2736C130.366 23.2415 130.392 23.1992 130.405 23.1521C130.413 23.121 130.415 23.0886 130.411 23.0566C130.407 23.0246 130.397 22.9937 130.381 22.9658C130.365 22.9378 130.344 22.9132 130.318 22.8936C130.293 22.8739 130.264 22.8595 130.232 22.8511ZM133.187 23.6428C133.124 23.6259 133.057 23.6347 133 23.6674C132.944 23.7 132.902 23.7538 132.885 23.8168C132.869 23.8799 132.877 23.9471 132.91 24.0036C132.943 24.0602 132.996 24.1014 133.059 24.1183C133.123 24.1352 133.19 24.1264 133.246 24.0937C133.303 24.0611 133.344 24.0073 133.361 23.9443C133.378 23.8812 133.369 23.814 133.336 23.7575C133.304 23.7009 133.25 23.6597 133.187 23.6428ZM136.141 24.4344C136.094 24.4218 136.045 24.4235 135.999 24.4391C135.952 24.4548 135.912 24.4837 135.882 24.5224C135.853 24.561 135.835 24.6075 135.832 24.6561C135.829 24.7047 135.84 24.7531 135.865 24.7953C135.889 24.8374 135.925 24.8714 135.969 24.893C136.012 24.9145 136.062 24.9226 136.11 24.9162C136.158 24.9099 136.203 24.8894 136.24 24.8573C136.277 24.8252 136.303 24.7829 136.315 24.7359C136.332 24.6729 136.324 24.6057 136.291 24.5491C136.258 24.4926 136.204 24.4513 136.141 24.4344ZM138.793 25.3977C138.782 25.4354 138.78 25.4753 138.788 25.5138C138.796 25.5523 138.813 25.5883 138.838 25.6187L138.982 25.2227C138.937 25.2316 138.896 25.2526 138.863 25.2835C138.829 25.3144 138.805 25.3539 138.793 25.3977ZM126.945 29.1935C126.898 29.1804 126.849 29.1817 126.802 29.1971C126.756 29.2126 126.715 29.2414 126.685 29.2801C126.655 29.3187 126.638 29.3654 126.634 29.4141C126.631 29.4628 126.642 29.5115 126.667 29.5538C126.691 29.5961 126.728 29.6302 126.771 29.6517C126.815 29.6732 126.865 29.6812 126.913 29.6746C126.961 29.668 127.007 29.6472 127.043 29.6148C127.08 29.5823 127.106 29.5398 127.118 29.4925C127.135 29.4306 127.126 29.3647 127.095 29.309C127.063 29.2532 127.011 29.2121 126.949 29.1945L126.945 29.1935ZM129.9 29.9851C129.853 29.9721 129.803 29.9734 129.757 29.9888C129.71 30.0042 129.67 30.0331 129.64 30.0717C129.61 30.1104 129.592 30.157 129.589 30.2058C129.585 30.2545 129.597 30.3031 129.621 30.3454C129.646 30.3877 129.682 30.4218 129.726 30.4433C129.77 30.4649 129.819 30.4728 129.867 30.4663C129.916 30.4597 129.961 30.4389 129.998 30.4064C130.034 30.374 130.06 30.3314 130.073 30.2841C130.089 30.2223 130.081 30.1563 130.049 30.1006C130.018 30.0449 129.965 30.0038 129.904 29.9862L129.9 29.9851ZM132.854 30.7768C132.807 30.7642 132.758 30.7658 132.711 30.7815C132.665 30.7973 132.625 30.8264 132.595 30.8651C132.566 30.9039 132.548 30.9505 132.545 30.9992C132.542 31.0479 132.554 31.0964 132.578 31.1385C132.603 31.1806 132.639 31.2145 132.683 31.2359C132.727 31.2572 132.776 31.2651 132.824 31.2584C132.873 31.2517 132.918 31.2309 132.954 31.1984C132.991 31.166 133.017 31.1235 133.029 31.0763C133.045 31.0141 133.036 30.9481 133.004 30.8923C132.973 30.8366 132.92 30.7955 132.858 30.7778L132.854 30.7768ZM135.809 31.5684C135.762 31.5558 135.712 31.5575 135.666 31.5732C135.62 31.5889 135.579 31.618 135.55 31.6568C135.52 31.6955 135.503 31.7422 135.5 31.7909C135.497 31.8395 135.508 31.888 135.533 31.9302C135.557 31.9723 135.594 32.0062 135.638 32.0275C135.681 32.0489 135.731 32.0567 135.779 32.05C135.827 32.0434 135.872 32.0225 135.909 31.9901C135.945 31.9577 135.971 31.9152 135.984 31.868C136 31.8058 135.991 31.7397 135.959 31.684C135.927 31.6282 135.875 31.5871 135.813 31.5695L135.809 31.5684ZM126.054 26.6276C126.007 26.6146 125.957 26.6159 125.911 26.6312C125.864 26.6466 125.824 26.6753 125.794 26.7138C125.764 26.7523 125.746 26.7989 125.743 26.8475C125.739 26.8962 125.75 26.9447 125.775 26.9871C125.799 27.0294 125.835 27.0636 125.879 27.0853C125.922 27.107 125.971 27.1152 126.02 27.109C126.068 27.1027 126.114 27.0822 126.15 27.0501C126.187 27.018 126.213 26.9757 126.226 26.9286C126.243 26.8659 126.234 26.799 126.202 26.7427C126.17 26.6863 126.116 26.645 126.054 26.6276ZM129.008 27.4193C128.961 27.4063 128.912 27.4075 128.865 27.4229C128.819 27.4382 128.778 27.467 128.748 27.5055C128.718 27.544 128.701 27.5905 128.697 27.6392C128.694 27.6878 128.705 27.7364 128.729 27.7787C128.753 27.8211 128.789 27.8553 128.833 27.877C128.877 27.8987 128.926 27.9069 128.974 27.9006C129.023 27.8944 129.068 27.8739 129.105 27.8418C129.142 27.8096 129.168 27.7674 129.18 27.7202C129.197 27.6575 129.189 27.5907 129.156 27.5343C129.124 27.478 129.071 27.4366 129.008 27.4193ZM131.963 28.211C131.916 28.1984 131.866 28.2 131.82 28.2156C131.774 28.2313 131.734 28.2602 131.704 28.2989C131.674 28.3375 131.657 28.384 131.654 28.4326C131.65 28.4812 131.662 28.5296 131.686 28.5718C131.71 28.6139 131.747 28.6479 131.79 28.6695C131.834 28.691 131.883 28.6991 131.931 28.6928C131.98 28.6864 132.025 28.6659 132.061 28.6338C132.098 28.6017 132.124 28.5594 132.137 28.5124C132.154 28.4494 132.145 28.3822 132.112 28.3256C132.08 28.2691 132.026 28.2278 131.963 28.211ZM134.917 29.0026C134.87 28.99 134.821 28.9916 134.775 29.0073C134.728 29.0229 134.688 29.0519 134.658 29.0905C134.629 29.1291 134.611 29.1757 134.608 29.2243C134.605 29.2728 134.616 29.3213 134.64 29.3634C134.665 29.4056 134.701 29.4396 134.745 29.4611C134.788 29.4827 134.838 29.4908 134.886 29.4844C134.934 29.4781 134.979 29.4575 135.016 29.4254C135.053 29.3933 135.079 29.3511 135.091 29.3041C135.108 29.241 135.099 29.1738 135.067 29.1173C135.034 29.0608 134.98 29.0195 134.917 29.0026ZM125.725 33.7627C125.678 33.7497 125.629 33.7509 125.582 33.7663C125.536 33.7816 125.495 33.8104 125.465 33.8489C125.435 33.8874 125.418 33.9339 125.414 33.9826C125.411 34.0312 125.422 34.0798 125.446 34.1221C125.47 34.1644 125.506 34.1986 125.55 34.2203C125.594 34.242 125.643 34.2503 125.691 34.244C125.74 34.2378 125.785 34.2173 125.822 34.1852C125.859 34.153 125.885 34.1107 125.897 34.0636C125.906 34.0326 125.908 34.0001 125.904 33.9681C125.9 33.9362 125.89 33.9053 125.874 33.8773C125.858 33.8493 125.837 33.8248 125.811 33.8051C125.786 33.7854 125.756 33.771 125.725 33.7627ZM128.68 34.5543C128.633 34.5413 128.583 34.5426 128.537 34.5579C128.49 34.5733 128.45 34.602 128.42 34.6405C128.39 34.679 128.372 34.7256 128.369 34.7742C128.365 34.8229 128.376 34.8714 128.401 34.9138C128.425 34.9561 128.461 34.9903 128.505 35.012C128.548 35.0337 128.597 35.0419 128.646 35.0357C128.694 35.0294 128.74 35.0089 128.776 34.9768C128.813 34.9447 128.839 34.9024 128.852 34.8553C128.861 34.8242 128.863 34.7918 128.859 34.7598C128.855 34.7278 128.845 34.6969 128.829 34.669C128.813 34.641 128.791 34.6164 128.766 34.5968C128.74 34.5771 128.711 34.5627 128.68 34.5543ZM131.634 35.346C131.587 35.3334 131.538 35.335 131.492 35.3507C131.445 35.3663 131.405 35.3953 131.375 35.4339C131.346 35.4725 131.328 35.5191 131.325 35.5677C131.322 35.6162 131.333 35.6647 131.357 35.7068C131.382 35.749 131.418 35.783 131.462 35.8045C131.505 35.8261 131.555 35.8342 131.603 35.8278C131.651 35.8214 131.696 35.8009 131.733 35.7688C131.77 35.7367 131.796 35.6945 131.808 35.6475C131.825 35.5844 131.816 35.5172 131.784 35.4607C131.751 35.4041 131.697 35.3629 131.634 35.346ZM134.589 36.1376C134.542 36.125 134.492 36.1267 134.446 36.1423C134.4 36.158 134.359 36.1869 134.33 36.2256C134.3 36.2642 134.283 36.3107 134.28 36.3593C134.276 36.4079 134.288 36.4563 134.312 36.4985C134.336 36.5406 134.373 36.5746 134.416 36.5962C134.46 36.6177 134.509 36.6258 134.557 36.6195C134.606 36.6131 134.651 36.5926 134.687 36.5605C134.724 36.5284 134.75 36.4861 134.763 36.4391C134.78 36.3761 134.771 36.3089 134.738 36.2523C134.706 36.1958 134.652 36.1545 134.589 36.1376ZM124.832 31.188C124.785 31.175 124.735 31.1763 124.689 31.1916C124.643 31.2069 124.602 31.2357 124.572 31.2742C124.542 31.3127 124.524 31.3592 124.521 31.4079C124.517 31.4565 124.528 31.5051 124.553 31.5474C124.577 31.5898 124.613 31.624 124.657 31.6457C124.7 31.6674 124.75 31.6756 124.798 31.6694C124.846 31.6631 124.892 31.6426 124.928 31.6105C124.965 31.5784 124.991 31.5361 125.004 31.489C125.021 31.4262 125.012 31.3594 124.98 31.303C124.948 31.2467 124.895 31.2053 124.832 31.188ZM127.786 31.9797C127.739 31.9667 127.69 31.9679 127.643 31.9832C127.597 31.9986 127.556 32.0273 127.526 32.0659C127.496 32.1044 127.479 32.1509 127.475 32.1995C127.472 32.2482 127.483 32.2968 127.507 32.3391C127.531 32.3814 127.568 32.4156 127.611 32.4373C127.655 32.459 127.704 32.4673 127.752 32.461C127.801 32.4547 127.846 32.4343 127.883 32.4021C127.92 32.37 127.946 32.3277 127.959 32.2806C127.975 32.2179 127.967 32.1511 127.934 32.0947C127.902 32.0383 127.849 31.997 127.786 31.9797ZM130.741 32.7713C130.694 32.7587 130.644 32.7603 130.598 32.776C130.552 32.7916 130.512 32.8206 130.482 32.8592C130.452 32.8979 130.435 32.9444 130.432 32.993C130.428 33.0416 130.44 33.09 130.464 33.1322C130.488 33.1743 130.525 33.2083 130.568 33.2299C130.612 33.2514 130.661 33.2595 130.709 33.2531C130.758 33.2468 130.803 33.2262 130.84 33.1942C130.876 33.1621 130.902 33.1198 130.915 33.0728C130.932 33.0097 130.923 32.9425 130.89 32.886C130.858 32.8295 130.804 32.7882 130.741 32.7713ZM133.695 33.563C133.648 33.5504 133.599 33.552 133.553 33.5677C133.506 33.5833 133.466 33.6123 133.436 33.6509C133.407 33.6895 133.389 33.7361 133.386 33.7846C133.383 33.8332 133.394 33.8817 133.419 33.9238C133.443 33.966 133.479 34 133.523 34.0215C133.566 34.043 133.616 34.0511 133.664 34.0448C133.712 34.0384 133.757 34.0179 133.794 33.9858C133.831 33.9537 133.857 33.9115 133.869 33.8644C133.886 33.8014 133.878 33.7342 133.845 33.6777C133.812 33.6211 133.758 33.5799 133.695 33.563Z" fill="white"/>
<path d="M143.793 23.0216L139.047 21.75L134.691 36.8858L138.509 37.7062L143.793 23.0216Z" fill="#F2F2F2"/>
<path d="M141.383 23.5222C141.371 23.5693 141.344 23.6115 141.308 23.6436C141.271 23.6757 141.226 23.6962 141.178 23.7026C141.129 23.7089 141.08 23.7008 141.037 23.6793C140.993 23.6578 140.957 23.6238 140.932 23.5816C140.908 23.5394 140.897 23.491 140.9 23.4424C140.903 23.3938 140.921 23.3473 140.95 23.3087C140.98 23.2701 141.02 23.2411 141.066 23.2254C141.112 23.2098 141.162 23.2082 141.209 23.2208C141.24 23.2291 141.27 23.2436 141.295 23.2632C141.321 23.2829 141.342 23.3075 141.359 23.3355C141.375 23.3634 141.385 23.3943 141.389 23.4264C141.394 23.4584 141.392 23.491 141.383 23.5222ZM139.985 27.7889C139.938 27.7763 139.888 27.778 139.842 27.7936C139.796 27.8093 139.756 27.8382 139.726 27.8768C139.696 27.9155 139.679 27.962 139.676 28.0106C139.673 28.0592 139.684 28.1076 139.708 28.1498C139.733 28.1919 139.769 28.2259 139.813 28.2475C139.856 28.269 139.905 28.2771 139.954 28.2707C140.002 28.2644 140.047 28.2439 140.084 28.2118C140.12 28.1797 140.147 28.1374 140.159 28.0904C140.176 28.0283 140.168 27.9622 140.136 27.9062C140.105 27.8502 140.053 27.8086 139.991 27.7905L139.985 27.7889ZM139.089 25.224C139.042 25.2114 138.992 25.213 138.946 25.2287C138.9 25.2443 138.86 25.2733 138.83 25.3119C138.8 25.3505 138.783 25.3971 138.78 25.4457C138.777 25.4942 138.788 25.5427 138.812 25.5848C138.837 25.627 138.873 25.661 138.916 25.6825C138.96 25.7041 139.009 25.7122 139.057 25.7058C139.106 25.6995 139.151 25.6789 139.188 25.6468C139.224 25.6147 139.251 25.5725 139.263 25.5255C139.28 25.4634 139.272 25.3973 139.24 25.3413C139.209 25.2852 139.157 25.2437 139.095 25.2256L139.089 25.224ZM142.044 26.0157C141.997 26.0031 141.947 26.0047 141.901 26.0203C141.855 26.036 141.814 26.065 141.785 26.1036C141.755 26.1422 141.737 26.1887 141.734 26.2373C141.731 26.2859 141.742 26.3343 141.767 26.3765C141.791 26.4187 141.827 26.4527 141.871 26.4742C141.915 26.4957 141.964 26.5038 142.012 26.4975C142.06 26.4911 142.106 26.4706 142.142 26.4385C142.179 26.4064 142.205 26.3642 142.218 26.3171C142.234 26.2551 142.226 26.189 142.195 26.1329C142.163 26.0769 142.111 26.0354 142.049 26.0172L142.044 26.0157ZM138.761 32.359C138.714 32.3466 138.665 32.3481 138.619 32.3635C138.573 32.3788 138.533 32.4074 138.503 32.4455C138.473 32.4836 138.455 32.5296 138.452 32.5778C138.448 32.626 138.458 32.6742 138.482 32.7165C138.505 32.7587 138.541 32.7931 138.584 32.8154C138.627 32.8376 138.675 32.8467 138.723 32.8416C138.771 32.8365 138.817 32.8173 138.854 32.7865C138.891 32.7557 138.918 32.7146 138.933 32.6683C138.942 32.6372 138.945 32.6045 138.942 32.5722C138.939 32.5398 138.929 32.5084 138.914 32.4798C138.898 32.4512 138.877 32.426 138.852 32.4055C138.827 32.385 138.798 32.3698 138.766 32.3606L138.761 32.359ZM137.865 29.7922C137.818 29.7796 137.768 29.7812 137.722 29.7968C137.676 29.8125 137.636 29.8415 137.606 29.8801C137.576 29.9187 137.559 29.9653 137.556 30.0138C137.553 30.0624 137.564 30.1108 137.588 30.153C137.613 30.1952 137.649 30.2292 137.692 30.2507C137.736 30.2722 137.785 30.2803 137.833 30.274C137.882 30.2676 137.927 30.2471 137.964 30.215C138 30.1829 138.026 30.1407 138.039 30.0936C138.056 30.0316 138.047 29.9655 138.016 29.9094C137.985 29.8534 137.933 29.8119 137.871 29.7937L137.865 29.7922ZM140.82 30.5838C140.756 30.5669 140.689 30.5758 140.633 30.6084C140.576 30.6411 140.535 30.6948 140.518 30.7579C140.501 30.8209 140.51 30.8881 140.543 30.9447C140.575 31.0012 140.629 31.0425 140.692 31.0593C140.73 31.0701 140.77 31.0715 140.809 31.0633C140.847 31.055 140.883 31.0375 140.914 31.0122L141 30.7743C140.991 30.7297 140.97 30.6885 140.94 30.6551C140.909 30.6218 140.869 30.5977 140.825 30.5854L140.82 30.5838ZM137.537 36.9272C137.489 36.9146 137.44 36.9162 137.394 36.9319C137.348 36.9475 137.307 36.9765 137.278 37.0151C137.248 37.0538 137.23 37.1003 137.227 37.1489C137.224 37.1975 137.235 37.2459 137.26 37.288C137.284 37.3302 137.32 37.3642 137.364 37.3857C137.408 37.4073 137.457 37.4154 137.505 37.409C137.553 37.4027 137.599 37.3821 137.635 37.35C137.672 37.3179 137.698 37.2757 137.711 37.2287C137.727 37.1666 137.719 37.1005 137.688 37.0445C137.656 36.9885 137.604 36.9469 137.542 36.9288L137.537 36.9272ZM136.649 34.3541C136.602 34.3415 136.552 34.3431 136.506 34.3588C136.46 34.3744 136.42 34.4034 136.39 34.442C136.36 34.4806 136.343 34.5272 136.34 34.5758C136.336 34.6244 136.348 34.6728 136.372 34.7149C136.396 34.7571 136.433 34.7911 136.476 34.8126C136.52 34.8342 136.569 34.8423 136.617 34.8359C136.666 34.8296 136.711 34.809 136.748 34.7769C136.784 34.7448 136.81 34.7026 136.823 34.6556C136.84 34.5925 136.831 34.5253 136.798 34.4688C136.766 34.4123 136.712 34.371 136.649 34.3541ZM139.301 35.3218C139.287 35.3711 139.291 35.4238 139.312 35.4707L139.42 35.1696C139.389 35.1864 139.363 35.2093 139.342 35.2368C139.322 35.2644 139.307 35.296 139.299 35.3296L139.301 35.3218Z" fill="white"/>
<path opacity="0.1" d="M143.793 23.0216L139.047 21.75L134.691 36.8858L138.509 37.7062L143.793 23.0216Z" fill="black" fill-opacity="0.2"/>
<path d="M125.054 16.764L124.195 19.9718L138.566 23.3965L139.55 19.7249L125.054 16.764Z" fill="#F2F2F2"/>
<path d="M126.312 19.7394C126.443 19.7746 126.578 19.6967 126.613 19.5654C126.648 19.4341 126.57 19.2991 126.439 19.2639C126.308 19.2287 126.173 19.3066 126.137 19.438C126.102 19.5693 126.18 19.7042 126.312 19.7394Z" fill="white"/>
<path d="M129.271 20.5319C129.402 20.5671 129.537 20.4892 129.572 20.3579C129.607 20.2265 129.529 20.0916 129.398 20.0564C129.267 20.0212 129.132 20.0991 129.096 20.2304C129.061 20.3618 129.139 20.4967 129.271 20.5319Z" fill="white"/>
<path d="M132.224 21.3237C132.355 21.3588 132.49 21.2809 132.525 21.1496C132.56 21.0183 132.482 20.8833 132.351 20.8481C132.22 20.8129 132.085 20.8909 132.05 21.0222C132.014 21.1535 132.092 21.2885 132.224 21.3237Z" fill="white"/>
<path d="M135.177 22.1147C135.308 22.1499 135.443 22.0719 135.478 21.9406C135.513 21.8093 135.435 21.6743 135.304 21.6391C135.173 21.604 135.038 21.6819 135.003 21.8132C134.968 21.9445 135.045 22.0795 135.177 22.1147Z" fill="white"/>
<path d="M138.435 22.7326C138.423 22.7796 138.396 22.8219 138.36 22.854C138.323 22.8861 138.278 22.9066 138.23 22.9129C138.181 22.9193 138.132 22.9112 138.089 22.8897C138.045 22.8681 138.009 22.8341 137.984 22.792C137.96 22.7498 137.949 22.7014 137.952 22.6528C137.955 22.6042 137.973 22.5577 138.002 22.5191C138.032 22.4804 138.072 22.4515 138.118 22.4358C138.164 22.4202 138.214 22.4185 138.261 22.4311C138.324 22.448 138.378 22.4893 138.411 22.5458C138.443 22.6024 138.452 22.6696 138.435 22.7326Z" fill="white"/>
<path d="M128.675 17.7905C128.669 17.8242 128.656 17.8564 128.637 17.8848C128.618 17.9133 128.594 17.9376 128.565 17.956C128.536 17.9744 128.504 17.9866 128.47 17.9918C128.436 17.9971 128.401 17.9952 128.368 17.9864C128.335 17.9775 128.305 17.9619 128.278 17.9404C128.251 17.919 128.229 17.8923 128.214 17.8619C128.198 17.8315 128.189 17.7982 128.186 17.7641C128.184 17.73 128.189 17.6957 128.201 17.6636C128.21 17.6287 128.227 17.5964 128.251 17.5691C128.275 17.5417 128.304 17.5201 128.337 17.5059L128.619 17.5606C128.647 17.5914 128.666 17.6286 128.676 17.6687C128.685 17.7088 128.685 17.7506 128.675 17.7905Z" fill="white"/>
<path d="M131.329 18.7565C131.46 18.7917 131.595 18.7138 131.631 18.5825C131.666 18.4511 131.588 18.3162 131.457 18.281C131.325 18.2458 131.19 18.3237 131.155 18.455C131.12 18.5864 131.198 18.7213 131.329 18.7565Z" fill="white"/>
<path d="M134.282 19.5478C134.414 19.583 134.549 19.505 134.584 19.3737C134.619 19.2424 134.541 19.1074 134.41 19.0723C134.278 19.0371 134.143 19.115 134.108 19.2463C134.073 19.3776 134.151 19.5126 134.282 19.5478Z" fill="white"/>
<path d="M137.238 20.3403C137.37 20.3754 137.505 20.2975 137.54 20.1662C137.575 20.0349 137.497 19.8999 137.366 19.8647C137.234 19.8295 137.099 19.9075 137.064 20.0388C137.029 20.1701 137.107 20.3051 137.238 20.3403Z" fill="white"/>
<path opacity="0.1" d="M125.064 16.7664L124.205 19.9743L138.566 23.3963L139.55 19.7246L125.064 16.7664Z" fill="black" fill-opacity="0.2"/>
<path d="M143.337 25.1014L138.566 23.3968L139.55 19.7251L144.474 21.9677L143.337 25.1014Z" fill="#F2F2F2"/>
<path d="M141.384 23.5226C141.371 23.5697 141.345 23.6119 141.309 23.644C141.272 23.6761 141.227 23.6966 141.178 23.703C141.13 23.7093 141.081 23.7012 141.037 23.6797C140.994 23.6582 140.957 23.6242 140.933 23.582C140.909 23.5398 140.897 23.4914 140.901 23.4428C140.904 23.3942 140.921 23.3477 140.951 23.3091C140.981 23.2705 141.021 23.2415 141.067 23.2258C141.113 23.2102 141.163 23.2086 141.21 23.2212C141.241 23.2295 141.27 23.244 141.296 23.2636C141.322 23.2833 141.343 23.3079 141.359 23.3359C141.376 23.3638 141.386 23.3947 141.39 23.4268C141.395 23.4588 141.392 23.4914 141.384 23.5226ZM140.314 20.6562C140.267 20.6436 140.217 20.6453 140.171 20.661C140.125 20.6767 140.084 20.7058 140.055 20.7446C140.025 20.7833 140.008 20.83 140.005 20.8787C140.002 20.9273 140.013 20.9758 140.038 21.018C140.062 21.0601 140.099 21.094 140.142 21.1153C140.186 21.1367 140.236 21.1445 140.284 21.1378C140.332 21.1312 140.377 21.1103 140.414 21.0779C140.45 21.0455 140.476 21.003 140.489 20.9558C140.505 20.8939 140.496 20.8282 140.464 20.7726C140.433 20.717 140.381 20.6759 140.32 20.6578L140.314 20.6562ZM143.268 21.4479C143.221 21.4353 143.172 21.4369 143.125 21.4527C143.079 21.4684 143.039 21.4975 143.009 21.5362C142.98 21.575 142.962 21.6216 142.959 21.6703C142.956 21.719 142.968 21.7675 142.992 21.8096C143.017 21.8517 143.053 21.8856 143.097 21.907C143.141 21.9283 143.19 21.9362 143.238 21.9295C143.287 21.9228 143.332 21.902 143.368 21.8696C143.405 21.8371 143.431 21.7946 143.443 21.7474C143.459 21.6856 143.45 21.6199 143.419 21.5643C143.387 21.5087 143.336 21.4675 143.274 21.4495L143.268 21.4479Z" fill="white"/>
<path d="M130.5 35.8316L127.452 35.0149L131.641 18.1589L135.303 18.8832L130.5 35.8316Z" fill="#EDEDED"/>
<path d="M136.258 37.3744L137.295 37.6522L142.842 21.2229L141.459 20.5932L136.258 37.3744Z" fill="#F2F2F2"/>
<path d="M83.5246 9.60401C83.8659 9.68227 85.1739 9.85652 86.0858 9.70439C86.5285 9.63029 87.7766 9.28409 87.746 8.93779C87.7155 8.5915 87.3417 8.66314 87.3417 8.66314C87.3417 8.66314 87.843 8.43623 87.7847 8.09463C87.7265 7.75303 87.1446 7.87794 87.1446 7.87794C87.1446 7.87794 87.6463 7.60821 87.5597 7.27C87.473 6.9318 86.9126 7.15719 86.9126 7.15719C86.9126 7.15719 87.3837 6.9321 87.1951 6.68224C86.9679 6.38347 86.1467 6.89581 85.6544 6.95333C85.5409 6.96587 83.3651 7.05468 83.3651 7.05468L83.5246 9.60401Z" fill="#AD6359"/>
<path d="M86.9018 7.15569C86.2968 7.53104 85.9681 7.59053 85.2679 7.58572C85.2545 7.58214 85.2502 7.60633 85.2623 7.60627C85.9468 7.67404 86.3705 7.65872 86.9176 7.18305C86.9476 7.16137 86.9307 7.13812 86.9018 7.15569Z" fill="#F0F0FD"/>
<path d="M87.1727 7.87207C86.5114 8.20699 86.1549 8.27557 85.4204 8.32437C85.4112 8.32189 85.4101 8.34251 85.416 8.34081C86.1394 8.35401 86.5625 8.32861 87.184 7.90813C87.2121 7.88925 87.2031 7.8571 87.1727 7.87207Z" fill="#F0F0FD"/>
<path d="M87.284 8.68979C86.6202 8.96789 86.2324 9.05891 85.514 9.01508C85.511 9.01513 85.5081 9.01616 85.5057 9.01801C85.5033 9.01986 85.5016 9.02243 85.5008 9.02533C85.5001 9.02824 85.5003 9.03131 85.5014 9.0341C85.5025 9.03689 85.5045 9.03923 85.5071 9.04077C86.2359 9.15677 86.7172 9.04565 87.2872 8.71049C87.3297 8.68772 87.3261 8.67243 87.284 8.68979Z" fill="#F0F0FD"/>
<path d="M83.094 6.99753C83.094 6.99753 83.8092 6.4656 84.1748 6.30144C84.5403 6.13728 86.1302 6.02804 86.1732 6.36887C86.2288 6.81106 85.3285 7.05551 84.8642 7.11943C84.8642 7.11943 84.9949 8.14014 84.3839 8.45551C83.773 8.77089 83.094 6.99753 83.094 6.99753Z" fill="#AD6359"/>
<path d="M86.1476 6.4952C85.9088 6.9345 85.3017 6.97667 84.8604 7.06989C84.8538 7.07092 84.8477 7.07354 84.8424 7.07751C84.8371 7.08149 84.8329 7.0867 84.8301 7.09269C84.8273 7.09868 84.826 7.10526 84.8263 7.11187C84.8267 7.11847 84.8286 7.12489 84.832 7.13056C84.8572 7.56244 84.7713 8.17927 84.4104 8.46144C84.4085 8.46315 84.4072 8.46551 84.4069 8.46808C84.4065 8.47066 84.4071 8.47327 84.4086 8.47541C84.4101 8.47756 84.4122 8.47911 84.4148 8.47976C84.4173 8.4804 84.4199 8.48011 84.4222 8.47893C84.8476 8.22726 84.9805 7.62851 84.9247 7.1587C85.379 7.07009 85.9853 7.00236 86.1528 6.49657L86.1476 6.4952Z" fill="#F0F0FD"/>
<path d="M88.2014 5.21377C88.1537 5.3604 88.0687 5.4921 87.9547 5.59591C87.9621 5.56817 87.9596 5.53664 87.9603 5.50492C87.9618 5.47248 87.9613 5.43999 87.9589 5.40761C87.9425 5.18197 87.883 4.96155 87.7838 4.75826L87.7506 4.6888L87.7411 4.67084C87.7364 4.65966 87.7291 4.64999 87.7244 4.63881C86.854 2.61374 84.8715 4.98563 84.828 5.04116C84.828 5.04116 85.4789 2.32018 86.9391 2.63323C88.0833 2.87595 88.4927 4.39757 88.2014 5.21377Z" fill="#F2F2F2"/>
<path d="M87.9506 5.59529C87.9051 5.6337 87.854 5.66495 87.7991 5.68796C86.9694 6.03063 84.955 5.10209 84.8295 5.04424L84.8233 5.04259C86.7573 5.76566 87.4955 5.18921 87.7367 4.67125L87.7462 4.68921L87.7794 4.75867C87.8778 4.96226 87.9372 5.18252 87.9545 5.40802C87.9565 5.4416 87.9568 5.4736 87.956 5.50532C87.9552 5.53705 87.958 5.56755 87.9506 5.59529Z" fill="#EDEDED"/>
<path d="M81.6878 3.79792C81.6694 3.95119 81.692 4.10659 81.7532 4.24828C81.7623 4.21894 81.7733 4.19025 81.7862 4.16239C81.7982 4.13225 81.8119 4.10284 81.8274 4.07431C81.936 3.87565 82.0819 3.69974 82.257 3.55616C82.2756 3.54021 82.2944 3.52324 82.3153 3.50682L82.3308 3.49444C82.3405 3.48712 82.3511 3.48007 82.3598 3.47247C83.9934 1.99168 84.8113 4.97296 84.8272 5.0411C84.8272 5.0411 85.3636 2.29497 83.9062 1.97163C82.7648 1.71864 81.763 2.9337 81.6878 3.79792Z" fill="#F2F2F2"/>
<path d="M81.7533 4.24837C81.7785 4.30223 81.8121 4.35174 81.8528 4.39506C82.4644 5.05124 84.6835 5.04341 84.8213 5.04289L84.8274 5.04454C82.7673 4.89892 82.3357 4.0685 82.3309 3.49452L82.3154 3.50691C82.2945 3.52333 82.2756 3.5403 82.2571 3.55624C82.0825 3.70032 81.9367 3.87613 81.8275 4.0744C81.8117 4.10433 81.7983 4.13378 81.7862 4.16247C81.7734 4.19033 81.7624 4.21903 81.7533 4.24837Z" fill="#EDEDED"/>
<path d="M88.1182 6.70734L80.0488 4.54517L78.5666 12.7438L85.1381 14.5047L88.1182 6.70734Z" fill="#F2F2F2"/>
<path d="M80.9808 5.39941C80.9745 5.42396 80.961 5.44604 80.942 5.46276C80.9229 5.47948 80.8993 5.49006 80.8742 5.49309L80.9208 5.25338C80.9456 5.26761 80.9649 5.28968 80.9758 5.31612C80.9866 5.34256 80.9884 5.37187 80.9808 5.39941ZM82.4478 5.65814C82.423 5.65128 82.3967 5.65194 82.3723 5.66003C82.3479 5.66812 82.3265 5.68328 82.3107 5.70358C82.2949 5.72388 82.2855 5.74842 82.2837 5.77407C82.2819 5.79972 82.2877 5.82533 82.3005 5.84765C82.3133 5.86997 82.3324 5.888 82.3554 5.89944C82.3784 5.91089 82.4043 5.91523 82.4298 5.91193C82.4553 5.90862 82.4793 5.89782 82.4986 5.88089C82.518 5.86395 82.5319 5.84165 82.5385 5.81682C82.5474 5.78375 82.5428 5.74851 82.5258 5.71879C82.5088 5.68907 82.4808 5.66727 82.4478 5.65814ZM84.0056 6.07554C83.9808 6.06868 83.9545 6.06934 83.9301 6.07743C83.9057 6.08552 83.8842 6.10068 83.8685 6.12098C83.8527 6.14129 83.8433 6.16582 83.8415 6.19147C83.8397 6.21712 83.8455 6.24273 83.8583 6.26505C83.871 6.28737 83.8901 6.3054 83.9132 6.31684C83.9362 6.32829 83.9621 6.33263 83.9876 6.32933C84.0131 6.32603 84.0371 6.31522 84.0564 6.29829C84.0758 6.28135 84.0896 6.25905 84.0963 6.23422C84.1052 6.20115 84.1006 6.16591 84.0836 6.13619C84.0666 6.10647 84.0386 6.08467 84.0056 6.07554ZM85.5633 6.49294C85.5385 6.4863 85.5123 6.48716 85.488 6.49541C85.4637 6.50366 85.4424 6.51893 85.4268 6.5393C85.4111 6.55966 85.4019 6.5842 85.4002 6.60982C85.3985 6.63543 85.4045 6.66097 85.4173 6.6832C85.4302 6.70543 85.4493 6.72335 85.4723 6.7347C85.4953 6.74606 85.5212 6.75033 85.5467 6.74698C85.5721 6.74363 85.596 6.73281 85.6153 6.71588C85.6346 6.69896 85.6484 6.67669 85.6551 6.6519C85.664 6.61865 85.6593 6.58322 85.6421 6.55341C85.6249 6.5236 85.5966 6.50185 85.5633 6.49294ZM87.1211 6.91035C87.0963 6.9037 87.0701 6.90456 87.0458 6.91281C87.0215 6.92106 87.0002 6.93633 86.9845 6.9567C86.9689 6.97706 86.9597 7.0016 86.958 7.02722C86.9563 7.05283 86.9623 7.07837 86.9751 7.1006C86.9879 7.12283 87.0071 7.14075 87.0301 7.15211C87.0531 7.16346 87.079 7.16773 87.1044 7.16438C87.1299 7.16103 87.1538 7.15021 87.1731 7.13328C87.1924 7.11636 87.2062 7.09409 87.2129 7.0693C87.2218 7.03605 87.2171 7.00062 87.1999 6.97082C87.1827 6.94101 87.1543 6.91925 87.1211 6.91035ZM81.8024 8.06672C81.7776 8.05986 81.7514 8.06052 81.727 8.06861C81.7026 8.0767 81.6811 8.09186 81.6653 8.11216C81.6495 8.13246 81.6401 8.157 81.6383 8.18265C81.6365 8.2083 81.6424 8.23391 81.6551 8.25623C81.6679 8.27855 81.687 8.29658 81.71 8.30802C81.7331 8.31946 81.759 8.32381 81.7845 8.32051C81.81 8.3172 81.8339 8.3064 81.8533 8.28947C81.8726 8.27253 81.8865 8.25023 81.8932 8.22539C81.902 8.19232 81.8975 8.15709 81.8805 8.12737C81.8635 8.09765 81.8354 8.07585 81.8024 8.06672ZM83.3602 8.48412C83.3354 8.47726 83.3091 8.47792 83.2847 8.48601C83.2603 8.4941 83.2389 8.50926 83.2231 8.52956C83.2073 8.54986 83.1979 8.5744 83.1961 8.60005C83.1943 8.6257 83.2001 8.65131 83.2129 8.67363C83.2257 8.69595 83.2448 8.71398 83.2678 8.72542C83.2908 8.73687 83.3167 8.74121 83.3422 8.73791C83.3677 8.73461 83.3917 8.7238 83.411 8.70687C83.4304 8.68993 83.4443 8.66763 83.4509 8.6428C83.4598 8.60973 83.4552 8.57449 83.4382 8.54477C83.4212 8.51505 83.3932 8.49325 83.3602 8.48412ZM84.9179 8.90152C84.8931 8.89488 84.8669 8.89574 84.8426 8.90399C84.8183 8.91224 84.797 8.92751 84.7814 8.94788C84.7658 8.96824 84.7565 8.99278 84.7548 9.0184C84.7532 9.04401 84.7591 9.06954 84.772 9.09177C84.7848 9.114 84.8039 9.13193 84.827 9.14328C84.85 9.15464 84.8758 9.15891 84.9013 9.15556C84.9267 9.15221 84.9506 9.14138 84.9699 9.12446C84.9892 9.10753 85.0031 9.08527 85.0097 9.06047C85.0186 9.02723 85.014 8.9918 84.9967 8.96199C84.9795 8.93218 84.9512 8.91043 84.9179 8.90152ZM86.4757 9.31892C86.4509 9.31228 86.4247 9.31314 86.4004 9.32139C86.3761 9.32964 86.3548 9.34491 86.3392 9.36528C86.3235 9.38564 86.3143 9.41018 86.3126 9.4358C86.3109 9.46141 86.3169 9.48695 86.3297 9.50918C86.3426 9.53141 86.3617 9.54933 86.3847 9.56068C86.4077 9.57204 86.4336 9.57631 86.4591 9.57296C86.4845 9.56961 86.5084 9.55879 86.5277 9.54186C86.547 9.52494 86.5608 9.50267 86.5675 9.47788C86.5764 9.44463 86.5717 9.4092 86.5545 9.37939C86.5373 9.34958 86.509 9.32783 86.4757 9.31892ZM81.33 6.71435C81.3052 6.70749 81.2789 6.70815 81.2545 6.71624C81.2301 6.72433 81.2087 6.73949 81.1929 6.75979C81.1771 6.7801 81.1677 6.80463 81.1659 6.83028C81.1641 6.85593 81.1699 6.88154 81.1827 6.90386C81.1955 6.92618 81.2146 6.94421 81.2376 6.95565C81.2606 6.9671 81.2865 6.97145 81.312 6.96814C81.3375 6.96484 81.3615 6.95403 81.3808 6.9371C81.4002 6.92017 81.4141 6.89787 81.4207 6.87303C81.4252 6.85665 81.4265 6.83954 81.4244 6.82268C81.4223 6.80581 81.4168 6.78954 81.4084 6.77479C81.4 6.76003 81.3887 6.7471 81.3752 6.73673C81.3618 6.72635 81.3464 6.71875 81.33 6.71435ZM82.8877 7.13175C82.863 7.1249 82.8367 7.12555 82.8123 7.13364C82.7879 7.14174 82.7664 7.15689 82.7506 7.1772C82.7349 7.1975 82.7255 7.22203 82.7237 7.24768C82.7218 7.27333 82.7277 7.29894 82.7405 7.32127C82.7532 7.34359 82.7723 7.36161 82.7954 7.37306C82.8184 7.3845 82.8443 7.38885 82.8698 7.38554C82.8953 7.38224 82.9192 7.37144 82.9386 7.3545C82.9579 7.33757 82.9718 7.31527 82.9785 7.29043C82.983 7.27405 82.9843 7.25694 82.9821 7.24008C82.98 7.22322 82.9746 7.20694 82.9662 7.19219C82.9577 7.17744 82.9465 7.1645 82.933 7.15413C82.9195 7.14376 82.9042 7.13615 82.8877 7.13175ZM84.4455 7.54916C84.4123 7.54025 84.3768 7.54491 84.347 7.56212C84.3172 7.57933 84.2955 7.60768 84.2866 7.64093C84.2776 7.67418 84.2823 7.7096 84.2995 7.73941C84.3167 7.76922 84.3451 7.79097 84.3783 7.79988C84.4116 7.80879 84.447 7.80412 84.4768 7.78691C84.5066 7.7697 84.5284 7.74136 84.5373 7.70811C84.5462 7.67486 84.5415 7.63944 84.5243 7.60963C84.5071 7.57982 84.4788 7.55807 84.4455 7.54916ZM86.0033 7.96656C85.9785 7.95992 85.9523 7.96077 85.928 7.96902C85.9037 7.97728 85.8823 7.99255 85.8667 8.01291C85.8511 8.03328 85.8419 8.05782 85.8402 8.08343C85.8385 8.10905 85.8445 8.13458 85.8573 8.15681C85.8701 8.17904 85.8893 8.19697 85.9123 8.20832C85.9353 8.21967 85.9612 8.22394 85.9866 8.22059C86.0121 8.21724 86.036 8.20642 86.0553 8.1895C86.0746 8.17257 86.0884 8.15031 86.095 8.12551C86.1039 8.09226 86.0993 8.05684 86.0821 8.02703C86.0649 7.99722 86.0365 7.97547 86.0033 7.96656ZM87.4013 8.47443C87.3956 8.49433 87.3947 8.51534 87.3989 8.53564C87.403 8.55594 87.412 8.57492 87.4252 8.59095L87.5009 8.38218C87.4774 8.38686 87.4557 8.39796 87.4381 8.41424C87.4205 8.43052 87.4078 8.45135 87.4013 8.47443ZM81.1547 10.4758C81.1299 10.4689 81.1036 10.4696 81.0791 10.4777C81.0547 10.4858 81.0332 10.5011 81.0174 10.5214C81.0017 10.5418 80.9923 10.5664 80.9906 10.5921C80.9889 10.6178 80.9948 10.6434 81.0077 10.6657C81.0206 10.6881 81.0398 10.706 81.0629 10.7174C81.0861 10.7287 81.112 10.7329 81.1376 10.7295C81.1631 10.726 81.187 10.715 81.2063 10.6979C81.2255 10.6808 81.2393 10.6584 81.2457 10.6334C81.2545 10.6008 81.25 10.566 81.2334 10.5367C81.2168 10.5073 81.1892 10.4856 81.1568 10.4763L81.1547 10.4758ZM82.7125 10.8932C82.6876 10.8863 82.6613 10.887 82.6369 10.8951C82.6124 10.9032 82.591 10.9185 82.5752 10.9388C82.5595 10.9592 82.5501 10.9838 82.5484 11.0095C82.5466 11.0352 82.5526 11.0608 82.5655 11.0832C82.5783 11.1055 82.5976 11.1234 82.6207 11.1348C82.6438 11.1461 82.6698 11.1503 82.6953 11.1469C82.7208 11.1434 82.7448 11.1324 82.764 11.1153C82.7833 11.0982 82.797 11.0758 82.8035 11.0508C82.8122 11.0182 82.8078 10.9835 82.7912 10.9541C82.7745 10.9247 82.747 10.903 82.7145 10.8937L82.7125 10.8932ZM84.2702 11.3106C84.2454 11.3039 84.2191 11.3048 84.1948 11.3131C84.1705 11.3214 84.1491 11.3367 84.1335 11.3571C84.1179 11.3776 84.1087 11.4022 84.1071 11.4279C84.1055 11.4535 84.1116 11.4791 84.1245 11.5013C84.1375 11.5235 84.1567 11.5414 84.1798 11.5526C84.203 11.5639 84.2289 11.568 84.2544 11.5645C84.2799 11.561 84.3037 11.55 84.3229 11.5329C84.3421 11.5158 84.3558 11.4934 84.3623 11.4685C84.3708 11.4357 84.3661 11.4009 84.3493 11.3715C84.3325 11.3421 84.3049 11.3204 84.2723 11.3111L84.2702 11.3106ZM85.828 11.728C85.8032 11.7213 85.7769 11.7222 85.7526 11.7305C85.7282 11.7388 85.7069 11.7541 85.6913 11.7746C85.6757 11.795 85.6665 11.8196 85.6649 11.8453C85.6633 11.8709 85.6693 11.8965 85.6823 11.9187C85.6952 11.9409 85.7145 11.9588 85.7376 11.97C85.7607 11.9813 85.7867 11.9854 85.8121 11.9819C85.8376 11.9784 85.8615 11.9674 85.8807 11.9503C85.8999 11.9332 85.9136 11.9108 85.9201 11.8859C85.9286 11.8531 85.9239 11.8183 85.9071 11.7889C85.8903 11.7595 85.8626 11.7378 85.8301 11.7285L85.828 11.728ZM80.6846 9.12293C80.6598 9.11607 80.6335 9.11673 80.6091 9.12482C80.5847 9.13291 80.5633 9.14807 80.5475 9.16837C80.5317 9.18868 80.5223 9.21321 80.5205 9.23886C80.5187 9.26451 80.5245 9.29012 80.5373 9.31244C80.5501 9.33476 80.5692 9.35279 80.5922 9.36423C80.6152 9.37568 80.6411 9.38002 80.6666 9.37672C80.6922 9.37342 80.7161 9.36261 80.7354 9.34568C80.7548 9.32875 80.7687 9.30645 80.7753 9.28161C80.7842 9.24854 80.7796 9.2133 80.7626 9.18358C80.7456 9.15386 80.7176 9.13206 80.6846 9.12293ZM82.2424 9.54033C82.2176 9.53348 82.1913 9.53413 82.1669 9.54222C82.1425 9.55031 82.121 9.56547 82.1053 9.58578C82.0895 9.60608 82.0801 9.63061 82.0783 9.65626C82.0765 9.68191 82.0823 9.70752 82.0951 9.72984C82.1078 9.75217 82.127 9.77019 82.15 9.78164C82.173 9.79308 82.1989 9.79743 82.2244 9.79412C82.2499 9.79082 82.2739 9.78002 82.2932 9.76308C82.3126 9.74615 82.3264 9.72385 82.3331 9.69901C82.342 9.66594 82.3374 9.63071 82.3204 9.60099C82.3034 9.57127 82.2754 9.54947 82.2424 9.54033ZM83.8001 9.95774C83.7753 9.95109 83.7491 9.95195 83.7248 9.9602C83.7005 9.96845 83.6792 9.98373 83.6636 10.0041C83.6479 10.0245 83.6387 10.049 83.637 10.0746C83.6354 10.1002 83.6413 10.1258 83.6541 10.148C83.667 10.1702 83.6861 10.1881 83.7091 10.1995C83.7322 10.2108 83.758 10.2151 83.7835 10.2118C83.8089 10.2084 83.8328 10.1976 83.8521 10.1807C83.8714 10.1638 83.8853 10.1415 83.8919 10.1167C83.9008 10.0834 83.8961 10.048 83.8789 10.0182C83.8617 9.9884 83.8334 9.96665 83.8001 9.95774ZM85.3579 10.3751C85.3331 10.3685 85.3069 10.3694 85.2826 10.3776C85.2583 10.3859 85.237 10.4011 85.2213 10.4215C85.2057 10.4419 85.1965 10.4664 85.1948 10.492C85.1931 10.5176 85.1991 10.5432 85.2119 10.5654C85.2247 10.5876 85.2439 10.6055 85.2669 10.6169C85.2899 10.6283 85.3158 10.6325 85.3412 10.6292C85.3667 10.6258 85.3906 10.615 85.4099 10.5981C85.4292 10.5812 85.443 10.5589 85.4497 10.5341C85.4586 10.5008 85.4539 10.4654 85.4367 10.4356C85.4195 10.4058 85.3911 10.384 85.3579 10.3751ZM80.5114 12.8849C80.4866 12.878 80.4603 12.8787 80.4359 12.8868C80.4115 12.8949 80.3901 12.91 80.3743 12.9303C80.3585 12.9506 80.3491 12.9752 80.3473 13.0008C80.3455 13.0265 80.3513 13.0521 80.3641 13.0744C80.3769 13.0967 80.396 13.1148 80.419 13.1262C80.442 13.1377 80.4679 13.142 80.4934 13.1387C80.5189 13.1354 80.5429 13.1246 80.5622 13.1077C80.5816 13.0907 80.5955 13.0684 80.6021 13.0436C80.6067 13.0272 80.6079 13.0101 80.6058 12.9932C80.6037 12.9764 80.5982 12.9601 80.5898 12.9453C80.5814 12.9306 80.5701 12.9177 80.5566 12.9073C80.5432 12.8969 80.5278 12.8893 80.5114 12.8849ZM82.0691 13.3023C82.0444 13.2954 82.0181 13.2961 81.9937 13.3042C81.9693 13.3123 81.9478 13.3274 81.9321 13.3477C81.9163 13.3681 81.9069 13.3926 81.9051 13.4182C81.9033 13.4439 81.9091 13.4695 81.9219 13.4918C81.9346 13.5141 81.9537 13.5322 81.9768 13.5436C81.9998 13.5551 82.0257 13.5594 82.0512 13.5561C82.0767 13.5528 82.1006 13.542 82.12 13.5251C82.1394 13.5081 82.1532 13.4858 82.1599 13.461C82.1644 13.4446 82.1657 13.4275 82.1636 13.4106C82.1614 13.3938 82.156 13.3775 82.1476 13.3627C82.1391 13.348 82.1279 13.3351 82.1144 13.3247C82.1009 13.3143 82.0856 13.3067 82.0691 13.3023ZM83.6269 13.7197C83.6021 13.7131 83.5759 13.7139 83.5516 13.7222C83.5273 13.7304 83.506 13.7457 83.4904 13.7661C83.4747 13.7864 83.4655 13.811 83.4638 13.8366C83.4621 13.8622 83.4681 13.8877 83.4809 13.91C83.4938 13.9322 83.5129 13.9501 83.5359 13.9615C83.5589 13.9728 83.5848 13.9771 83.6103 13.9737C83.6357 13.9704 83.6596 13.9596 83.6789 13.9426C83.6982 13.9257 83.712 13.9035 83.7187 13.8787C83.7276 13.8454 83.7229 13.81 83.7057 13.7802C83.6885 13.7504 83.6602 13.7286 83.6269 13.7197ZM85.1847 14.1371C85.1599 14.1305 85.1337 14.1313 85.1094 14.1396C85.0851 14.1478 85.0638 14.1631 85.0481 14.1835C85.0325 14.2038 85.0233 14.2284 85.0216 14.254C85.0199 14.2796 85.0259 14.3051 85.0387 14.3274C85.0515 14.3496 85.0707 14.3675 85.0937 14.3789C85.1167 14.3902 85.1426 14.3945 85.168 14.3911C85.1935 14.3878 85.2174 14.377 85.2367 14.36C85.256 14.3431 85.2698 14.3209 85.2765 14.2961C85.2854 14.2628 85.2807 14.2274 85.2635 14.1976C85.2463 14.1678 85.2179 14.146 85.1847 14.1371ZM80.0403 11.5274C80.0155 11.5205 79.9893 11.5212 79.9649 11.5293C79.9405 11.5374 79.919 11.5525 79.9032 11.5728C79.8874 11.5931 79.8781 11.6177 79.8762 11.6433C79.8744 11.669 79.8803 11.6946 79.893 11.7169C79.9058 11.7392 79.9249 11.7573 79.9479 11.7687C79.971 11.7801 79.9969 11.7845 80.0224 11.7812C80.0479 11.7779 80.0718 11.7671 80.0912 11.7501C80.1105 11.7332 80.1244 11.7109 80.1311 11.6861C80.1399 11.653 80.1354 11.6178 80.1184 11.5881C80.1014 11.5583 80.0733 11.5365 80.0403 11.5274ZM81.5981 11.9448C81.5733 11.9379 81.547 11.9386 81.5226 11.9467C81.4982 11.9548 81.4768 11.9699 81.461 11.9902C81.4452 12.0105 81.4358 12.0351 81.434 12.0607C81.4322 12.0864 81.438 12.112 81.4508 12.1343C81.4636 12.1566 81.4827 12.1747 81.5057 12.1861C81.5287 12.1975 81.5546 12.2019 81.5801 12.1986C81.6056 12.1953 81.6296 12.1845 81.6489 12.1676C81.6683 12.1506 81.6822 12.1283 81.6888 12.1035C81.6977 12.0704 81.6931 12.0352 81.6761 12.0055C81.6591 11.9757 81.6311 11.9539 81.5981 11.9448ZM83.1559 12.3622C83.1311 12.3556 83.1049 12.3564 83.0805 12.3647C83.0562 12.3729 83.0349 12.3882 83.0193 12.4086C83.0037 12.4289 82.9944 12.4535 82.9928 12.4791C82.9911 12.5047 82.997 12.5302 83.0099 12.5525C83.0227 12.5747 83.0418 12.5926 83.0649 12.604C83.0879 12.6153 83.1138 12.6196 83.1392 12.6162C83.1647 12.6129 83.1885 12.6021 83.2078 12.5851C83.2271 12.5682 83.241 12.546 83.2476 12.5212C83.2565 12.4879 83.2519 12.4525 83.2347 12.4227C83.2174 12.3929 83.1891 12.3711 83.1559 12.3622ZM84.7136 12.7796C84.6888 12.773 84.6626 12.7738 84.6383 12.7821C84.614 12.7903 84.5927 12.8056 84.5771 12.826C84.5614 12.8463 84.5522 12.8709 84.5505 12.8965C84.5488 12.9221 84.5548 12.9476 84.5676 12.9699C84.5805 12.9921 84.5996 13.01 84.6226 13.0214C84.6456 13.0327 84.6715 13.037 84.697 13.0336C84.7224 13.0303 84.7463 13.0195 84.7656 13.0025C84.7849 12.9856 84.7987 12.9634 84.8054 12.9386C84.8143 12.9053 84.8096 12.8699 84.7924 12.8401C84.7752 12.8103 84.7469 12.7885 84.7136 12.7796Z" fill="white"/>
<path d="M90.0368 7.22107L87.5347 6.55063L85.2378 14.531L87.2507 14.9636L90.0368 7.22107Z" fill="#F2F2F2"/>
<path d="M88.7665 7.48572C88.7599 7.51051 88.746 7.53278 88.7267 7.5497C88.7074 7.56663 88.6836 7.57745 88.6581 7.5808C88.6327 7.58415 88.6068 7.57988 88.5838 7.56852C88.5607 7.55717 88.5416 7.53925 88.5288 7.51702C88.5159 7.49479 88.51 7.46925 88.5117 7.44364C88.5133 7.41802 88.5226 7.39348 88.5382 7.37312C88.5538 7.35275 88.5751 7.33748 88.5994 7.32923C88.6238 7.32098 88.65 7.32012 88.6748 7.32676C88.6912 7.33118 88.7066 7.33879 88.7202 7.34916C88.7337 7.35954 88.745 7.37247 88.7536 7.38723C88.7621 7.40199 88.7676 7.41829 88.7698 7.43518C88.7721 7.45208 88.7709 7.46925 88.7665 7.48572ZM88.0294 9.73534C88.0046 9.7287 87.9784 9.72956 87.9541 9.73781C87.9298 9.74606 87.9084 9.76133 87.8928 9.7817C87.8772 9.80206 87.868 9.8266 87.8663 9.85222C87.8646 9.87783 87.8706 9.90337 87.8834 9.9256C87.8962 9.94783 87.9154 9.96575 87.9384 9.9771C87.9614 9.98846 87.9873 9.99273 88.0127 9.98938C88.0382 9.98603 88.0621 9.9752 88.0814 9.95828C88.1007 9.94136 88.1145 9.91909 88.1211 9.89429C88.1299 9.86158 88.1256 9.82672 88.109 9.79718C88.0924 9.76763 88.065 9.74574 88.0325 9.73617L88.0294 9.73534ZM87.5569 8.38298C87.5321 8.37633 87.5059 8.37719 87.4816 8.38544C87.4573 8.39369 87.436 8.40897 87.4204 8.42933C87.4048 8.4497 87.3955 8.47424 87.3938 8.49985C87.3922 8.52546 87.3981 8.551 87.411 8.57323C87.4238 8.59546 87.4429 8.61338 87.4659 8.62474C87.489 8.63609 87.5148 8.64036 87.5403 8.63701C87.5657 8.63366 87.5896 8.62284 87.6089 8.60592C87.6282 8.58899 87.6421 8.56672 87.6487 8.54193C87.6575 8.50921 87.6531 8.47436 87.6365 8.44481C87.62 8.41527 87.5925 8.39337 87.56 8.3838L87.5569 8.38298ZM89.1147 8.80038C89.0899 8.79374 89.0637 8.79459 89.0394 8.80284C89.0151 8.8111 88.9938 8.82637 88.9781 8.84673C88.9625 8.8671 88.9533 8.89164 88.9516 8.91725C88.9499 8.94287 88.9559 8.9684 88.9687 8.99063C88.9816 9.01286 89.0007 9.03079 89.0237 9.04214C89.0467 9.05349 89.0726 9.05776 89.0981 9.05441C89.1235 9.05106 89.1474 9.04024 89.1667 9.02332C89.186 9.00639 89.1998 8.98413 89.2065 8.95933C89.2152 8.92661 89.2109 8.89176 89.1943 8.86222C89.1777 8.83267 89.1503 8.81078 89.1178 8.80121L89.1147 8.80038ZM87.3837 12.145C87.3591 12.1384 87.3331 12.1392 87.3089 12.1473C87.2848 12.1554 87.2635 12.1704 87.2479 12.1905C87.2322 12.2106 87.2228 12.2349 87.2208 12.2603C87.2188 12.2857 87.2244 12.3111 87.2368 12.3334C87.2492 12.3557 87.2678 12.3738 87.2904 12.3855C87.3131 12.3973 87.3386 12.4021 87.364 12.3994C87.3893 12.3967 87.4133 12.3866 87.4329 12.3703C87.4526 12.3541 87.467 12.3324 87.4744 12.308C87.4794 12.2916 87.4811 12.2744 87.4793 12.2573C87.4776 12.2403 87.4726 12.2237 87.4644 12.2086C87.4563 12.1936 87.4452 12.1802 87.4319 12.1694C87.4186 12.1587 87.4033 12.1506 87.3868 12.1458L87.3837 12.145ZM86.9116 10.7916C86.8868 10.7849 86.8606 10.7858 86.8363 10.794C86.8119 10.8023 86.7906 10.8175 86.775 10.8379C86.7594 10.8583 86.7501 10.8828 86.7485 10.9084C86.7468 10.934 86.7527 10.9596 86.7656 10.9818C86.7784 11.004 86.7975 11.022 86.8206 11.0333C86.8436 11.0447 86.8695 11.0489 86.8949 11.0456C86.9204 11.0422 86.9442 11.0314 86.9635 11.0145C86.9828 10.9976 86.9967 10.9753 87.0033 10.9505C87.0121 10.9178 87.0077 10.8829 86.9912 10.8534C86.9746 10.8238 86.9471 10.802 86.9146 10.7924L86.9116 10.7916ZM88.4693 11.209C88.4361 11.2001 88.4007 11.2047 88.3708 11.2219C88.341 11.2391 88.3193 11.2675 88.3104 11.3007C88.3015 11.334 88.3061 11.3694 88.3233 11.3992C88.3406 11.429 88.3689 11.4508 88.4021 11.4597C88.4222 11.4654 88.4433 11.4661 88.4636 11.4617C88.484 11.4574 88.503 11.4482 88.5189 11.4348L88.5647 11.3094C88.56 11.2859 88.5489 11.2641 88.5326 11.2466C88.5163 11.229 88.4955 11.2163 88.4724 11.2098L88.4693 11.209ZM86.7383 14.5535C86.7136 14.5469 86.6873 14.5477 86.663 14.556C86.6387 14.5642 86.6174 14.5795 86.6018 14.5999C86.5862 14.6202 86.5769 14.6448 86.5752 14.6704C86.5736 14.696 86.5795 14.7216 86.5924 14.7438C86.6052 14.766 86.6243 14.7839 86.6474 14.7953C86.6704 14.8066 86.6962 14.8109 86.7217 14.8076C86.7471 14.8042 86.771 14.7934 86.7903 14.7765C86.8096 14.7595 86.8235 14.7373 86.8301 14.7125C86.8389 14.6798 86.8345 14.6449 86.818 14.6154C86.8014 14.5858 86.7739 14.5639 86.7414 14.5544L86.7383 14.5535ZM86.2704 13.1969C86.2456 13.1902 86.2194 13.1911 86.1951 13.1993C86.1708 13.2076 86.1494 13.2228 86.1338 13.2432C86.1182 13.2636 86.1089 13.2881 86.1073 13.3137C86.1056 13.3393 86.1115 13.3649 86.1244 13.3871C86.1372 13.4093 86.1564 13.4273 86.1794 13.4386C86.2024 13.45 86.2283 13.4542 86.2537 13.4509C86.2792 13.4475 86.303 13.4367 86.3223 13.4198C86.3416 13.4029 86.3555 13.3806 86.3621 13.3558C86.371 13.3226 86.3664 13.2871 86.3492 13.2573C86.332 13.2275 86.3036 13.2058 86.2704 13.1969ZM87.6689 13.7071C87.6614 13.733 87.6633 13.7609 87.6743 13.7856L87.7312 13.6268C87.7153 13.6357 87.7014 13.6477 87.6905 13.6623C87.6796 13.6768 87.6719 13.6935 87.6678 13.7112L87.6689 13.7071Z" fill="white"/>
<path opacity="0.1" d="M90.0368 7.22107L87.5347 6.55063L85.2378 14.531L87.2507 14.9636L90.0368 7.22107Z" fill="black" fill-opacity="0.2"/>
<path d="M80.1576 3.92219L79.7044 5.61354L87.2818 7.41923L87.8005 5.48333L80.1576 3.92219Z" fill="#F2F2F2"/>
<path d="M80.8219 5.49085C80.8911 5.50941 80.9623 5.46832 80.9808 5.39909C80.9994 5.32985 80.9583 5.25868 80.889 5.24013C80.8198 5.22158 80.7486 5.26267 80.7301 5.3319C80.7115 5.40114 80.7526 5.4723 80.8219 5.49085Z" fill="white"/>
<path d="M82.3804 5.90833C82.4497 5.92689 82.5208 5.8858 82.5394 5.81657C82.5579 5.74733 82.5169 5.67617 82.4476 5.65761C82.3784 5.63906 82.3072 5.68015 82.2887 5.74938C82.2701 5.81862 82.3112 5.88978 82.3804 5.90833Z" fill="white"/>
<path d="M83.9381 6.32606C84.0073 6.34461 84.0785 6.30353 84.097 6.23429C84.1156 6.16506 84.0745 6.09389 84.0052 6.07534C83.936 6.05679 83.8648 6.09787 83.8463 6.16711C83.8277 6.23634 83.8688 6.30751 83.9381 6.32606Z" fill="white"/>
<path d="M85.4947 6.74354C85.5639 6.76209 85.6351 6.72101 85.6537 6.65177C85.6722 6.58254 85.6311 6.51137 85.5619 6.49282C85.4926 6.47427 85.4215 6.51535 85.4029 6.58459C85.3844 6.65382 85.4255 6.72499 85.4947 6.74354Z" fill="white"/>
<path d="M87.2122 7.06901C87.2056 7.0938 87.1918 7.11607 87.1725 7.13299C87.1532 7.14992 87.1293 7.16074 87.1038 7.16409C87.0784 7.16744 87.0525 7.16317 87.0295 7.15182C87.0065 7.14046 86.9873 7.12254 86.9745 7.10031C86.9617 7.07808 86.9557 7.05254 86.9574 7.02693C86.9591 7.00131 86.9683 6.97677 86.9839 6.95641C86.9996 6.93604 87.0209 6.92077 87.0452 6.91252C87.0695 6.90427 87.0957 6.90341 87.1205 6.91006C87.1537 6.91896 87.1821 6.94072 87.1993 6.97052C87.2165 7.00033 87.2212 7.03576 87.2122 7.06901Z" fill="white"/>
<path d="M82.0646 4.46341C82.0616 4.48118 82.0548 4.49811 82.0448 4.51313C82.0348 4.52815 82.0218 4.54092 82.0067 4.55064C81.9915 4.56035 81.9744 4.56679 81.9566 4.56955C81.9388 4.57231 81.9206 4.57132 81.9031 4.56666C81.8857 4.56199 81.8695 4.55374 81.8554 4.54244C81.8414 4.53114 81.8298 4.51704 81.8215 4.50103C81.8132 4.48502 81.8083 4.46746 81.8072 4.44946C81.8061 4.43147 81.8087 4.41343 81.8149 4.3965C81.8198 4.3781 81.8288 4.36105 81.8413 4.34664C81.8537 4.33223 81.8693 4.32084 81.8868 4.31333L82.0354 4.34215C82.0498 4.35844 82.06 4.37801 82.0651 4.39915C82.0702 4.42029 82.07 4.44235 82.0646 4.46341Z" fill="white"/>
<path d="M83.4654 4.97254C83.5346 4.9911 83.6058 4.95001 83.6244 4.88077C83.6429 4.81154 83.6018 4.74037 83.5326 4.72182C83.4634 4.70327 83.3922 4.74436 83.3736 4.81359C83.3551 4.88283 83.3962 4.95399 83.4654 4.97254Z" fill="white"/>
<path d="M85.024 5.39002C85.0932 5.40858 85.1644 5.36749 85.183 5.29825C85.2015 5.22902 85.1604 5.15785 85.0912 5.1393C85.0219 5.12075 84.9508 5.16184 84.9322 5.23107C84.9137 5.30031 84.9548 5.37147 85.024 5.39002Z" fill="white"/>
<path d="M86.5816 5.80726C86.6509 5.82581 86.722 5.78472 86.7406 5.71549C86.7591 5.64625 86.718 5.57509 86.6488 5.55654C86.5796 5.53799 86.5084 5.57907 86.4898 5.64831C86.4713 5.71754 86.5124 5.78871 86.5816 5.80726Z" fill="white"/>
<path opacity="0.1" d="M80.1635 3.92366L79.7103 5.61501L87.2823 7.41925L87.801 5.48335L80.1635 3.92366Z" fill="black" fill-opacity="0.2"/>
<path d="M89.7978 8.31759L87.2821 7.41882L87.8008 5.48291L90.397 6.66534L89.7978 8.31759Z" fill="#F2F2F2"/>
<path d="M88.7677 7.48534C88.7611 7.51013 88.7472 7.5324 88.7279 7.54932C88.7086 7.56625 88.6847 7.57707 88.6593 7.58042C88.6338 7.58377 88.608 7.5795 88.5849 7.56814C88.5619 7.55679 88.5428 7.53887 88.5299 7.51664C88.5171 7.49441 88.5111 7.46887 88.5128 7.44326C88.5145 7.41764 88.5237 7.3931 88.5394 7.37274C88.555 7.35237 88.5763 7.3371 88.6006 7.32885C88.6249 7.3206 88.6511 7.31974 88.6759 7.32639C88.6924 7.3308 88.7078 7.33841 88.7213 7.34878C88.7349 7.35916 88.7462 7.37209 88.7547 7.38685C88.7633 7.40161 88.7688 7.41791 88.771 7.43481C88.7732 7.4517 88.7721 7.46887 88.7677 7.48534ZM88.2035 5.97402C88.1786 5.96737 88.1524 5.96824 88.1281 5.97653C88.1037 5.98482 88.0824 6.00016 88.0668 6.02059C88.0512 6.04102 88.042 6.06563 88.0404 6.09129C88.0388 6.11696 88.0448 6.14252 88.0578 6.16474C88.0707 6.18695 88.09 6.20482 88.1131 6.21607C88.1362 6.22733 88.1622 6.23146 88.1876 6.22795C88.2131 6.22444 88.237 6.21343 88.2562 6.19634C88.2754 6.17925 88.2891 6.15683 88.2955 6.13194C88.304 6.09933 88.2994 6.06471 88.2828 6.03539C88.2662 6.00607 88.2389 5.98436 88.2066 5.97485L88.2035 5.97402ZM89.7612 6.39142C89.7364 6.38477 89.7102 6.38564 89.6858 6.39393C89.6615 6.40222 89.6401 6.41756 89.6245 6.43799C89.6089 6.45842 89.5997 6.48303 89.5981 6.5087C89.5965 6.53436 89.6026 6.55992 89.6155 6.58214C89.6285 6.60435 89.6477 6.62222 89.6709 6.63348C89.694 6.64473 89.7199 6.64886 89.7454 6.64535C89.7709 6.64184 89.7947 6.63084 89.8139 6.61374C89.8331 6.59665 89.8468 6.57424 89.8533 6.54934C89.8618 6.51673 89.8572 6.48211 89.8406 6.45279C89.824 6.42348 89.7967 6.40176 89.7643 6.39225L89.7612 6.39142Z" fill="white"/>
<path d="M83.0288 13.9756L81.4217 13.545L83.6302 4.65764L85.5609 5.03951L83.0288 13.9756Z" fill="#EDEDED"/>
<path d="M86.0643 14.7891L86.611 14.9356L89.5356 6.27316L88.8062 5.94118L86.0643 14.7891Z" fill="#F2F2F2"/>
</g>
</g>
<rect x="0.5" y="0.5" width="143" height="73" rx="7.5" stroke="#AEAEAE"/>
<defs>
<clipPath id="clip0_3261_4807">
<rect width="144" height="74" rx="8" fill="white"/>
</clipPath>
<clipPath id="clip1_3261_4807">
<rect width="144" height="50.5946" fill="white"/>
</clipPath>
</defs>
</svg>
