<svg width="531" height="94" viewBox="0 0 531 94" fill="none" xmlns="http://www.w3.org/2000/svg">
    <g clip-path="url(#clip0_3261_4298)">
        <circle opacity="0.1" cx="475.5" cy="25.5" r="4.5" fill="#656BE8"/>
        <path opacity="0.05" d="M21 12C21 23.0457 12.0457 32 1 32C-10.0457 32 -19 23.0457 -19 12C-19 0.954305 -10.0457 -8 1 -8C12.0457 -8 21 0.954305 21 12ZM-13.2219 12C-13.2219 19.8546 -6.85456 26.2219 1 26.2219C8.85456 26.2219 15.2219 19.8546 15.2219 12C15.2219 4.14544 8.85456 -2.22194 1 -2.22194C-6.85456 -2.22194 -13.2219 4.14544 -13.2219 12Z" fill="black"/>
        <g clip-path="url(#clip1_3261_4298)">
            <path opacity="0.05" d="M50.9533 21.4466C47.6053 19.0686 42.1936 18.1559 36.1711 20.1246C34.3234 22.043 34.4095 24.5458 35.2613 27.2408C36.2412 26.5473 37.487 25.9824 38.9227 25.5713C40.32 25.1713 41.8963 24.9169 43.5813 24.8308C46.3248 24.6914 50.1382 25.6277 52.0412 26.3316C52.3457 26.4443 52.6714 26.2323 52.6926 25.9076L51.6955 22.3408C51.5562 21.8208 51.1667 21.5989 50.9535 21.4473L50.9533 21.4466Z" fill="black"/>
            <path opacity="0.05" d="M50.9003 27.081C49.164 26.3141 46.4475 25.9218 43.6469 26.0645C40.5559 26.2218 37.8903 26.9633 36.1471 28.1292C38.1473 28.9758 40.9986 29.3311 44.0106 29.0838C46.8693 28.8495 49.3999 28.1027 50.9003 27.081Z" fill="black"/>
            <path opacity="0.05" d="M62.9115 23.4182C64.2078 21.8579 67.0412 19.1397 69.4875 17.8886C70.9898 17.1206 72.4821 16.5528 73.8923 16.2006C75.3412 15.8387 76.7025 15.705 77.8979 15.8157C77.2873 13.056 76.1114 10.846 73.5521 10.1085C67.3519 11.4141 63.1215 14.9104 61.4113 18.6445C61.3022 18.8816 61.0761 19.2692 61.2154 19.7892L62.1354 23.3767C62.3162 23.6481 62.7041 23.6681 62.9115 23.4182Z" fill="black"/>
            <path opacity="0.05" d="M70.0471 18.9906C67.5504 20.2673 65.3934 21.9663 64.2738 23.4976C66.0847 23.6321 68.6489 23.0138 71.2418 21.7873C73.9739 20.4955 76.2663 18.7618 77.5744 17.0289C75.4818 16.8907 72.8026 17.5814 70.0471 18.9906Z" fill="black"/>
            <path opacity="0.05" d="M35.5162 34.3303L37.3441 41.152C37.5282 41.839 38.2317 42.2478 38.9151 42.0647L55.532 37.6122L53.0371 28.3011L36.4202 32.7536C35.7368 32.9367 35.3319 33.6425 35.516 34.3296L35.5162 34.3303Z" fill="black"/>
            <path opacity="0.05" d="M47.6823 64.92C47.8768 65.6459 48.6189 66.0771 49.3408 65.8837L62.1851 62.442L55.852 38.8066L41.7012 42.5983L47.6821 64.9193L47.6823 64.92Z" fill="black"/>
            <path opacity="0.05" d="M72.0331 59.8034L84.8774 56.3618C85.5992 56.1683 86.0264 55.4238 85.8319 54.6979L79.851 32.377L65.7002 36.1687L72.0333 59.8041L72.0331 59.8034Z" fill="black"/>
            <path opacity="0.05" d="M79.5017 21.2107L62.8848 25.6632L65.3797 34.9743L81.9966 30.5218C82.6799 30.3387 83.0848 29.6329 82.9007 28.9458L81.0729 22.1242C80.8888 21.4371 80.1852 21.0284 79.5019 21.2115L79.5017 21.2107Z" fill="black"/>
            <path opacity="0.05" d="M54.0557 28.0291L61.8674 25.936L71.09 60.3551C71.1978 60.7573 70.9604 61.1711 70.5605 61.2782L64.1984 62.9829C63.7985 63.0901 63.386 62.8504 63.2783 62.4483L54.0557 28.0291Z" fill="black"/>
            <path opacity="0.05" d="M59.2102 20.0466L53.4121 21.6002C52.856 21.7492 52.5267 22.3232 52.6765 22.8823L53.5479 26.1342C53.6977 26.6933 54.2699 27.0258 54.8259 26.8768L60.6241 25.3232C61.1801 25.1742 61.5095 24.6002 61.3596 24.0411L60.4883 20.7892C60.3385 20.2301 59.7663 19.8976 59.2102 20.0466Z" fill="black"/>
        </g>
        <g clip-path="url(#clip2_3261_4298)">
            <path opacity="0.05" d="M293.585 6.69828C292.84 5.07228 290.997 3.54955 288.297 2.98064C287.182 3.30183 286.67 4.26459 286.404 5.46658C286.925 5.41839 287.518 5.47661 288.149 5.6342C288.763 5.78762 289.413 6.0349 290.067 6.36937C291.132 6.91421 292.367 8.0978 292.931 8.77769C293.021 8.88652 293.191 8.87748 293.269 8.75961L293.67 7.19716C293.731 6.97069 293.632 6.8022 293.585 6.69861L293.585 6.69828Z" fill="black"/>
            <path opacity="0.05" d="M292.338 8.81195C291.85 8.14459 290.911 7.40505 289.824 6.84902C288.624 6.23528 287.457 5.93446 286.546 5.99462C287.116 6.74947 288.114 7.50444 289.304 8.06704C290.433 8.60121 291.55 8.87059 292.338 8.81195Z" fill="black"/>
            <path opacity="0.05" d="M297.665 10.0459C298.494 9.73966 300.155 9.33143 301.35 9.39223C302.084 9.42973 302.77 9.54055 303.379 9.71476C304.004 9.8938 304.547 10.1398 304.973 10.4419C305.344 9.26803 305.382 8.1784 304.577 7.34291C301.954 6.48515 299.597 6.88265 298.139 7.91866C298.046 7.98435 297.877 8.0813 297.816 8.30777L297.382 9.86122C297.391 10.003 297.533 10.095 297.665 10.0459Z" fill="black"/>
            <path opacity="0.05" d="M301.321 9.92988C300.101 9.86771 298.918 10.0388 298.162 10.3726C298.816 10.8177 299.917 11.1428 301.162 11.2449C302.474 11.3526 303.716 11.1979 304.587 10.8291C303.828 10.3213 302.667 9.99841 301.321 9.92988Z" fill="black"/>
            <path opacity="0.05" d="M284.956 8.19612L284.16 11.1671C284.08 11.4664 284.256 11.7737 284.554 11.8535L291.791 13.7927L292.878 9.73744L285.641 7.79826C285.343 7.71852 285.037 7.89655 284.956 8.19579L284.956 8.19612Z" fill="black"/>
            <path opacity="0.05" d="M282.884 22.3832C282.8 22.6993 282.986 23.0236 283.3 23.1078L288.894 24.6067L291.652 14.3129L285.489 12.6615L282.884 22.3828L282.884 22.3832Z" fill="black"/>
            <path opacity="0.05" d="M293.183 25.7559L298.777 27.2549C299.092 27.3391 299.415 27.1513 299.5 26.8352L302.104 17.1138L295.941 15.4624L293.183 25.7563L293.183 25.7559Z" fill="black"/>
            <path opacity="0.05" d="M304.404 12.8262L297.167 10.887L296.08 14.9422L303.318 16.8814C303.615 16.9611 303.922 16.7831 304.002 16.4839L304.798 13.5129C304.878 13.2136 304.702 12.9062 304.404 12.8265L304.404 12.8262Z" fill="black"/>
            <path opacity="0.05" d="M293.321 9.85657L296.724 10.7682L292.707 25.7587C292.66 25.9338 292.48 26.0382 292.306 25.9915L289.535 25.2491C289.361 25.2024 289.258 25.0222 289.305 24.847L293.321 9.85657Z" fill="black"/>
            <path opacity="0.05" d="M297.004 7.96824L294.479 7.29159C294.236 7.22671 293.987 7.3715 293.922 7.61501L293.542 9.0313C293.477 9.27481 293.621 9.52481 293.863 9.5897L296.388 10.2663C296.63 10.3312 296.879 10.1864 296.945 9.94293L297.324 8.52663C297.389 8.28313 297.246 8.03312 297.004 7.96824Z" fill="black"/>
        </g>
        <g clip-path="url(#clip3_3261_4298)">
            <path opacity="0.05" d="M488.913 42.0036C487.853 39.6891 485.23 37.5216 481.386 36.7118C479.8 37.169 479.07 38.5394 478.692 40.2504C479.433 40.1818 480.277 40.2647 481.175 40.489C482.05 40.7074 482.975 41.0594 483.906 41.5355C485.422 42.311 487.179 43.9958 487.983 44.9636C488.112 45.1185 488.352 45.1056 488.464 44.9378L489.034 42.7138C489.121 42.3914 488.98 42.1516 488.913 42.0041L488.913 42.0036Z" fill="black"/>
            <path opacity="0.05" d="M487.138 45.0123C486.444 44.0624 485.107 43.0097 483.559 42.2182C481.851 41.3446 480.19 40.9164 478.893 41.002C479.704 42.0765 481.125 43.1512 482.819 43.952C484.426 44.7124 486.016 45.0958 487.138 45.0123Z" fill="black"/>
            <path opacity="0.05" d="M494.722 46.7688C495.902 46.3329 498.266 45.7518 499.967 45.8383C501.012 45.8917 501.989 46.0495 502.855 46.2974C503.745 46.5523 504.517 46.9025 505.125 47.3325C505.653 45.6615 505.706 44.1105 504.561 42.9212C500.827 41.7002 497.472 42.2661 495.397 43.7408C495.265 43.8343 495.023 43.9723 494.937 44.2947L494.318 46.5059C494.331 46.7077 494.533 46.8386 494.722 46.7688Z" fill="black"/>
            <path opacity="0.05" d="M499.925 46.6036C498.189 46.5152 496.505 46.7587 495.429 47.2338C496.359 47.8673 497.928 48.3302 499.7 48.4755C501.567 48.6288 503.335 48.4086 504.575 47.8837C503.494 47.1609 501.842 46.7012 499.925 46.6036Z" fill="black"/>
            <path opacity="0.05" d="M476.631 44.1358L475.498 48.3648C475.384 48.7908 475.635 49.2283 476.058 49.3418L486.36 52.1022L487.907 46.3298L477.605 43.5694C477.181 43.4559 476.745 43.7093 476.631 44.1353L476.631 44.1358Z" fill="black"/>
            <path opacity="0.05" d="M473.682 64.3303C473.561 64.7803 473.826 65.2419 474.273 65.3618L482.236 67.4954L486.162 52.8426L477.39 50.492L473.682 64.3298L473.682 64.3303Z" fill="black"/>
            <path opacity="0.05" d="M488.341 69.1312L496.303 71.2649C496.751 71.3848 497.211 71.1174 497.332 70.6674L501.039 56.8296L492.267 54.4789L488.34 69.1317L488.341 69.1312Z" fill="black"/>
            <path opacity="0.05" d="M504.313 50.7264L494.012 47.9661L492.465 53.7385L502.767 56.4988C503.19 56.6123 503.626 56.3589 503.741 55.9329L504.874 51.7039C504.988 51.2779 504.737 50.8404 504.313 50.7269L504.313 50.7264Z" fill="black"/>
            <path opacity="0.05" d="M488.538 46.4993L493.381 47.797L487.663 69.1351C487.597 69.3844 487.341 69.533 487.093 69.4666L483.149 68.4097C482.901 68.3433 482.754 68.0868 482.821 67.8375L488.538 46.4993Z" fill="black"/>
            <path opacity="0.05" d="M493.78 43.8113L490.186 42.8482C489.841 42.7558 489.486 42.9619 489.393 43.3085L488.853 45.3246C488.76 45.6712 488.964 46.027 489.309 46.1194L492.904 47.0826C493.248 47.1749 493.603 46.9688 493.696 46.6222L494.236 44.6062C494.329 44.2596 494.125 43.9037 493.78 43.8113Z" fill="black"/>
        </g>
    </g>
    <defs>
        <clipPath id="clip0_3261_4298">
            <rect width="531" height="94" fill="white"/>
        </clipPath>
        <clipPath id="clip1_3261_4298">
            <rect width="47.1644" height="48.6859" fill="white" transform="translate(32 21.2071) rotate(-15)"/>
        </clipPath>
        <clipPath id="clip2_3261_4298">
            <rect width="20.5414" height="21.204" fill="white" transform="translate(286.488 2.48059) rotate(15)"/>
        </clipPath>
        <clipPath id="clip3_3261_4298">
            <rect width="29.2396" height="30.1828" fill="white" transform="translate(478.812 36) rotate(15)"/>
        </clipPath>
    </defs>
</svg>
