<svg xmlns="http://www.w3.org/2000/svg" width="63" height="62" fill="#000" fill-rule="evenodd"><path d="M3.584.875c-.854.481-1.947 1.467-2.428 2.192S.179 5.386.054 6.609c-.149 1.452.011 2.731.46 3.682.378.802 1.165 1.941 1.749 2.531s2.634 1.788 4.554 2.663 4.225 2.233 5.121 3.019 2.065 2.042 2.599 2.79l.97 1.361-2.536 2.606c-1.754 1.803-3.631 3.104-6.09 4.225-1.955.891-4.033 2.103-4.617 2.692S.892 33.907.514 34.709c-.448.952-.608 2.23-.46 3.682.125 1.224.621 2.818 1.102 3.542s1.574 1.712 2.428 2.192S5.925 45 6.887 45s2.542-.49 3.511-1.091c1.122-.696 2.089-1.842 2.666-3.158.498-1.136.906-2.614.905-3.283s-.358-2.005-.795-2.967l-.795-1.75 4.079-2.714c2.244-1.492 9.583-7.199 16.31-12.683C40.105 11.374 45 7.057 45 6.567c0-.45-.714-1.211-1.586-1.692s-2.299-.87-3.171-.864-2.406.421-3.408.924-5.14 3.541-9.196 6.751l-7.373 5.837-3.943-2.637-3.943-2.637.795-1.75c.437-.963.795-2.298.795-2.967s-.407-2.147-.905-3.283c-.578-1.317-1.545-2.462-2.666-3.158C9.429.491 7.85 0 6.887 0S4.438.394 3.584.875zm5.824 4.442c.516.725.939 1.86.939 2.523s-.501 1.758-1.112 2.433S7.797 11.5 7.4 11.5s-1.299-.329-2.004-.731-1.408-1.096-1.563-1.541-.281-1.392-.281-2.104.337-1.706.75-2.209C4.776 4.337 5.68 4 6.76 4c1.307 0 1.93.31 2.648 1.318zm11.106 21.741c-.049.182 4.064 3.943 7.556 6.693s7.303 5.504 8.469 6.119 2.833 1.121 3.705 1.124 2.299-.388 3.171-.869S45 38.881 45 38.429c0-.488-3.524-3.688-8.672-7.875-4.77-3.88-9.563-8.323-9.651-8.303l-6.164 4.807zm-11.279 7.67c.612.675 1.112 1.77 1.112 2.433s-.423 1.798-.939 2.523c-.703.987-1.347 1.317-2.569 1.317-.896 0-2.003-.372-2.458-.828-.469-.468-.829-1.512-.829-2.405 0-.867.255-1.93.566-2.361s.974-1.03 1.472-1.33 1.272-.554 1.719-.562 1.314.537 1.925 1.212zM38 20h8v5h-8v-5zm14 0h10.5v9.563h-5V25H52v-5zm10.5 13.688v14.125h-5V33.688h5zM5.5 51.5h5v5h4.333v5H5.5v-10zm57 .438V61.5h-9.333v-5H57.5v-4.562h5zm-44 4.563h13.667v5H18.5v-5zm17.333 0H49.5v5H35.833v-5z"/></svg>