<svg xmlns="http://www.w3.org/2000/svg" width="64" height="57" fill="none"><path d="M4.423 4.424a1.9 1.9 0 0 0-.133.339 6.45 6.45 0 0 0-.216 1.131l-.071 1.104-.002.34.001.085v.017.002l.001.03v4.85h55v12.682l-55 .168v13.701l.04.252.2.921c.217.813.487 1.356.674 1.544s.73.457 1.544.674l.921.2.252.04h25.869v4H7.39l-.113-.013.226-1.987-.226 1.987h-.002l-.006-.001-.012-.001-.036-.004-.118-.016-.397-.062-1.276-.278c-.891-.238-2.349-.719-3.341-1.71S.616 41.968.378 41.076L.1 39.8l-.062-.397-.016-.118-.004-.036-.001-.012-.001-.004v-.002s0-.002 1.987-.227l-1.987.226-.013-.112V7.529v-.021l-.002-.134.003-.459L.1 5.446c.063-.562.172-1.223.368-1.859.184-.599.507-1.382 1.123-1.998S2.988.651 3.587.467C4.222.271 4.884.163 5.445.099L6.914.004l.459-.003.134.002.021.001h48.088l.112.013-.226 1.987.226-1.987h.003l.005.001.012.001.036.004.118.016L56.3.1l1.276.278c.892.238 2.349.719 3.341 1.711s1.473 2.449 1.711 3.341l.278 1.276.062.397.016.118.005.036.001.012v.004.002s0 .002-1.987.227l1.987-.226.013.112v17.613h-4V7.634l-.04-.252-.2-.921c-.217-.814-.487-1.356-.674-1.544s-.73-.457-1.544-.674l-.92-.2-.252-.04H7.471l-.03-.001h-.002-.017L7.338 4l-.34.003-1.104.071c-.424.048-.819.12-1.131.216-.192.059-.295.11-.34.134zm3.08 27.579h18v5h-18v-5z" fill-rule="evenodd" fill="#000"/><circle cx="51.003" cy="44.503" r="12" fill="#000"/><path d="M51.003 40.503v8m-4-4h8" stroke="#fff" stroke-width="4" stroke-linecap="square"/></svg>