<svg xmlns="http://www.w3.org/2000/svg" width="62" height="52" fill="#000"><path d="M32.5 7.223c-.111-1.763 1.476-3.786 4-5.5s5.256-2.004 8-1.5c1.928.354 4.509 2.086 6 3.5 1.994 1.891 2.577 3.321 3 6.5.338 2.53 1.388 7.354 2.292 9.997 1.437 4.202 1.459 4.924.176 5.735-.807.511-2.904.935-4.659.944s-3.457.445-3.782.971.436 1.601 1.691 2.389 3.915 1.949 5.911 2.581 4.38 1.979 5.298 2.994c1.292 1.427 1.602 3.398 1.371 8.712v7.177l-9.548-.021H42.5V45.88c0-5.698.245-6.421-3.05-9.716-3.95-2.441-3.73-3.651-2.997-4.384.577-.578 1.547-2.331 1.547-3.632s-1.4-3.804-2-4.925-.633-4.282-1.186-7.663c-.314-3.837-2.229-6.995-2.314-8.337zm-23 2.5c.734-1.591 3.312-3.688 4.976-4.413s3.577-1.335 4.254-1.357 3.134-.085 5.27.77c2.335.935 4.252 2.88 5 4.5.684 1.483 2.5 3.5 2.5 7.5 0 3 .267 7.022 1.626 8.986 1.688 2.439 1.278 3.742 0 4.55-.817.517-3.062.631-4.817.64s-3.432.405-3.726.881.241 1.552 1.191 2.389 3.167 1.829 4.929 2.203 4.349 1.582 5.75 2.684C38.553 40.708 39 41.905 39 45.88c0 3.473-.36 5.406-1.5 5.843l-36.3-.009c-.66-.66-1.2-3.81-1.2-5.777s.355-4.507 1.2-5.714c.859-1.225 4.152-2.93 7.03-3.785 2.836-.842 5.334-1.53 5.77-2.215.5-.5.491-2.087.5-2.5s-1.437.008-3.5 0-4.309-.947-5.126-1.464c-1.278-.808-1.158-1.716 0-4.55.74-1.812 1.698-5.545 2.128-8.295s.765-6.1 1.498-7.691z"/></svg>