<svg xmlns="http://www.w3.org/2000/svg" width="163" height="160" fill="none" xmlns:v="https://vecta.io/nano"><style><![CDATA[.B{fill:#cc5749}.C{fill:#f37368}.D{fill:#0c2b34}.E{fill:#893730}.F{fill:#335863}.G{fill:#fab499}.H{fill:#f69270}.I{fill:#ef6352}]]></style><g fill="#e5e5e4"><path d="M102.758 80.245l-40.459-.389-12.261-.059-3.334.007-.867.012-.295.016s.1.012.295.019l.867.021 3.333.042 12.261.066 40.461.026 40.445.096 12.26.142 3.334.087 1.162.088s-.401.054-1.163.076l-3.335.053-12.261.016-40.443-.319z"/><path d="M102.476 83.812l-39.907-6.675-12.103-1.963-3.294-.509-.858-.122-.295-.029s.097.028.289.066l.853.155 3.286.561 12.102 1.972 39.966 6.31 39.939 6.376 12.089 2.046 3.28.605 1.134.269s-.405-.008-1.161-.104l-3.302-.465-12.115-1.888-39.902-6.603z"/><path d="M101.578 87.262L63.221 74.383l-11.643-3.844-3.174-1.021-.828-.256-.286-.075s.091.043.275.111l.818.288 3.157 1.071 11.64 3.853 38.475 12.523 38.437 12.585 11.616 3.926 3.143 1.115 1.077.444s-.398-.07-1.13-.285l-3.188-.979-11.667-3.771-38.364-12.806z"/><path d="M100.205 90.57L64.35 71.82l-10.893-5.629-2.973-1.508-.778-.383-.271-.12s.083.057.254.152l.762.413 2.949 1.554 10.889 5.637 36.023 18.424 35.977 18.479 10.854 5.703 2.929 1.594.995.608s-.382-.134-1.071-.461l-2.994-1.469-10.927-5.561-35.871-18.682z"/><path d="M98.316 93.572L65.834 69.447l-9.879-7.262-2.7-1.955-.708-.5-.249-.16s.074.069.227.19l.689.527 2.67 1.996 9.874 7.269L98.458 93.38l32.646 23.874 9.828 7.331 2.645 2.032.887.756s-.357-.192-.986-.622l-2.727-1.919-9.924-7.201-32.511-24.059z"/><path d="M95.965 96.302L67.629 67.419 59 58.708l-2.364-2.351-.622-.605-.221-.197s.062.08.195.222l.598.628 2.327 2.387 8.624 8.716 28.596 28.624 28.535 28.662 8.569 8.77 2.296 2.418.759.885s-.321-.245-.877-.768l-2.395-2.32-8.683-8.657-28.373-28.822z"/><path d="M93.192 98.597L69.694 65.658l-7.169-9.947-1.969-2.69-.52-.694-.187-.229s.049.088.158.25l.493.713 1.928 2.72 7.163 9.952 23.796 32.724 23.73 32.751 7.101 9.995 1.892 2.747.612.992s-.281-.292-.747-.895l-2.006-2.664-7.23-9.902-23.545-32.885z"/><path d="M90.121 100.417L72.064 64.208l-5.527-10.945-1.525-2.965-.405-.767a1.78 1.78 0 0 0-.15-.255c-.005.003.034.095.117.272l.375.782 1.478 2.988 5.518 10.949 18.389 36.041 18.319 36.059 5.45 10.983 1.438 3.009.45 1.075s-.232-.332-.598-1.001l-1.565-2.944-5.594-10.911-18.113-36.162z"/><path d="M86.843 101.751L74.707 63.153l-3.736-11.679-1.04-3.168-.28-.82-.108-.276s.019.099.072.287l.248.831.989 3.183 3.727 11.681 12.49 38.485 12.418 38.492 3.654 11.704.947 3.197.274 1.133s-.176-.364-.433-1.082l-1.083-3.154-3.808-11.655-12.197-38.562z"/><path d="M83.371 102.562L77.46 62.535l-1.851-12.121-.528-3.292-.147-.854-.063-.289s.003.101.027.295l.114.859.476 3.3 1.843 12.122 6.278 39.972 6.206 39.966 1.767 12.133.432 3.307.093 1.161s-.117-.387-.257-1.136l-.572-3.286-1.926-12.109-5.979-40z"/><path d="M79.778 102.798l.364-40.46.052-12.261-.01-3.334-.012-.867-.016-.296s-.012.1-.019.295l-.02.867-.04 3.334-.059 12.261-.001 40.461-.071 40.445-.135 12.26-.085 3.334L79.64 160s-.055-.4-.077-1.163l-.054-3.334-.024-12.261.294-40.444z"/><path d="M76.194 102.482l6.65-39.911 1.955-12.105.507-3.295.122-.858.029-.295s-.028.097-.065.289l-.155.853-.558 3.287-1.965 12.103-6.284 39.971-6.351 39.943-2.039 12.09-.602 3.28-.268 1.134s.007-.404.103-1.161l.463-3.302 1.88-12.116 6.578-39.906z"/><path d="M72.731 101.63l12.854-38.366 3.837-11.645 1.019-3.174.255-.829.075-.286s-.043.091-.11.275l-.288.818-1.069 3.157-3.846 11.643-12.499 38.483-12.56 38.444-3.918 11.619-1.112 3.144-.444 1.077s.071-.398.284-1.13l.977-3.189 3.764-11.669 12.782-38.371z"/><path d="M69.459 100.221l18.728-35.866 5.622-10.897 1.507-2.974.383-.778.119-.271s-.057.083-.151.254l-.413.763-1.552 2.95-5.63 10.892L69.67 100.33l-18.456 35.988-5.697 10.857-1.593 2.931-.607.995s.133-.382.46-1.071l1.467-2.995 5.555-10.931 18.659-35.883z"/><path d="M66.439 98.297L90.544 65.8l7.257-9.884 1.953-2.702.499-.709.161-.249s-.07.073-.19.227l-.527.689-1.995 2.671-7.263 9.879-23.808 32.716L42.778 131.1l-7.324 9.834-2.031 2.645-.755.887s.191-.356.621-.986l1.917-2.728 7.195-9.928 24.038-32.527z"/><path d="M63.751 95.95l28.865-28.353 8.705-8.634 2.35-2.365.604-.622.197-.221s-.08.062-.223.195l-.627.598-2.386 2.329-8.711 8.629L63.919 96.12l-28.644 28.553-8.764 8.575-2.417 2.297-.884.759s.244-.322.767-.877l2.319-2.397 8.652-8.688L63.751 95.95z"/><path d="M61.427 93.221l32.925-23.518 9.942-7.176 2.689-1.971.694-.52.228-.188s-.088.049-.249.158l-.713.494-2.719 1.929-9.948 7.168-32.709 23.817-32.737 23.751-9.991 7.107-2.745 1.893-.992.612s.292-.28.895-.747l2.663-2.007 9.898-7.237 32.87-23.565z"/><path d="M59.586 90.154l36.197-18.081 10.942-5.533 2.964-1.526.766-.406.255-.15s-.095.034-.272.117l-.781.376-2.988 1.48-10.945 5.525-36.03 18.411-36.047 18.341-10.98 5.457-3.008 1.44-1.075.45s.332-.232 1-.598l2.944-1.567 10.907-5.601 36.151-18.135z"/><path d="M58.257 86.837l38.591-12.16 11.676-3.743 3.167-1.042.82-.281.276-.108s-.099.019-.287.072l-.831.248-3.183.991-11.679 3.734L58.33 87.064 19.846 99.507l-11.702 3.662-3.197.948-1.132.275s.364-.177 1.082-.434l3.153-1.084 11.653-3.815 38.554-12.222z"/><path d="M57.48 83.367l40.023-5.937 12.12-1.859 3.291-.53.855-.148a1.84 1.84 0 0 0 .289-.063c-.001-.006-.101.003-.295.026l-.86.115-3.299.478-12.121 1.85-39.967 6.303-39.962 6.231-12.132 1.775-3.306.434-1.162.093s.387-.117 1.137-.258l3.285-.574 12.108-1.934 39.997-6.004z"/><path d="M57.202 79.791l40.46.339 12.261.044 3.334-.012.867-.013.295-.017s-.1-.012-.295-.019l-.867-.02-3.333-.038-12.262-.051-40.461.024c-15.792.022-30.093.018-40.445-.046l-12.26-.127-3.334-.083C.4 79.745 0 79.716 0 79.687s.4-.055 1.163-.077l3.334-.057 12.261-.032 40.444.269z"/><path d="M57.525 76.237l39.915 6.625 12.106 1.947 3.295.505.859.122.294.029s-.097-.028-.289-.065l-.853-.155-3.287-.556-12.104-1.957-39.975-6.259-39.947-6.326-12.092-2.031-3.28-.601-1.134-.267s.404.007 1.161.102l3.303.461 12.117 1.873 39.911 6.553z"/><path d="M58.345 72.736l38.374 12.83 11.648 3.829 3.175 1.017.828.255.287.075s-.091-.043-.275-.11l-.818-.287-3.158-1.068-11.645-3.839L58.27 72.964 19.817 60.429 8.197 56.518l-3.144-1.11-1.078-.444s.398.07 1.13.284l3.189.974 11.672 3.757 38.38 12.757z"/><path d="M59.799 69.466l35.878 18.705 10.9 5.615 2.975 1.505.778.382.271.119a1.83 1.83 0 0 0-.254-.151l-.763-.412-2.951-1.551-10.896-5.623L59.69 69.677 23.689 51.244l-10.861-5.69-2.931-1.59-.996-.606s.382.133 1.071.459l2.995 1.465 10.934 5.548 35.896 18.636z"/><path d="M61.689 66.45l32.513 24.084 9.888 7.25 2.703 1.951.709.499.249.16s-.074-.068-.227-.189l-.69-.526-2.672-1.993-9.883-7.257-32.73-23.787-32.677-23.833-9.838-7.318-2.646-2.029-.888-.755s.356.191.986.621l2.73 1.916 9.933 7.189L61.689 66.45z"/><path d="M63.986 63.725l28.371 28.847 8.64 8.7 2.367 2.349.622.603.222.197s-.062-.08-.196-.223l-.599-.627-2.33-2.384-8.634-8.706-28.632-28.588-28.571-28.626-8.58-8.759-2.299-2.416-.76-.883s.322.244.878.767l2.398 2.317 8.694 8.646 28.41 28.786z"/><path d="M66.731 61.445l23.539 32.91 7.182 9.938 1.973 2.688.521.693.188.228s-.049-.088-.158-.25l-.494-.712-1.931-2.718-7.175-9.943-23.838-32.694-23.771-32.721-7.113-9.987-1.895-2.744-.614-.991s.281.291.748.894l2.009 2.662 7.243 9.893 23.586 32.855z"/><path d="M69.809 59.609l18.104 36.186 5.54 10.939 1.528 2.962.406.766.15.256a1.83 1.83 0 0 0-.117-.272l-.376-.781-1.482-2.987-5.533-10.942-18.433-36.018-18.364-36.035-5.464-10.976-1.443-3.007-.45-1.075s.232.331.599 1l1.568 2.943L51.65 23.47l18.158 36.139z"/><path d="M73.15 58.245l12.185 38.583 3.75 11.673 1.043 3.167.281.82.108.275a1.77 1.77 0 0 0-.073-.286l-.248-.831-.994-3.182-3.742-11.677-12.538-38.47-12.467-38.475-3.669-11.7-.951-3.196-.275-1.132s.177.364.435 1.081l1.086 3.153 3.823 11.65L73.15 58.245z"/><path d="M76.611 57.434l5.963 40.02 1.867 12.118.532 3.292.149.854.063.289s-.003-.101-.027-.295l-.115-.859-.481-3.299-1.858-12.12-6.328-39.963-6.256-39.957-1.783-12.131-.436-3.306-.094-1.162s.117.387.259 1.137l.576 3.285 1.942 12.106 6.029 39.993z"/><path d="M80.226 57.202l-.313 40.46-.036 12.262.014 3.333.013.867.016.296s.012-.1.019-.295l.019-.868.036-3.333.043-12.262-.05-40.461.02-40.445.119-12.261.081-3.334L80.293 0s.055.401.078 1.163l.059 3.334.039 12.261-.243 40.444z"/><path d="M83.744 57.49l-6.599 39.92-1.94 12.107-.503 3.295-.121.859-.029.295s.028-.097.065-.289l.154-.853.554-3.287 1.949-12.106 6.233-39.978 6.299-39.951 2.023-12.093.599-3.28.267-1.134s-.007.404-.102 1.161l-.459 3.303-1.865 12.118-6.527 39.914z"/><path d="M87.197 58.356L74.392 96.739l-3.822 11.65-1.015 3.175-.255.829-.074.287s.043-.091.11-.275l.287-.818 1.066-3.159L74.52 96.78l12.449-38.499L99.48 19.821l3.903-11.623 1.108-3.145.443-1.078s-.07.398-.282 1.131l-.973 3.19-3.749 11.674-12.732 38.388z"/><path d="M90.513 59.775l-18.682 35.89-5.608 10.904-1.503 2.976-.382.779a1.78 1.78 0 0 0-.119.271 1.89 1.89 0 0 0 .151-.255l.412-.763 1.549-2.952 5.616-10.9 18.355-36.058 18.409-36.012 5.683-10.865 1.589-2.932.605-.996s-.133.382-.458 1.072l-1.464 2.996-5.541 10.938-18.612 35.907z"/><path d="M93.525 61.671L69.461 94.199l-7.243 9.893-1.95 2.704-.499.709-.16.249s.069-.073.189-.227l.526-.69 1.991-2.673 7.251-9.889L93.332 61.53l23.813-32.691 7.311-9.842 2.028-2.648.753-.889s-.19.357-.62.987l-1.913 2.731-7.182 9.938-23.997 32.556z"/><path d="M96.226 64.011l-28.829 28.39-8.695 8.646-2.346 2.368-.603.623-.197.221s.08-.062.222-.195l.627-.6 2.383-2.332 8.7-8.64 28.57-28.65 28.608-28.589 8.753-8.586 2.414-2.301.883-.76s-.243.322-.766.878l-2.315 2.4-8.641 8.699-28.768 28.428z"/><path d="M98.573 66.76L65.679 90.32l-9.934 7.188-2.686 1.974-.693.521-.228.188s.088-.049.25-.159l.712-.494 2.716-1.933 9.938-7.181 32.679-23.859 32.707-23.792 9.982-7.12 2.743-1.896.991-.614s-.292.28-.894.748l-2.66 2.011-9.889 7.249-32.84 23.607z"/><path d="M100.368 69.802L64.194 87.928l-10.935 5.548-2.962 1.53-.766.407-.255.15s.095-.034.272-.117l.781-.377 2.985-1.484 10.939-5.54 36.007-18.457 36.023-18.388 10.973-5.471 3.006-1.444 1.074-.451s-.331.232-.999.6l-2.942 1.57-10.9 5.615-36.127 18.182z"/><path d="M101.718 73.145l-38.575 12.21-11.671 3.758-3.166 1.046-.82.281-.275.108s.099-.019.287-.073l.83-.249 3.182-.995 11.674-3.749 38.461-12.563 38.467-12.492 11.697-3.677 3.196-.953 1.132-.276s-.364.177-1.081.435l-3.152 1.088-11.648 3.83-38.538 12.271z"/><path d="M102.585 76.608l-40.016 5.988-12.117 1.874-3.291.534-.854.149-.289.063s.101-.003.295-.027l.859-.116 3.299-.483 12.119-1.866 39.96-6.354 39.953-6.282 12.13-1.79 3.306-.439 1.162-.095s-.388.118-1.137.26l-3.284.578-12.105 1.949-39.989 6.055z"/></g><path d="M118.741 19.313l.359.597a4.1 4.1 0 0 0 1.691 1.558l.625.309-.597.359a4.1 4.1 0 0 0-1.558 1.692l-.309.625-.359-.597a4.09 4.09 0 0 0-1.692-1.558l-.624-.309.597-.359a4.1 4.1 0 0 0 1.558-1.692l.309-.625zm-.719 70.06l.221.365c.246.41.605.741 1.034.953l.383.189-.366.22a2.5 2.5 0 0 0-.953 1.035l-.189.382-.219-.365a2.51 2.51 0 0 0-1.035-.953l-.383-.189.365-.22a2.5 2.5 0 0 0 .953-1.035l.189-.382zM153.708 128l.22.365c.247.41.606.741 1.035.953l.382.189-.365.22c-.41.247-.741.606-.953 1.035l-.189.382-.22-.365a2.5 2.5 0 0 0-1.035-.953l-.382-.189.365-.22c.41-.247.741-.606.953-1.035l.189-.382zM15.496 109.283l.22.365a2.5 2.5 0 0 0 1.035.953l.382.189-.365.22c-.41.247-.741.606-.953 1.035l-.189.382-.22-.366a2.51 2.51 0 0 0-1.035-.953l-.382-.189.365-.219c.41-.247.741-.606.953-1.035l.189-.382zM58.493 7.193l.22.365a2.5 2.5 0 0 0 1.035.953l.382.189-.365.22a2.5 2.5 0 0 0-.953 1.034l-.189.382-.22-.365c-.247-.41-.606-.741-1.035-.953l-.382-.189.365-.22c.41-.247.741-.606.953-1.035l.189-.382zm-35.129 3.576l.22.366c.247.41.606.741 1.035.953l.382.189-.366.22a2.5 2.5 0 0 0-.953 1.035l-.189.382-.22-.366c-.247-.41-.606-.741-1.035-.953l-.382-.189.365-.22c.41-.247.741-.606.953-1.035l.189-.382zm16.372 35.686l.22.365c.247.41.606.741 1.035.953l.382.189-.365.22a2.5 2.5 0 0 0-.953 1.035l-.189.382-.22-.366a2.51 2.51 0 0 0-1.035-.953l-.382-.189.365-.22a2.5 2.5 0 0 0 .953-1.035l.189-.382zm81.466 9.975l.219.365a2.5 2.5 0 0 0 1.036.953l.382.189-.366.22a2.51 2.51 0 0 0-.953 1.035l-.189.382-.22-.365c-.246-.41-.605-.741-1.034-.953l-.383-.189.366-.22a2.51 2.51 0 0 0 .953-1.035l.189-.382zm-3.18 72.444l.221.366c.246.41.605.741 1.034.953l.383.189-.366.219a2.51 2.51 0 0 0-.953 1.035l-.189.383-.219-.366a2.51 2.51 0 0 0-1.035-.953l-.383-.189.365-.22c.411-.246.741-.606.953-1.034l.189-.383zM54.702 22.055l.443.737a5.05 5.05 0 0 0 2.087 1.922l.771.382-.737.443c-.828.498-1.495 1.223-1.922 2.087l-.382.771-.443-.737a5.05 5.05 0 0 0-2.087-1.922l-.771-.381.737-.444c.827-.498 1.495-1.222 1.922-2.087l.382-.771zm95.771-3.656l.444.737c.497.827 1.221 1.495 2.087 1.922l.771.381-.737.444a5.04 5.04 0 0 0-1.922 2.087l-.382.771-.443-.737a5.04 5.04 0 0 0-2.088-1.922l-.771-.382.738-.444a5.04 5.04 0 0 0 1.921-2.087l.382-.771zM109.776 6.915l.258.428c.289.48.709.868 1.212 1.116l.447.221-.427.258a2.92 2.92 0 0 0-1.116 1.212l-.222.448-.257-.428a2.93 2.93 0 0 0-1.212-1.116l-.448-.222.428-.257a2.93 2.93 0 0 0 1.116-1.212l.221-.448zm-87.8 87.028l.388.645a4.42 4.42 0 0 0 1.828 1.683l.675.334-.645.388a4.42 4.42 0 0 0-1.683 1.828l-.334.675-.388-.645a4.42 4.42 0 0 0-1.828-1.683l-.675-.334.645-.388a4.42 4.42 0 0 0 1.683-1.828l.334-.675zm112.78 37.435l.388.645c.436.724 1.07 1.309 1.828 1.683l.675.334-.645.388a4.42 4.42 0 0 0-1.684 1.828l-.334.675-.388-.645c-.435-.724-1.07-1.308-1.828-1.683l-.675-.334.645-.388c.725-.436 1.309-1.071 1.684-1.828l.334-.675z" fill="#d7d9d9"/><path d="M159.865 158.331c0 .049-34.9.089-77.942.089-43.056 0-77.949-.04-77.949-.089s34.893-.09 77.949-.09l77.942.09z" class="D"/><path d="M107.719 143.793l-.411-.621-49.902-1.701-6.381 16.836 59.734-.071-3.04-14.443z" class="C"/><path d="M76.68 158.272c-.78-2.279-.98-4.756-.93-6.945h33.506l1.453 6.905-34.029.04z" class="B"/><path d="M131.644 97.793c-.022-.732-.464-1.38-1.075-1.784-9.55-6.321-16.747-20.33-17.473-32.19l-.063-2.051v-.009c-.552-16.957-3.05-37.524-5.291-43.006C103.601 8.628 89.577 7.677 89.577 7.677c-18.617-1.332-21.941 12.973-23.82 26.002l-5.671 37.047 3.422 1.324c4.031 11.945 13.109 21.606 24.907 26.049 3.432 1.293 6.337 1.811 7.701.7 5.42 5.494 12.205 9.646 19.59 11.893 3.007.915 6.158 1.526 9.288 1.233 2.031-.19 4.174-.861 5.385-2.503a4.78 4.78 0 0 0 .354-4.986 4.78 4.78 0 0 0-4.357-2.449c.705-2.288 5.347-1.615 5.268-4.193z" class="C"/><path d="M123.366 111.998c-1.309 0-2.617-.14-3.912-.376-1.493-3.014-2.952-5.791-4.332-7.162-.162-.161-.355-.232-.543-.232-.491 0-.953.478-.777 1.05.246.803.619 1.84 1.171 3.011l1.081 2.51-.361-.108c-1.786-.543-3.536-1.198-5.241-1.956 1.623-3.686 1.294-5.98 1.383-6.602l-.064-12.22 10.108.392.023-.136 2.339.208c1.938 2.219 4.061 4.14 6.316 5.632.61.404 1.052 1.052 1.075 1.784v.067c-.003 2.499-4.57 1.857-5.269 4.125l.227-.006a4.79 4.79 0 0 1 4.13 2.455c.362.671.54 1.431.54 2.193l-.002.133c-.026.95-.327 1.894-.891 2.66-1.212 1.642-3.355 2.313-5.386 2.503l-1.615.074zm-9.776-43.986l-5.493-1.421c-.326.003-6.716-1.019-6.716-1.019l-5.741-.906-.131-.02.103-2.708.162-2.668.001-.024.127-2.228.008-.146v-.01s7.709-.886 9.793-10.782c1.037-4.921.841-11.691.55-18.355-.403-9.214-6.79-14.783-14.194-14.783h-.018l-.019-.019c.674-.699 1.123-1.091 1.123-1.091l-2.237-.673-14.137 4.092c-.234.176-3.508 7.191-3.508 7.191l1.521 11.913c-.248-.029-.51-.046-.778-.046-1.874 0-4.053.853-4.272 4.712-.281 4.944 3.296 5.756 5.276 5.756h.029l.044 16.538v.124l-.147-.021c-.117-.201-.189-.311-.226-.311-.035.01-.036.106 0 .279-3.152-.452-9.049-1.254-12.956-1.509l3.99-26.197C67.542 21.217 70.659 7.59 87.215 7.59c.754 0 1.539.028 2.35.087 0 0 14.024.951 18.164 11.077 2.241 5.482 4.739 26.048 5.291 43.006v.009l.063 2.051a36.81 36.81 0 0 0 .507 4.193z" class="B"/><path d="M92.017 12.913l-1.165-1.11-12.587 5.073c-1.821.101-3.262 1.578-3.318 3.401l.111 41.01c-.016 2.781.541 5.189 2.22 7.406l1.768 2.334c4.031 5.321 12.322 4.883 15.512-.98.223-.41.378-.769.445-1.061.068-.365.167-.606.187-.917.375-3.3.396-6.16.396-6.16l.299-5.075s7.709-.886 9.794-10.782c1.036-4.921.84-11.691.549-18.355-.403-9.222-6.8-14.793-14.212-14.783z" class="C"/><path d="M88.125 34.479c-.703 0-1.266-.544-1.255-1.22s.591-1.227 1.297-1.229h.005c.705 0 1.267.545 1.257 1.22s-.591 1.226-1.299 1.229h-.005zm13.035.357c-.703 0-1.265-.544-1.256-1.219s.592-1.227 1.297-1.23h.006c.704 0 1.267.545 1.257 1.22s-.592 1.226-1.298 1.229h-.006zm3.73-4.449c-.279 0-1.163-.634-2.411-.694l-.248-.008c-.546 0-1.031.109-1.414.217s-.668.217-.81.217c-.042 0-.071-.009-.088-.03-.07-.078.107-.372.562-.67.416-.275 1.092-.529 1.87-.529l.191.005c.858.048 1.563.4 1.962.744.406.346.535.655.453.726-.016.015-.038.022-.067.022zm-13.953.113c-.261 0-1.083-.748-2.343-.939-.24-.04-.472-.055-.693-.055-.418 0-.793.057-1.098.114l-.675.114c-.062 0-.103-.012-.122-.04-.061-.085.143-.359.629-.608a3.42 3.42 0 0 1 1.543-.354c.181 0 .369.014.56.044.848.136 1.513.558 1.875.941.368.386.465.707.377.768-.014.011-.031.015-.052.015zm6.842 10.122c-1.251 0-2.014-.037-2.015-.111s.86-.184 2.256-.291c.353-.019.689-.072.761-.309.096-.25-.032-.636-.182-1.054l-.905-2.729-1.984-7.118c.175 0 1.31 3.089 2.552 6.942l.86 2.742c.113.406.319.871.113 1.389-.108.258-.375.435-.604.485-.229.058-.426.051-.601.053l-.252.001z" class="B"/><path d="M95.771 59.265l.001-.024-.001.024zm.129-2.252l.008-.146-.008.146z" fill="#9f4339"/><path d="M94.905 59.275c-9.331 0-12.168-6.66-12.168-6.66 6.174 4.145 12.609 4.233 13.144 4.233h.036v.01l-.008.146-.127 2.228-.001.024c-.298.013-.59.019-.875.019z" class="I"/><path d="M94.995 43.796c-.462-.679-1.312-1.082-2.177-1.033-.6.035-1.219.292-1.606.761s-.498 1.155-.191 1.635c.345.541 1.115.7 1.781.547s1.253-.558 1.812-.962c.154-.112.312-.229.413-.388s.131-.371.024-.512l-.056-.048z" class="C"/><path d="M92.313 45.762c-.522 0-1.03-.191-1.293-.602-.121-.19-.177-.411-.177-.639 0-.349.134-.713.368-.996.11-.133.237-.248.378-.346a3.37 3.37 0 0 0 .854 1.245 3.71 3.71 0 0 0 1.45.811c-.343.209-.704.383-1.091.473-.16.037-.325.056-.489.056zm2.283-1.005c-.496-.158-1.067-.416-1.573-.883a3.63 3.63 0 0 1-.771-1.012c.185-.055.376-.088.566-.099l.143-.004c.815 0 1.597.395 2.034 1.037l.057.048a.35.35 0 0 1 .068.216.57.57 0 0 1-.091.296c-.101.159-.259.276-.413.388l-.018.013z" class="I"/><path d="M91.835 25.591c-.468 0-1.52-.549-2.828-.924-1.557-.481-2.943-.551-3.01-.944-.001-.011-.002-.023 0-.034l.012-.048c.067-.169.398-.359.936-.47.248-.052.54-.082.861-.082a5.68 5.68 0 0 1 1.6.236c.936.279 1.695.767 2.144 1.217s.615.838.492.98c-.044.048-.114.07-.207.07zm7.961 1.838c-.192 0-.334-.034-.41-.128-.11-.151.017-.475.415-.804.391-.327 1.066-.623 1.85-.661l.169-.004c.715 0 1.346.216 1.737.484.427.289.585.6.49.76-.092.142-.325.177-.649.177-.161 0-.345-.009-.546-.017l-.648-.017-.485.015c-.792.025-1.488.196-1.923.196z" class="B"/><g class="C"><path d="M75.241 37.815s7.051 2.194 11.04-15.207c1.365-5.95 6.88-10.769 6.88-10.769l-2.237-.673-14.137 4.092c-.234.176-3.508 7.191-3.508 7.191l1.962 15.365z"/><path d="M76.947 37.145c.035-.743-.735-2.537-1.464-2.689-1.944-.403-5.483-.423-5.765 4.551-.386 6.799 6.52 5.783 6.543 5.589l.686-7.451z"/></g><g class="B"><path d="M73.449 42.402c-.135 0-.282-.02-.435-.07-.967-.34-1.596-1.662-1.561-3.034.02-.696.218-1.349.518-1.872.271-.522.77-.977 1.297-.984l.052-.001a.88.88 0 0 1 .593.212.76.76 0 0 1 .244.441c.036.265-.079.391-.109.391-.04-.015.011-.149-.07-.344a.6.6 0 0 0-.56-.375.71.71 0 0 0-.12.011c-.365.044-.707.373-.942.858a3.92 3.92 0 0 0-.428 1.677c-.036 1.227.504 2.402 1.207 2.706a1.2 1.2 0 0 0 .487.103c.158 0 .296-.031.399-.071.184-.072.279-.16.318-.16.034.017-.011.167-.231.323a1.18 1.18 0 0 1-.658.188zm3.493-4.597l.036-.638c.035-.743-.735-2.537-1.464-2.688l-.715-.116-1.521-11.913 3.508-7.191c.234-.175 14.137-4.092 14.137-4.092l2.237.673s-5.516 4.818-6.88 10.769l-.25 1.048-.012.048c-2.764 11.126-6.81 13.626-9.077 14.101z"/><path d="M76.006 37.876c-.489 0-.775-.089-.775-.089l-.441-3.452.715.115c.728.151 1.499 1.946 1.464 2.688l-.036.638c-.357.075-.669.099-.926.099z"/></g><path d="M91.664 41.25c.224-.002.152 1.492 1.378 2.617s2.825 1.04 2.826 1.249c.016.095-.369.273-1.042.257a3.73 3.73 0 0 1-2.363-.958c-.748-.69-1.04-1.574-1.06-2.19-.025-.627.16-.989.261-.976z" class="C"/><path d="M94.908 45.374c-.027 0-.054 0-.082-.001-.267-.005-.582-.049-.913-.147a3.71 3.71 0 0 1-1.45-.811 3.37 3.37 0 0 1-.854-1.245c-.134-.341-.198-.67-.207-.945l-.002-.112c-.001-.547.162-.864.258-.864h.006c.224 0 .153 1.493 1.378 2.617s2.825 1.04 2.826 1.249c.002.098-.35.258-.96.258z" class="B"/><g class="C"><path d="M145.04 41.686l10.633 22.127c1.336 3.326 8.72 18.909 6.437 23.232s-4.311 4.098-7.493 4.271-23.881-.679-29.247-.902c-6.829-.285-14.339-2.223-14.339-2.223l3.522-18.733 27.362 5.089-4.623-29.729 7.748-3.133z"/><path d="M145.111 41.834s-1.578-2.799-2.554-3.471-8.908-7.626-8.908-7.626-3.111-3.294-3.965-3.112-8.969 5.613-9.03 6.467.366 1.342.854 1.464-.244.671 1.037 1.952c0 0-1.22-.061-1.159 1.098s0 2.746.793 2.807 3.295.793 3.417-.549l.244-.549s2.135 1.525 4.088 2.318 5.063.732 5.063.732.855 1.281 2.319 1.464 7.801-2.996 7.801-2.996z"/></g><g class="B"><path d="M135.143 42.742c-.056 0-.346-.233-.764-.638-.436-.431-1.034-1.069-1.462-1.937a4.24 4.24 0 0 1-.404-1.389l-.012-.126a3.15 3.15 0 0 1 .051-.896l.077-.294a.99.99 0 0 0 .213-.079c-.028.118-.053.254-.069.407-.072.585.03 1.424.428 2.239s.95 1.458 1.341 1.923l.609.788zm-2.268-5.492c-.04-.004-.096-.004-.164-.005.116-.271.238-.407.264-.407.034.017-.032.159-.1.412zm-3.234 1.437a.53.53 0 0 1-.337-.105c-.072-.065-.081-.12-.066-.132.033-.004.061.007.1.017a.59.59 0 0 0 .152.022.59.59 0 0 0 .161-.024c.239-.06.571-.268.815-.582a2.09 2.09 0 0 0 .404-.945l.022-.205a1.07 1.07 0 0 0 .086.137c.032.044.071.089.115.135a1.78 1.78 0 0 1-.379 1.071c-.298.378-.701.592-1.033.609l-.04.001zm1.394-2.056l-.126-.097c.006-.031.015-.049.028-.053.026-.001.065.051.098.149z"/><path d="M130.407 40.894c-.305 0-.603-.102-.868-.244l-.38-.232c.007-.024.007-.038.004-.038h0c-.009-.001-.017.007-.028.022-.382-.251-.744-.536-1.122-.835l-.745-.643c-.244-.224-.505-.463-.696-.781-.199-.308-.273-.748-.118-1.098.142-.348.385-.599.602-.833l1.209-1.378c.744-.902 1.356-1.761 1.844-2.5l.68-.998c.228-.283.489-.481.726-.582a1.3 1.3 0 0 1 .512-.115c.176 0 .273.048.265.053 0 .008-.017.008-.048.008h-.029c-.114 0-.347.007-.646.164-.212.112-.438.303-.641.581s-.395.629-.631 1.009a25.46 25.46 0 0 1-1.806 2.564l-1.209 1.405c-.215.233-.43.468-.536.737-.112.267-.066.559.096.823s.396.49.637.712l.729.635c.49.395.984.785 1.468 1.066.244.135.499.222.748.223h.006c.247 0 .487-.083.7-.199.428-.245.791-.582 1.002-.939s.241-.762.126-1.067c-.109-.313-.365-.484-.593-.524a.99.99 0 0 0-.172-.016c-.167 0-.289.048-.373.096s-.128.096-.14.096c-.01-.006.019-.076.128-.161.09-.072.252-.143.462-.143a.96.96 0 0 1 .115.007c.261.023.593.218.737.58.041.095.071.2.086.311l.012.126a1.52 1.52 0 0 1-.194.805c-.231.415-.598.773-1.068 1.058-.238.137-.521.244-.832.248h-.019z"/></g><path d="M132.49 38.752v-.126.126z" class="E"/><path d="M132.276 37.509c-.176 0-.375-.029-.575-.102a1.68 1.68 0 0 1-.618-.394l-.001-.056a1.21 1.21 0 0 0-.057-.318c.162.133.42.347.783.473.35.133.677.138.887.14-.028.065-.056.137-.081.217-.105.027-.216.041-.338.041zm.55-.12l.033-.133c.042.005.067.013.073.03s-.029.062-.106.103zm-1.944-.649c-.063-.119-.073-.203-.048-.217.027-.003.045.004.066.018-.008.043-.011.111-.018.199z" class="B"/><path d="M132.649 37.453l.082-.217.164.005-.033.133a.97.97 0 0 1-.213.079zm-1.547-.461a1.12 1.12 0 0 1-.114-.135 1.16 1.16 0 0 1-.087-.137l.018-.199c.032.02.074.054.125.097.026.078.049.185.057.318l.001.056z" class="E"/><path d="M127.928 41.063c-.015 0-.03 0-.046 0-.327-.009-.68-.132-1.023-.33-.362-.223-.729-.495-1.117-.793-.022-.045-.048-.093-.079-.142-.191-.319-.593-.682-1.13-.875l-.195-.062c-.303-.24-.611-.517-.819-.914-.3-.556-.164-1.258.13-1.782.289-.542.679-.978 1.021-1.407l1.007-1.237 1.72-2.083 1.18-1.388.464-.483c.019.014-.113.213-.368.56l-1.103 1.45-1.667 2.126-.993 1.248c-.342.436-.719.865-.983 1.362-.268.489-.369 1.048-.132 1.497.227.451.664.769 1.058 1.084l2.12 1.649c.315.198.633.322.919.345l.131.006c.234 0 .438-.052.594-.126.295-.139.412-.324.462-.389l.024.016c-.023.085-.122.299-.429.482a1.49 1.49 0 0 1-.746.188z" class="B"/><path d="M129.177 40.414l-.025-.016c.012-.015.02-.023.025-.023l.004.001c.003 0 .002.014-.004.038z" class="E"/><path d="M121.996 36.684c-.036 0-.274-.465-.081-1.208.095-.372.306-.792.624-1.182s.722-.757 1.139-1.13c1.646-1.452 2.637-2.963 2.745-2.963.039.023-.166.435-.594 1.043s-1.092 1.4-1.941 2.154l-1.126 1.081c-.311.356-.519.726-.634 1.061-.236.676-.076 1.134-.13 1.142z" class="B"/><path d="M125.841 40.39c-.008 0-.017-.005-.027-.015l.018-.04.03.021c-.003.02-.009.032-.016.033z" fill="#a8abab"/><path d="M125.872 40.355c-.053-.05-.141-.22-.318-.422-.214-.251-.583-.539-1.058-.71-.965-.325-1.862-.217-1.861-.328-.003-.041.209-.105.567-.136l.311-.013c.263 0 .572.028.895.119l.337.262 1.067.818c.091.186.114.33.107.392l-.029-.021-.018.04z" class="B"/><path d="M125.788 39.945l-1.068-.818-.336-.262.195.062c.537.192.939.556 1.13.875.031.05.057.097.079.142z" class="E"/><path d="M146.858 80.179c-.065 0-.427-.208-.942-.602-.553-.421-1.269-1.071-1.952-1.886s-1.193-1.637-1.51-2.255-.457-1.027-.421-1.043c.109-.001.846 1.523 2.173 3.096 1.332 1.607 2.72 2.609 2.662 2.687z" class="B"/><path d="M124.702 90.396h0 0zm2.444-18.59l-2.12-.394h0l2.12.395" fill="#c3c5c5"/><path d="M124.696 90.395h0l-2.776-.235 3.1-18.749 2.12.394-2.444 18.59z" class="I"/><g class="C"><path d="M18.14 34.414L7.508 56.541c-1.337 3.327-8.72 18.909-6.437 23.232s4.311 4.098 7.493 4.272 23.881-.679 29.247-.903c6.83-.284 14.339-2.223 14.339-2.223l-3.522-18.733-27.363 5.089 4.624-29.729-7.748-3.133z"/><path d="M18.121 34.522s1.578-2.799 2.554-3.47 8.908-7.627 8.908-7.627 3.111-3.294 3.966-3.111 8.969 5.613 9.03 6.467-.366 1.342-.854 1.464.244.671-1.037 1.953c0 0 .86-.023 1.159 1.098.287 1.075.342 2.167-.793 2.807-.861.485-2.919.973-3.638-1.047l-.023-.051s-2.135 1.525-4.088 2.318-5.064.732-5.064.732-.854 1.281-2.319 1.464-7.801-2.997-7.801-2.997z"/></g><g class="B"><path d="M28.066 35.43c-.04-.034.205-.327.602-.79.391-.464.94-1.106 1.341-1.923s.5-1.654.428-2.238a3.56 3.56 0 0 0-.069-.407.96.96 0 0 0 .212.079 2.88 2.88 0 0 1 .077.294 3.14 3.14 0 0 1 .051.897l-.012.124a4.19 4.19 0 0 1-.405 1.389c-.428.868-1.025 1.506-1.462 1.937-.418.406-.708.638-.764.638zm2.269-5.491c-.069-.254-.134-.396-.103-.412.029-.001.151.136.267.407l-.164.005zm3.227 1.436a.5.5 0 0 1-.04-.001c-.332-.018-.735-.232-1.033-.609a1.78 1.78 0 0 1-.379-1.071 1.23 1.23 0 0 0 .115-.135 1.31 1.31 0 0 0 .087-.137l.022.205a2.07 2.07 0 0 0 .404.945c.243.314.575.522.814.582a.59.59 0 0 0 .161.023c.062 0 .112-.011.152-.022s.067-.022.085-.022c.03.016.021.071-.051.136-.066.058-.19.105-.336.105zm-1.394-2.056c.033-.098.072-.15.094-.15s.026.022.032.053a1.45 1.45 0 0 0-.125.097z"/><path d="M32.793 33.582a1.74 1.74 0 0 1-.852-.249c-.47-.285-.837-.643-1.068-1.058-.145-.259-.206-.544-.194-.806l.012-.124c.015-.111.044-.216.087-.312a.92.92 0 0 1 .736-.58.97.97 0 0 1 .115-.007c.21 0 .371.07.462.143.109.085.138.154.132.159-.016.002-.06-.046-.144-.093s-.206-.096-.373-.096a.96.96 0 0 0-.172.016c-.228.041-.483.211-.593.524-.114.305-.089.708.127 1.067.21.357.573.694 1.001.939.214.117.454.199.7.199h.006c.249-.001.504-.088.748-.222.485-.281.978-.671 1.468-1.066l.73-.634c.241-.222.478-.446.638-.712s.208-.556.096-.823c-.106-.269-.321-.505-.536-.737l-1.209-1.405c-.739-.922-1.339-1.803-1.806-2.564l-.631-1.009c-.204-.278-.43-.47-.642-.581-.299-.157-.532-.164-.646-.164h-.028c-.032 0-.049-.001-.048-.008-.009-.005.088-.053.265-.053a1.3 1.3 0 0 1 .511.115c.238.102.498.3.726.582s.436.632.68.999c.487.739 1.1 1.598 1.843 2.5l1.21 1.378c.216.234.46.484.602.833.155.35.081.79-.118 1.098-.192.319-.453.557-.696.781l-.745.642-1.122.835c-.011-.015-.019-.023-.025-.023l-.004.001c-.002 0-.002.014.005.038l-.38.232c-.265.141-.563.244-.867.244z"/></g><path d="M30.679 31.478v-.124.124z" class="E"/><path d="M30.937 30.197a1.33 1.33 0 0 1-.325-.037l-.094-.22c.21-.002.537-.007.887-.14.364-.126.621-.34.783-.473-.026.078-.049.185-.057.318l-.001.057c-.146.15-.358.299-.617.394-.2.073-.4.102-.576.102zm-.549-.119c-.077-.041-.114-.082-.106-.103s.031-.025.072-.03l.033.133zm1.944-.649l-.018-.199c.021-.013.038-.021.052-.021.039.018.029.101-.034.22z" class="B"/><path d="M30.606 30.14a.96.96 0 0 1-.212-.079l-.033-.133c.04-.005.096-.005.164-.005l.081.217zm1.503-.46l.001-.057a1.22 1.22 0 0 1 .057-.318l.125-.097c.008.043.011.112.018.199-.022.042-.051.088-.087.137a1.23 1.23 0 0 1-.115.135z" class="E"/><path d="M35.271 33.791c-.303 0-.56-.08-.745-.188-.308-.183-.406-.396-.429-.482l.024-.016c.05.064.168.249.462.389.156.074.361.126.594.126l.131-.005c.285-.023.604-.147.918-.345.62-.412 1.318-1.031 2.12-1.649.394-.315.831-.633 1.058-1.084.237-.448.136-1.007-.131-1.496-.264-.496-.641-.925-.984-1.362l-.993-1.249-1.666-2.125-1.103-1.451-.371-.559c.029-.001.193.171.466.482l1.18 1.388 1.72 2.083 1.007 1.237c.342.43.732.866 1.022 1.407.293.523.43 1.225.129 1.782-.286.546-.763.866-1.155 1.175L36.34 33.46c-.343.198-.696.321-1.022.33l-.047.001z" class="B"/><path d="M34.102 33.102c-.007-.024-.007-.038-.005-.038h0c.009-.001.017.008.029.022l-.024.016z" class="E"/><path d="M41.235 29.372c-.056-.01.103-.467-.133-1.143-.114-.335-.323-.705-.633-1.061s-.706-.705-1.127-1.081c-.849-.754-1.513-1.548-1.94-2.154s-.633-1.02-.599-1.042c.114-.001 1.104 1.51 2.75 2.962.417.372.825.736 1.14 1.13s.529.81.623 1.181c.194.743-.045 1.208-.081 1.208zm-3.699 3.845c-.041-.009-.033-.248.165-.569.191-.318.593-.682 1.13-.874.393-.141.774-.181 1.09-.181l.312.013c.357.031.57.095.567.136 0 .111-.896.003-1.861.328a2.57 2.57 0 0 0-1.058.711c-.211.242-.297.437-.344.437zm-21.152 39.65c-.069-.082 1.32-1.083 2.653-2.691 1.326-1.574 2.064-3.097 2.168-3.097.04.017-.099.425-.416 1.044a12.67 12.67 0 0 1-1.51 2.255c-.683.816-1.4 1.465-1.952 1.886-.515.394-.878.602-.942.602z" class="B"/><path d="M41.658 82.836l1.717-.219.008.041-1.724.178zm-3.826-18.641l2.009-.374-2.009.374z" fill="#c3c5c5"/><path d="M40.251 82.982l-2.419-18.787 2.009-.374 3.534 18.796-1.717.219-1.407.146z" class="I"/><path d="M56.559 130.348s-4.446-30.213-4.436-34.586c.004-1.727-.919-13.072-.919-13.072l-7.663.689-3.882-20.648s15.227-2.732 19.321-2.948c4.079-.215 17.867 1.895 17.867 1.895l24.502 3.867 6.715 1.019 16.978 4.393-3.195 19.321-10.109-.392.064 12.219c-.132.925.66 5.546-5.413 12.939l-1.021 12.87 4.555 23.414H53.666l2.893-20.981z" class="C"/><path d="M95.667 64.639l-.014-.002zm-20.704-3.248l-.226-.033c-.036-.172-.035-.269-.005-.278.043-.001.114.11.231.311z" class="E"/><path d="M86.767 69.242l-1.3-.013-1.337-.136c-1.801-.263-3.464-.894-4.794-1.748a11.44 11.44 0 0 1-3.041-2.837c-.703-.95-1.125-1.818-1.361-2.43-.117-.306-.189-.55-.225-.721l.226.032.312.539c.324.548.811 1.331 1.543 2.188s1.713 1.777 2.979 2.53c1.261.757 2.803 1.317 4.49 1.565.753.111 1.501.162 2.228.162.901 0 1.769-.078 2.573-.213 1.46-.245 2.715-.736 3.69-1.282a10.88 10.88 0 0 0 2.146-1.565l.73-.677.014.002c.053.03-.082.381-.486.906s-1.079 1.222-2.078 1.873c-.993.652-2.316 1.243-3.862 1.549l-1.193.187-1.254.088zm-.62 45.231c-.043 0-.067-.007-.071-.02-.053-.135 1.091-.589 2.685-1.697 1.588-1.092 3.597-2.947 5-5.53s1.863-5.278 1.913-7.205l-.039-3.176c.107-.001.568 1.171.67 3.172a14.31 14.31 0 0 1-.277 3.537 14.92 14.92 0 0 1-4.112 7.574 14.29 14.29 0 0 1-2.815 2.159c-1.527.884-2.666 1.186-2.954 1.186z" class="B"/><path d="M22.334 125.333c.019-.632.4-1.191.928-1.54 8.242-5.455 14.453-17.545 15.079-27.78l.054-1.77v-.007c.477-14.634 2.632-32.383 4.566-37.114 3.573-8.738 15.676-9.559 15.676-9.559 16.066-1.149 18.935 11.195 20.557 22.439l4.894 31.972-2.953 1.142c-3.479 10.309-11.313 18.646-21.495 22.481-2.962 1.115-5.47 1.562-6.646.603-4.677 4.741-10.532 8.325-16.906 10.264-2.595.789-5.314 1.316-8.015 1.064-1.753-.164-3.602-.743-4.648-2.161-.901-1.221-1.024-2.967-.305-4.302s2.245-2.194 3.76-2.114c-.609-1.975-4.615-1.394-4.547-3.618z" class="D"/><path d="M56.497 52.102l1.005-.958 10.862 4.378c1.572.087 2.815 1.362 2.863 2.935l-.096 35.391c.014 2.4-.467 4.478-1.916 6.391l-1.525 2.014c-3.478 4.592-10.634 4.215-13.387-.845-.192-.354-.326-.664-.384-.916-.058-.315-.144-.523-.161-.791-.323-2.847-.342-5.317-.342-5.317l-.258-4.38s-6.653-.764-8.452-9.304c-.894-4.247-.726-10.09-.474-15.841.348-7.958 5.868-12.766 12.265-12.758z" class="G"/><path d="M58.735 69.643c.009.584.51 1.058 1.12 1.06s1.097-.468 1.088-1.052-.51-1.059-1.119-1.061-1.098.469-1.09 1.053zm-11.207.278c.009.584.51 1.058 1.12 1.06s1.096-.468 1.088-1.052-.51-1.059-1.119-1.061-1.098.469-1.089 1.053zm-2.126-2.761c.144.137.95-.523 2.138-.58 1.186-.073 2.088.494 2.21.342.06-.067-.093-.32-.486-.578-.387-.256-1.039-.492-1.778-.452s-1.349.345-1.693.642c-.351.298-.462.565-.392.626zm12.008.121c.158.122.892-.619 2.068-.796 1.172-.195 2.128.277 2.233.113.052-.074-.124-.31-.543-.525-.412-.216-1.084-.383-1.815-.267s-1.306.482-1.618.812-.401.61-.325.663zm-4.108 8.651c.002-.067-.742-.158-1.947-.251-.305-.016-.595-.062-.657-.267-.083-.216.028-.549.157-.909l.781-2.355 1.712-6.143c-.135-.043-1.121 2.64-2.202 5.991l-.743 2.367c-.098.351-.275.752-.098 1.198.093.223.324.376.521.419.197.05.368.044.519.046 1.207.004 1.955-.028 1.956-.096z" class="D"/><path d="M53.171 90.006s5.81.083 11.375-3.653c0 0-2.6 6.104-11.256 5.731l-.118-2.078zm.743-11.262c.399-.586 1.132-.934 1.879-.891.518.029 1.052.252 1.386.656s.429.997.165 1.411c-.298.467-.963.605-1.538.472s-1.081-.481-1.564-.83c-.133-.096-.27-.197-.357-.334s-.113-.32-.021-.442" class="H"/><path d="M56.799 76.578c-.194-.002-.131 1.288-1.189 2.259s-2.437.898-2.439 1.078c-.014.082.319.235.9.222.57-.009 1.392-.233 2.039-.827s.898-1.359.915-1.89c.022-.541-.138-.854-.226-.842zm-.514-13.935c.165.302 1.316-.03 2.72-.075 1.405-.073 2.579.16 2.718-.155.061-.15-.179-.421-.676-.661s-1.25-.425-2.092-.391-1.58.284-2.051.566-.692.572-.618.716zm-10.708-.623c.222.259 1.027-.062 2.01-.124.981-.097 1.827.09 2.004-.202.077-.141-.068-.404-.445-.642-.371-.236-.982-.415-1.658-.36s-1.248.329-1.577.623c-.334.295-.434.579-.335.705zM71.02 73.585s-6.084 1.894-9.527-13.123c-1.177-5.135-5.937-9.293-5.937-9.293l1.931-.581 12.2 3.532c.202.151 3.027 6.205 3.027 6.205l-1.693 13.26z" class="D"/><path d="M69.545 72.997c-.031-.641.635-2.189 1.263-2.32 1.677-.348 4.731-.365 4.975 3.927.333 5.867-5.626 4.991-5.646 4.823l-.591-6.43z" class="G"/><path d="M71.774 77.111c.025-.02.106.066.283.135s.466.104.765-.028c.607-.262 1.073-1.276 1.041-2.335-.015-.535-.156-1.037-.369-1.448-.204-.419-.498-.703-.814-.74a.52.52 0 0 0-.587.314c-.069.169-.025.284-.056.295-.015.016-.132-.091-.098-.336.017-.118.078-.26.21-.381s.338-.192.557-.181c.454.006.885.399 1.119.849.259.451.43 1.015.447 1.615.03 1.185-.513 2.325-1.347 2.618-.406.131-.758.026-.944-.102-.19-.134-.228-.264-.208-.276z" class="H"/><path d="M66.882 70.679c.002-.019-.324-.02-.879-.177s-1.328-.516-2.09-1.213c-.378-.348-.751-.775-1.09-1.277a9.79 9.79 0 0 1-.886-1.715c-.52-1.264-.853-2.737-1.264-4.267l-1.35-4.26c-.484-1.287-1.021-2.408-1.529-3.315a17.7 17.7 0 0 0-1.344-2.062l-.421-.52-.157-.173c-.004.003.041.07.132.193l.396.537c.337.471.801 1.17 1.296 2.079s1.016 2.028 1.491 3.312c.481 1.282.922 2.723 1.334 4.25l1.281 4.281a9.8 9.8 0 0 0 .912 1.733 7.26 7.26 0 0 0 1.124 1.286c.784.699 1.582 1.051 2.147 1.189s.895.118.895.118z" class="D"/><path d="M74.877 95.745c.007.001.028-.095.063-.283l.148-.834.528-3.186-.142-.02-.096.693.006-.022-.123.263.147.054a56.53 56.53 0 0 0 1.882-9.445c.219-1.907.344-3.958.358-6.11-.021-2.144-.005-4.422-.58-6.698-.237-.94-.598-1.842-1.067-2.663s-1.029-1.569-1.623-2.259c-1.193-1.379-2.479-2.564-3.653-3.741l-6.299-6.197-4.263-4.161-1.169-1.122-.309-.287-.112-.091c-.003.003.028.041.092.111l.29.306 1.133 1.158 4.203 4.222 6.259 6.238 3.626 3.736c1.174 1.357 2.185 2.962 2.63 4.819.564 2.225.554 4.494.579 6.63-.01 2.142-.126 4.185-.335 6.085a59.12 59.12 0 0 1-1.797 9.428l.147.054.119-.265.005-.011.001-.011.086-.694-.142-.02-.461 3.196-.112.84-.025.289zm4.63-27.151c.008-.004-.028-.089-.103-.248l-.342-.689-1.382-2.468-2.321-3.497-3.234-3.995-3.63-3.642-3.23-2.68-2.307-1.637-.648-.413-.236-.129c-.005.007.066.068.206.174l.619.454 2.25 1.7 3.18 2.712 3.597 3.638 3.235 3.962 2.359 3.45 1.452 2.418.386.664.151.223z" class="F"/><path d="M71.691 115.894c.016.01.159-.2.403-.585l1.052-1.619c.899-1.359 2.195-3.202 3.782-5.113 1.594-1.904 3.199-3.491 4.502-4.461 1.29-.99 2.231-1.377 2.207-1.428-.007-.017-.24.079-.659.268-.215.086-.451.237-.734.4-.288.156-.592.369-.926.608-1.348.942-2.991 2.525-4.595 4.441-1.596 1.923-2.874 3.792-3.736 5.182l-.982 1.669-.313.638z" class="D"/><path d="M76.601 145.038l9.726-43.304-9.924-5.307c-.206-.296-5.232-2.563-5.232-2.563-1.229 2.018-2.924 3.84-5.149 5.437-6.017 3.634-12.052.667-12.567-4.9l-5.506 1.547-10.636 1.835s-8.662 22.571-7.515 31.403-.452 24.111-.452 24.111l-.893 5.05 9.04.186h1.486l20.162-.112 17.596-.074c-2.064-5.964-.135-13.309-.135-13.309z" class="F"/><path d="M22.466 148.691c-3.485.129-6.84-1.616-8.531-4.666-.54-.974-.901-2.065-.901-3.24 0-4.703 2.928-11.451 3.9-13.879 1.402-3.501 14.758-27.74 16.363-27.395s2.479.469 2.479.469l-7.603 34.497 24.186 3.968-2.654 9.242-27.24 1.005z" class="G"/><path d="M21.857 112.174l12.292 6.522 4.061-20.938s-5.208.467-6.925 2.653l-9.428 11.763z" class="F"/><path d="M36.723 135.892l-3.31-7.19-1.447-5.317-4.399-3.412s-1.461.169-1.008 1.302 2.662 3.172 2.662 3.172l1.303 3.635-2.118-3.691-3.093-1.53-3.059.227s-.567 1.359.849 1.416h1.529l2.322 1.869 1.451 3.512-2.187-3.399-3.229-1.147-2.04.524s-.566.906.453 1.02l1.699.113 1.869 1.086 1.643 3.446-2.889-2.379-3.739-.447s-.623.9.34 1.24 2.889 1.359 2.889 1.359l2.081 2.875 11.425 1.716z" class="G"/><path d="M36.714 135.888l-11.433-1.66-.024-.003-.014-.02-2.087-2.871.022.02-2.052-1.009-.546-.234c-.179-.079-.381-.123-.567-.252-.188-.118-.31-.353-.302-.58s.089-.433.21-.622l.023-.036.045.005 3.739.442.022.003.018.014 2.891 2.376-.123.097-1.646-3.444.033.036-1.87-1.085.043.011-1.53-.093c-.244-.029-.581-.038-.778-.315-.091-.136-.101-.306-.074-.449s.081-.277.156-.406l.017-.029.035-.009 2.039-.525.026-.007.025.009 3.229 1.147.028.009.016.026 2.188 3.398-.157.083-.778-1.883-.673-1.629.026.035-2.322-1.87.056.02h-.9c-.302-.009-.589.022-.907-.032-.301-.049-.641-.25-.725-.583-.093-.318-.036-.633.071-.923l.018-.05.056-.005 3.059-.225.024-.002.021.011 3.093 1.531.023.011.013.023 2.115 3.694-.148.068-1.3-3.637.021.031c-.784-.746-1.522-1.499-2.144-2.321a5.44 5.44 0 0 1-.423-.645c-.116-.227-.221-.482-.195-.756.018-.281.221-.508.438-.638.223-.132.463-.205.713-.243l.028-.004.024.019 4.393 3.42.016.012.005.021 1.435 5.32-.003-.008 3.266 7.211-3.354-7.17-.002-.003-.001-.004-1.459-5.314.022.032-4.405-3.405.051.014c-.225.034-.457.107-.654.225s-.355.303-.368.53c-.026.459.306.896.592 1.296.613.806 1.352 1.559 2.13 2.296l.014.014.006.017 1.306 3.635-.148.068-2.12-3.691.036.034-3.094-1.528.045.009-3.059.228.075-.054c-.095.253-.143.552-.065.803.067.261.32.412.59.463s.581.021.875.028l.897-.001h.031l.025.02 2.323 1.869.018.015.009.02.673 1.63.778 1.882-.157.083-2.186-3.399.045.035-3.228-1.148.051.003-2.04.523.052-.038c-.12.208-.206.49-.085.669a.47.47 0 0 0 .278.179c.115.033.242.046.374.059l1.512.095h.024l.019.011 1.868 1.088.023.013.011.023 1.64 3.447.155.326-.279-.23-2.886-2.382.039.017-3.738-.451.067-.03c-.104.161-.179.357-.186.543s.083.36.241.463c.149.107.35.157.538.238a14.62 14.62 0 0 1 .551.237 41.29 41.29 0 0 1 2.057 1.02l.013.006.009.013 2.076 2.879-.038-.024 11.416 1.774z" class="H"/><path d="M75.902 149.405l.127-1.192.774-.463s-.327.685-.901 1.655z" class="B"/><path d="M63.073 157.119a31.92 31.92 0 0 1-2.304-.094c-1.969-.142-8.388-1.389-10.711-2.056l-15.644-6.714 32.892 5.181 8.715-5.209a31.26 31.26 0 0 0-.127 1.192c-1.111 1.875-3.151 4.819-5.555 5.954-2.682 1.267-4.587 1.746-7.266 1.746z" fill="#193a42"/><g class="G"><path d="M84.789 103.879s5.885-2.084 5.999 11.106-15.37 35.327-18.007 37.506-5.653 3.646-13.602 2.467c-9.971-1.478-24.288-6.698-24.288-6.698l8.756-8.156 17.778-.803 14.452-29.707s3.98-6.288 8.911-5.715z"/><path d="M49.674 147.675s4.407 2.772 9.384 2.63 9.384 1.466 10.024 1.017.711-1.23 0-1.585-3.725-.783-3.725-.783l-2.602-1.066s8.886.782 9.597.427 1.422-.853 1.138-1.635-.995-.782-.995-.782 1.92.071 1.848-.711-.782-1.493-1.066-1.635-4.012-1.658-4.012-1.658l-4.793-.953 4.604-.184 4.022 1.12s1.605.182 1.248-1.169-5.263-2.844-5.263-2.844l-6.256-.43s4.834-.707 5.332-2.2-.355-2.346-.355-2.346-3.413 1.35-5.048 1.635-3.626.924-6.256 1.991-4.17 1.919-4.17 1.919"/></g><g class="H"><path d="M52.328 138.431s.083-.054.252-.145l.757-.392 2.988-1.351 4.893-1.732 1.535-.347c.526-.098 1.062-.252 1.609-.42l3.416-1.219.043-.017.027.032c.44.5.606 1.208.502 1.885l-.049.253-.071.249a1.28 1.28 0 0 1-.278.46c-.248.259-.552.451-.868.613-.637.321-1.329.547-2.041.74a21.82 21.82 0 0 1-2.207.467l-.005-.152 6.256.425.01.001.009.003c1.257.402 2.527.863 3.75 1.507a7.08 7.08 0 0 1 .885.555c.14.108.277.222.398.358s.235.286.288.477c.039.179.075.364.037.557a.74.74 0 0 1-.297.493c-.327.225-.711.253-1.079.229h-.005l-.008-.002-4.022-1.119.027.003-4.604.185.014-.176 3.425.681 1.367.272.009.002.008.003 3.997 1.652c.343.189.571.476.779.774.195.308.358.641.352 1.04-.018.221-.197.377-.359.458-.168.089-.344.135-.519.169-.352.07-.702.086-1.055.081l.003-.175c.326.018.62.169.827.407a1.28 1.28 0 0 1 .317.855c-.017.323-.209.601-.431.794-.222.2-.475.348-.73.481-.057.032-.137.068-.218.085l-.22.031-.429.024h-.846l-1.665-.062-6.353-.458.037-.153 2.601 1.069-.018-.005 2.798.502.672.183c.22.07.448.176.612.36s.239.444.198.684-.169.452-.335.612c-.041.041-.084.08-.131.114a.51.51 0 0 1-.16.094c-.12.041-.233.039-.346.044-.224-.002-.44-.029-.654-.059l-1.254-.217-2.39-.428c-1.548-.249-3.011-.392-4.367-.414a29.9 29.9 0 0 0-.996.004l-.959-.014-.912-.073-.862-.121c-2.233-.387-3.885-1.092-4.98-1.592l-1.226-.634-.403-.249.105.057.309.17 1.234.613c1.099.486 2.752 1.174 4.975 1.546l.858.115.906.069.952.008 1-.008c1.362.016 2.832.154 4.385.398l2.395.422 1.248.212.635.055c.103-.004.212-.005.3-.037a.8.8 0 0 0 .237-.175c.151-.144.258-.333.294-.534a.69.69 0 0 0-.166-.566c-.141-.155-.337-.25-.55-.317a7.29 7.29 0 0 0-.659-.177l-2.787-.495-.01-.001-.009-.004-2.603-1.063-.482-.197.519.044 6.347.447 1.66.06h.838l.416-.024a1.78 1.78 0 0 0 .2-.028.59.59 0 0 0 .176-.07c.247-.13.491-.272.693-.456s.36-.416.373-.675-.105-.53-.275-.732a1.01 1.01 0 0 0-.695-.346l.003-.175a4.86 4.86 0 0 0 1.014-.078c.165-.032.33-.077.472-.152s.257-.183.266-.321c.007-.306-.141-.646-.324-.925-.189-.277-.427-.56-.71-.713l-3.985-1.645.016.005-1.367-.272-3.426-.681-.736-.147.75-.03 4.604-.183h.014l.013.003 4.022 1.122-.013-.002c.33.024.698-.013.956-.196.266-.185.285-.552.198-.867-.092-.299-.361-.541-.623-.744-.271-.204-.564-.38-.862-.542-1.203-.636-2.472-1.099-3.717-1.5l.018.004-6.256-.437-.675-.046.669-.105c.75-.117 1.484-.272 2.191-.458s1.392-.412 2.014-.725c.309-.156.602-.342.831-.581a1.13 1.13 0 0 0 .249-.408l.069-.238.047-.241c.104-.641-.062-1.319-.459-1.773l.07.014-3.43 1.21-1.624.418-1.527.337c-1.949.527-3.572 1.174-4.892 1.699l-2.999 1.318-.765.375-.261.128z"/><path d="M63.026 144.528c.001.04.572.058 1.493.114l3.578.373 3.528.704 1.46.333c.011-.032-.521-.248-1.41-.516s-2.136-.573-3.538-.786-2.684-.29-3.611-.297-1.5.041-1.5.075z"/></g><path d="M31.819 118.96l-.45 2.122-.13.786c.018.004.099-.268.231-.763l.533-2.101 1.661-6.959 2.097-9.425.017-.093-.075.053-.368.28c.007.012.137-.056.409-.216l-.057-.041-2.284 9.381" class="D"/><path d="M68.669 119.952l19.858 8.851s7.71-23.793-3.649-27.627l-5.695 1.331-10.514 17.445z" class="F"/><path d="M49.733 147.679c.002.049-6.095.314-13.616.592l-13.624.413c-.002-.049 6.094-.314 13.617-.591l13.623-.414zm-24.432-13.51c.003.033-.391.069-1.004.22-.609.159-1.443.45-2.245.98-.808.52-1.41 1.171-1.754 1.695-.35.524-.473.902-.505.89-.012-.004.013-.099.069-.27a3.6 3.6 0 0 1 .33-.688c.324-.556.932-1.243 1.763-1.776.824-.544 1.688-.824 2.314-.954l.754-.099c.179-.01.278-.01.279.002z" class="H"/><path d="M72.117 117.151c.006.002-.014.067-.058.187l-.199.52-.782 1.895-2.843 6.137-3.116 6.003-.99 1.795-.279.483-.108.162c-.006-.003.021-.064.076-.179l.249-.499.94-1.82 3.067-6.024 2.887-6.108.834-1.872.23-.508.091-.172z" class="D"/><g class="F"><path d="M124.127 141.995s-8.487-9.768-11.689-19.536-1.681-8.647-1.681-8.647 4.323 9.489 7.605 14.072 9.128 11.309 9.128 11.309l-3.363 2.802z"/><path d="M125.788 115.338c-.274-.477-1.003-.229-.921.315.517 3.431 1.636 11.483 1.592 16.705l.002 9.406h3.533s-.628-14.024-1.426-18.3c-.559-2.998-1.747-6.326-2.78-8.126z"/><path d="M127.722 140.602s2.223-4.675 2.907-10.547c.291-2.497-.228-5.872-1-10.375-.374-2.182-.459-3.842-.447-4.993.01-.87 1.157-1.154 1.583-.395s1.66 3.359 1.973 4.989c.855 4.446 1.825 6.669 1.083 10.888s-3.477 10.717-3.477 10.717l-2.622-.284zm3.179.287s9.318-20.025 9.964-22.996 2.841-9.817 3.1-9.429.645 4.004-1.034 8.137-8.849 24.898-8.849 24.898h-3.181v-.61z"/></g><path d="M126.69 139.983a1.99 1.99 0 0 1-.261-.18l-.722-.551c-.62-.487-1.49-1.229-2.504-2.211-2.035-1.953-4.566-4.965-6.761-8.676s-3.678-7.34-4.614-9.996c-.468-1.33-.811-2.419-1.032-3.176-.114-.377-.193-.672-.248-.872s-.078-.307-.072-.309.044.1.111.297l.283.862c.244.748.606 1.829 1.09 3.15.969 2.639 2.464 6.247 4.654 9.942s4.686 6.706 6.688 8.678c.997.991 1.85 1.746 2.454 2.251.297.258.54.444.697.579s.241.206.237.212zm1.039-9.599c-.014.001-.043-.208-.083-.587l-.172-1.606-.707-5.275-.982-5.232-.34-1.578-.105-.584c.013-.004.077.198.18.565l.402 1.566 1.042 5.231.65 5.294.109 1.613.006.593zm2.136-16.253c.007-.002.044.085.11.255l.28.743.4 1.193.453 1.603.231.942.204 1.031c.153.71.247 1.481.36 2.291.182 1.623.281 3.42.222 5.306-.076 1.886-.303 3.673-.601 5.279l-.523 2.26-.278 1.013-.298.923c-.178.591-.395 1.107-.567 1.567l-.484 1.16-.331.722-.128.246c-.007-.003.025-.093.091-.263l.297-.735.451-1.17.537-1.571.284-.922.267-1.012c.194-.697.336-1.456.501-2.252.287-1.6.508-3.377.584-5.252a38.75 38.75 0 0 0-.207-5.278l-.339-2.283-.193-1.028-.217-.94c-.126-.603-.295-1.134-.423-1.605l-.367-1.2-.243-.755-.073-.268zm13.98-5.246c.004.001.001.031-.007.09l-.041.26-.184.997a39.96 39.96 0 0 1-.946 3.605l-1.856 5.206-2.452 6.299-2.095 6.424-1.727 5.25c-.547 1.476-1.074 2.639-1.472 3.425l-.472.896-.131.228c-.03.052-.047.077-.051.075a.36.36 0 0 1 .033-.084l.113-.238.439-.911c.375-.794.88-1.961 1.409-3.439l1.683-5.255 2.084-6.439 2.469-6.298 1.892-5.181 1.004-3.58.22-.987.061-.257.027-.086z" class="D"/><path d="M115.092 104.468c-.587-.584-1.563.027-1.32.818.246.802.619 1.84 1.17 3.01 1.281 2.722 5.044 12.491 6.806 17.855s4.243 15.372 4.243 15.372l3.762-.61s-3.442-16.444-6.804-22.368c-2.702-4.761-5.404-11.64-7.857-14.077z" class="F"/><path d="M122.796 129.47c.013-.004.082.157.194.451l.434 1.263 1.197 4.237 1.028 4.279.283 1.303.078.485c-.013.003-.067-.163-.153-.466l-.344-1.289-1.085-4.263-1.139-4.245-.372-1.279-.121-.476zm5.128 11.738c-.004 0-.011-.034-.022-.1l-.042-.297-.154-1.139-.789-4.148c-.401-1.738-.987-3.782-1.761-6.009l-2.835-7.129c-2.213-4.978-4.424-9.394-5.876-12.658-.735-1.629-1.303-2.959-1.677-3.885-.191-.461-.328-.825-.423-1.07l-.105-.28c-.022-.064-.032-.097-.029-.098s.02.029.048.09l.123.273.457 1.055c.396.917.984 2.236 1.734 3.856l5.93 12.637c1.098 2.496 2.063 4.911 2.827 7.149s1.339 4.291 1.724 6.037.614 3.177.729 4.17c.067.495.09.884.117 1.146l.023.298c.004.067.004.102.001.102zm1.851-.304c-.014.002-.059-.224-.127-.632l-.293-1.73-1.224-5.649-1.686-5.529-.588-1.652-.2-.613c.012-.005.109.204.272.584l.648 1.633a54.94 54.94 0 0 1 1.747 5.527 57.67 57.67 0 0 1 1.17 5.677l.231 1.741.05.643z" class="D"/><path d="M137.476 140.359h-14.682v17.888h14.682v-17.888z" class="C"/><path d="M137.476 140.359h-14.682v17.888h14.682v-17.888z" class="B"/><path d="M132.799 140.359h-13.025v17.888h13.025v-17.888z" class="C"/></svg>