<svg width="144" height="74" viewBox="0 0 144 74" fill="none" xmlns="http://www.w3.org/2000/svg">
<rect x="0.5" y="0.5" width="143" height="73" rx="7.5" fill="white"/>
<g clip-path="url(#clip0_3261_3706)">
<path opacity="0.05" d="M36.9378 43.161C42.1925 40.4702 43.9 34.8147 44.2233 29.6312C44.2802 28.7648 44.4783 27.8638 44.0981 27.0711C43.7179 26.2783 42.7047 25.6715 41.8054 25.9637C41.061 26.2068 40.6671 26.926 40.2117 27.5103C39.5944 28.2886 38.7443 28.8942 37.7597 29.2573C37.12 29.4902 36.3436 29.6025 35.7699 29.2573C34.9844 28.7771 34.9913 27.7412 35.0869 26.8851C35.2629 25.2847 35.4375 23.6862 35.6105 22.0898C35.7039 21.2337 35.7949 20.3572 35.5809 19.5175C35.3669 18.6777 34.7864 17.8686 33.9007 17.5662C33.0151 17.2639 31.8517 17.6398 31.5648 18.4652C31.4487 18.8064 31.492 19.1763 31.4282 19.5297C31.3645 19.8832 31.1413 20.2632 30.7452 20.3307C30.3491 20.3981 29.9939 20.1263 29.7343 19.8505C28.8373 18.9045 28.2818 17.7338 27.7695 16.5712C27.2573 15.4087 26.7655 14.2257 25.9664 13.2061C25.1673 12.1866 24.0039 11.3366 22.6424 11.163C21.2809 10.9893 19.7442 11.6206 19.2752 12.7975C18.8062 13.9744 19.4664 15.2697 20.2223 16.3199C21.3428 17.8769 22.7086 19.2801 24.2771 20.4859C24.5594 20.7025 24.8645 20.9375 24.9464 21.2644C25.0967 21.8528 24.4342 22.3718 23.7853 22.5066C23.0522 22.6619 22.285 22.5311 21.5314 22.5495C20.7778 22.5679 19.9377 22.7947 19.5939 23.4036C19.1135 24.2494 19.8352 25.2424 20.5797 25.9044C22.0674 27.242 23.8001 28.3402 25.7023 29.151C26.3853 29.4391 27.1025 29.7027 27.6238 30.193C28.1452 30.6834 28.4093 31.4823 28.004 32.0584C27.5988 32.6346 26.7018 32.7572 25.9778 32.5733C25.2538 32.3894 24.63 31.9767 23.9515 31.6825C22.6834 31.1288 20.9918 31.0695 20.0333 32.0196C19.4118 32.6448 19.2683 33.5724 19.4664 34.3938C19.6645 35.2151 20.1608 35.9507 20.7004 36.6413C22.5787 39.0318 25.0921 41.0382 28.0428 42.2375C30.9934 43.4368 33.7914 43.9252 36.9219 43.1794" fill="black"/>
<path d="M36.6213 47.0004C36.5984 44.5818 36.317 42.1707 35.7812 39.8003C35.113 36.9065 34.2601 34.0495 33.2267 31.2435C32.9566 30.4971 32.6902 29.7602 32.4276 29.0328C32.1635 28.3075 31.9017 27.5883 31.5989 26.8977C31.0143 25.5753 30.3493 24.2828 29.6068 23.0259C28.9033 21.8225 28.1861 20.7028 27.5076 19.6608C26.8292 18.6188 26.1735 17.6585 25.5337 16.8004C24.5342 15.4513 23.4166 14.1757 22.1915 12.9858C21.759 12.5649 21.4106 12.2482 21.1716 12.0357C21.0577 11.9335 20.9667 11.8559 20.8984 11.7966C20.8692 11.7682 20.8371 11.7422 20.8027 11.719C20.8274 11.7508 20.8557 11.7802 20.887 11.8069L21.1465 12.0582C21.3742 12.2768 21.7157 12.5996 22.1414 13.0266C23.343 14.2304 24.4426 15.513 25.4313 16.8637C26.0619 17.7177 26.7085 18.6801 27.3824 19.7241C28.0563 20.7682 28.7644 21.8899 29.4633 23.0913C30.1955 24.3471 30.8514 25.6375 31.4281 26.9569C31.7309 27.6414 31.9882 28.3565 32.2523 29.0839C32.5164 29.8112 32.7805 30.5468 33.0491 31.2946C34.0812 34.094 34.937 36.9433 35.6127 39.8289C36.1548 42.1894 36.4476 44.5906 36.487 47.0004" fill="#656BE8" fill-opacity="0.2"/>
<path d="M31.5488 26.8872C31.6064 26.7726 31.6499 26.6527 31.6786 26.5296C31.7537 26.2967 31.8494 25.9555 31.9609 25.5346C32.1886 24.6908 32.4458 23.518 32.7304 22.2226C33.015 20.9273 33.2951 19.7606 33.5296 18.9229C33.6479 18.5041 33.7572 18.1649 33.8164 17.932C33.8623 17.8129 33.8928 17.6895 33.9075 17.5642C33.8412 17.6752 33.7886 17.7924 33.7504 17.9136C33.6593 18.1424 33.5432 18.4755 33.4112 18.8923C33.1425 19.7259 32.842 20.8946 32.5574 22.192C32.2728 23.4894 32.0292 24.6274 31.838 25.5101C31.7492 25.9085 31.674 26.2456 31.6103 26.5153C31.575 26.637 31.5544 26.7616 31.5488 26.8872Z" fill="#656BE8" fill-opacity="0.2"/>
<path d="M19.4688 23.8165C19.627 23.8603 19.7893 23.8911 19.9537 23.9085C20.2656 23.9595 20.7187 24.0311 21.2765 24.1373C22.3898 24.3416 23.9197 24.6644 25.5885 25.0915C27.2574 25.5185 28.7486 25.968 29.8164 26.3174C30.3537 26.489 30.7817 26.6381 31.08 26.7403C31.2306 26.8023 31.3877 26.8509 31.549 26.8854C31.4092 26.8049 31.2613 26.7365 31.1073 26.681C30.8159 26.5605 30.3924 26.395 29.8619 26.2091C28.801 25.829 27.3097 25.3652 25.6363 24.9341C24.2129 24.5633 22.769 24.2585 21.3106 24.0208C20.7483 23.9309 20.2906 23.8758 19.9742 23.8431C19.8072 23.8184 19.6378 23.8095 19.4688 23.8165Z" fill="#656BE8" fill-opacity="0.2"/>
<path d="M35.6514 39.5853C35.69 39.5463 35.7229 39.5031 35.7493 39.4566L35.9997 39.0745C36.2274 38.7435 36.5142 38.2573 36.8762 37.6443C37.598 36.4307 38.536 34.7246 39.5423 32.8286C40.5486 30.9325 41.4706 29.2203 42.1627 27.9944L42.9892 26.5438L43.2169 26.1474C43.2461 26.1024 43.269 26.0544 43.2852 26.0044C43.2459 26.0422 43.2129 26.0848 43.1873 26.1311L42.9346 26.5131C42.7069 26.8462 42.42 27.3304 42.0603 27.9434C41.3386 29.159 40.3983 30.8651 39.392 32.7611C38.3857 34.6572 37.4636 36.3673 36.7715 37.5953C36.4323 38.1898 36.1545 38.6802 35.9473 39.0459C35.8585 39.2032 35.7857 39.334 35.7197 39.4403C35.69 39.4858 35.6671 39.5345 35.6514 39.5853Z" fill="#656BE8" fill-opacity="0.2"/>
<path d="M19.8008 33.5173C19.8483 33.5483 19.9004 33.5731 19.9556 33.5909L20.4109 33.7727L22.1094 34.4245C23.5414 34.9762 25.5108 35.7587 27.685 36.625C29.8593 37.4913 31.84 38.2595 33.2857 38.7826C34.0097 39.0441 34.5971 39.2525 35.0046 39.3955L35.4782 39.5488C35.532 39.5702 35.5886 39.5853 35.6467 39.5937C35.5985 39.5625 35.5456 39.5377 35.4896 39.5201L35.0342 39.3383L33.3381 38.6865C31.906 38.1349 29.9367 37.3523 27.7601 36.486C25.5836 35.6197 23.6074 34.8515 22.1617 34.3285C21.4377 34.0669 20.8503 33.8585 20.4428 33.7155L19.9693 33.5623C19.9155 33.5409 19.8589 33.5257 19.8008 33.5173Z" fill="#656BE8" fill-opacity="0.2"/>
<path opacity="0.05" d="M131.593 1.58346C131.593 1.58346 129.263 0.898986 128.321 6.23525C127.379 11.5715 127.303 14.511 127.303 14.511C127.303 14.511 126.977 15.6695 126.117 15.2398C125.257 14.81 123.791 13.2949 122.755 13.9661C121.685 14.6594 121.698 16.086 122.513 17.9378C123.329 19.7897 124.957 23.9187 125.11 24.2908C125.264 24.663 125.208 25.2766 124.575 25.0794C123.942 24.8823 119.91 22.4567 118.863 24.4348C117.817 26.4129 120.945 31.2065 121.276 31.7448C121.607 32.283 121.569 32.5577 121.338 32.7837C121.107 33.0096 119.827 32.0682 118.65 31.4258C117.472 30.7834 115.995 30.2451 115.491 31.4369C114.986 32.6286 115.935 36.6469 121.671 41.8989L124.484 44.154L127.89 42.9046C135.014 39.7857 137.22 36.2947 137.136 35.0032C137.052 33.7118 135.474 33.745 134.15 33.9732C132.826 34.2014 131.311 34.6798 131.167 34.3896C131.022 34.0995 131.078 33.8226 131.562 33.4283C132.046 33.034 136.558 29.5075 136.227 27.299C135.896 25.0905 131.28 26.0807 130.616 26.0629C129.951 26.0452 130.109 25.4449 130.365 25.1459C130.62 24.8468 133.513 21.4643 134.886 19.9735C136.258 18.4827 136.736 17.1382 135.947 16.1369C135.185 15.1689 133.308 16.1369 132.353 16.2565C131.398 16.3761 131.464 15.1822 131.464 15.1822C131.464 15.1822 132.353 12.38 133.193 7.02384C134.032 1.66764 131.549 1.57239 131.549 1.57239" fill="black"/>
<path d="M130.73 6.36377C130.729 6.40237 130.725 6.44084 130.719 6.47895L130.672 6.80901C130.63 7.10362 130.566 7.53115 130.484 8.07607C130.319 9.18364 130.068 10.7697 129.75 12.7279C129.115 16.6597 128.195 22.0824 127.151 28.0677C126.107 34.053 125.176 39.4778 124.519 43.4053C124.194 45.3657 123.93 46.9495 123.745 48.0571L123.534 49.3219C123.51 49.4615 123.49 49.57 123.477 49.6497C123.463 49.7295 123.452 49.7605 123.452 49.7605C123.452 49.7605 123.452 49.7228 123.452 49.6475L123.499 49.3175C123.543 49.0207 123.605 48.5953 123.688 48.0482C123.854 46.9406 124.105 45.3568 124.423 43.3964C125.056 39.4646 125.978 34.0397 127.02 28.0522C128.062 22.0647 128.997 16.6464 129.653 12.719C129.979 10.7586 130.244 9.17477 130.426 8.06721L130.637 6.80237C130.664 6.66281 130.681 6.55206 130.697 6.47453C130.712 6.397 130.73 6.36377 130.73 6.36377Z" fill="#656BE8" fill-opacity="0.5"/>
<path d="M124.706 16.1724C124.768 16.2341 124.821 16.3033 124.866 16.3784C124.964 16.5135 125.088 16.7173 125.261 16.9676C125.588 17.4704 126.021 18.1748 126.483 18.9612L127.659 20.9814L128.019 21.5928C128.067 21.662 128.108 21.7363 128.141 21.8143C128.079 21.7529 128.024 21.6845 127.979 21.6105C127.881 21.4732 127.756 21.2716 127.585 21.0191C127.263 20.5118 126.841 19.8008 126.379 19.0144L125.188 17.0008L124.826 16.3917C124.778 16.3235 124.737 16.2499 124.706 16.1724Z" fill="#656BE8" fill-opacity="0.5"/>
<path d="M128.483 21.7901C128.465 21.7613 129.884 20.8088 131.653 19.6591C133.421 18.5095 134.872 17.6013 134.89 17.6301C134.908 17.6589 133.49 18.6136 131.72 19.761C129.949 20.9085 128.498 21.8189 128.483 21.7901Z" fill="#656BE8" fill-opacity="0.5"/>
<path d="M126.466 30.9117C126.546 30.8716 126.63 30.8411 126.717 30.8209L127.41 30.6104C127.997 30.431 128.803 30.1829 129.685 29.875C130.567 29.5671 131.356 29.268 131.924 29.0443L132.591 28.7807C132.671 28.7419 132.756 28.7136 132.844 28.6965C132.772 28.748 132.693 28.7904 132.611 28.8228C132.455 28.8981 132.231 29.0022 131.944 29.1241C131.382 29.3677 130.596 29.6845 129.712 29.9902C128.827 30.2959 128.014 30.5351 127.421 30.6924C127.126 30.7699 126.883 30.8297 126.717 30.8674C126.635 30.8914 126.551 30.9063 126.466 30.9117Z" fill="#656BE8" fill-opacity="0.5"/>
<path d="M121.933 26.5791C122.005 26.6198 122.072 26.6705 122.13 26.7297C122.25 26.8316 122.421 26.9823 122.632 27.1728C123.052 27.5515 123.63 28.0787 124.261 28.6658C124.892 29.2528 125.458 29.7911 125.863 30.1853C126.067 30.3803 126.229 30.542 126.34 30.655C126.402 30.7088 126.457 30.7707 126.503 30.8388C126.431 30.7981 126.365 30.7482 126.307 30.6904C126.187 30.5863 126.014 30.4357 125.805 30.2474C125.383 29.8708 124.807 29.3436 124.176 28.7544C123.546 28.1651 122.979 27.6291 122.572 27.237C122.37 27.0399 122.208 26.8781 122.097 26.7652C122.035 26.7099 121.98 26.6475 121.933 26.5791Z" fill="#656BE8" fill-opacity="0.5"/>
<path d="M119.131 34.4072C119.22 34.4644 119.303 34.5297 119.38 34.6022L120.026 35.167C120.568 35.6477 121.31 36.3167 122.126 37.0632C122.941 37.8097 123.681 38.4897 124.203 38.9859L124.823 39.5796C124.904 39.6461 124.978 39.7203 125.045 39.8011C124.956 39.7455 124.874 39.6809 124.798 39.6084L124.152 39.0435C123.61 38.5628 122.865 37.8916 122.05 37.1451C121.235 36.3986 120.495 35.7208 119.973 35.2224L119.353 34.631C119.271 34.5648 119.196 34.4898 119.131 34.4072Z" fill="#656BE8" fill-opacity="0.5"/>
<path d="M124.928 39.6306C125.029 39.5813 125.135 39.5405 125.243 39.5087L126.114 39.2097C126.847 38.9572 127.86 38.605 128.967 38.1863C130.073 37.7676 131.068 37.3645 131.786 37.0787L132.637 36.7265C132.739 36.6781 132.845 36.6396 132.954 36.6113C132.86 36.6738 132.759 36.7272 132.655 36.7708C132.459 36.8661 132.175 36.9923 131.819 37.1563C131.111 37.4752 130.122 37.8917 129.011 38.3103C127.9 38.729 126.883 39.0701 126.141 39.3027C125.77 39.4179 125.474 39.5065 125.252 39.5641C125.146 39.5968 125.038 39.619 124.928 39.6306Z" fill="#656BE8" fill-opacity="0.5"/>
<path d="M126.996 43.5137C127.09 43.1997 127.204 42.892 127.336 42.5922C127.43 42.278 127.543 41.9695 127.674 41.6685C127.657 41.9995 127.582 42.3249 127.452 42.6298C127.352 42.9485 127.198 43.2476 126.996 43.5137Z" fill="#FAFAFA"/>
<path opacity="0.05" d="M95.3065 20.6228C95.3065 20.6228 96.546 19.7115 98.2604 22.6848C99.9748 25.6581 100.655 27.3919 100.655 27.3919C100.655 27.3919 101.1 28.011 101.519 27.5693C101.938 27.1276 102.483 25.9085 103.245 26.0843C104.032 26.2656 104.333 27.1178 104.248 28.3966C104.163 29.6753 104.086 32.4856 104.075 32.7403C104.064 32.995 104.23 33.3483 104.564 33.0941C104.898 32.8398 106.775 30.524 107.825 31.4755C108.876 32.427 108.05 35.9571 107.969 36.3491C107.888 36.7411 107.97 36.8965 108.157 36.9811C108.343 37.0657 108.901 36.2285 109.464 35.5915C110.026 34.9545 110.789 34.3147 111.347 34.9152C111.905 35.5157 112.209 38.113 109.929 42.48L108.742 44.4305L106.444 44.423C101.528 44.1063 99.46 42.5048 99.2311 41.7177C99.0022 40.9306 99.9484 40.6094 100.786 40.459C101.624 40.3086 102.629 40.2659 102.652 40.0619C102.676 39.8579 102.583 39.7051 102.209 39.575C101.836 39.445 98.3869 38.3209 98.1066 36.9345C97.8262 35.5481 100.789 35.1396 101.18 34.9855C101.572 34.8313 101.348 34.508 101.132 34.3852C100.915 34.2624 98.4615 32.8739 97.3218 32.2832C96.1822 31.6924 95.6071 30.9952 95.8602 30.2286C96.1046 29.4875 97.4315 29.658 98.0261 29.5227C98.6208 29.3874 98.323 28.691 98.323 28.691C98.323 28.691 97.1881 27.2148 95.5303 24.2075C93.8724 21.2002 95.3306 20.6066 95.3306 20.6066" fill="black"/>
<path d="M96.8535 23.2821C96.8625 23.3048 96.8731 23.3269 96.885 23.3483L96.9841 23.5347C97.0729 23.701 97.2037 23.9416 97.3705 24.2482C97.7078 24.8721 98.2001 25.7621 98.8125 26.8592C100.041 29.0627 101.761 32.0923 103.676 35.4299C105.592 38.7676 107.319 41.7961 108.559 43.9922C109.176 45.0892 109.676 45.975 110.025 46.5945L110.424 47.3019C110.469 47.3797 110.504 47.44 110.529 47.4846C110.555 47.5292 110.568 47.5453 110.568 47.5453C110.568 47.5453 110.56 47.5228 110.544 47.478L110.444 47.2916C110.354 47.1245 110.225 46.8847 110.058 46.5767C109.719 45.9534 109.227 45.0647 108.614 43.9662C107.387 41.7623 105.666 38.7318 103.751 35.3924C101.836 32.0529 100.108 29.0293 98.8688 26.8328C98.2506 25.7363 97.7508 24.8505 97.4029 24.2305L97.0038 23.523C96.9578 23.4457 96.9233 23.3836 96.8973 23.3408C96.8712 23.298 96.8535 23.2821 96.8535 23.2821Z" fill="#656BE8" fill-opacity="0.5"/>
<path d="M102.562 27.8193C102.538 27.8694 102.521 27.9223 102.511 27.9766C102.482 28.0781 102.452 28.2264 102.403 28.4128C102.317 28.7828 102.211 29.2958 102.106 29.8639L101.843 31.3207L101.761 31.7625C101.747 31.8142 101.739 31.8673 101.736 31.9208C101.76 31.8709 101.777 31.8184 101.789 31.7644C101.817 31.6615 101.848 31.5146 101.895 31.3273C101.977 30.9556 102.075 30.4411 102.18 29.873L102.454 28.4168L102.538 27.9758C102.552 27.9248 102.56 27.8722 102.562 27.8193Z" fill="#656BE8" fill-opacity="0.5"/>
<path d="M101.527 31.9803C101.532 31.9593 100.481 31.6991 99.1792 31.397C97.8778 31.0948 96.8178 30.8677 96.8134 30.8887C96.8091 30.9097 97.8593 31.1717 99.1615 31.472C100.464 31.7724 101.524 32.0008 101.527 31.9803Z" fill="#656BE8" fill-opacity="0.5"/>
<path d="M104.7 36.9751C104.643 36.9684 104.587 36.9685 104.53 36.9752L104.072 36.9998C103.684 37.0198 103.151 37.0464 102.559 37.0538C101.967 37.0611 101.433 37.0536 101.046 37.0433L100.592 37.0305C100.536 37.0248 100.479 37.0263 100.423 37.0351C100.477 37.0501 100.533 37.0584 100.59 37.0598C100.698 37.0711 100.854 37.0845 101.051 37.0951C101.439 37.1187 101.975 37.1373 102.568 37.1281C103.16 37.1189 103.696 37.0856 104.083 37.051C104.276 37.0333 104.433 37.0165 104.541 37.0029C104.594 36.9996 104.648 36.9902 104.7 36.9751Z" fill="#656BE8" fill-opacity="0.5"/>
<path d="M106.461 33.4155C106.426 33.4555 106.398 33.5001 106.376 33.5479C106.326 33.6345 106.257 33.7612 106.173 33.9202C106.005 34.2365 105.775 34.6753 105.526 35.1612C105.277 35.647 105.056 36.09 104.901 36.4121C104.821 36.5724 104.76 36.7037 104.718 36.795C104.693 36.8404 104.674 36.889 104.661 36.9395C104.695 36.8998 104.723 36.8559 104.745 36.8089C104.794 36.7209 104.865 36.5938 104.949 36.4366C105.118 36.1211 105.347 35.6829 105.595 35.1957C105.844 34.7085 106.065 34.2668 106.222 33.9455C106.3 33.7845 106.362 33.6531 106.403 33.5618C106.428 33.5155 106.448 33.4664 106.461 33.4155Z" fill="#656BE8" fill-opacity="0.5"/>
<path d="M109.821 37.4707C109.781 37.5239 109.745 37.5808 109.715 37.6405L109.453 38.1166C109.234 38.52 108.937 39.0786 108.612 39.6993C108.288 40.32 107.995 40.8848 107.791 41.2931L107.551 41.7805C107.517 41.8377 107.489 41.8979 107.466 41.9604C107.507 41.9082 107.542 41.8519 107.572 41.7924L107.834 41.3164C108.053 40.913 108.351 40.3525 108.675 39.7318C108.999 39.1111 109.293 38.5476 109.496 38.138L109.737 37.6519C109.772 37.5948 109.8 37.534 109.821 37.4707Z" fill="#656BE8" fill-opacity="0.5"/>
<path d="M107.5 41.8334C107.429 41.826 107.358 41.8246 107.286 41.8291L106.703 41.8393C106.212 41.8475 105.533 41.8568 104.784 41.8467C104.034 41.8366 103.355 41.8117 102.866 41.7967L102.283 41.771C102.212 41.7642 102.14 41.7643 102.069 41.7711C102.139 41.7878 102.21 41.7979 102.282 41.8012C102.419 41.8157 102.615 41.8294 102.863 41.8501C103.353 41.8868 104.032 41.921 104.784 41.9301C105.536 41.9393 106.215 41.9224 106.707 41.9005C106.953 41.8888 107.148 41.8777 107.293 41.864C107.363 41.8606 107.432 41.8503 107.5 41.8334Z" fill="#656BE8" fill-opacity="0.5"/>
<path d="M107.108 44.5924C106.984 44.4259 106.85 44.2672 106.706 44.1173C106.582 43.9507 106.448 43.7914 106.306 43.6404C106.387 43.8338 106.502 44.0113 106.646 44.1647C106.774 44.333 106.93 44.4777 107.108 44.5924Z" fill="#FAFAFA"/>
<path opacity="0.05" d="M12.223 6.70181C12.223 12.1422 7.81263 16.5525 2.37222 16.5525C-3.06819 16.5525 -7.47852 12.1422 -7.47852 6.70181C-7.47852 1.2614 -3.06819 -3.14893 2.37222 -3.14893C7.81263 -3.14893 12.223 1.2614 12.223 6.70181ZM-4.63261 6.70181C-4.63261 10.5705 -1.49644 13.7066 2.37222 13.7066C6.24088 13.7066 9.37705 10.5705 9.37705 6.70181C9.37705 2.83315 6.24088 -0.303021 2.37222 -0.303021C-1.49644 -0.303021 -4.63261 2.83315 -4.63261 6.70181Z" fill="black"/>
</g>
<rect x="0.5" y="0.5" width="143" height="73" rx="7.5" stroke="#AEAEAE"/>
<defs>
<clipPath id="clip0_3261_3706">
<rect width="144" height="51" fill="white"/>
</clipPath>
</defs>
</svg>
