<svg width="531" height="102" viewBox="0 0 531 102" fill="none" xmlns="http://www.w3.org/2000/svg">
<circle opacity="0.1" cx="475.5" cy="25.5" r="4.5" fill="#656BE8"/>
<path opacity="0.05" d="M71.1794 86.0236C81.8479 80.5603 85.3147 69.0779 85.9711 58.5538C86.0866 56.7949 86.4888 54.9656 85.7169 53.356C84.9449 51.7465 82.8879 50.5145 81.0621 51.1077C79.5506 51.6013 78.7509 53.0615 77.8264 54.2479C76.573 55.828 74.8471 57.0576 72.8481 57.7947C71.5492 58.2676 69.9729 58.4957 68.8081 57.7947C67.2134 56.8198 67.2272 54.7167 67.4214 52.9785C67.7788 49.7291 68.1332 46.4838 68.4845 43.2426C68.674 41.5045 68.8589 39.7249 68.4244 38.0199C67.9899 36.315 66.8112 34.6723 65.0131 34.0584C63.215 33.4444 60.8529 34.2077 60.2705 35.8836C60.0348 36.5763 60.1226 37.3272 59.9932 38.0448C59.8637 38.7625 59.4107 39.5341 58.6064 39.6709C57.8021 39.8078 57.081 39.2561 56.5541 38.6961C54.7329 36.7755 53.605 34.3985 52.5649 32.0382C51.5249 29.6778 50.5265 27.276 48.904 25.206C47.2815 23.136 44.9195 21.4103 42.1553 21.0577C39.3911 20.7051 36.271 21.9869 35.3187 24.3763C34.3665 26.7657 35.707 29.3957 37.2417 31.5279C39.5167 34.6891 42.2896 37.538 45.4742 39.9862C46.0473 40.4259 46.6668 40.903 46.8332 41.5667C47.1382 42.7614 45.7931 43.8151 44.4757 44.0888C42.9873 44.4041 41.4296 44.1386 39.8995 44.176C38.3695 44.2133 36.6639 44.6737 35.9659 45.9099C34.9905 47.6273 36.4559 49.6434 37.9674 50.9874C40.9878 53.7031 44.5058 55.9328 48.3678 57.579C49.7545 58.1639 51.2106 58.699 52.2691 59.6946C53.3276 60.6902 53.8638 62.3121 53.0411 63.4819C52.2183 64.6517 50.397 64.9006 48.9271 64.5273C47.4572 64.1539 46.1906 63.316 44.8132 62.7187C42.2385 61.5945 38.804 61.4742 36.858 63.4031C35.5961 64.6725 35.3049 66.5558 35.707 68.2234C36.1092 69.891 37.1169 71.3844 38.2124 72.7865C42.0259 77.6399 47.129 81.7135 53.1196 84.1485C59.1103 86.5836 64.7912 87.575 71.147 86.0609" fill="black"/>
<path d="M70.5364 93.8181C70.4899 88.9075 69.9187 84.0123 68.8307 79.1996C67.4742 73.3243 65.7426 67.5238 63.6444 61.8268C63.0959 60.3113 62.5551 58.8151 62.0219 57.3383C61.4857 55.8657 60.9542 54.4055 60.3394 53.0034C59.1526 50.3186 57.8023 47.6944 56.2948 45.1425C54.8664 42.6992 53.4104 40.4259 52.0329 38.3103C50.6554 36.1947 49.3242 34.245 48.0253 32.5027C45.9959 29.7637 43.7269 27.1739 41.2396 24.758C40.3613 23.9034 39.6541 23.2604 39.1688 22.829C38.9376 22.6216 38.7527 22.464 38.6141 22.3437C38.5548 22.286 38.4898 22.2332 38.4199 22.186C38.4701 22.2505 38.5274 22.3103 38.591 22.3644L39.1179 22.8746C39.5801 23.3185 40.2735 23.9739 41.1379 24.8409C43.5773 27.2849 45.81 29.8889 47.8173 32.6313C49.0977 34.3653 50.4104 36.3191 51.7787 38.4389C53.1469 40.5587 54.5845 42.836 56.0036 45.2752C57.4901 47.8249 58.8218 50.4449 59.9927 53.1237C60.6075 54.5134 61.1298 55.9653 61.666 57.442C62.2022 58.9188 62.7384 60.4122 63.2839 61.9305C65.3792 67.6141 67.1169 73.399 68.4887 79.2577C69.5894 84.0503 70.1837 88.9253 70.2637 93.8181" fill="#656BE8" fill-opacity="0.2"/>
<path d="M60.2383 52.9825C60.3552 52.7498 60.4436 52.5064 60.5018 52.2565C60.6543 51.7836 60.8484 51.0909 61.0749 50.2363C61.5372 48.5231 62.0595 46.142 62.6373 43.512C63.2151 40.882 63.7837 38.5133 64.2598 36.8126C64.5001 35.9622 64.722 35.2735 64.8422 34.8006C64.9353 34.5589 64.9973 34.3083 65.0271 34.054C64.8926 34.2794 64.7857 34.5172 64.7081 34.7633C64.5232 35.2279 64.2875 35.9041 64.0194 36.7503C63.474 38.4428 62.8638 40.8156 62.286 43.4498C61.7082 46.0839 61.2136 48.3945 60.8253 50.1865C60.6451 50.9954 60.4925 51.6799 60.3631 52.2275C60.2914 52.4744 60.2496 52.7275 60.2383 52.9825Z" fill="#656BE8" fill-opacity="0.2"/>
<path d="M35.7119 46.7479C36.0331 46.8368 36.3627 46.8993 36.6965 46.9346C37.3298 47.0383 38.2496 47.1835 39.3821 47.3992C41.6425 47.814 44.7487 48.4694 48.1369 49.3364C51.5252 50.2034 54.5528 51.116 56.7208 51.8254C57.8116 52.1738 58.6807 52.4767 59.2862 52.6841C59.5921 52.8099 59.9111 52.9085 60.2384 52.9786C59.9547 52.8153 59.6545 52.6764 59.3417 52.5638C58.75 52.319 57.8902 51.983 56.8132 51.6055C54.6592 50.834 51.6315 49.8923 48.234 49.017C45.3439 48.2641 42.4125 47.6452 39.4514 47.1627C38.3097 46.9802 37.3806 46.8682 36.7381 46.8018C36.3991 46.7518 36.0551 46.7337 35.7119 46.7479Z" fill="#656BE8" fill-opacity="0.2"/>
<path d="M68.5674 78.7639C68.6458 78.6847 68.7126 78.5969 68.7661 78.5025L69.2746 77.7268C69.7369 77.0548 70.3193 76.0675 71.0542 74.823C72.5195 72.359 74.424 68.8952 76.4671 65.0456C78.5102 61.196 80.3823 57.7198 81.7875 55.2308L83.4654 52.2856L83.9276 51.4808C83.9869 51.3895 84.0335 51.2919 84.0663 51.1904C83.9866 51.2671 83.9196 51.3537 83.8676 51.4476L83.3545 52.2233C82.8922 52.8995 82.3098 53.8826 81.5795 55.1271C80.1142 57.5953 78.2051 61.0591 76.162 64.9087C74.1189 68.7583 72.2468 72.2304 70.8416 74.7235C70.1529 75.9306 69.5889 76.9262 69.1683 77.6687C68.988 77.9881 68.8401 78.2536 68.7061 78.4693C68.6459 78.5617 68.5993 78.6607 68.5674 78.7639Z" fill="#656BE8" fill-opacity="0.2"/>
<path d="M36.3867 66.4436C36.4831 66.5064 36.5889 66.5567 36.701 66.5929L37.6255 66.9621L41.0738 68.2854C43.9813 69.4054 47.9797 70.9942 52.3941 72.7531C56.8085 74.5119 60.83 76.0717 63.7652 77.1336C65.2352 77.6646 66.4278 78.0877 67.2552 78.3781L68.2166 78.6892C68.3258 78.7327 68.4408 78.7634 68.5587 78.7805C68.461 78.7171 68.3535 78.6668 68.2397 78.6311L67.3153 78.2619L63.8716 76.9387C60.9641 75.8186 56.9657 74.2299 52.5467 72.471C48.1276 70.7121 44.1154 69.1524 41.1802 68.0905C39.7102 67.5595 38.5176 67.1364 37.6902 66.846L36.7288 66.5349C36.6196 66.4914 36.5046 66.4607 36.3867 66.4436Z" fill="#656BE8" fill-opacity="0.2"/>
<path opacity="0.05" d="M499.721 4.00835C499.721 4.00835 494.981 2.61613 493.065 13.4701C491.149 24.324 490.995 30.3029 490.995 30.3029C490.995 30.3029 490.331 32.6593 488.582 31.7852C486.833 30.9111 483.851 27.8293 481.745 29.1945C479.567 30.6047 479.594 33.5063 481.253 37.273C482.911 41.0397 486.223 49.438 486.535 50.195C486.847 50.9519 486.734 52.2 485.446 51.799C484.158 51.398 475.957 46.4644 473.828 50.4878C471.7 54.5113 478.062 64.2614 478.736 65.3562C479.409 66.4511 479.332 67.0098 478.862 67.4693C478.392 67.9289 475.789 66.0141 473.394 64.7074C471 63.4008 467.995 62.306 466.969 64.73C465.943 67.154 467.873 75.3271 479.54 86.0098L485.261 90.5965L492.188 88.0553C506.68 81.7115 511.167 74.6107 510.995 71.9839C510.824 69.3572 507.615 69.4248 504.922 69.8888C502.229 70.3529 499.147 71.3261 498.853 70.7359C498.56 70.1457 498.673 69.5825 499.658 68.7805C500.643 67.9785 509.82 60.8056 509.147 56.3136C508.474 51.8215 499.084 53.8355 497.733 53.7994C496.382 53.7634 496.702 52.5424 497.222 51.9341C497.742 51.3259 503.625 44.4459 506.418 41.4136C509.21 38.3814 510.182 35.6465 508.578 33.61C507.028 31.641 503.209 33.61 501.266 33.8533C499.323 34.0966 499.459 31.6681 499.459 31.6681C499.459 31.6681 501.266 25.9685 502.974 15.074C504.683 4.17956 499.631 3.98582 499.631 3.98582" fill="black"/>
<path d="M497.965 13.7313C497.962 13.8098 497.955 13.8881 497.942 13.9656L497.847 14.6369C497.761 15.2362 497.63 16.1058 497.463 17.2141C497.129 19.4669 496.618 22.6929 495.972 26.6758C494.68 34.6732 492.809 45.7029 490.685 57.8769C488.561 70.051 486.668 81.0851 485.33 89.0735C484.67 93.061 484.133 96.2824 483.758 98.5352L483.328 101.108C483.279 101.392 483.238 101.613 483.211 101.775C483.184 101.937 483.161 102 483.161 102C483.161 102 483.161 101.923 483.161 101.77L483.256 101.099C483.346 100.495 483.473 99.6301 483.64 98.5172C483.979 96.2644 484.49 93.0429 485.136 89.0555C486.424 81.0581 488.299 70.0239 490.418 57.8454C492.538 45.6668 494.44 34.6462 495.773 26.6578C496.437 22.6704 496.975 19.4489 497.346 17.1961L497.775 14.6234C497.829 14.3396 497.865 14.1143 497.897 13.9566C497.929 13.7989 497.965 13.7313 497.965 13.7313Z" fill="#656BE8" fill-opacity="0.5"/>
<path d="M485.713 33.6818C485.838 33.8074 485.948 33.9482 486.038 34.1008C486.237 34.3756 486.49 34.7901 486.843 35.2993C487.507 36.322 488.388 37.7548 489.328 39.3543L491.718 43.4634L492.45 44.7069C492.549 44.8477 492.633 44.9987 492.699 45.1575C492.573 45.0325 492.463 44.8934 492.369 44.7429C492.17 44.4636 491.917 44.0536 491.569 43.54C490.914 42.5082 490.055 41.0619 489.116 39.4624L486.693 35.3668L485.957 34.1278C485.858 33.9892 485.776 33.8395 485.713 33.6818Z" fill="#656BE8" fill-opacity="0.5"/>
<path d="M493.395 45.108C493.359 45.0494 496.246 43.1121 499.843 40.7737C503.44 38.4353 506.391 36.588 506.427 36.6466C506.463 36.7051 503.58 38.647 499.979 40.9809C496.377 43.3148 493.426 45.1666 493.395 45.108Z" fill="#656BE8" fill-opacity="0.5"/>
<path d="M489.291 63.662C489.453 63.5805 489.625 63.5184 489.802 63.4772L491.211 63.0492C492.404 62.6842 494.045 62.1796 495.839 61.5533C497.633 60.9271 499.237 60.3188 500.394 59.8638L501.749 59.3276C501.913 59.2487 502.086 59.1912 502.264 59.1564C502.117 59.261 501.958 59.3472 501.79 59.4132C501.474 59.5664 501.017 59.7781 500.434 60.026C499.291 60.5216 497.691 61.1659 495.893 61.7876C494.094 62.4094 492.441 62.896 491.234 63.2159C490.633 63.3736 490.141 63.4953 489.802 63.5719C489.635 63.6208 489.464 63.651 489.291 63.662Z" fill="#656BE8" fill-opacity="0.5"/>
<path d="M480.073 54.8492C480.221 54.932 480.356 55.0351 480.475 55.1556C480.719 55.3628 481.067 55.6692 481.497 56.0567C482.351 56.8271 483.526 57.8995 484.809 59.0934C486.092 60.2874 487.245 61.3823 488.067 62.1843C488.483 62.5807 488.813 62.9097 489.039 63.1394C489.165 63.2491 489.275 63.3748 489.368 63.5134C489.223 63.4307 489.089 63.3292 488.971 63.2115C488.727 62.9998 488.374 62.6934 487.95 62.3104C487.091 61.5445 485.921 60.4721 484.637 59.2737C483.354 58.0752 482.202 56.9848 481.375 56.1873C480.963 55.7863 480.634 55.4574 480.408 55.2276C480.281 55.1153 480.169 54.9883 480.073 54.8492Z" fill="#656BE8" fill-opacity="0.5"/>
<path d="M474.375 70.7718C474.556 70.8881 474.725 71.0208 474.881 71.1683L476.196 72.3172C477.299 73.2949 478.808 74.6556 480.466 76.174C482.125 77.6924 483.629 79.0756 484.691 80.0848L485.952 81.2923C486.117 81.4276 486.268 81.5785 486.404 81.7429C486.224 81.6298 486.056 81.4985 485.902 81.3509L484.587 80.202C483.485 79.2243 481.971 77.8591 480.313 76.3407C478.654 74.8223 477.15 73.4436 476.088 72.4298L474.827 71.2269C474.66 71.0923 474.508 70.9397 474.375 70.7718Z" fill="#656BE8" fill-opacity="0.5"/>
<path d="M486.164 81.3959C486.371 81.2956 486.585 81.2127 486.806 81.1481L488.577 80.5398C490.068 80.0262 492.129 79.3098 494.379 78.4582C496.63 77.6067 498.654 76.7867 500.114 76.2054L501.844 75.4891C502.052 75.3907 502.268 75.3122 502.49 75.2548C502.298 75.3818 502.094 75.4904 501.88 75.5792C501.483 75.7729 500.904 76.0297 500.181 76.3631C498.74 77.0119 496.729 77.859 494.47 78.7106C492.21 79.5621 490.141 80.256 488.631 80.729C487.877 80.9633 487.276 81.1436 486.824 81.2607C486.609 81.3271 486.388 81.3724 486.164 81.3959Z" fill="#656BE8" fill-opacity="0.5"/>
<path d="M490.372 89.2943C490.563 88.6558 490.794 88.0298 491.063 87.42C491.255 86.7809 491.485 86.1536 491.75 85.5412C491.716 86.2144 491.563 86.8764 491.298 87.4966C491.096 88.1448 490.783 88.7531 490.372 89.2943Z" fill="#FAFAFA"/>
<path opacity="0.05" d="M21 12C21 23.0457 12.0457 32 1 32C-10.0457 32 -19 23.0457 -19 12C-19 0.954305 -10.0457 -8 1 -8C12.0457 -8 21 0.954305 21 12ZM-13.2219 12C-13.2219 19.8546 -6.85456 26.2219 1 26.2219C8.85456 26.2219 15.2219 19.8546 15.2219 12C15.2219 4.14544 8.85456 -2.22194 1 -2.22194C-6.85456 -2.22194 -13.2219 4.14544 -13.2219 12Z" fill="black"/>
</svg>
