<svg width="531" height="61" viewBox="0 0 531 61" fill="none" xmlns="http://www.w3.org/2000/svg">
<circle opacity="0.1" cx="488.76" cy="13.4114" r="3.26271" fill="#656BE8"/>
<path opacity="0.05" d="M-1.79092 56.6136C-6.19031 49.119 -3.84146 40.7458 -0.146467 34.0527C0.467475 32.9318 0.933564 31.6562 2.03226 30.9722C3.13097 30.2881 4.86879 30.3351 5.75476 31.4087C6.48722 32.299 6.40801 33.5035 6.51171 34.5891C6.66336 36.0435 7.24047 37.4674 8.17639 38.6964C8.78685 39.4913 9.66223 40.2444 10.6477 40.269C12.0026 40.2934 12.8128 39.0015 13.3706 37.8627C14.4168 35.7359 15.4632 33.6128 16.51 31.4934C17.0706 30.3564 17.6502 29.1959 18.5796 28.3221C19.5091 27.4483 20.8695 26.9023 22.2084 27.2266C23.5473 27.551 24.695 28.9373 24.399 30.1892C24.2735 30.7047 23.9275 31.1298 23.7274 31.6192C23.5272 32.1085 23.504 32.7568 23.9427 33.1537C24.3814 33.5505 25.0372 33.4937 25.5775 33.3562C27.4392 32.8903 29.0543 31.8753 30.6093 30.8363C32.1643 29.7973 33.7099 28.7167 35.5081 28.0821C37.3063 27.4474 39.4229 27.3112 41.251 28.1715C43.0791 29.0318 44.4888 31.0304 44.1412 32.8626C43.7936 34.6949 41.9499 35.7819 40.1812 36.4888C37.5591 37.5369 34.7539 38.2003 31.853 38.4582C31.3312 38.5041 30.7666 38.5548 30.4065 38.896C29.7548 39.5081 30.1675 40.6762 30.8668 41.3564C31.6545 42.1287 32.7107 42.5726 33.6321 43.191C34.5535 43.8094 35.4176 44.755 35.3634 45.7829C35.2915 47.213 33.6105 47.8759 32.1627 48.1097C29.258 48.5952 26.2382 48.5897 23.235 48.0934C22.159 47.9114 21.0601 47.672 20.025 47.8689C18.99 48.0659 18.0307 48.8494 18.0786 49.8852C18.1266 50.921 19.1437 51.7822 20.1882 52.126C21.2327 52.4698 22.3336 52.4502 23.4087 52.621C25.4213 52.9355 27.5689 54.1988 28.0085 56.1362C28.2863 57.4039 27.7314 58.6693 26.8363 59.5328C25.9412 60.3963 24.7435 60.9176 23.5276 61.3488C19.3057 62.8333 14.5984 63.3387 9.9861 62.4964C5.37379 61.6541 1.51283 60.0492 -1.78566 56.649" fill="black"/>
<path d="M-4.43171 61.6318C-2.49181 58.6461 -0.236967 55.8741 2.30186 53.3536C5.41863 50.2877 8.73572 47.4135 12.2367 44.7454C13.1622 44.0318 14.0754 43.3272 14.9763 42.6313C15.8775 41.9392 16.7711 41.253 17.6929 40.6346C19.4639 39.4543 21.3113 38.3746 23.2268 37.4004C25.0516 36.4618 26.8271 35.638 28.4932 34.8801C30.1593 34.1221 31.7326 33.4477 33.2053 32.8875C35.5128 32.002 37.9089 31.301 40.3708 30.7914C41.2406 30.6105 41.9235 30.4925 42.3883 30.4175C42.6105 30.3806 42.7849 30.3561 42.9166 30.3365C42.9753 30.3243 43.0356 30.3173 43.0967 30.3157C43.0409 30.3356 42.9826 30.3498 42.9226 30.3582L42.4017 30.4652C41.9462 30.5568 41.2669 30.6878 40.4007 30.8817C37.9572 31.4271 35.5778 32.151 33.2825 33.0472C31.8243 33.6095 30.2608 34.2936 28.5987 35.0577C26.9366 35.8218 25.1708 36.6553 23.3533 37.595C21.4515 38.576 19.6171 39.6603 17.8581 40.8431C16.9411 41.4539 16.0565 42.1387 15.1537 42.8333C14.2508 43.528 13.3415 44.2327 12.4169 44.9491C8.92284 47.6103 5.60814 50.4725 2.48849 53.5223C-0.0502919 56.0255 -2.31144 58.7762 -4.26488 61.738" fill="#656BE8" fill-opacity="0.2"/>
<path d="M17.763 40.6611C17.782 40.4733 17.8227 40.29 17.8844 40.1145C17.9751 39.7658 18.126 39.2665 18.3201 38.6556C18.7042 37.4277 19.3116 35.7679 19.9818 33.9342C20.6521 32.1005 21.2263 30.4303 21.5971 29.2046C21.7811 28.5908 21.9134 28.0833 22.024 27.7472C22.0612 27.5631 22.1207 27.3857 22.2015 27.2185C22.1961 27.4087 22.1689 27.5958 22.1205 27.7765C22.0528 28.1327 21.9338 28.6381 21.7684 29.2601C21.4432 30.5077 20.8929 32.1967 20.221 34.0329C19.5491 35.8691 18.9522 37.475 18.4922 38.7223C18.2876 39.2873 18.1145 39.7654 17.9805 40.1507C17.9282 40.3296 17.8553 40.5008 17.763 40.6611Z" fill="#656BE8" fill-opacity="0.2"/>
<path d="M35.1925 46.3943C34.9614 46.3236 34.7355 46.2336 34.5176 46.1252C34.0898 45.9422 33.4706 45.6729 32.6939 45.3641C31.1498 44.738 28.9946 43.9298 26.5845 43.1413C24.1745 42.3527 21.9672 41.7325 20.365 41.3225C19.562 41.111 18.9126 40.958 18.4614 40.8492C18.2253 40.8071 17.9918 40.7433 17.7643 40.6587C18.0014 40.6692 18.2392 40.7011 18.4743 40.754C18.9315 40.8346 19.5882 40.9637 20.394 41.152C22.012 41.5185 24.2305 42.121 26.6495 42.9081C28.7104 43.5725 30.7445 44.335 32.7436 45.1924C33.513 45.5252 34.1249 45.8183 34.5438 46.0278C34.7707 46.1292 34.9881 46.252 35.1925 46.3943Z" fill="#656BE8" fill-opacity="0.2"/>
<path d="M2.63231 53.1896C2.61519 53.1106 2.60851 53.0309 2.61246 52.9524L2.60338 52.2799C2.5822 51.6889 2.61023 50.8583 2.64507 49.811C2.70787 47.7333 2.8912 44.8732 3.13988 41.7232C3.38855 38.5731 3.59652 35.718 3.70577 33.6485L3.82581 31.1937L3.85631 30.5215C3.85562 30.4426 3.86509 30.3648 3.88451 30.2899C3.90344 30.3679 3.91067 30.4469 3.90598 30.5246L3.91789 31.1989C3.93745 31.7924 3.91104 32.6205 3.87338 33.666C3.80896 35.7462 3.62845 38.6081 3.37978 41.7582C3.1311 44.9082 2.92475 47.7608 2.81389 49.8328C2.76531 50.8393 2.72274 51.6678 2.69102 52.2858C2.67696 52.5513 2.6641 52.7713 2.66214 52.9554C2.66295 53.0354 2.65293 53.1141 2.63231 53.1896Z" fill="#656BE8" fill-opacity="0.2"/>
<path d="M27.1133 58.1795C27.0299 58.1804 26.9455 58.17 26.8629 58.1485L26.1537 58.0145L23.5292 57.4817C21.3147 57.0351 18.2505 56.4506 14.8656 55.8082C11.4806 55.1658 8.41356 54.5545 6.20471 54.0616C5.09888 53.8142 4.20467 53.6088 3.58552 53.4644L2.87629 53.2804C2.79257 53.2645 2.71031 53.2385 2.63153 53.2031C2.71596 53.2024 2.80126 53.2134 2.88476 53.2359L3.59398 53.3699L6.21557 53.9009C8.43006 54.3475 11.4943 54.932 14.8821 55.5762C18.2698 56.2204 21.3312 56.8281 23.5401 57.321C24.6459 57.5684 25.5401 57.7738 26.1593 57.9182L26.8685 58.1022C26.9522 58.1181 27.0345 58.144 27.1133 58.1795Z" fill="#656BE8" fill-opacity="0.2"/>
<path opacity="0.05" d="M525.53 7.36569C525.53 7.36569 522.567 5.35222 518.834 12.4183C515.102 19.4843 513.668 23.5769 513.668 23.5769C513.668 23.5769 512.687 25.0558 511.674 24.0642C510.661 23.0726 509.287 20.2833 507.53 20.758C505.714 21.2477 505.088 23.2564 505.396 26.2244C505.705 29.1925 506.126 35.7246 506.173 36.3163C506.22 36.9079 505.865 37.7443 505.065 37.1815C504.265 36.6188 499.7 31.3924 497.338 33.6969C494.975 36.0013 497.202 44.1437 497.423 45.0488C497.645 45.954 497.468 46.3226 497.041 46.5354C496.615 46.7483 495.244 44.8487 493.881 43.415C492.518 41.9814 490.687 40.5585 489.441 42.0038C488.194 43.4491 487.711 49.5187 493.392 59.4827L496.322 63.9188L501.668 63.703C513.079 62.5423 517.753 58.6376 518.217 56.7865C518.682 54.9354 516.453 54.2696 514.491 53.9919C512.529 53.7142 510.186 53.7016 510.114 53.229C510.042 52.7564 510.245 52.3928 511.103 52.0579C511.961 51.7231 519.889 48.8102 520.421 45.5603C520.954 42.3103 514.026 41.6154 513.101 41.2905C512.177 40.9656 512.669 40.1941 513.163 39.8896C513.657 39.5852 519.245 36.143 521.846 34.6702C524.447 33.1974 525.725 31.5255 525.07 29.7636C524.437 28.0605 521.364 28.5716 519.969 28.3081C518.574 28.0446 519.207 26.3985 519.207 26.3985C519.207 26.3985 521.72 22.866 525.318 15.7258C528.916 8.58558 525.472 7.33008 525.472 7.33008" fill="black"/>
<path d="M522.158 13.6866C522.139 13.7403 522.116 13.7926 522.09 13.8433L521.876 14.2856C521.683 14.6801 521.4 15.2512 521.038 15.9791C520.307 17.4597 519.239 19.573 517.908 22.1785C515.24 27.4114 511.5 34.6088 507.331 42.5399C503.162 50.4709 499.405 57.6664 496.708 62.883C495.367 65.4887 494.281 67.5928 493.522 69.0644L492.654 70.7448C492.557 70.9296 492.48 71.073 492.425 71.1789C492.37 71.2849 492.341 71.3234 492.341 71.3234C492.341 71.3234 492.358 71.2705 492.392 71.1648L492.606 70.7225C492.803 70.3258 493.082 69.7569 493.445 69.0259C494.179 67.5462 495.246 65.4361 496.578 62.8274C499.243 57.5935 502.987 50.3941 507.154 42.4589C511.321 34.5237 515.081 27.3396 517.775 22.122C519.119 19.5173 520.205 17.4132 520.961 15.9406L521.829 14.2602C521.929 14.0763 522.004 13.9289 522.061 13.8271C522.118 13.7252 522.158 13.6866 522.158 13.6866Z" fill="#656BE8" fill-opacity="0.5"/>
<path d="M509.272 24.7361C509.331 24.8507 509.375 24.9721 509.404 25.0975C509.48 25.3314 509.563 25.6737 509.693 26.1033C509.924 26.9568 510.214 28.1413 510.508 29.454L511.246 32.8209L511.475 33.8418C511.512 33.9609 511.536 34.0837 511.546 34.2079C511.487 34.0938 511.442 33.9732 511.411 33.8486C511.335 33.6116 511.252 33.2725 511.126 32.8407C510.902 31.983 510.631 30.7942 510.337 29.4815L509.575 26.1169L509.342 25.0981C509.305 24.9805 509.281 24.859 509.272 24.7361Z" fill="#656BE8" fill-opacity="0.5"/>
<path d="M512.037 34.3283C512.025 34.2799 514.448 33.5838 517.45 32.7685C520.452 31.9532 522.899 31.3334 522.911 31.3819C522.923 31.4303 520.502 32.1305 517.498 32.9417C514.494 33.7528 512.046 34.3758 512.037 34.3283Z" fill="#656BE8" fill-opacity="0.5"/>
<path d="M505.085 46.2232C505.215 46.203 505.347 46.1982 505.478 46.2091L506.546 46.2267C507.451 46.2397 508.695 46.2556 510.072 46.2217C511.449 46.1878 512.692 46.1242 513.591 46.067L514.646 45.9979C514.776 45.9798 514.908 45.9785 515.039 45.9941C514.915 46.0337 514.785 46.0578 514.655 46.066C514.402 46.1015 514.04 46.1463 513.583 46.1879C512.684 46.2762 511.437 46.3657 510.057 46.3955C508.678 46.4253 507.428 46.3939 506.525 46.3468C506.075 46.3222 505.708 46.2968 505.457 46.2744C505.331 46.2712 505.206 46.2541 505.085 46.2232Z" fill="#656BE8" fill-opacity="0.5"/>
<path d="M500.68 38.0938C500.763 38.1838 500.834 38.285 500.889 38.3946C501.012 38.5918 501.184 38.8805 501.394 39.2433C501.812 39.9647 502.385 40.9657 503.006 42.0748C503.627 43.1838 504.179 44.1954 504.568 44.9315C504.767 45.2975 504.922 45.5978 505.027 45.8065C505.089 45.9102 505.138 46.0216 505.171 46.1379C505.089 46.0485 505.02 45.9488 504.964 45.8412C504.843 45.6409 504.667 45.3512 504.459 44.9925C504.037 44.2732 503.467 43.2732 502.847 42.161C502.228 41.0489 501.674 40.0404 501.281 39.3064C501.086 38.9383 500.931 38.6381 500.826 38.4293C500.764 38.3237 500.715 38.2111 500.68 38.0938Z" fill="#656BE8" fill-opacity="0.5"/>
<path d="M493.211 47.8185C493.31 47.9389 493.397 48.0681 493.472 48.2045L494.125 49.2895C494.669 50.2092 495.408 51.4834 496.216 52.8997C497.023 54.3159 497.755 55.6047 498.263 56.5371L498.866 57.6505C498.949 57.7805 499.02 57.9182 499.077 58.0618C498.978 57.9438 498.891 57.8158 498.818 57.6799L498.166 56.5949C497.622 55.6753 496.88 54.3969 496.073 52.9806C495.265 51.5644 494.533 50.2787 494.025 49.3432L493.422 48.2329C493.336 48.103 493.266 47.964 493.211 47.8185Z" fill="#656BE8" fill-opacity="0.5"/>
<path d="M498.989 57.769C499.154 57.7456 499.32 57.7361 499.487 57.7404L500.845 57.7139C501.988 57.6905 503.569 57.6536 505.311 57.5656C507.054 57.4775 508.633 57.361 509.77 57.2839L511.123 57.1738C511.288 57.1519 511.455 57.1458 511.621 57.1556C511.46 57.2005 511.295 57.2301 511.128 57.244C510.811 57.2894 510.354 57.3382 509.781 57.4078C508.642 57.5356 507.066 57.6737 505.318 57.7598C503.569 57.8458 501.987 57.8652 500.84 57.8566C500.267 57.8507 499.812 57.8417 499.474 57.8222C499.311 57.8203 499.149 57.8025 498.989 57.769Z" fill="#656BE8" fill-opacity="0.5"/>
<path opacity="0.05" d="M293.002 62.5009C293.002 70.5096 286.51 77.0019 278.501 77.0019C270.492 77.0019 264 70.5096 264 62.5009C264 54.4923 270.492 48 278.501 48C286.51 48 293.002 54.4923 293.002 62.5009ZM268.189 62.5009C268.189 68.1959 272.806 72.8125 278.501 72.8125C284.196 72.8125 288.813 68.1959 288.813 62.5009C288.813 56.806 284.196 52.1894 278.501 52.1894C272.806 52.1894 268.189 56.806 268.189 62.5009Z" fill="black"/>
</svg>
