<svg width="531" height="94" viewBox="0 0 531 94" fill="none" xmlns="http://www.w3.org/2000/svg">
<g>
<circle opacity="0.1" cx="475.5" cy="25.5" r="4.5" fill="#656BE8"/>
<path opacity="0.05" d="M21 12C21 23.0457 12.0457 32 1 32C-10.0457 32 -19 23.0457 -19 12C-19 0.954305 -10.0457 -8 1 -8C12.0457 -8 21 0.954305 21 12ZM-13.2219 12C-13.2219 19.8546 -6.85456 26.2219 1 26.2219C8.85456 26.2219 15.2219 19.8546 15.2219 12C15.2219 4.14544 8.85456 -2.22194 1 -2.22194C-6.85456 -2.22194 -13.2219 4.14544 -13.2219 12Z" fill="black"/>
<path d="M78.2094 57.6629L69.3194 51.8732L64.0676 33.4423C62.845 29.1496 60.1304 25.4341 56.4125 22.9645C52.6945 20.4949 48.2172 19.4333 43.7862 19.9707L41.5838 12.2416L36.6553 13.646L38.831 21.2812C34.5918 23.0488 31.1494 26.3114 29.1571 30.4497C27.1649 34.588 26.7616 39.3138 28.0238 43.7299L33.0215 61.269L28.7257 71.7801L47.1097 66.5416C47.8815 67.5918 48.9009 68.435 50.0773 68.996C51.2537 69.5571 52.5505 69.8187 53.8524 69.7574C55.1543 69.6962 56.4208 69.3141 57.5394 68.6451C58.6579 67.9761 59.5937 67.041 60.2635 65.923C60.9038 64.8599 61.2866 63.6617 61.3811 62.4243L78.2094 57.6629Z" fill="#000000" fill-opacity="0.05"/>
<path d="M504.605 69.2087L501.45 62.7452L504.813 50.1948C505.596 47.272 505.311 44.1654 504.008 41.4341C502.705 38.7028 500.47 36.5262 497.706 35.2959L499.116 30.0329L495.76 29.1336L494.367 34.3327C491.285 33.8848 488.147 34.5841 485.547 36.2976C482.947 38.0112 481.067 40.6198 480.263 43.6282L477.063 55.5713L470.904 60.1899L483.422 63.5442C483.506 64.4239 483.805 65.2693 484.294 66.0053C484.783 66.7413 485.446 67.3451 486.225 67.7628C487.003 68.1805 487.873 68.3993 488.757 68.3996C489.64 68.3999 490.51 68.1818 491.289 67.7647C492.032 67.3692 492.672 66.8055 493.158 66.1186L504.605 69.2087Z" fill="#000000" fill-opacity="0.05"/>
<path d="M263.221 14.8372L259.18 12.1134L256.901 3.60935C256.37 1.62868 255.151 -0.0976446 253.461 -1.25899C251.771 -2.42034 249.722 -2.94045 247.683 -2.72574L246.727 -6.29195L244.453 -5.68263L245.397 -2.15974C243.437 -1.37858 241.832 0.0950964 240.887 1.9815C239.942 3.8679 239.722 6.03568 240.27 8.07327L242.439 16.1658L240.389 20.9628L248.871 18.6899C249.218 19.1779 249.681 19.5726 250.217 19.8388C250.753 20.1051 251.347 20.2346 251.945 20.216C252.544 20.1973 253.128 20.031 253.647 19.7318C254.166 19.4326 254.602 19.0099 254.918 18.5012C255.22 18.0175 255.404 17.4699 255.457 16.9022L263.221 14.8372Z" fill="#000000" fill-opacity="0.05"/>
</g>
<defs>
<clipPath id="clip0_3261_3988">
<rect width="531" height="94" fill="white"/>
</clipPath>
</defs>
</svg>
