<svg width="531" height="51" viewBox="0 0 531 51" fill="none" xmlns="http://www.w3.org/2000/svg">
<g clip-path="url(#clip0_3296_3238)">
<circle opacity="0.1" cx="488.76" cy="3.41139" r="3.26271" fill="#656BE8"/>
<path opacity="0.05" d="M293.002 52.5009C293.002 60.5096 286.51 67.0019 278.501 67.0019C270.492 67.0019 264 60.5096 264 52.5009C264 44.4923 270.492 38 278.501 38C286.51 38 293.002 44.4923 293.002 52.5009ZM268.189 52.5009C268.189 58.1959 272.806 62.8125 278.501 62.8125C284.196 62.8125 288.813 58.1959 288.813 52.5009C288.813 46.806 284.196 42.1894 278.501 42.1894C272.806 42.1894 268.189 46.806 268.189 52.5009Z" fill="black"  fill-opacity="0.05"/>
<path d="M37.7278 35.51L33.0486 32.3562L30.4104 22.5102C29.7962 20.217 28.3838 18.2182 26.4272 16.8736C24.4707 15.529 22.0985 14.9268 19.7375 15.1754L18.6311 11.0464L15.9983 11.7519L17.0912 15.8307C14.8219 16.7351 12.9637 18.4414 11.8694 20.6255C10.7752 22.8096 10.521 25.3194 11.1552 27.6786L13.6658 37.0482L11.2929 42.6021L21.1138 39.9706C21.5155 40.5356 22.0506 40.9926 22.6715 41.3009C23.2924 41.6091 23.9798 41.7591 24.6727 41.7375C25.3656 41.7159 26.0424 41.5233 26.6429 41.1769C27.2433 40.8305 27.7489 40.3411 28.1145 39.7521C28.464 39.1921 28.6776 38.5581 28.7382 37.9008L37.7278 35.51Z" fill="#000000"  fill-opacity="0.05"/>
<path d="M512.149 41.6828L509.673 36.612L512.311 26.766C512.926 24.4729 512.702 22.0357 511.68 19.893C510.658 17.7502 508.905 16.0426 506.736 15.0774L507.842 10.9484L505.209 10.2429L504.116 14.3218C501.699 13.9704 499.236 14.5189 497.197 15.8633C495.157 17.2076 493.682 19.2541 493.052 21.6143L490.541 30.9839L485.709 34.6074L495.53 37.2389C495.595 37.929 495.83 38.5923 496.214 39.1697C496.597 39.7471 497.118 40.2208 497.729 40.5485C498.34 40.8762 499.022 41.0478 499.715 41.0481C500.408 41.0483 501.091 40.8772 501.702 40.55C502.285 40.2397 502.787 39.7975 503.168 39.2586L512.149 41.6828Z" fill="#000000"  fill-opacity="0.05"/>
</g>
<defs>
<clipPath id="clip0_3296_3238">
<rect width="531" height="67" fill="white"/>
</clipPath>
</defs>
</svg>
