<svg width="144" height="74" viewBox="0 0 144 74" fill="none" xmlns="http://www.w3.org/2000/svg">
<rect x="0.5" y="0.5" width="143" height="73" rx="7.5" fill="white"/>
<g clip-path="url(#clip0_3261_4793)">
<circle opacity="0.1" cx="122.11" cy="8.90003" r="2.54505" fill="#656BE8"/>
<path opacity="0.05" d="M9.21501 5.67659C9.21501 10.5232 5.28609 14.4521 0.439534 14.4521C-4.40703 14.4521 -8.33594 10.5232 -8.33594 5.67659C-8.33594 0.830035 -4.40703 -3.09888 0.439534 -3.09888C5.28609 -3.09888 9.21501 0.830035 9.21501 5.67659ZM-5.80068 5.67659C-5.80068 9.12297 -3.00684 11.9168 0.439534 11.9168C3.88591 11.9168 6.67975 9.12297 6.67975 5.67659C6.67975 2.23022 3.88591 -0.563619 0.439534 -0.563619C-3.00684 -0.563619 -5.80068 2.23022 -5.80068 5.67659Z" fill="black"/>
<path d="M43.1309 30.8684L38.0099 27.5333L34.9846 16.9163C34.2804 14.4435 32.7167 12.3032 30.575 10.8806C28.4332 9.45801 25.8541 8.84648 23.3017 9.15606L22.033 4.70377L19.194 5.51274L20.4473 9.91095C18.0053 10.9292 16.0223 12.8086 14.8747 15.1924C13.7271 17.5763 13.4948 20.2985 14.2219 22.8424L17.1008 32.9456L14.6262 39.0005L25.2162 35.9829C25.6608 36.5879 26.248 37.0736 26.9256 37.3968C27.6033 37.72 28.3503 37.8706 29.1002 37.8354C29.8502 37.8001 30.5798 37.58 31.2241 37.1946C31.8684 36.8093 32.4075 36.2706 32.7933 35.6266C33.1622 35.0142 33.3826 34.324 33.4371 33.6111L43.1309 30.8684Z" fill="#F2F2F2"/>
<path d="M138.572 33.6199L136.788 29.9643L138.69 22.8663C139.133 21.2132 138.971 19.4562 138.235 17.9115C137.498 16.3668 136.234 15.1358 134.67 14.44L135.468 11.4634L133.57 10.9548L132.782 13.8952C131.039 13.6419 129.264 14.0374 127.793 15.0065C126.323 15.9756 125.26 17.451 124.805 19.1524L122.995 25.907L119.512 28.5192L126.592 30.4162C126.639 30.9138 126.808 31.3919 127.085 31.8082C127.361 32.2244 127.737 32.5659 128.177 32.8021C128.617 33.0384 129.109 33.1621 129.609 33.1623C130.109 33.1625 130.601 33.0391 131.041 32.8032C131.461 32.5796 131.823 32.2607 132.098 31.8722L138.572 33.6199Z" fill="#F2F2F2"/>
<path d="M83.6418 13.2529L81.8313 11.0683L81.954 5.94435C81.9827 4.75098 81.5846 3.58654 80.8313 2.66055C80.078 1.73457 79.0189 1.10784 77.8446 0.893156L77.8961 -1.2556L76.5259 -1.28841L76.4751 0.834251C75.2521 0.948955 74.1139 1.50874 73.2764 2.40733C72.4389 3.30592 71.9606 4.48074 71.9322 5.70875L71.8154 10.5848L69.8835 12.9279L74.9945 13.0502C75.1081 13.3797 75.3015 13.676 75.5574 13.9127C75.8132 14.1495 76.1236 14.3193 76.461 14.407C76.7983 14.4948 77.1521 14.4978 77.4909 14.4158C77.8296 14.3338 78.1429 14.1693 78.4028 13.937C78.6507 13.7164 78.8436 13.4408 78.966 13.1323L83.6418 13.2529Z" fill="#F2F2F2"/>
</g>
<rect x="0.5" y="0.5" width="143" height="73" rx="7.5" stroke="#AEAEAE"/>
<defs>
<clipPath id="clip0_3261_4793">
<rect width="144" height="42.0674" fill="white"/>
</clipPath>
</defs>
</svg>
