<svg xmlns="http://www.w3.org/2000/svg" width="261" height="173"><g fill="#fff" stroke="#aeaeae"><rect width="261" height="173" rx="10" stroke="none"/><rect x=".5" y=".5" width="260" height="172" rx="9.5" fill="none"/></g><g fill="#f6f5fd" stroke="#d9d7e2"><rect width="239" height="151" rx="4" stroke="none" x="11" y="11"/><rect x="11.3" y="11.3" width="238.4" height="150.4" rx="3.7" fill="none" stroke-width=".6"/></g><g fill="#f0eff4"><path d="M18.001 32h41v15h-41zm0 92h41v32h-41zm47 0h41v32h-41zM112 124h41v32h-41z"/><path d="M18.001 52h135v68h-135zM159 52h85v13h-85zm0 36h85v33h-85zm0-19h85v4h-85zm0 56h85v5h-85zm0-50h85v2h-85zm0 57h85v2h-85zm0-51h85v2h-85zm0 57h85v2h-85zm0 4h85v4h-85zm0 6h85v2h-85zm0 5h85v3h-85zM67.001 36h38v6h-38zM113 36h39v6h-39zm47 0h38v6h-38zm47 0h37v6h-37z"/></g><path d="M15 12h231a3 3 0 0 1 3 3v13h0H12h0V15a3 3 0 0 1 3-3z" fill="#fff"/><g fill="#dddcec"><ellipse cx="20" cy="20.5" rx="2" ry="2.5"/><circle cx="29.5" cy="20.5" r="2.5"/><circle cx="38.5" cy="20.5" r="2.5"/></g><g fill="#fff" stroke="#d2d2d8"><rect width="93" height="57" rx="4" stroke="none" x="151" y="99"/><rect x="151.2" y="99.2" width="92.6" height="56.6" rx="3.8" fill="none" stroke-width=".4"/></g><g fill="#ebebf5"><rect width="85" height="2" rx="1" x="155" y="124"/><rect width="85" height="2" rx="1" x="155" y="120"/></g><rect width="85" height="10" rx="1" fill="#7e5ce7" x="155" y="142"/><text fill="#1e1e1e" font-size="7" font-family="EuclidCircularB-SemiBold,Euclid Circular B" font-weight="600"><tspan x="161" y="114">Your headline is here</tspan></text><g fill="#747488"><path d="M240.481 102.472l.525.525-3.154 3.154-.525-.525z"/><path d="M241.007 105.626l-.525.525-3.154-3.154.525-.525z"/></g><rect width="85" height="8" rx="1" fill="#ebebf5" x="155" y="130"/></svg>