<svg xmlns="http://www.w3.org/2000/svg" width="978.649" height="850.995"><defs><clipPath id="A"><path fill="#fff" d="M0 0h697v612.153H0z"/></clipPath></defs><ellipse cx="494.006" cy="430.545" rx="418.325" ry="420.45" fill="#442392"/><path d="M876.83 185.85l-8.854-44.271L978.65 90.667z" fill="#ff8c7a"/><path d="M876.827 185.85l22.131-30.991 17.708-4.426z" fill="#bd6a66"/><path d="M978.648 90.667l-33.2 95.183-46.486-30.991 79.686-64.192-110.674 50.912-39.845-6.641z" fill="#f7beb7"/><path d="M78.716 557.969l6.843-34.221L0 484.39z" fill="#ff8c7a"/><path d="M78.711 557.977L61.6 534.019l-13.691-3.42z" fill="#bd6a66"/><path d="M0 484.39l25.67 73.579 35.93-23.956L0 484.39l85.558 39.358 30.8-5.134z" fill="#f7beb7"/><path d="M719.666 232.337c16.972-7.378 51.8-8.412 55.338 46.484 17.708 66.4 48.7 22.134 50.912 13.28s6.641-39.845-11.067-39.845-13.283 35.413 19.917 30.99 30.988-39.839 26.563-50.909-13.282-28.778 4.426-42.061M198.332 591.674c-12.835-5.876-39.177-6.7-41.857 37.034-13.393 52.9-36.833 17.632-38.508 10.577s-5.021-31.742 8.373-31.742 10.044 28.214-15.068 24.69-23.44-31.739-20.091-40.559 10.044-22.927-3.349-33.507" fill="none" stroke="#9da3a1" stroke-width="1.563" stroke-dasharray="1.56 1.56"/><g fill="#fff"><path d="M674.665 79.667h5v22h-5z"/><path d="M665.665 93.667v-6h23v6zM440.582 8.854h8.854v35.417h-8.854z"/><path d="M427.3 30.991v-8.854h35.417v8.854z"/></g><g fill="#e3b4ae"><path d="M285.633 110.676h8.854v35.417h-8.854z"/><path d="M272.353 132.813v-8.854h35.417v8.854z"/></g><circle cx="593.316" cy="11.068" r="11.068" fill="#6434d9"/><circle cx="274.566" cy="73.047" r="11.068" fill="#601fff"/><g fill="#fff"><path d="M308.832 760.926h-5.667v-22.667h5.667z"/><path d="M317.332 746.759v5.667h-22.667v-5.667zm225.25 84.649h-8.854v-35.417h8.854z"/><path d="M555.865 809.271v8.854h-35.417v-8.854z"/></g><g fill="#e3b4ae"><path d="M697.531 729.584h-8.854v-35.417h8.854z"/><path d="M710.812 707.45v8.854h-35.417v-8.854z"/></g><circle cx="11.068" cy="11.068" r="11.068" transform="matrix(-1 0 0 -1 400.916 840.26)" fill="#6434d9"/><circle cx="11.068" cy="11.068" r="11.068" transform="matrix(-1 0 0 -1 719.666 778.281)" fill="#601fff"/><g transform="translate(189.833 163.741)" clip-path="url(#A)"><path d="M345.157 50.317l1.76-1.391" fill="none" stroke="#16a5a5" stroke-miterlimit="10" stroke-width=".536"/><path d="M276.395 521.274v12.566a21.87 21.87 0 0 0 13.226-3.037l169.723-102.389c5.162-3.119 7.44-20.153 3.584-24.2-.544.569-2.847 11.163-3.584 11.614L289.621 518.242a21.7 21.7 0 0 1-13.226 3.032z" fill="#4505b3"/><path d="M5.871 378.945l261.578 152.05a21.59 21.59 0 0 0 8.948 2.842v-12.566a21.7 21.7 0 0 0 13.226-3.037l169.725-102.408a9.56 9.56 0 0 0 1.918-1.536 9.21 9.21 0 0 0-2.057-1.609l-146.92-85.391-117.2-68.122c-5.943-3.463-13.304-3.4-19.187.164L12.073 353.807c-.995.606-12.311-.519-10.245 3.8-3.738 4.499-1.423 18.167 4.043 21.338z" fill="#6b5bdf"/><path d="M192.828 10.73v210.16c0 6.127 3.264 11.789 8.565 14.861l275.992 159.953c.912.518-.878 6.378.068 6.531 5.562 1.184 13.985-8.5 13.985-14.623V179.597a24.5 24.5 0 0 0-2.459-10.789l-11.594 7.12c-2.18-4.171-5.504-7.634-9.583-9.982L197.744 9.429c-1.387-.822-2.947-1.309-4.556-1.422-.242.887-.363 1.803-.36 2.723z" fill="#4505b3"/><path d="M181.676 18.68v210.182a17.2 17.2 0 0 0 8.568 14.861L466.236 403.65a9.36 9.36 0 0 0 13.968-6.908 9.19 9.19 0 0 0 .071-1.184v-207.98c-.009-8.915-4.759-17.153-12.47-21.627L197.744 9.429c-2.86-1.668-6.333-1.914-9.4-.666l-.077.04a10.6 10.6 0 0 0-4.21 3.148l-.026.023c-1.54 1.894-2.373 4.265-2.355 6.706z" fill="#6b5bdf"/><path d="M470.206 187.586a14.97 14.97 0 0 0-7.455-12.929L192.698 18.137h-.111l-.249-.091-.377.15-.167.2a.56.56 0 0 0-.054.3v210.167c0 2.545 1.355 4.897 3.556 6.174l274.918 159.31z" fill="#fff"/><path d="M188.352 8.766c3.066-1.251 6.54-1.006 9.4.663l270.051 156.522c4.08 2.349 7.405 5.813 9.585 9.985l11.594-7.12c-2.166-4.544-5.66-8.323-10.021-10.838l-16.586-9.6L208.891 1.456a10.59 10.59 0 0 0-12.373 1.216l-.074.045z" fill="#6b5bdf"/><path d="M3.244 364.16a9.76 9.76 0 0 0 2.626 2.227l261.583 152.026a21.93 21.93 0 0 0 8.945 2.864 21.69 21.69 0 0 0 13.225-3.037l169.725-102.408a9.64 9.64 0 0 0 1.918-1.536 9.14 9.14 0 0 0-2.06-14.175L333.923 327.29l-138.828-80.682c-5.942-3.459-13.298-3.404-19.187.145L5.729 349.425c-2.461 1.482-4.152 3.965-4.63 6.798s.306 5.733 2.145 7.941z" fill="#a29afb"/><path d="M95.999 329.018l215.1 125.454c3.596 2.092 8.047 2.056 11.608-.094l88.947-53.654a4.79 4.79 0 0 0-.068-8.245L195.163 266.251c-3.118-1.812-6.976-1.781-10.064.082l-89.173 53.8a5.16 5.16 0 0 0 .074 8.885z" fill="#525575"/><g fill="#3d415b"><path d="M359.638 382.438l7.267-4.395a.8.8 0 0 1 .819 0l7.837 4.533a.39.39 0 0 1 .142.139c.068.12.068.268 0 .388a.37.37 0 0 1-.142.139l-7.245 4.389a.94.94 0 0 1-.946 0l-7.729-4.477a.42.42 0 0 1-.207-.357c-.002-.147.074-.284.2-.36zm-3.912-2.185a.94.94 0 0 1-.946 0l-7.732-4.477a.39.39 0 0 1-.15-.153.42.42 0 0 1 .15-.567l7.268-4.395c.125-.072.267-.11.411-.11a.82.82 0 0 1 .408.11l7.84 4.539a.37.37 0 0 1 .139.139c.072.119.072.269 0 .388a.41.41 0 0 1-.139.139zm-12.584-7.375a.92.92 0 0 1-.946 0l-7.732-4.47a.44.44 0 0 1-.153-.153.41.41 0 0 1-.054-.207.42.42 0 0 1 .054-.21.43.43 0 0 1 .153-.15l7.268-4.4a.79.79 0 0 1 .408-.11.8.8 0 0 1 .411.11l7.837 4.536c.12.069.193.196.193.334 0 .068-.017.134-.051.193a.38.38 0 0 1-.142.142zm-12.614-7.367a.94.94 0 0 1-.946 0l-7.729-4.457a.4.4 0 0 1-.153-.153.41.41 0 0 1-.057-.207.42.42 0 0 1 .21-.363l7.265-4.4a.82.82 0 0 1 .822 0l7.83 4.517a.4.4 0 0 1 .142.142.39.39 0 0 1 0 .385.4.4 0 0 1-.142.142zm-12.592-7.369c-.292.17-.652.17-.944 0l-7.731-4.471a.41.41 0 0 1-.15-.153.41.41 0 0 1 0-.417.41.41 0 0 1 .15-.153l7.268-4.394a.81.81 0 0 1 .819 0l7.837 4.536c.059.034.108.083.142.142s.053.125.054.193a.4.4 0 0 1-.2.334zm-12.61-7.373a.92.92 0 0 1-.944 0l-7.732-4.474c-.095-.055-.165-.146-.193-.252s-.013-.22.043-.315a.39.39 0 0 1 .15-.153l7.268-4.4a.81.81 0 0 1 .819 0l7.837 4.533c.059.034.108.083.142.142a.39.39 0 0 1 0 .385c-.034.059-.083.108-.142.142zm-12.589-7.366a.94.94 0 0 1-.946 0l-7.729-4.474a.4.4 0 0 1-.207-.36.42.42 0 0 1 .054-.21c.037-.064.089-.116.153-.153l7.264-4.4a.84.84 0 0 1 .822 0l7.837 4.539c.058.035.106.084.139.142.068.118.068.264 0 .382-.033.058-.081.107-.139.142zm-12.606-7.367a.92.92 0 0 1-.946 0l-7.729-4.474c-.064-.037-.116-.089-.153-.153a.4.4 0 0 1 0-.414.4.4 0 0 1 .153-.153l7.265-4.4a.82.82 0 0 1 .822 0l7.831 4.547a.43.43 0 0 1 .139.145c.068.119.068.264 0 .383-.033.058-.081.107-.139.142zm-12.602-7.367c-.292.17-.652.17-.944 0l-7.732-4.474a.43.43 0 0 1-.15-.153.4.4 0 0 1 0-.414.41.41 0 0 1 .15-.153l7.268-4.4a.8.8 0 0 1 .411-.111.78.78 0 0 1 .408.111l7.84 4.533a.39.39 0 0 1 0 .669zm-12.6-7.375a.93.93 0 0 1-.473.13.92.92 0 0 1-.47-.13l-7.732-4.466a.41.41 0 0 1-.207-.36c.001-.073.019-.145.054-.21a.43.43 0 0 1 .153-.15l7.268-4.4a.8.8 0 0 1 .819 0l7.837 4.536a.35.35 0 0 1 .139.142.39.39 0 0 1 0 .385c-.032.059-.08.108-.139.142zm-12.606-7.367a.91.91 0 0 1-.946 0l-7.727-4.466a.44.44 0 0 1-.153-.153.41.41 0 0 1-.054-.207.42.42 0 0 1 .054-.21.43.43 0 0 1 .153-.15l7.265-4.4a.8.8 0 0 1 .819 0l7.84 4.536a.37.37 0 0 1 .139.142.39.39 0 0 1-.139.527zm-12.591-7.372c-.143.084-.307.129-.473.128a.93.93 0 0 1-.47-.128l-7.721-4.463a.43.43 0 0 1-.15-.153.41.41 0 0 1-.057-.207c0-.148.079-.285.207-.36l7.248-4.395a.79.79 0 0 1 .408-.113.81.81 0 0 1 .411.113l7.84 4.533a.35.35 0 0 1 .139.142.39.39 0 0 1 0 .385.37.37 0 0 1-.139.142zm-12.611-7.361a.92.92 0 0 1-.946 0l-7.732-4.466a.43.43 0 0 1-.15-.153.42.42 0 0 1-.057-.207c0-.148.079-.285.207-.36l7.265-4.4a.8.8 0 0 1 .819 0l7.843 4.536a.4.4 0 0 1 .139.142.39.39 0 0 1-.139.527zm-12.588-7.372a.93.93 0 0 1-.949 0l-7.721-4.46a.44.44 0 0 1-.153-.153c-.072-.129-.072-.285 0-.414.037-.064.089-.116.153-.153l7.262-4.4a.8.8 0 0 1 .822 0l7.84 4.533a.37.37 0 0 1 .139.142.39.39 0 0 1 0 .385c-.033.058-.081.107-.139.142zm140.649 99.32l7.265-4.395a.79.79 0 0 1 .408-.113.81.81 0 0 1 .411.113l7.837 4.536c.12.069.193.196.193.334 0 .068-.017.134-.051.193s-.083.108-.142.142l-7.245 4.383a.93.93 0 0 1-.949 0l-7.727-4.471a.44.44 0 0 1-.153-.153c-.035-.065-.053-.137-.054-.21s.019-.144.054-.207.09-.116.153-.152zm-4.516-11.779l7.837 4.536c.12.069.193.196.193.334 0 .068-.017.134-.051.193a.38.38 0 0 1-.142.142l-7.245 4.383a.93.93 0 0 1-.949 0l-7.729-4.471c-.064-.037-.116-.089-.153-.153a.41.41 0 0 1-.054-.207.42.42 0 0 1 .054-.21.41.41 0 0 1 .153-.15l7.262-4.4c.125-.074.268-.113.414-.113a.81.81 0 0 1 .41.116zm-12.95 2.236l-7.732-4.474a.43.43 0 0 1-.15-.153.42.42 0 0 1-.057-.207.42.42 0 0 1 .057-.21.4.4 0 0 1 .15-.15l7.268-4.4a.8.8 0 0 1 .822 0l7.842 4.537a.4.4 0 0 1 .142.142c.034.059.052.125.051.193s-.017.134-.051.193-.084.107-.142.142l-7.245 4.386c-.293.172-.656.172-.949 0zm-12.25-16.966l7.84 4.539a.39.39 0 0 1 .139.142c.035.058.054.125.054.193s-.02.134-.054.193a.38.38 0 0 1-.139.139l-7.248 4.386c-.291.173-.655.173-.946 0l-7.732-4.474a.4.4 0 0 1-.15-.15.42.42 0 0 1-.057-.21c.002-.148.08-.284.207-.36l7.268-4.4c.125-.072.267-.109.411-.11a.8.8 0 0 1 .407.112zm-12.594-7.37l7.837 4.533c.059.034.108.083.142.142a.39.39 0 0 1 0 .385c-.034.059-.083.108-.142.142l-7.245 4.383a.92.92 0 0 1-.946 0l-7.732-4.471a.41.41 0 0 1-.207-.36c.001-.073.019-.145.054-.21a.43.43 0 0 1 .153-.15l7.268-4.4a.8.8 0 0 1 .819 0zm-12.6-7.375l7.837 4.539a.37.37 0 0 1 .142.139c.033.059.051.125.051.193 0 .138-.073.265-.193.334l-7.245 4.386c-.294.17-.655.17-.949 0l-7.729-4.474a.4.4 0 0 1-.153-.153c-.076-.128-.076-.286 0-.414a.42.42 0 0 1 .153-.153l7.265-4.4a.83.83 0 0 1 .822 0zm-12.603-7.355l7.84 4.539c.058.035.106.084.139.142.068.118.068.264 0 .382a.39.39 0 0 1-.139.142l-7.251 4.386a.9.9 0 0 1-.943 0l-7.732-4.474c-.128-.075-.207-.212-.207-.36a.41.41 0 0 1 .057-.207.44.44 0 0 1 .15-.153l7.267-4.4c.125-.072.267-.109.411-.11s.284.04.408.113zm-12.599-7.375l7.837 4.533c.059.035.108.085.142.145a.4.4 0 0 1 0 .382c-.034.059-.083.108-.142.142l-7.248 4.386c-.292.17-.652.17-.944 0l-7.732-4.477a.39.39 0 0 1-.15-.153c-.076-.128-.076-.286 0-.414a.41.41 0 0 1 .15-.153l7.268-4.4a.8.8 0 0 1 .411-.108.79.79 0 0 1 .408.117zm-12.595-7.367l7.837 4.536a.39.39 0 0 1 .139.527.44.44 0 0 1-.139.142l-7.242 4.378a.94.94 0 0 1-.946 0l-7.729-4.474a.39.39 0 0 1-.153-.15.42.42 0 0 1-.054-.21.41.41 0 0 1 .054-.207c.037-.064.089-.116.153-.153l7.265-4.395a.78.78 0 0 1 .408-.108.8.8 0 0 1 .407.114zm-12.599-7.373l7.837 4.536a.39.39 0 0 1 .139.527.44.44 0 0 1-.139.142l-7.248 4.383a.92.92 0 0 1-.946 0l-7.729-4.477a.39.39 0 0 1-.153-.15.42.42 0 0 1 .152-.57l7.265-4.394a.78.78 0 0 1 .411-.11.81.81 0 0 1 .411.113zm-12.603-7.368l7.84 4.533a.39.39 0 0 1 .139.527.4.4 0 0 1-.139.142l-7.251 4.389a.95.95 0 0 1-.47.128.94.94 0 0 1-.473-.128l-7.732-4.477a.43.43 0 0 1-.15-.153c-.076-.128-.076-.286 0-.414a.41.41 0 0 1 .15-.153l7.268-4.366a.8.8 0 0 1 .405-.128.78.78 0 0 1 .413.1zm-12.583-7.368l7.837 4.536a.37.37 0 0 1 .139.142.39.39 0 0 1 0 .385.35.35 0 0 1-.139.142l-7.248 4.386a.96.96 0 0 1-.473.128c-.166.001-.327-.045-.47-.128l-7.732-4.474c-.064-.037-.116-.089-.153-.153-.072-.129-.072-.285 0-.414.037-.064.089-.116.153-.153l7.267-4.4a.79.79 0 0 1 .408-.11.8.8 0 0 1 .411.113zm-20.699-2.963l7.265-4.4a.82.82 0 0 1 .822 0l7.837 4.533a.41.41 0 0 1 .139.142.39.39 0 0 1-.139.527l-7.242 4.392a.94.94 0 0 1-.946 0l-7.729-4.477a.41.41 0 0 1-.21-.357.39.39 0 0 1 .054-.21c.035-.063.086-.115.149-.15zm3.328-6.57l-7.248 4.386c-.143.083-.305.126-.47.127a.94.94 0 0 1-.473-.127l-7.732-4.463a.41.41 0 0 1-.15-.153c-.076-.128-.076-.286 0-.414a.43.43 0 0 1 .15-.153l7.265-4.4c.125-.073.267-.111.411-.11a.79.79 0 0 1 .408.11l7.843 4.536a.42.42 0 0 1 .13.142.4.4 0 0 1 .048.187.35.35 0 0 1-.051.187.37.37 0 0 1-.131.145zm120.814 97.058a.39.39 0 0 1-.15-.153.41.41 0 0 1-.057-.207.42.42 0 0 1 .057-.21.41.41 0 0 1 .15-.153l7.265-4.394a.79.79 0 0 1 .408-.11.8.8 0 0 1 .411.11l2.964 1.714h.051l3.069 1.791 1.754 1.014 12.591 7.355a.4.4 0 0 1 .142.142c.034.059.052.125.051.193s-.017.134-.051.193a.4.4 0 0 1-.142.142l-7.245 4.383a.93.93 0 0 1-.949 0l-14.206-8.3zm-3.925-2.907a.93.93 0 0 1-.949 0l-7.726-4.471a.44.44 0 0 1-.153-.153.41.41 0 0 1-.054-.207.42.42 0 0 1 .054-.21.43.43 0 0 1 .153-.15l7.264-4.4a.79.79 0 0 1 .408-.113.8.8 0 0 1 .411.113l7.837 4.536c.12.069.193.196.193.334 0 .068-.017.134-.051.193s-.083.108-.142.142zm-13.203-16.955l7.837 4.536c.119.068.193.195.193.333s-.074.265-.193.333l-7.239 4.375a.93.93 0 0 1-.949 0l-7.729-4.474a.42.42 0 0 1-.153-.153c-.037-.063-.056-.134-.056-.207a.42.42 0 0 1 .056-.21.41.41 0 0 1 .153-.15l7.262-4.4a.81.81 0 0 1 .411-.1c.143.004.284.044.407.117zm-12.594-7.372l7.84 4.536a.4.4 0 0 1 .142.142.41.41 0 0 1 .051.193.42.42 0 0 1-.051.193.43.43 0 0 1-.142.142l-7.248 4.383a.92.92 0 0 1-.473.127c-.166.001-.329-.043-.473-.127l-7.732-4.471a.43.43 0 0 1-.15-.153.42.42 0 0 1-.057-.207.42.42 0 0 1 .057-.21.4.4 0 0 1 .15-.15l7.267-4.4a.81.81 0 0 1 .411-.113.79.79 0 0 1 .408.115zm-12.6-7.367l7.837 4.536c.059.034.108.083.142.142a.38.38 0 0 1 .054.193c-.001.068-.019.135-.054.193s-.083.108-.142.142l-7.248 4.382a.92.92 0 0 1-.946 0l-7.732-4.471c-.127-.076-.205-.212-.207-.36a.42.42 0 0 1 .057-.21.4.4 0 0 1 .15-.15l7.268-4.375c.121-.077.261-.119.405-.122a.78.78 0 0 1 .416.1zm-12.6-7.372l7.837 4.536c.059.034.108.083.142.142.068.118.068.264 0 .382-.034.059-.083.108-.142.142l-7.248 4.386a.93.93 0 0 1-.473.13.92.92 0 0 1-.47-.13l-7.732-4.474a.44.44 0 0 1-.153-.153.41.41 0 0 1-.054-.207.42.42 0 0 1 .054-.21.43.43 0 0 1 .153-.15l7.268-4.394a.79.79 0 0 1 .408-.113.81.81 0 0 1 .41.113zm-12.603-7.369l7.84 4.539c.058.035.106.084.139.142.068.118.068.264 0 .382a.39.39 0 0 1-.139.142l-7.242 4.395a.92.92 0 0 1-.946 0l-7.729-4.471a.42.42 0 0 1-.153-.57.39.39 0 0 1 .153-.15l7.265-4.4c.123-.073.262-.113.405-.116a.81.81 0 0 1 .407.107zm-12.594-7.367l7.837 4.536c.059.033.107.082.139.142a.39.39 0 0 1 0 .385.38.38 0 0 1-.139.142l-7.248 4.383a.92.92 0 0 1-.943 0l-7.727-4.462a.41.41 0 0 1-.15-.153c-.076-.128-.076-.286 0-.414a.41.41 0 0 1 .15-.153l7.268-4.4a.81.81 0 0 1 .813-.009zm-12.6-7.37l7.837 4.536c.059.034.108.083.142.142a.4.4 0 0 1 .048.19.41.41 0 0 1-.048.193.4.4 0 0 1-.142.142l-7.248 4.386a.92.92 0 0 1-.943 0l-7.732-4.474a.41.41 0 0 1-.207-.36.45.45 0 0 1 .054-.21.41.41 0 0 1 .153-.15l7.267-4.395a.79.79 0 0 1 .408-.113.8.8 0 0 1 .411.113zm-12.951 2.227l-7.729-4.474a.42.42 0 0 1-.153-.153c-.072-.129-.072-.285 0-.414a.4.4 0 0 1 .153-.153l7.265-4.4a.82.82 0 0 1 .822 0l7.837 4.536a.41.41 0 0 1 .139.142.39.39 0 0 1 0 .385c-.033.058-.081.107-.139.142l-7.248 4.386a.94.94 0 0 1-.946 0zm-13.07-16.949a.8.8 0 0 1 .822 0l7.837 4.533c.058.035.106.084.139.142.068.119.068.264 0 .383-.033.058-.081.107-.139.142l-7.25 4.386c-.142.084-.305.128-.47.127s-.33-.043-.473-.127l-7.732-4.477c-.128-.074-.207-.212-.207-.36a.41.41 0 0 1 .056-.207.43.43 0 0 1 .15-.153zm-11.778-7.389l7.84 4.539c.058.035.106.084.139.142.068.118.068.264 0 .382-.033.058-.081.107-.139.142l-7.248 4.386a.94.94 0 0 1-.947 0l-2.709-1.567a.16.16 0 0 1-.116-.031l-17.5-10.245c-.064-.037-.116-.089-.153-.153-.072-.129-.072-.285 0-.414a.42.42 0 0 1 .153-.153l7.265-4.4a.79.79 0 0 1 .408-.11.8.8 0 0 1 .411.11l12.585 7.364zm128.644 101.547l7.265-4.386a.81.81 0 0 1 .411-.113.79.79 0 0 1 .408.113l7.843 4.536c.058.035.106.084.139.142s.051.123.051.19-.017.134-.051.193-.081.107-.139.142l-7.248 4.386c-.292.174-.655.174-.947 0l-7.729-4.474a.47.47 0 0 1-.156-.153c-.076-.129-.076-.29 0-.419a.42.42 0 0 1 .153-.157zm3.332-6.574l-7.245 4.386a.93.93 0 0 1-.949 0l-7.729-4.46a.42.42 0 0 1-.153-.153.41.41 0 0 1-.054-.207.42.42 0 0 1 .054-.21.41.41 0 0 1 .153-.15l7.262-4.4a.82.82 0 0 1 .822 0l7.84 4.536a.4.4 0 0 1 .133.142c.031.057.048.122.048.187a.4.4 0 0 1-.048.187.42.42 0 0 1-.134.142zm-12.588-7.366l-7.262 4.392a.94.94 0 0 1-.946 0l-7.729-4.477a.41.41 0 0 1-.15-.153.42.42 0 0 1 .15-.567l7.265-4.4a.8.8 0 0 1 .411-.11.79.79 0 0 1 .408.11l7.843 4.533c.122.067.198.193.2.332a.38.38 0 0 1-.048.193.39.39 0 0 1-.142.147zm-20.805-2.974l-7.738-4.482a.41.41 0 0 1-.15-.153c-.076-.128-.076-.286 0-.414a.39.39 0 0 1 .15-.153l7.265-4.4c.253-.147.566-.147.819 0l7.837 4.536c.059.034.108.083.142.142a.39.39 0 0 1 0 .385c-.034.059-.083.108-.142.142l-7.245 4.386a.97.97 0 0 1-.468.13c-.164.002-.326-.039-.47-.119zm-12.597-7.363l-7.732-4.474a.41.41 0 0 1-.153-.15.42.42 0 0 1-.054-.21.41.41 0 0 1 .054-.207.44.44 0 0 1 .153-.153l7.267-4.394a.79.79 0 0 1 .408-.11.8.8 0 0 1 .411.11l7.843 4.525a.37.37 0 0 1 .142.139c.034.059.051.125.051.193 0 .138-.073.265-.193.334l-7.245 4.386a.92.92 0 0 1-.952.011zm-12.597-7.367l-7.743-4.477a.4.4 0 0 1-.153-.153c-.076-.128-.076-.286 0-.414a.4.4 0 0 1 .153-.153l7.287-4.4c.253-.147.566-.147.819 0l7.837 4.536c.121.068.197.195.2.334s-.078.265-.2.332l-7.245 4.395a.94.94 0 0 1-.476.133.91.91 0 0 1-.479-.133zm-12.608-7.363l-7.732-4.474c-.095-.055-.165-.146-.193-.252s-.013-.22.043-.315a.43.43 0 0 1 .15-.153l7.268-4.4a.8.8 0 0 1 .411-.11.79.79 0 0 1 .408.11l7.845 4.513a.4.4 0 0 1 .142.142c.034.059.052.125.051.193s-.017.134-.051.193-.084.107-.142.142l-7.245 4.383a.93.93 0 0 1-.955.025zm-12.595-7.379l-7.732-4.465a.42.42 0 0 1-.153-.153c-.072-.129-.072-.285 0-.414a.42.42 0 0 1 .153-.153l7.27-4.409a.8.8 0 0 1 .819 0l7.828 4.522a.38.38 0 0 1 .193.334c0 .068-.018.134-.051.193a.37.37 0 0 1-.142.139l-7.245 4.386a.94.94 0 0 1-.941.02zm-12.605-7.362l-7.732-4.477c-.064-.037-.116-.089-.153-.153-.072-.129-.072-.285 0-.414a.44.44 0 0 1 .153-.153l7.268-4.395a.79.79 0 0 1 .408-.11.8.8 0 0 1 .411.11l7.843 4.525c.119.068.193.195.193.333s-.074.265-.193.333l-7.248 4.389a.93.93 0 0 1-.949.011zm-12.591-7.379l-7.732-4.471a.43.43 0 0 1-.15-.153.41.41 0 0 1-.057-.207.42.42 0 0 1 .207-.36l7.265-4.4a.81.81 0 0 1 .411-.113.79.79 0 0 1 .408.113l7.84 4.533a.39.39 0 0 1 .139.527.41.41 0 0 1-.139.142l-7.25 4.383c-.142.085-.304.13-.47.13a.94.94 0 0 1-.472-.124zm-12.6-7.359l-7.732-4.477c-.127-.076-.205-.212-.207-.36a.42.42 0 0 1 .057-.21.4.4 0 0 1 .15-.15l7.267-4.4a.8.8 0 0 1 .819 0l7.828 4.525c.059.033.107.082.139.142a.39.39 0 0 1 0 .385c-.032.06-.08.11-.139.145l-7.248 4.38a.94.94 0 0 1-.935.017zm-12.252-16.982l7.837 4.556a.37.37 0 0 1 .139.142.39.39 0 0 1-.139.527l-7.248 4.383c-.291.173-.655.173-.946 0l-7.724-4.474a.41.41 0 0 1-.207-.36c.001-.073.019-.145.054-.21a.41.41 0 0 1 .153-.15l7.256-4.4c.251-.156.567-.163.824-.017zm-12.945 2.241l-7.729-4.471c-.064-.037-.116-.089-.153-.153a.41.41 0 0 1-.057-.207.42.42 0 0 1 .057-.21.39.39 0 0 1 .153-.15l7.265-4.4a.8.8 0 0 1 .819 0l7.826 4.525c.058.035.106.084.139.142.068.118.068.264 0 .382-.033.058-.081.107-.139.142l-7.25 4.386a.91.91 0 0 1-.462.133.9.9 0 0 1-.469-.119zm-4.406-11.772l-7.25 4.383a.95.95 0 0 1-.47.128.94.94 0 0 1-.473-.128l-7.732-4.477a.41.41 0 0 1-.15-.153.4.4 0 0 1 0-.414.41.41 0 0 1 .15-.153l7.25-4.381c.124-.072.265-.11.408-.11s.284.039.408.11l7.84 4.539a.37.37 0 0 1 .19.323.36.36 0 0 1-.042.19.4.4 0 0 1-.129.143zm133.399 103.714l7.265-4.4c.253-.147.566-.147.819 0l7.84 4.536a.39.39 0 0 1 .139.142c.068.119.068.264 0 .383a.39.39 0 0 1-.139.142l-7.248 4.386c-.294.17-.655.17-.949 0l-7.727-4.474a.4.4 0 0 1-.15-.15.42.42 0 0 1-.057-.207.43.43 0 0 1 .207-.36zm-3.907-2.187a.94.94 0 0 1-.946 0l-7.729-4.477a.39.39 0 0 1-.15-.153c-.076-.128-.076-.286 0-.414a.41.41 0 0 1 .15-.153l7.265-4.4c.253-.147.566-.147.819 0l7.84 4.536a.39.39 0 0 1 .139.527.35.35 0 0 1-.139.142zm-13.558-7.358l-7.729-4.466a.44.44 0 0 1-.153-.153.43.43 0 0 1 0-.417.44.44 0 0 1 .153-.153l7.265-4.395a.79.79 0 0 1 .408-.113.81.81 0 0 1 .411.113l7.831 4.508a.38.38 0 0 1 .142.142.39.39 0 0 1 0 .385.38.38 0 0 1-.142.142l-7.245 4.386a.94.94 0 0 1-.941.02zm-12.597-7.367l-7.727-4.474a.41.41 0 0 1-.153-.15.43.43 0 0 1-.057-.21.42.42 0 0 1 .21-.36l7.262-4.4a.82.82 0 0 1 .822 0l7.837 4.536c.12.068.195.195.195.333a.38.38 0 0 1-.195.333l-7.237 4.381a.94.94 0 0 1-.955.011zm-12.596-7.373l-7.729-4.474a.43.43 0 0 1-.15-.153.41.41 0 0 1-.057-.207.42.42 0 0 1 .057-.21.4.4 0 0 1 .15-.15l7.268-4.395a.81.81 0 0 1 .411-.113.79.79 0 0 1 .408.113l7.84 4.536a.37.37 0 0 1 .139.142.38.38 0 0 1 .054.193c-.001.068-.019.135-.054.193a.37.37 0 0 1-.139.142l-7.248 4.383a.92.92 0 0 1-.473.13.94.94 0 0 1-.477-.13zm-12.6-7.366l-7.732-4.472a.43.43 0 0 1-.153-.15.45.45 0 0 1-.054-.21.41.41 0 0 1 .207-.36l7.267-4.4a.81.81 0 0 1 .819 0l7.837 4.539a.38.38 0 0 1 .142.139c.052.088.066.194.04.293a.38.38 0 0 1-.182.234l-7.245 4.375c-.289.177-.653.181-.946.011zm-12.605-7.37l-7.729-4.477c-.064-.037-.116-.089-.153-.153-.072-.129-.072-.285 0-.414a.44.44 0 0 1 .153-.153l7.265-4.4a.82.82 0 0 1 .822 0l7.831 4.536a.4.4 0 0 1 .142.142c.034.059.051.125.051.193a.38.38 0 0 1-.193.334l-7.245 4.389c-.293.166-.651.166-.944 0zm-12.598-7.369l-7.729-4.477a.39.39 0 0 1-.153-.15.42.42 0 0 1 .153-.57l7.265-4.392a.8.8 0 0 1 .822 0l7.837 4.536c.12.069.193.196.193.334 0 .068-.017.134-.051.193a.4.4 0 0 1-.142.142l-7.253 4.372a.94.94 0 0 1-.468.133.93.93 0 0 1-.474-.121zm-12.599-7.376l-7.715-4.471a.41.41 0 0 1-.15-.153c-.036-.063-.056-.134-.056-.207a.42.42 0 0 1 .056-.21c.037-.064.087-.115.15-.15l7.268-4.4c.253-.147.566-.147.819 0l7.837 4.536c.12.069.193.196.193.334 0 .068-.017.134-.051.193a.4.4 0 0 1-.142.142l-7.248 4.383a.9.9 0 0 1-.479.136.9.9 0 0 1-.482-.133zm-12.595-7.36l-7.732-4.477c-.064-.037-.116-.089-.153-.153-.072-.129-.072-.285 0-.414.037-.064.089-.116.153-.153l7.267-4.4a.79.79 0 0 1 .408-.11c.144-.001.286.037.411.11l7.837 4.533a.38.38 0 0 1 .142.142c.034.059.051.125.051.193 0 .138-.073.265-.193.334l-7.256 4.38a.97.97 0 0 1-.468.13.95.95 0 0 1-.467-.115zm-12.599-7.37l-7.721-4.474a.41.41 0 0 1-.153-.15.42.42 0 0 1 .153-.57l7.25-4.4c.125-.073.267-.111.411-.11a.79.79 0 0 1 .408.11l7.84 4.539c.057.034.105.082.139.139.072.119.072.269 0 .388-.034.057-.082.105-.139.139l-7.25 4.386c-.289.17-.649.17-.938 0zm-12.603-7.367l-7.732-4.474a.42.42 0 0 1 0-.72l7.268-4.4c.125-.073.267-.111.411-.11a.79.79 0 0 1 .408.11l7.84 4.533a.41.41 0 0 1 .139.142.39.39 0 0 1-.139.527l-7.25 4.386a.91.91 0 0 1-.944 0zm-12.598-7.372l-7.729-4.474a.42.42 0 0 1-.153-.153.44.44 0 0 1-.054-.207c-.001-.072.019-.145.054-.21a.44.44 0 0 1 .153-.153l7.268-4.4a.83.83 0 0 1 .819 0l7.837 4.539a.35.35 0 0 1 .139.142c.068.118.068.264 0 .382a.35.35 0 0 1-.139.142l-7.25 4.375c-.289.172-.649.178-.943.014zm-4.405-11.764l-7.248 4.383a.9.9 0 0 1-.944 0l-7.732-4.471a.44.44 0 0 1-.153-.153.41.41 0 0 1-.054-.207.42.42 0 0 1 .054-.21.43.43 0 0 1 .153-.15l7.268-4.4a.79.79 0 0 1 .408-.113.8.8 0 0 1 .411.113l7.837 4.536a.37.37 0 0 1 .139.142.39.39 0 0 1-.139.53zm140.669 99.308a.79.79 0 0 1 .816 0l7.84 4.533a.35.35 0 0 1 .139.142.39.39 0 0 1 0 .385c-.032.06-.08.11-.139.145l-7.248 4.38c-.143.084-.307.129-.473.128a.93.93 0 0 1-.47-.128l-7.732-4.477a.43.43 0 0 1-.153-.15.45.45 0 0 1-.054-.21.41.41 0 0 1 .207-.36zm-12.608-7.366a.8.8 0 0 1 .822 0l7.84 4.53a.39.39 0 0 1 .139.527.44.44 0 0 1-.139.142l-7.245 4.383c-.291.173-.655.173-.946 0l-7.729-4.471a.42.42 0 0 1-.153-.153.41.41 0 0 1-.054-.207.42.42 0 0 1 .054-.21.39.39 0 0 1 .153-.15zm-12.594-7.367a.81.81 0 0 1 .411-.113.8.8 0 0 1 .408.113l7.843 4.533a.39.39 0 0 1 .139.527.44.44 0 0 1-.139.142l-7.248 4.383c-.291.173-.655.173-.946 0l-7.729-4.471a.43.43 0 0 1-.15-.153.41.41 0 0 1-.057-.207.42.42 0 0 1 .057-.21.4.4 0 0 1 .15-.15zm-12.6-7.375c.253-.147.566-.147.819 0l7.84 4.536a.37.37 0 0 1 .139.142.39.39 0 0 1 0 .385.35.35 0 0 1-.139.142l-7.245 4.386a.94.94 0 0 1-.947 0l-7.729-4.477a.39.39 0 0 1-.15-.153c-.076-.128-.076-.286 0-.414a.39.39 0 0 1 .15-.153zm-62.996-36.845a.82.82 0 0 1 .822 0l3.825 2.216a.75.75 0 0 1 .482.085l53.93 31.711a.42.42 0 0 1 .139.142.39.39 0 0 1 0 .385.41.41 0 0 1-.139.142l-7.245 4.386c-.293.17-.656.17-.949 0l-12.475-7.338a.74.74 0 0 1-.125-.031l-7.729-4.474c-.068-.037-.065-.113-.1-.173l-4.516-2.658a.76.76 0 0 1-.25-.065l-7.732-4.477c-.091-.051-.1-.145-.136-.232l-4.358-2.564a.86.86 0 0 1-.374-.1l-7.732-4.474c-.051-.032-.093-.077-.122-.13a.39.39 0 0 1-.051-.173l-4.21-2.476a.96.96 0 0 1-.485-.119l-7.729-4.474c-.064-.037-.116-.089-.153-.153a.41.41 0 0 1-.054-.207.41.41 0 0 1 .207-.363zm-12.604-7.352a.8.8 0 0 1 .822 0l7.837 4.536c.12.069.193.196.193.334 0 .068-.017.134-.051.193a.4.4 0 0 1-.142.142l-7.248 4.383a.92.92 0 0 1-.946 0l-7.729-4.474c-.064-.035-.117-.087-.153-.15a.41.41 0 0 1 0-.417c.037-.064.089-.116.153-.153zm-12.594-7.381c.253-.147.566-.147.819 0l7.84 4.533a.41.41 0 0 1 .139.142c.034.058.053.125.054.193a.38.38 0 0 1-.054.193c-.033.058-.081.107-.139.142l-7.251 4.386a.92.92 0 0 1-.943 0l-7.732-4.474a.39.39 0 0 1-.15-.153.42.42 0 0 1 .15-.567zm-12.602-7.367a.82.82 0 0 1 .822 0l7.837 4.539c.058.035.106.084.139.142.068.118.068.264 0 .382-.033.058-.081.107-.139.142l-7.242 4.386c-.291.17-.652.17-.943 0l-7.732-4.474a.43.43 0 0 1-.153-.15.42.42 0 0 1-.054-.21.41.41 0 0 1 .054-.207.44.44 0 0 1 .153-.153zm-12.594-7.367a.82.82 0 0 1 .822 0l7.837 4.539c.058.035.106.084.139.142.068.118.068.264 0 .382-.033.058-.081.107-.139.142l-7.25 4.386c-.142.086-.304.132-.47.133a.91.91 0 0 1-.473-.133l-7.723-4.474a.41.41 0 0 1-.153-.15.42.42 0 0 1-.057-.21c0-.074.02-.144.057-.207a.42.42 0 0 1 .153-.153zm-19.871-2.974l7.267-4.4a.82.82 0 0 1 .822 0l7.837 4.533a.45.45 0 0 1 .139.142.4.4 0 0 1 .051.193c0 .068-.017.134-.051.193a.4.4 0 0 1-.139.142l-7.251 4.389a.95.95 0 0 1-.47.128.94.94 0 0 1-.473-.128l-7.732-4.477c-.062-.036-.113-.089-.147-.153a.42.42 0 0 1 .147-.564z"/></g><g fill="#83869b"><path d="M359.649 381.65l7.729 4.471a.93.93 0 0 0 .949 0l7.248-4.384a.4.4 0 0 0 .142-.142c.034-.059.051-.125.051-.193.001-.138-.073-.266-.193-.335l-7.831-4.55a.8.8 0 0 0-.411-.11.79.79 0 0 0-.408.11l-7.265 4.4a.46.46 0 0 0-.162.15c-.038.065-.06.138-.062.213a.42.42 0 0 0 .213.37zm-12.603-7.381l7.732 4.477a.94.94 0 0 0 .946 0l7.248-4.386c.058-.034.105-.081.139-.139.072-.119.072-.269 0-.388a.37.37 0 0 0-.139-.139l-7.84-4.536c-.124-.072-.265-.11-.408-.11s-.286.038-.411.11l-7.268 4.4a.45.45 0 0 0-.147.153.42.42 0 0 0 0 .411.44.44 0 0 0 .148.147zm-12.599-7.361l7.732 4.474a.92.92 0 0 0 .946 0l7.245-4.386a.37.37 0 0 0 .142-.139c.033-.059.051-.125.051-.193 0-.138-.073-.265-.193-.334l-7.837-4.55a.8.8 0 0 0-.411-.11.79.79 0 0 0-.408.11l-7.267 4.4a.41.41 0 0 0-.159.153c-.039.064-.06.137-.06.212a.42.42 0 0 0 .218.366zm-12.597-7.375l7.729 4.474a.93.93 0 0 0 .949 0l7.245-4.386c.12-.069.193-.196.193-.334 0-.068-.017-.134-.051-.193a.4.4 0 0 0-.142-.142l-7.837-4.533a.82.82 0 0 0-.822 0l-7.265 4.4a.41.41 0 0 0-.15.153.4.4 0 0 0 0 .411.39.39 0 0 0 .151.15zm-12.603-7.372l7.732 4.477c.143.084.307.129.473.128a.93.93 0 0 0 .47-.128l7.25-4.386a.4.4 0 0 0 .142-.142.39.39 0 0 0 0-.385.41.41 0 0 0-.142-.139l-7.846-4.55a.79.79 0 0 0-.408-.11.8.8 0 0 0-.411.11l-7.267 4.395a.44.44 0 0 0-.159.156c-.037.064-.057.138-.057.212a.44.44 0 0 0 .063.213c.038.064.093.116.16.149zm-12.597-7.364l7.732 4.474c.292.17.652.17.944 0l7.248-4.386a.38.38 0 0 0 .142-.142c.034-.059.052-.125.051-.193s-.017-.134-.051-.193a.4.4 0 0 0-.142-.142l-7.837-4.536c-.253-.147-.566-.147-.819 0l-7.268 4.4c-.095.055-.165.146-.193.252s-.013.22.043.315a.39.39 0 0 0 .15.151zm-12.594-7.37l7.732 4.477c.292.17.652.17.944 0l7.248-4.386c.059-.033.107-.082.139-.142.102-.185.041-.417-.139-.527l-7.848-4.547a.82.82 0 0 0-.822 0l-7.265 4.4a.41.41 0 0 0-.156.156.4.4 0 0 0-.054.213.42.42 0 0 0 .059.21.41.41 0 0 0 .162.146zm-12.6-7.364l7.729 4.474c.144.083.307.127.473.127s.329-.045.473-.127l7.248-4.386c.058-.035.106-.084.139-.142a.39.39 0 0 0 0-.385.45.45 0 0 0-.139-.142l-7.837-4.536a.82.82 0 0 0-.822 0l-7.265 4.4c-.064.037-.116.089-.153.153a.4.4 0 0 0 .154.564zm-12.603-7.366l7.729 4.471a.91.91 0 0 0 .946 0l7.248-4.383a.41.41 0 0 0 .139-.142.39.39 0 0 0-.139-.527l-7.857-4.55a.83.83 0 0 0-.819 0l-7.267 4.4a.44.44 0 0 0-.156.159.43.43 0 0 0-.054.213c.002.076.025.149.065.213a.42.42 0 0 0 .165.146zm-12.6-7.375l7.732 4.477c.143.083.305.126.47.127a.94.94 0 0 0 .473-.127l7.248-4.389a.35.35 0 0 0 .139-.142.39.39 0 0 0 0-.385c-.032-.059-.08-.108-.139-.142l-7.837-4.533c-.253-.147-.566-.147-.819 0l-7.273 4.386a.41.41 0 0 0-.156.153c-.037.064-.057.138-.057.213s.021.147.06.21a.43.43 0 0 0 .159.152zm-12.599-7.365l7.729 4.474a.94.94 0 0 0 .947 0l7.248-4.386c.058-.035.106-.084.139-.142a.39.39 0 0 0 0-.385.41.41 0 0 0-.139-.142l-7.837-4.536a.82.82 0 0 0-.822 0l-7.265 4.4a.4.4 0 0 0-.153.153c-.072.129-.072.285 0 .414a.4.4 0 0 0 .153.15zm-12.586-7.371l7.729 4.471a.91.91 0 0 0 .946 0l7.245-4.383a.41.41 0 0 0 .139-.142.39.39 0 0 0-.139-.527l-7.857-4.542a.79.79 0 0 0-.408-.113.8.8 0 0 0-.408.113l-7.267 4.4a.38.38 0 0 0-.147.156.44.44 0 0 0-.051.21c.003.071.024.14.062.2a.42.42 0 0 0 .156.157zm-12.608-7.364l7.727 4.477c.294.17.655.17.949 0l7.245-4.386a.39.39 0 0 0 .139-.142c.068-.119.068-.264 0-.383a.39.39 0 0 0-.139-.142l-7.84-4.539a.82.82 0 0 0-.822 0l-7.262 4.395c-.064.037-.116.089-.153.153a.44.44 0 0 0-.054.207.42.42 0 0 0 .057.21.41.41 0 0 0 .153.15zm-12.595-7.37l7.729 4.474a.94.94 0 0 0 .946 0l7.245-4.386a.37.37 0 0 0 .139-.142.39.39 0 0 0 0-.385.37.37 0 0 0-.139-.142l-7.84-4.536a.81.81 0 0 0-.411-.113.79.79 0 0 0-.408.113l-7.262 4.406a.46.46 0 0 0-.147.15.43.43 0 0 0-.051.2.42.42 0 0 0 .051.2.45.45 0 0 0 .148.161zm149.326 104.499l7.729 4.474a.94.94 0 0 0 .946 0l7.245-4.386a.4.4 0 0 0 .142-.142c.034-.059.051-.125.051-.193 0-.138-.073-.265-.193-.334l-7.837-4.533a.8.8 0 0 0-.411-.113.79.79 0 0 0-.408.113l-7.265 4.4a.43.43 0 0 0-.15.15.41.41 0 0 0-.054.207.4.4 0 0 0 .054.207c.037.062.089.113.151.15zm-12.6-7.361l7.729 4.488c.294.17.655.17.949 0l7.245-4.386c.059-.034.108-.083.142-.142a.39.39 0 0 0 0-.385c-.034-.059-.083-.108-.142-.142l-7.837-4.536a.82.82 0 0 0-.822 0l-7.262 4.4a.41.41 0 0 0-.145.15c-.033.062-.052.13-.054.2a.42.42 0 0 0 .051.2.44.44 0 0 0 .146.153zm-12.603-7.361l7.732 4.471a.93.93 0 0 0 .949 0l7.245-4.383a.4.4 0 0 0 .142-.142.39.39 0 0 0 0-.385.4.4 0 0 0-.142-.142l-7.837-4.533a.8.8 0 0 0-.822 0l-7.268 4.4c-.062.036-.113.088-.147.15a.42.42 0 0 0-.057.207.41.41 0 0 0 .057.207.4.4 0 0 0 .148.15zm-12.602-7.375l7.732 4.474c.144.083.307.127.473.127s.329-.044.473-.127l7.245-4.386c.059-.034.108-.083.142-.142a.39.39 0 0 0 0-.385.38.38 0 0 0-.142-.142l-7.837-4.536a.8.8 0 0 0-.819 0l-7.267 4.395c-.127.076-.205.212-.207.36a.42.42 0 0 0 .057.21.41.41 0 0 0 .15.152zm-12.595-7.376l7.732 4.474a.92.92 0 0 0 .946 0l7.245-4.383a.4.4 0 0 0 .142-.142c.034-.059.051-.125.051-.193 0-.138-.073-.265-.193-.334l-7.837-4.536a.8.8 0 0 0-.411-.113.79.79 0 0 0-.408.113l-7.267 4.395a.44.44 0 0 0-.153.153.41.41 0 0 0-.054.207.42.42 0 0 0 .054.21.41.41 0 0 0 .153.149zm-12.603-7.369l7.729 4.477a.93.93 0 0 0 .476.122.96.96 0 0 0 .47-.136l7.248-4.386c.12-.069.193-.196.193-.334 0-.068-.017-.134-.051-.193a.4.4 0 0 0-.142-.142l-7.837-4.533a.82.82 0 0 0-.822 0l-7.265 4.4a.42.42 0 0 0-.159.578.4.4 0 0 0 .16.147zm-12.596-7.369l7.732 4.474c.143.084.307.129.473.128a.93.93 0 0 0 .47-.128l7.25-4.383a.4.4 0 0 0 .193-.334.38.38 0 0 0-.054-.193.37.37 0 0 0-.139-.142l-7.845-4.55c-.253-.147-.566-.147-.819 0l-7.267 4.4a.44.44 0 0 0-.159.156.42.42 0 0 0-.057.212c.001.075.022.149.062.213s.094.114.16.147zm-12.597-7.367l7.732 4.474a.92.92 0 0 0 .944 0l7.248-4.386a.37.37 0 0 0 .139-.142.39.39 0 0 0 0-.385.37.37 0 0 0-.139-.142l-7.837-4.536c-.253-.147-.566-.147-.819 0l-7.268 4.4a.42.42 0 0 0-.153.153c-.072.129-.072.285 0 .414a.44.44 0 0 0 .153.15zm-12.603-7.369l7.732 4.477c.291.17.652.17.943 0l7.248-4.389c.059-.033.107-.082.139-.142.068-.119.068-.264 0-.383-.032-.06-.08-.109-.139-.142l-7.837-4.536a.81.81 0 0 0-.819 0l-7.273 4.4a.42.42 0 0 0-.147.153.41.41 0 0 0-.051.207.41.41 0 0 0 .2.354zm-12.6-7.37l7.732 4.474c.143.084.307.129.473.128a.93.93 0 0 0 .47-.128l7.251-4.386c.058-.035.106-.084.139-.142.068-.118.068-.264 0-.382a.39.39 0 0 0-.139-.142l-7.837-4.539a.82.82 0 0 0-.822 0l-7.268 4.4a.43.43 0 0 0-.15.153c-.076.128-.076.286 0 .414a.41.41 0 0 0 .151.15zm-12.597-7.369l7.732 4.474a.92.92 0 0 0 .943 0l7.25-4.386a.38.38 0 0 0 .139-.142c.033-.059.05-.125.051-.193a.4.4 0 0 0-.051-.19.42.42 0 0 0-.139-.145l-7.84-4.533a.79.79 0 0 0-.408-.111.8.8 0 0 0-.411.111l-7.267 4.4c-.195.116-.262.367-.15.564a.41.41 0 0 0 .151.151zm-12.597-7.367l7.732 4.471a.92.92 0 0 0 .47.13.93.93 0 0 0 .473-.13l7.248-4.383a.39.39 0 0 0 .139-.527.35.35 0 0 0-.139-.142l-7.828-4.55a.79.79 0 0 0-.408-.11.8.8 0 0 0-.411.11l-7.268 4.395a.44.44 0 0 0-.161.153.42.42 0 0 0-.06.213c-.002.076.018.15.057.215a.41.41 0 0 0 .156.155zm-12.603-7.369l7.729 4.468a.92.92 0 0 0 .946 0l7.245-4.386a.39.39 0 0 0 .139-.527.41.41 0 0 0-.139-.142l-7.843-4.542c-.253-.147-.566-.147-.819 0l-7.265 4.4a.39.39 0 0 0-.159.153c-.037.065-.06.139-.057.215a.41.41 0 0 0 .059.212c.04.064.097.115.164.149zm-12.599-7.376l7.729 4.477a.94.94 0 0 0 .946 0l7.245-4.386c.059-.034.108-.083.142-.142a.39.39 0 0 0 0-.385.4.4 0 0 0-.142-.142l-7.831-4.542a.79.79 0 0 0-.408-.11.8.8 0 0 0-.411.11l-7.265 4.4a.43.43 0 0 0-.153.15c-.038.062-.058.136-.059.21a.45.45 0 0 0 .054.21.44.44 0 0 0 .153.15zm139.745 98.872l17.309 10.115a.93.93 0 0 0 .949 0l7.245-4.386a.39.39 0 0 0 .139-.142c.068-.119.068-.264 0-.383a.39.39 0 0 0-.139-.142l-17.425-10.18c-.253-.147-.566-.147-.819 0l-7.267 4.4a.43.43 0 0 0-.15.153c-.035.064-.053.137-.051.21a.4.4 0 0 0 .056.207c.038.061.09.112.153.148z"/><path d="M318.127 391.7l7.729 4.476a.93.93 0 0 0 .476.122.92.92 0 0 0 .47-.139l7.245-4.383c.059-.034.108-.083.142-.142a.37.37 0 0 0 0-.385c-.034-.059-.083-.108-.142-.142l-7.845-4.539a.8.8 0 0 0-.819 0l-7.265 4.4a.39.39 0 0 0-.159.153.41.41 0 0 0-.06.215.4.4 0 0 0 .063.213.42.42 0 0 0 .165.151zm-12.603-7.37l7.736 4.479a.94.94 0 0 0 .947 0l7.248-4.386a.39.39 0 0 0 .139-.142.38.38 0 0 0 .054-.193c-.001-.068-.019-.135-.054-.193a.41.41 0 0 0-.139-.142l-7.84-4.536a.79.79 0 0 0-.408-.113.81.81 0 0 0-.411.113l-7.265 4.395a.43.43 0 0 0-.15.153.41.41 0 0 0-.057.207.42.42 0 0 0 .054.21.43.43 0 0 0 .146.148zm-12.594-7.372l7.729 4.471a.93.93 0 0 0 .949 0l7.245-4.383c.059-.034.108-.083.142-.142a.39.39 0 0 0 0-.385c-.034-.059-.083-.108-.142-.142l-7.837-4.536a.8.8 0 0 0-.822 0l-7.27 4.4a.42.42 0 0 0-.153.153c-.07.13-.068.286.006.414a.4.4 0 0 0 .153.15zm-12.6-7.366l7.732 4.474a.93.93 0 0 0 .949 0l7.249-4.384a.4.4 0 0 0 .142-.142.39.39 0 0 0 0-.385.4.4 0 0 0-.142-.142l-7.837-4.533a.8.8 0 0 0-.822 0l-7.268 4.4a.44.44 0 0 0-.147.15.42.42 0 0 0 0 .411c.035.061.085.113.144.151zm-12.6-7.371l7.732 4.471c.292.174.655.174.947 0l7.248-4.383c.058-.035.106-.084.139-.142s.053-.125.054-.193a.38.38 0 0 0-.054-.193c-.033-.058-.081-.107-.139-.142l-7.846-4.533a.8.8 0 0 0-.819 0l-7.268 4.4c-.195.116-.259.368-.145.564a.41.41 0 0 0 .151.151zm-12.597-7.366l7.732 4.471c.141.087.304.134.47.133a.9.9 0 0 0 .473-.133l7.246-4.387c.059-.034.108-.083.142-.142s.051-.125.051-.193c0-.138-.073-.265-.193-.334l-7.837-4.533a.8.8 0 0 0-.411-.113.79.79 0 0 0-.408.113l-7.268 4.4a.43.43 0 0 0-.15.15c-.037.062-.054.134-.054.207a.4.4 0 0 0 .054.207.43.43 0 0 0 .153.154zm-12.6-7.372l7.732 4.462c.143.084.307.129.473.128a.93.93 0 0 0 .47-.128l7.251-4.383a.4.4 0 0 0 .142-.142.39.39 0 0 0 0-.385.4.4 0 0 0-.142-.142l-7.837-4.532a.8.8 0 0 0-.822 0l-7.267 4.395a.41.41 0 0 0-.159.153.42.42 0 0 0-.06.213c.001.075.022.148.06.213a.43.43 0 0 0 .159.148zm-12.599-7.378l7.732 4.474c.292.17.652.17.944 0l7.25-4.386c.058-.035.106-.084.139-.142.068-.118.068-.264 0-.382a.39.39 0 0 0-.139-.142l-7.84-4.539c-.124-.071-.265-.109-.408-.11s-.286.038-.411.11l-7.268 4.4a.43.43 0 0 0-.15.153.41.41 0 0 0-.057.207c0 .148.079.285.207.36zm-12.597-7.356l7.732 4.474a.92.92 0 0 0 .944 0l7.248-4.406a.35.35 0 0 0 .139-.142c.068-.118.068-.264 0-.382a.35.35 0 0 0-.139-.142l-7.837-4.536c-.125-.072-.267-.109-.411-.11a.8.8 0 0 0-.408.11l-7.268 4.4a.42.42 0 0 0-.161.584c.04.063.096.114.161.15zm-12.603-7.371l7.729 4.474a.94.94 0 0 0 .946 0l7.248-4.383c.057-.036.105-.086.139-.144.068-.118.068-.264 0-.382a.39.39 0 0 0-.139-.142l-7.837-4.536a.8.8 0 0 0-.822 0l-7.265 4.394a.42.42 0 0 0-.153.153.41.41 0 0 0-.054.207.42.42 0 0 0 .054.21.39.39 0 0 0 .154.149zm-12.597-7.37l7.729 4.482a.92.92 0 0 0 .946 0l7.248-4.386a.39.39 0 0 0 .139-.527.41.41 0 0 0-.139-.142l-7.837-4.536a.82.82 0 0 0-.822 0l-7.265 4.4a.4.4 0 0 0-.147.153.41.41 0 0 0-.054.2c.001.07.02.139.054.2a.4.4 0 0 0 .148.156zm-12.6-7.367l7.732 4.477c.143.084.307.128.473.127a.93.93 0 0 0 .47-.127l7.25-4.389a.39.39 0 0 0 .139-.142c.068-.119.068-.264 0-.383-.033-.058-.081-.107-.139-.142l-7.84-4.533a.8.8 0 0 0-.819 0l-7.268 4.395c-.126.076-.202.213-.2.36a.44.44 0 0 0 .054.207c.036.062.087.113.148.15z"/><path d="M166.937 303.271l17.5 10.245a.94.94 0 0 0 .946 0l7.248-4.386a.4.4 0 0 0 .142-.142c.034-.059.051-.125.051-.193 0-.138-.073-.265-.193-.334l-17.612-10.308a.83.83 0 0 0-.408-.111c-.143.001-.284.039-.408.111l-7.268 4.4a.43.43 0 0 0-.153.153c-.072.129-.072.285 0 .414.037.063.091.115.155.151zm149.328 104.502l7.729 4.477a.94.94 0 0 0 .946 0l7.245-4.386a.35.35 0 0 0 .139-.142c.068-.119.068-.264 0-.383-.032-.06-.08-.109-.139-.142l-7.843-4.542c-.125-.073-.267-.111-.411-.11a.79.79 0 0 0-.408.11l-7.265 4.4a.41.41 0 0 0-.15.153.42.42 0 0 0-.054.21c0 .073.02.144.056.207s.092.112.155.148zm-12.597-7.366l7.727 4.474c.294.17.655.17.949 0l7.245-4.386a.4.4 0 0 0 .139-.142c.034-.059.051-.125.051-.193s-.018-.134-.051-.193a.41.41 0 0 0-.139-.142l-7.84-4.536a.82.82 0 0 0-.822 0l-7.259 4.4c-.064.037-.116.089-.153.153-.072.129-.072.285 0 .414a.4.4 0 0 0 .153.151zm-12.6-7.368l7.738 4.471a.92.92 0 0 0 .946 0l7.245-4.383c.059-.034.108-.083.142-.142s.051-.125.051-.193c0-.138-.073-.265-.193-.334l-7.837-4.536c-.253-.147-.566-.147-.819 0l-7.279 4.412a.41.41 0 0 0-.142.553.43.43 0 0 0 .148.152zm-12.608-7.368l7.732 4.477a.94.94 0 0 0 .947 0l7.245-4.389c.121-.068.197-.195.2-.334-.001-.068-.019-.135-.054-.193a.38.38 0 0 0-.142-.142l-7.837-4.533a.81.81 0 0 0-.819 0l-7.267 4.394a.39.39 0 0 0-.15.153c-.076.128-.076.286 0 .414a.39.39 0 0 0 .145.153zm-12.594-7.37l7.735 4.474c.294.17.655.17.949 0l7.25-4.409c.059-.034.108-.083.142-.142s.051-.125.051-.193c0-.138-.073-.265-.193-.334l-7.837-4.536a.8.8 0 0 0-.822 0l-7.265 4.4c-.142.068-.233.211-.235.368a.42.42 0 0 0 .059.218.4.4 0 0 0 .166.154zm-12.605-7.369l7.729 4.474c.294.17.655.17.949 0l7.245-4.386c.059-.034.108-.083.142-.142a.39.39 0 0 0 0-.385.38.38 0 0 0-.142-.142l-7.837-4.533a.82.82 0 0 0-.822 0l-7.265 4.395a.4.4 0 0 0-.153.153c-.076.128-.076.286 0 .414a.42.42 0 0 0 .154.152zm-12.595-7.365l7.729 4.477a.93.93 0 0 0 .949 0l7.25-4.4c.12-.069.193-.196.193-.334 0-.068-.017-.134-.051-.193a.4.4 0 0 0-.142-.142l-7.837-4.536a.8.8 0 0 0-.822 0l-7.265 4.395a.42.42 0 0 0-.161.153c-.038.065-.059.138-.06.213a.41.41 0 0 0 .06.215c.037.065.091.118.157.152zm-12.597-7.372l7.732 4.474a.96.96 0 0 0 .473.128c.166.001.327-.045.47-.128l7.251-4.386a.4.4 0 0 0 .142-.142.39.39 0 0 0 0-.385.4.4 0 0 0-.142-.142l-7.84-4.536a.79.79 0 0 0-.408-.113.81.81 0 0 0-.411.113l-7.284 4.395a.4.4 0 0 0-.15.156c-.035.064-.053.137-.051.21a.41.41 0 0 0 .062.207.4.4 0 0 0 .156.149zm-12.599-7.372l7.724 4.477c.291.17.652.17.943 0l7.256-4.392a.39.39 0 0 0 .139-.142c.035-.058.053-.125.054-.193s-.019-.135-.054-.193a.39.39 0 0 0-.139-.142l-7.84-4.533a.8.8 0 0 0-.408-.113.81.81 0 0 0-.411.113l-7.268 4.4a.41.41 0 0 0-.15.153c-.074.128-.074.286 0 .414a.41.41 0 0 0 .154.151zm-12.597-7.367l7.732 4.471a.93.93 0 0 0 .473.13.92.92 0 0 0 .47-.13l7.25-4.383a.41.41 0 0 0 .139-.142.39.39 0 0 0-.139-.527l-7.837-4.536a.8.8 0 0 0-.822 0l-7.268 4.4a.42.42 0 0 0-.207.36.41.41 0 0 0 .057.207.43.43 0 0 0 .152.15zm-12.597-7.369l7.732 4.474a.9.9 0 0 0 .944 0l7.239-4.4c.059-.033.107-.082.139-.142a.39.39 0 0 0 0-.385.37.37 0 0 0-.139-.142l-7.834-4.536c-.253-.147-.566-.147-.819 0l-7.268 4.4a.46.46 0 0 0-.159.153c-.058.098-.074.215-.043.324s.106.201.207.254zm-12.604-7.368l7.732 4.477a.95.95 0 0 0 .47.128.94.94 0 0 0 .473-.128l7.248-4.389c.059-.034.108-.083.142-.142s.05-.123.051-.19a.42.42 0 0 0-.051-.193c-.034-.059-.083-.108-.142-.142l-7.843-4.562c-.125-.072-.267-.11-.411-.111a.8.8 0 0 0-.408.111l-7.268 4.4a.44.44 0 0 0-.164.156.42.42 0 0 0-.059.218c.001.156.09.298.229.368zm-12.592-7.363l7.729 4.471c.291.173.655.173.946 0l7.248-4.383a.41.41 0 0 0 .139-.142.39.39 0 0 0 0-.385c-.033-.058-.081-.107-.139-.142l-7.837-4.536a.8.8 0 0 0-.822 0l-7.265 4.4a.41.41 0 0 0-.153.15.42.42 0 0 0-.057.21.41.41 0 0 0 .057.207.42.42 0 0 0 .154.15zm-12.602-7.375l7.732 4.471a.9.9 0 0 0 .943 0l7.251-4.383a.45.45 0 0 0 .139-.142.4.4 0 0 0 .051-.193c0-.068-.017-.134-.051-.193a.4.4 0 0 0-.139-.142l-7.84-4.533a.79.79 0 0 0-.408-.113.8.8 0 0 0-.411.113l-7.273 4.386c-.064.038-.117.092-.153.156a.41.41 0 0 0 0 .419.4.4 0 0 0 .159.154zm149.331 104.507l7.732 4.474a.92.92 0 0 0 .47.13.93.93 0 0 0 .473-.13l7.245-4.383a.4.4 0 0 0 .19-.334c0-.068-.017-.134-.051-.193s-.08-.109-.139-.142l-7.84-4.536a.8.8 0 0 0-.411-.113.79.79 0 0 0-.408.113l-7.264 4.395a.41.41 0 0 0-.15.153.42.42 0 0 0-.056.21.4.4 0 0 0 .056.207.41.41 0 0 0 .153.149zm-12.599-7.371l7.727 4.474c.293.17.656.17.949 0l7.245-4.386a.39.39 0 0 0 .139-.527.41.41 0 0 0-.139-.142l-7.84-4.547a.82.82 0 0 0-.822 0l-7.262 4.4a.4.4 0 0 0-.162.153.43.43 0 0 0-.057.213c0 .075.02.149.06.212a.42.42 0 0 0 .162.15zm-12.6-7.37l7.729 4.477c.144.084.307.127.473.127a.92.92 0 0 0 .473-.127l7.248-4.389a.4.4 0 0 0 .139-.139.39.39 0 0 0 0-.385c-.034-.057-.082-.105-.139-.139l-7.843-4.539c-.124-.072-.265-.11-.408-.111a.82.82 0 0 0-.411.111l-7.265 4.4a.4.4 0 0 0-.147.153.41.41 0 0 0-.054.207.43.43 0 0 0 .054.207c.035.063.089.111.151.147zm-12.6-7.364l7.729 4.474c.291.173.655.173.946 0l7.245-4.395c.12-.069.193-.196.193-.334a.39.39 0 0 0-.051-.193.37.37 0 0 0-.142-.139l-7.845-4.542c-.125-.073-.267-.111-.411-.11a.81.81 0 0 0-.408.11l-7.265 4.4a.44.44 0 0 0-.159.156.4.4 0 0 0-.054.213c-.001.075.02.149.06.213a.41.41 0 0 0 .162.147zm-12.602-7.378l7.729 4.477a.94.94 0 0 0 .946 0l7.248-4.386a.4.4 0 0 0 .142-.142c.033-.059.05-.125.051-.193s-.019-.134-.051-.193a.42.42 0 0 0-.142-.142l-7.84-4.533c-.124-.072-.265-.11-.408-.11s-.286.038-.411.11l-7.271 4.392a.43.43 0 0 0-.15.153.45.45 0 0 0-.054.21.41.41 0 0 0 .057.207c.037.063.091.114.154.15zm-12.6-7.361l7.729 4.474a.93.93 0 0 0 .949 0l7.245-4.386a.37.37 0 0 0 .142-.139c.052-.088.066-.194.04-.293a.38.38 0 0 0-.182-.234l-7.854-4.55a.79.79 0 0 0-.408-.11c-.144-.001-.286.037-.411.11l-7.268 4.395a.41.41 0 0 0-.156.156.45.45 0 0 0-.054.215.42.42 0 0 0 .062.213.4.4 0 0 0 .166.149zm-12.597-7.367l7.729 4.474a.94.94 0 0 0 .476.13.93.93 0 0 0 .473-.13l7.245-4.386a.39.39 0 0 0 .142-.139.4.4 0 0 0 0-.388.37.37 0 0 0-.142-.139l-7.837-4.539a.82.82 0 0 0-.822 0l-7.265 4.4a.44.44 0 0 0-.153.153.41.41 0 0 0-.054.207.42.42 0 0 0 .054.21.43.43 0 0 0 .154.147zm-12.601-7.375l7.732 4.477a.93.93 0 0 0 .476.122.94.94 0 0 0 .47-.136l7.248-4.386a.4.4 0 0 0 .142-.142.39.39 0 0 0 0-.385c-.034-.059-.083-.108-.142-.142l-7.84-4.533a.79.79 0 0 0-.408-.11c-.144-.001-.286.037-.411.11l-7.267 4.4a.41.41 0 0 0-.156.153.4.4 0 0 0 0 .422.4.4 0 0 0 .156.15zm-12.584-7.364l7.732 4.474c.143.083.305.126.47.127a.94.94 0 0 0 .473-.127l7.248-4.386c.12-.069.193-.196.193-.334 0-.068-.017-.134-.051-.193a.4.4 0 0 0-.142-.142l-7.837-4.536c-.253-.147-.566-.147-.819 0l-7.29 4.386a.43.43 0 0 0-.153.156c-.037.064-.056.14-.054.215a.43.43 0 0 0 .065.213c.041.063.098.114.165.147zm-12.615-7.369l7.732 4.474a.92.92 0 0 0 .943 0l7.248-4.386c.12-.069.193-.196.193-.334 0-.068-.017-.134-.051-.193s-.083-.108-.142-.142l-7.837-4.533c-.253-.147-.566-.147-.819 0l-7.267 4.4a.43.43 0 0 0-.15.153.42.42 0 0 0 0 .411.41.41 0 0 0 .15.15zm-12.585-7.375l7.729 4.477a.94.94 0 0 0 .946 0l7.248-4.386a.39.39 0 0 0 .139-.142c.068-.119.068-.264 0-.383a.39.39 0 0 0-.139-.142l-7.854-4.547a.79.79 0 0 0-.408-.113.81.81 0 0 0-.411.113l-7.25 4.4a.42.42 0 0 0-.21.36.43.43 0 0 0 .057.21.41.41 0 0 0 .153.153zm-12.614-7.362l7.732 4.474a.96.96 0 0 0 .473.128c.166.001.327-.045.47-.128l7.25-4.386a.39.39 0 0 0 .139-.527.41.41 0 0 0-.139-.142l-7.84-4.536a.79.79 0 0 0-.408-.11.8.8 0 0 0-.411.11l-7.268 4.4a.42.42 0 0 0 0 .72zm-12.592-7.371l7.732 4.477c.144.083.307.127.473.127s.327-.044.47-.127l7.251-4.386a.39.39 0 0 0 0-.669l-7.84-4.533a.79.79 0 0 0-.408-.11c-.143.001-.286.037-.411.11l-7.267 4.4a.41.41 0 0 0-.145.153c-.034.063-.055.13-.054.2s.018.139.054.2.084.119.145.158zm-12.603-7.368l7.744 4.474a.95.95 0 0 0 .47.128.94.94 0 0 0 .473-.128l7.248-4.386c.059-.033.107-.082.139-.142a.39.39 0 0 0 0-.385.38.38 0 0 0-.139-.142l-7.837-4.536a.8.8 0 0 0-.411-.11c-.143-.001-.284.037-.408.11l-7.268 4.4c-.064.035-.118.087-.156.15a.4.4 0 0 0-.057.207.41.41 0 0 0 .051.207.4.4 0 0 0 .151.153zm149.329 104.5l7.729 4.488c.291.178.656.178.947 0l7.248-4.383a.42.42 0 0 0 .139-.142.39.39 0 0 0 0-.385.4.4 0 0 0-.139-.142l-7.84-4.533c-.253-.147-.566-.147-.819 0l-7.265 4.4a.4.4 0 0 0-.142.15.41.41 0 0 0-.051.2.4.4 0 0 0 .193.347zm-12.598-7.356l7.732 4.477c.292.17.652.17.944 0l7.245-4.386c.059-.034.108-.083.142-.142a.39.39 0 0 0-.142-.527l-7.84-4.536a.8.8 0 0 0-.819 0l-7.265 4.394a.43.43 0 0 0-.15.153.42.42 0 0 0-.057.207c0 .073.021.146.057.21a.43.43 0 0 0 .153.15zm-12.599-7.375l7.729 4.471a.92.92 0 0 0 .946 0l7.245-4.383a.38.38 0 0 0 .139-.142.39.39 0 0 0 0-.385c-.032-.059-.08-.108-.139-.142l-7.84-4.536a.8.8 0 0 0-.822 0l-7.262 4.4a.39.39 0 0 0-.15.153c-.076.128-.076.286 0 .414a.44.44 0 0 0 .154.15zm-12.598-7.369l7.726 4.474a.94.94 0 0 0 .949-.014l7.245-4.386a.39.39 0 0 0 .139-.142c.068-.118.068-.264 0-.382-.033-.058-.081-.107-.139-.142l-7.843-4.533a.79.79 0 0 0-.408-.113.81.81 0 0 0-.411.113l-7.265 4.395c-.13.075-.211.214-.212.365a.4.4 0 0 0 .059.213.39.39 0 0 0 .16.152zm-58.689-34.544l53.816 31.651c.291.173.655.173.946 0l7.248-4.386a.4.4 0 0 0 .139-.139c.072-.119.072-.269 0-.388-.034-.057-.082-.105-.139-.139l-53.933-31.728a.81.81 0 0 0-.819 0l-7.264 4.4a.43.43 0 0 0-.159.153c-.058.098-.074.215-.043.324s.106.201.207.254z"/><path d="M224.355 388.354l7.727 4.474a.93.93 0 0 0 .949 0l7.245-4.386a.4.4 0 0 0 .142-.142c.034-.059.052-.125.051-.193s-.017-.134-.051-.193-.084-.107-.142-.142l-7.845-4.547c-.124-.073-.265-.111-.408-.11a.8.8 0 0 0-.411.11l-7.264 4.4a.41.41 0 0 0-.216.368.44.44 0 0 0 .063.213.41.41 0 0 0 .16.148zm-12.609-7.369l7.732 4.477c.143.084.307.128.473.128a.92.92 0 0 0 .473-.128l7.248-4.386a.4.4 0 0 0 .193-.334.38.38 0 0 0-.054-.193.37.37 0 0 0-.139-.142l-7.84-4.533a.79.79 0 0 0-.408-.113.81.81 0 0 0-.411.113l-7.268 4.395c-.126.076-.202.213-.2.36a.44.44 0 0 0 .054.207.42.42 0 0 0 .147.149zm-12.596-7.371l7.732 4.474a.92.92 0 0 0 .946 0l7.245-4.383a.4.4 0 0 0 .142-.142c.035-.058.053-.125.054-.193a.4.4 0 0 0-.2-.334l-7.837-4.536a.8.8 0 0 0-.819 0l-7.273 4.4a.43.43 0 0 0-.2.363c.002.146.081.28.207.354zm-12.598-7.368l7.729 4.474a.93.93 0 0 0 .949 0l7.245-4.386c.12-.067.195-.194.193-.332a.4.4 0 0 0-.051-.2.39.39 0 0 0-.142-.139l-7.837-4.536a.82.82 0 0 0-.822 0l-7.265 4.4a.43.43 0 0 0-.15.153.4.4 0 0 0-.054.207c0 .073.018.144.054.207s.088.115.151.152zm-12.599-7.368l7.732 4.471a.92.92 0 0 0 .943 0l7.25-4.383a.39.39 0 0 0 .139-.142c.035-.058.053-.125.054-.193s-.019-.135-.054-.193a.39.39 0 0 0-.139-.142l-7.84-4.536a.79.79 0 0 0-.408-.113.81.81 0 0 0-.411.113l-7.268 4.395c-.127.076-.205.212-.207.36a.42.42 0 0 0 .057.21.43.43 0 0 0 .152.153zm-12.598-7.369l7.732 4.474a.9.9 0 0 0 .944 0l7.248-4.386a.37.37 0 0 0 .142-.139c.052-.088.066-.194.04-.293a.38.38 0 0 0-.182-.234l-7.831-4.55c-.253-.147-.566-.147-.819 0l-7.267 4.4c-.136.072-.22.213-.221.366a.43.43 0 0 0 .057.213.4.4 0 0 0 .157.149zm-12.599-7.37l7.732 4.468c.143.083.305.126.47.127a.94.94 0 0 0 .473-.127l7.248-4.386c.12-.069.193-.196.193-.334 0-.068-.017-.134-.051-.193a.38.38 0 0 0-.142-.142l-7.837-4.533a.8.8 0 0 0-.411-.11.79.79 0 0 0-.408.11l-7.268 4.4a.42.42 0 0 0-.21.363.4.4 0 0 0 .211.357zm-12.6-7.378l7.729 4.474a.94.94 0 0 0 .946 0l7.248-4.386a.39.39 0 0 0 .139-.527.41.41 0 0 0-.139-.142l-7.837-4.539a.82.82 0 0 0-.822 0l-7.265 4.4a.4.4 0 0 0-.156.153.41.41 0 0 0 0 .417.4.4 0 0 0 .157.15zm-12.603-7.354l7.732 4.474a.92.92 0 0 0 .944 0l7.25-4.4a.42.42 0 0 0 .139-.145c.068-.118.068-.264 0-.382a.39.39 0 0 0-.139-.142l-7.84-4.536a.81.81 0 0 0-.819 0l-7.268 4.394c-.065.037-.121.09-.161.153-.059.098-.076.216-.045.327s.105.204.206.257z"/></g><path d="M628.118 475.919l-41.176-23.24-39.14 23.24 41.177 23.248z" fill="#d6d5d4"/><path d="M547.989 475.926v11.622l41.174 23.245v-11.622z" fill="#b2afad"/><path d="M628.306 475.926l-39.14 23.245v11.622l39.14-23.245z" fill="#bcbbbb"/><path d="M595.294 263.393l-7.52-4.244-7.146 4.244 7.517 4.244z" fill="#87837f"/><path d="M580.629 263.392v213.177l7.517 4.244V267.639z" fill="#b2afad"/><path d="M595.297 263.392l-7.148 4.247v213.174l7.149-4.244z" fill="#d6d5d4"/><path d="M617.29 219.031v53.632l-65.226 37.984v-53.61c-.006-12.327-6.61-23.707-17.309-29.829-4.609-2.672-10.234-2.918-15.059-.66l62.778-36.578a16.31 16.31 0 0 1 17.518-.757 34.37 34.37 0 0 1 17.3 29.818z" fill="#e5e4e3"/><path d="M552.06 257.04v53.61l-41.9-23.99v-45.169a16.19 16.19 0 0 1 6.984-13.439l2.539-1.476h.014c4.825-2.258 10.45-2.012 15.059.66a34.38 34.38 0 0 1 17.309 29.8z" fill="#b2afad"/><path d="M519.682 226.565l-2.539 1.49a15.2 15.2 0 0 1 2.539-1.49z" fill="#525575"/><path d="M514.246 282.002l30.2 17.281v-6.795l-30.2-17.275z" fill="#87837f"/><path d="M505.546 267.184l32.292 18.6 10.333-11.755-32.291-18.6z" fill="#e5e4e3"/><path d="M505.546 267.175l32.292 18.6v5.094l-32.292-18.6z" fill="#adaaa6"/><g fill="#87837f"><path d="M548.168 274.023l-10.333 11.758v5.091l10.333-6.709zm44.309-23.48l-10.959 6.267v-2.462l10.959-6.273zm0 5.417l-10.958 6.277v-2.468l10.959-6.267zm0 5.421l-10.959 6.27v-2.465l10.959-6.27z"/></g><g opacity=".25" fill="#1d2035"><path d="M580.632 574.583c38.533 0 69.771-16.147 69.771-36.065s-31.238-36.068-69.771-36.068-69.777 16.149-69.777 36.067 31.241 36.066 69.777 36.066z" opacity=".04"/><path d="M580.632 573.714c37.6 0 68.088-15.756 68.088-35.193s-30.484-35.2-68.088-35.2-68.088 15.756-68.088 35.2 30.484 35.193 68.088 35.193z" opacity=".07"/><path d="M580.629 572.832c36.675 0 66.4-15.365 66.4-34.323s-29.73-34.323-66.4-34.323-66.4 15.368-66.4 34.323 29.728 34.323 66.4 34.323z" opacity=".11"/><path d="M580.628 571.964c35.742 0 64.719-14.977 64.719-33.453s-28.977-33.45-64.719-33.45-64.716 14.977-64.716 33.45 28.978 33.453 64.716 33.453z" opacity=".15"/><path d="M580.629 571.095c34.813 0 63.033-14.586 63.033-32.581s-28.22-32.58-63.033-32.58-63.03 14.586-63.03 32.58 28.218 32.581 63.03 32.581z" opacity=".19"/><path d="M580.631 570.225c33.881 0 61.347-14.2 61.347-31.711s-27.466-31.711-61.347-31.711-61.347 14.2-61.347 31.711 27.466 31.711 61.347 31.711z" opacity=".22"/><path d="M580.632 569.35c32.949 0 59.658-13.807 59.658-30.838s-26.71-30.841-59.658-30.841-59.659 13.807-59.659 30.841 26.71 30.838 59.659 30.838z" opacity=".26"/><path d="M580.629 568.483c32.017 0 57.973-13.419 57.973-29.968s-25.956-29.971-57.973-29.971-57.973 13.419-57.973 29.971 25.953 29.968 57.973 29.968z" opacity=".3"/><path d="M580.632 567.613c31.084 0 56.287-13.028 56.287-29.1s-25.2-29.1-56.287-29.1-56.29 13.028-56.29 29.1 25.202 29.1 56.29 29.1z" opacity=".33"/><path d="M580.635 566.737c30.155 0 54.6-12.637 54.6-28.226s-24.446-28.226-54.6-28.226-54.6 12.637-54.6 28.226 24.438 28.226 54.6 28.226z" opacity=".37"/><path d="M580.629 565.871c29.226 0 52.918-12.248 52.918-27.356s-23.692-27.354-52.918-27.354-52.915 12.246-52.915 27.353 23.692 27.357 52.915 27.357z" opacity=".41"/><path d="M580.628 565c28.294 0 51.229-11.857 51.229-26.483s-22.936-26.483-51.229-26.483-51.227 11.857-51.227 26.483S552.338 565 580.628 565z" opacity=".44"/><path d="M580.632 564.131c27.361 0 49.543-11.467 49.543-25.611s-22.182-25.61-49.543-25.61-49.544 11.467-49.544 25.61 22.182 25.611 49.544 25.611z" opacity=".48"/><path d="M580.629 563.253c26.432 0 47.858-11.075 47.858-24.738s-21.426-24.741-47.858-24.741-47.858 11.076-47.858 24.741 21.426 24.738 47.858 24.738z" opacity=".52"/><path d="M580.632 562.38c25.5 0 46.172-10.684 46.172-23.868s-20.672-23.868-46.172-23.868-46.172 10.687-46.172 23.868 20.672 23.868 46.172 23.868z" opacity=".56"/><path d="M580.635 561.512c24.568 0 44.486-10.3 44.486-23s-19.918-23-44.486-23-44.486 10.3-44.486 23 19.915 23 44.486 23z" opacity=".59"/><path d="M580.632 560.645c23.638 0 42.8-9.905 42.8-22.125s-19.162-22.126-42.8-22.126-42.8 9.905-42.8 22.126 19.161 22.125 42.8 22.125z" opacity=".63"/><path d="M580.631 559.768c22.7 0 41.112-9.514 41.112-21.253s-18.408-21.253-41.112-21.253-41.115 9.514-41.115 21.253 18.409 21.253 41.115 21.253z" opacity=".67"/><path d="M580.632 558.9c21.777 0 39.428-9.126 39.428-20.383s-17.652-20.383-39.428-20.383-39.426 9.126-39.426 20.383 17.652 20.383 39.426 20.383z" opacity=".7"/><path d="M580.629 558.025c20.845 0 37.743-8.735 37.743-19.51s-16.9-19.51-37.743-19.51-37.743 8.735-37.743 19.51 16.893 19.51 37.743 19.51z" opacity=".74"/><path d="M580.632 557.149c19.916 0 36.057-8.344 36.057-18.641s-16.142-18.638-36.057-18.638-36.06 8.345-36.06 18.639 16.147 18.64 36.06 18.64z" opacity=".78"/><path d="M580.629 556.28c18.983 0 34.371-7.953 34.371-17.768s-15.388-17.768-34.371-17.768-34.368 7.956-34.368 17.768 15.385 17.768 34.368 17.768z" opacity=".81"/><path d="M580.631 555.409c18.051 0 32.685-7.562 32.685-16.9s-14.634-16.9-32.685-16.9-32.685 7.565-32.685 16.9 14.634 16.9 32.685 16.9z" opacity=".85"/><path d="M580.632 554.537c17.119 0 31-7.177 31-16.025s-13.878-16.025-31-16.025-31 7.174-31 16.025 13.881 16.025 31 16.025z" opacity=".89"/><path d="M580.637 553.667c16.187 0 29.311-6.786 29.311-15.153s-13.124-15.153-29.311-15.153-29.314 6.783-29.314 15.153 13.122 15.153 29.314 15.153z" opacity=".93"/><path d="M580.632 552.798c15.258 0 27.625-6.395 27.625-14.28s-12.367-14.283-27.625-14.283-27.628 6.395-27.628 14.283 12.368 14.28 27.628 14.28z" opacity=".96"/><path d="M580.632 551.927c14.328 0 25.945-6 25.945-13.407s-11.617-13.41-25.945-13.41-25.942 6-25.942 13.41 11.617 13.407 25.942 13.407z" opacity=".25"/></g><path d="M449.692 612.153l-97.963-54.763 121.111-68.853 97.965 54.763z" fill="#a7abf6"/><path d="M449.692 605.461l-97.963-54.762 121.111-68.85 97.965 54.763z" fill="#d0d0fa"/><path d="M570.806 536.614l-121.114 68.85v5.06l121.114-68.853z" fill="#7178e1"/><path d="M351.733 550.692v5.06l97.959 54.763v-5.058z" fill="#a7abf6"/><path d="M470.189 539.492l-41.3-23.273 42.469-24.143 41.3 23.273z" fill="#a29afb"/><path d="M459.561 546.366l-41.307-23.273 2.91-1.652 41.3 23.273z" fill="#42a8a8"/><g fill="#a29afb"><path d="M486.095 570.523l-75.389-42.608 2.91-1.652 75.386 42.608zm-6.878 4.417l-75.39-42.6 2.91-1.655 75.386 42.606zm-6.881 4.425l-75.386-42.607 2.907-1.655 75.393 42.608zm-6.874 4.421l-75.386-42.6 2.9-1.652 75.389 42.6zm-6.876 4.426l-75.389-42.608 2.91-1.652 75.386 42.608zm-6.877 4.428l-75.386-42.61 2.907-1.655 75.386 42.608zm53.614-31.481l-26.546-14.954 42.472-24.146 26.539 14.953z"/></g><path d="M365.078 216.965l102.707 65.572-.065-150.189-102.707-65.572z" fill="#d573b7"/><path d="M414.763 199.351l.011 30.693 78.662 50.224-.014-30.693z" fill="#fff"/><g fill="#abc8ce"><path d="M448.21 152.045l-60.177-37.817c-1.3-.859-2.141-2.26-2.289-3.811 0-1.3 1.028-1.725 2.286-.935l60.18 37.819c1.299.858 2.14 2.258 2.287 3.808.002 1.305-1.02 1.724-2.287.936z"/><path d="M448.225 166.676l-60.186-37.815a5.15 5.15 0 0 1-2.292-3.808c0-1.306 1.031-1.725 2.289-.938l60.174 37.817a5.16 5.16 0 0 1 2.287 3.811c.014 1.302-1.014 1.724-2.272.933zm.006 14.627l-60.186-37.817c-1.299-.859-2.141-2.258-2.292-3.808 0-1.306 1.031-1.728 2.287-.935l60.188 37.816a5.15 5.15 0 0 1 2.286 3.808c.003 1.307-1.025 1.729-2.283.936zm.005 14.633l-60.186-37.817c-1.3-.86-2.142-2.26-2.292-3.811 0-1.3 1.031-1.725 2.286-.935l60.189 37.82c1.299.858 2.14 2.258 2.287 3.808.002 1.304-1.029 1.723-2.284.935z"/></g><path d="M479.349 263.701l-47.926-30.915c-1.587-1.071-2.611-2.795-2.794-4.7 0-1.6 1.255-2.085 2.791-1.1l47.929 30.924a6.41 6.41 0 0 1 2.793 4.7c-.002 1.581-1.257 2.08-2.793 1.091z" fill="#fff"/><g opacity=".35" fill="#1d2035"><path d="M366.446 435.095c9.03-15.552-33.345-57.015-94.653-92.61s-118.32-51.842-127.35-36.289 33.346 57.015 94.65 92.608 118.324 51.843 127.353 36.291z" opacity=".04"/><path d="M363.76 433.537c8.812-15.175-32.541-55.635-92.364-90.369s-115.464-50.59-124.272-35.414 32.541 55.638 92.364 90.372 115.461 50.592 124.272 35.411z" opacity=".07"/><path d="M361.08 431.984c8.594-14.8-31.733-54.258-90.077-88.134s-112.6-49.337-121.2-34.536 31.733 54.261 90.077 88.134 112.607 49.338 121.2 34.536z" opacity=".11"/><path d="M358.4 430.426c8.375-14.427-30.929-52.884-87.791-85.9s-109.746-48.085-118.122-33.657 30.932 52.881 87.791 85.9S350.025 444.85 358.4 430.426z" opacity=".15"/><path d="M355.72 428.864c8.157-14.048-30.124-51.5-85.5-83.66s-106.887-46.832-115.045-32.782 30.124 51.507 85.5 83.66 106.888 46.833 115.045 32.782z" opacity=".19"/><path d="M353.033 427.303c7.939-13.674-29.317-50.127-83.215-81.422s-104.029-45.577-111.968-31.9 29.32 50.127 83.218 81.422 104.026 45.574 111.965 31.9z" opacity=".22"/><path d="M350.353 425.75c7.721-13.3-28.512-48.75-80.928-79.186s-101.17-44.325-108.891-31.028 28.512 48.75 80.928 79.186 101.17 44.325 108.891 31.028z" opacity=".26"/><path d="M347.673 424.195c7.5-12.923-27.707-47.373-78.642-76.948s-98.311-43.072-105.817-30.15 27.707 47.373 78.645 76.948 98.312 43.072 105.814 30.15z" opacity=".3"/><path d="M344.987 422.64c7.284-12.546-26.9-46-76.353-74.709s-95.452-41.82-102.737-29.271 26.9 45.994 76.355 74.709 95.451 41.817 102.735 29.271z" opacity=".33"/><path d="M342.307 421.081c7.066-12.172-26.095-44.619-74.069-72.474s-92.59-40.568-99.657-28.4 26.092 44.619 74.066 72.474 92.594 40.569 99.66 28.4z" opacity=".37"/><path d="M336.838 419.761c6.82-11.73-25.132-43.03-71.366-69.91s-89.248-39.162-96.064-27.435 25.135 43.027 71.369 69.91 89.247 39.162 96.061 27.435z" opacity=".41"/><path d="M336.944 417.964c6.63-11.418-24.483-41.862-69.5-68s-86.869-38.06-93.502-26.642 24.486 41.862 69.5 68 86.872 38.061 93.502 26.642z" opacity=".44"/><path d="M331.503 416.655c6.384-10.982-23.531-40.284-66.818-65.453s-83.558-36.666-89.941-25.684 23.531 40.284 66.819 65.453 83.551 36.666 89.94 25.684z" opacity=".48"/><path d="M331.586 414.847c6.194-10.667-22.874-39.106-64.92-63.521s-81.158-35.558-87.352-24.891 22.873 39.109 64.923 63.521 81.149 35.557 87.349 24.891z" opacity=".52"/><path d="M328.896 413.295c5.976-10.293-22.066-37.729-62.634-61.285s-78.3-34.306-84.274-24.013 22.066 37.729 62.634 61.282 78.299 34.307 84.274 24.016z" opacity=".56"/><path d="M326.216 411.74c5.757-9.917-21.261-36.352-60.344-59.047s-75.44-33.051-81.2-23.134 21.261 36.349 60.347 59.044 75.44 33.051 81.197 23.137z" opacity=".59"/><path d="M323.536 410.184c5.539-9.54-20.454-34.975-58.061-56.808s-72.579-31.8-78.118-22.259 20.454 34.975 58.061 56.808 72.578 31.799 78.118 22.259z" opacity=".63"/><path d="M320.85 408.626c5.321-9.166-19.649-33.6-55.774-54.573s-69.72-30.546-75.044-21.38 19.652 33.595 55.774 54.57 69.723 30.549 75.044 21.383z" opacity=".67"/><path d="M318.17 407.067c5.1-8.792-18.844-32.221-53.488-52.334s-66.864-29.3-71.967-20.508 18.844 32.221 53.488 52.335 66.864 29.296 71.967 20.507z" opacity=".7"/><path d="M315.489 405.504c4.885-8.412-18.037-30.841-51.2-50.1s-64-28.042-68.887-19.627 18.037 30.841 51.2 50.1 64.002 28.042 68.887 19.627z" opacity=".74"/><path d="M312.806 403.948c4.667-8.038-17.232-29.464-48.912-47.858s-61.146-26.789-65.81-18.754 17.232 29.464 48.912 47.858 61.144 26.79 65.81 18.754z" opacity=".78"/><path d="M310.126 402.393c4.448-7.658-16.428-28.084-46.625-45.62s-58.287-25.537-62.736-17.875 16.428 28.084 46.628 45.62 58.284 25.536 62.733 17.875z" opacity=".81"/><path d="M307.445 400.834c4.23-7.285-15.623-26.707-44.339-43.381s-55.429-24.287-59.659-17 15.62 26.71 44.339 43.384 55.429 24.282 59.659 16.997z" opacity=".85"/><path d="M304.76 399.279c4.012-6.911-14.815-25.33-42.052-41.146s-52.568-23.032-56.579-16.119 14.815 25.33 42.052 41.143 52.567 23.03 56.579 16.122z" opacity=".89"/><path d="M302.084 397.718c3.794-6.534-14.011-23.953-39.766-38.907s-49.708-21.78-53.5-15.243 14.008 23.953 39.766 38.9 49.7 21.783 53.5 15.25z" opacity=".93"/><path d="M299.399 396.17c3.576-6.157-13.2-22.576-37.479-36.669s-46.852-20.528-50.428-14.371 13.206 22.576 37.479 36.672 46.852 20.528 50.428 14.368z" opacity=".96"/><path d="M296.712 394.61c3.357-5.783-12.4-21.2-35.19-34.433s-43.99-19.272-47.348-13.49 12.4 21.2 35.19 34.431 43.991 19.275 47.348 13.492z" opacity=".35"/></g><path d="M178.174 162.058v133.006a10.87 10.87 0 0 0 5.42 9.412l174.672 101.215c.581.328-.558 4.032.042 4.136 3.519.748 16.785-10.361 16.785-14.237V263.952a15.54 15.54 0 0 0-1.553-6.825l-15.274 9.486a15.68 15.68 0 0 0-6.075-6.321l-170.902-99.05a6.51 6.51 0 0 0-2.887-.912 6.47 6.47 0 0 0-.228 1.728z" fill="#ea7c32"/><path d="M186.895 128.483c-.731-.49-1.045-.748-.909-.748.351 0 .654.272.909.748z" fill="#83869b"/><path d="M373.53 257.112a15.26 15.26 0 0 0-.734-1.354L302.952 97.736a16.43 16.43 0 0 0-24.25-6.964l-89.31 60.514c-.334.2-.65.428-.946.68v13.41l-7.157-4.134a6.73 6.73 0 0 0-5.941-.417l76.826 125.109 106.093-19.322 15.266-9.5z" fill="#d86d25"/><path d="M174.749 161.101l13.693-9.129v30.172z" fill="#ea7c32"/><path d="M197.837 82.898l135.816 76.03c2.586 1.444 4.352 4.01 4.777 6.942v194.975a5.92 5.92 0 0 1-8.984 5.069l-129.987-72.752c-4.167-2.321-6.764-6.703-6.8-11.472l.255-195.506a3.28 3.28 0 0 1 4.923-3.286z" fill="#fff"/><g fill="#d8d8d8"><path d="M258.72 155.122l-41.191-22.6a.91.91 0 0 1-.312-.295.93.93 0 0 1-.142-.4v-2.816c0-.249.2-.34.453-.2l41.191 22.6a.91.91 0 0 1 .312.295.9.9 0 0 1 .142.405v2.819c.004.24-.201.331-.453.192zm63.032 94.925l-37.476-20.712a.9.9 0 0 1-.453-.7v-53.711c0-.249.2-.34.453-.2l37.476 20.708a.93.93 0 0 1 .309.295.9.9 0 0 1 .142.405v53.712c.003.248-.198.339-.451.203zm-47.304-74.202l-56.919-30.83a.91.91 0 0 1-.312-.295.94.94 0 0 1-.142-.4v-2.813c0-.249.2-.34.453-.2l56.919 30.821a.9.9 0 0 1 .309.295c.079.12.127.257.142.4v2.822c.001.242-.203.336-.45.2zm0 12.49l-56.919-30.829a.91.91 0 0 1-.453-.7v-2.822c0-.249.2-.34.453-.207l56.919 30.847a.96.96 0 0 1 .309.295.9.9 0 0 1 .142.405v2.819c0 .231-.204.331-.451.192zm0 12.486l-56.919-30.832a.89.89 0 0 1-.309-.292.94.94 0 0 1-.145-.4v-2.822c0-.249.2-.34.453-.207l56.919 30.832a.92.92 0 0 1 .309.292.98.98 0 0 1 .142.4v2.822c.001.249-.203.339-.45.207zm0 12.492l-56.919-30.832a.9.9 0 0 1-.453-.7v-2.822c0-.244.2-.34.453-.2l56.919 30.827c.124.073.23.174.309.295s.128.261.142.405v2.819c0 .25-.204.341-.451.208zm0 12.49l-56.919-30.829a.91.91 0 0 1-.453-.7v-2.822c0-.246.2-.34.453-.2l56.919 30.829c.254.148.421.408.45.7v2.822c.001.245-.203.325-.45.2zm-15.728 25.264l-41.191-22.6a.91.91 0 0 1-.312-.295.93.93 0 0 1-.142-.4v-2.822c0-.246.2-.34.453-.2l41.191 22.6a.91.91 0 0 1 .312.295.9.9 0 0 1 .142.405v2.819c.004.261-.201.334-.453.198zm15.728 20.71l-56.919-30.815a.91.91 0 0 1-.312-.295.94.94 0 0 1-.142-.4v-2.822c0-.247.2-.34.453-.2l56.919 30.829a.9.9 0 0 1 .309.295c.079.12.127.257.142.4v2.822c.001.247-.203.338-.45.186zm0 12.502l-56.919-30.83a.91.91 0 0 1-.312-.295.94.94 0 0 1-.142-.4v-2.822c0-.249.2-.34.453-.2l56.92 30.824a.9.9 0 0 1 .451.695v2.822c0 .252-.204.342-.451.206zm0 12.489l-56.919-30.829a.91.91 0 0 1-.312-.295.94.94 0 0 1-.142-.405v-2.819c0-.249.2-.34.453-.2l56.92 30.819a.93.93 0 0 1 .309.295.91.91 0 0 1 .142.405v2.819c0 .259-.204.349-.451.21z"/></g><path d="M360.097 273.995V405.62a7.4 7.4 0 0 1-.048.748 5.92 5.92 0 0 1-8.832 4.369L176.534 309.519c-3.355-1.947-5.42-5.533-5.42-9.412V167.102c-.009-1.552.528-3.057 1.516-4.253v-.02a6.78 6.78 0 0 1 2.672-1.983l.045-.023 76.826 125.111 106.094-19.315a15.83 15.83 0 0 1 1.83 7.376z" fill="#ffac73"/><path d="M78.648 62.767s3.037 1.332 18.094 13.263 40.279 28.917 40.279 28.917l47.606 21.188s-4.582-.694-6.157 7.84c-1.031 5.573.671 8.6.671 8.6l-57-17.133-41.219-27.163z" fill="#5e00ff"/><g fill="#1d2035"><path d="M83.391 315.1s4.658 9.163 13.574 12.367 6.967 5.434.7 8.361-12.682-2.785-19.51-4.6-12.96-1.116-14.215-6.548c-.764-3.148-.764-6.434 0-9.582zm-32.173 19.707s3.241 6.593 9.934 9.109 13.282 8.5 5.805 12.127-11.387-2.938-19.187-5.315-14.629-2.507-16.861-6.828 1.252-9.109 1.252-9.109z"/></g><g fill="#fff"><path d="M86.411 163.67s5.364 70.482 4.678 87.553-6.007 19.7-6.536 38.443-1.162 25.447-1.162 25.447-1.4 4.111-8.384 4.431c-4.04.235-8.076-.526-11.753-2.216 0 0-4.763-25.092-3.494-40.021s5.083-22.551 5.083-22.551l-16.136-70.831z"/><path d="M69.135 185.32l-12.161 79.719c-3.295 9.736-5.237 19.879-5.771 30.144-.688 16.258 0 39.624 0 39.624a15.42 15.42 0 0 1-13.546 5.08c-8.806-1.014-9.483-5.08-9.483-5.08s-4.063-10.838-3.037-36.578 5.771-38.947 5.771-38.947-.329-31.447-5.922-44.849-4.236-38.7-4.236-38.7z"/></g><path d="M78.648 62.773C72.378 57.197 28.24 73.457 16.859 81.6s-11.144 27.415-2.085 52.717 3.329 45.146 3.329 45.146 21.763 13.835 42.9 11.325 25.321-22.689 25.321-22.689 1.856-86.754 0-94.424c-1.044-4.494-3.798-8.404-7.676-10.902z" fill="#705fdf"/><path d="M68.986 23.54s3.341 13.41 3.287 18.221-2.9 18.986-5.531 21.06-6.639 1.779-6.639 1.779l1.479 8.455s1.111 5.933-9.307 8.307-17.83-8.789-17.83-8.789a46.04 46.04 0 0 0 .042-16.867c-1.779-8.251-3.672-29.113 4.709-33.8s29.79 1.634 29.79 1.634z" fill="#ffbdbd"/><path d="M61.597 28.727c-10.407 2.952-16.2.728-16.2.728s3.476 4.137.875 7.253.433 13.756-1.108 14.045-2.734-9.554-7.35-8.647-2.754 3.309-1.606 7.027 2.652 5.987-.83 7.633-13.13-7.177-14.881-17.309 4.21-14.512 4.21-14.512-5.012-12.532 13.594-15.13 26.163.527 30.733-3.7 14.077 16.514-7.437 22.612z" fill="#e58800"/><path d="M60.391 64.404s-6.616.839-10.041-2.207l-4.46-3.853a33.21 33.21 0 0 0 5.633 8.1c3.819 4.063 2.825 14.345 2.825 14.345s7.834-1.533 7.239-6.457l-1.196-9.928z" fill="#eaa2a2"/><path d="M76.378 157.905s7.562 1.122 11.129-1.621 11.373-3.7 11.373-3.7a6.69 6.69 0 0 1-3.7 3.975c-3.015 1.368-3.426 2.862 3.7 3.136s13.569-1.1 10.279 4.933-14.663 6.854-20.695 6.718-16.156-2.34-16.156-2.34.203-8.126 4.07-11.101z" fill="#ffbdbd"/><path d="M17.561 87.864c-8.6-2.048-15.11 7.769-11.724 25.534s10.5 48.569 10.5 48.569l57.341 12a33.38 33.38 0 0 1 .884-10.52 12.58 12.58 0 0 1 4.647-6.944s-41.48-7.752-44.285-12.631-2.738-52.526-17.363-56.008z" fill="#5e00ff"/><path d="M194.021 56.369l77.361 43.293c1.61.899 2.71 2.496 2.975 4.321v121.412a3.69 3.69 0 0 1-5.6 3.159l-73.732-41.259c-2.602-1.439-4.227-4.169-4.25-7.143l.159-121.743c-.059-.383-.007-.775.15-1.13s.414-.66.74-.873a2.03 2.03 0 0 1 2.193-.037z" fill="#fff"/><g fill="#a29afb"><path d="M227.094 99.946l-25.65-14.073a.6.6 0 0 1-.2-.181.58.58 0 0 1-.088-.252v-1.76c0-.153.127-.21.283-.128l25.65 14.073a.53.53 0 0 1 .193.181.6.6 0 0 1 .091.252v1.76c.005.148-.123.207-.279.128zm39.25 59.106l-23.338-12.894a.54.54 0 0 1-.281-.436v-33.443c0-.156.125-.213.281-.127l23.338 12.9a.54.54 0 0 1 .193.181.57.57 0 0 1 .088.252v33.448c-.006.15-.124.207-.281.119zm-29.46-46.206l-35.439-19.2a.59.59 0 0 1-.2-.184.56.56 0 0 1-.088-.249v-1.76c0-.153.127-.21.283-.125l35.439 19.2a.6.6 0 0 1 .2.181.58.58 0 0 1 .088.252v1.76c-.004.15-.128.21-.283.125zm0 7.775l-35.439-19.2a.58.58 0 0 1-.2-.184.57.57 0 0 1-.088-.252v-1.754c0-.156.127-.213.283-.127l35.439 19.193a.57.57 0 0 1 .193.184.55.55 0 0 1 .088.249v1.754c.003.165-.121.222-.276.137zm0 7.783l-35.439-19.2a.59.59 0 0 1-.2-.184.57.57 0 0 1-.088-.252v-1.75c0-.156.127-.213.283-.127l35.439 19.2a.55.55 0 0 1 .2.184.57.57 0 0 1 .088.252v1.754c-.004.151-.128.208-.283.123zm0 7.771l-35.439-19.2a.55.55 0 0 1-.283-.434v-1.76c0-.153.127-.212.283-.127l35.439 19.2a.58.58 0 0 1 .2.184.56.56 0 0 1 .088.249v1.754c-.009.166-.133.222-.288.134zm0 7.778l-35.439-19.2a.57.57 0 0 1-.2-.181.58.58 0 0 1-.088-.252v-1.757c0-.153.127-.213.283-.127l35.439 19.2a.6.6 0 0 1 .2.181.58.58 0 0 1 .088.252v1.757c-.004.153-.128.212-.283.127zm-9.79 15.737l-25.65-14.07c-.16-.09-.265-.253-.283-.436v-1.754c0-.156.127-.212.283-.127l25.65 14.068a.54.54 0 0 1 .193.184.56.56 0 0 1 .091.252v1.757c0 .165-.128.211-.284.126zm9.79 12.903l-35.439-19.2a.54.54 0 0 1-.2-.181.57.57 0 0 1-.088-.252v-1.754c0-.156.127-.212.283-.127l35.439 19.2a.56.56 0 0 1 .283.436v1.754c.001.152-.123.209-.278.124zm0 7.786l-35.44-19.207c-.081-.043-.15-.105-.2-.181a.57.57 0 0 1-.088-.252v-1.757c0-.153.127-.213.283-.128l35.439 19.2a.58.58 0 0 1 .2.184.56.56 0 0 1 .088.249v1.757c-.003.152-.127.211-.282.135zm0 7.769l-35.439-19.2a.57.57 0 0 1-.2-.181.58.58 0 0 1-.088-.252v-1.757c0-.153.127-.213.283-.128l35.439 19.213a.58.58 0 0 1 .2.184.56.56 0 0 1 .088.252v1.754c-.004.14-.128.2-.283.115z" opacity=".36"/></g><path d="M181.33 127.531s9.177.547 12.753 3.428 5.015 4.312 5.015 4.312.428 2.867-3.437 1.147l-3.87-1.72-.462 12.5-12.878-6.681s-2.428-7.849 2.879-12.986z" fill="#ffbdbd"/></g></svg>