<svg xmlns="http://www.w3.org/2000/svg" width="500" height="293" fill="none"><style><![CDATA[.B{fill:#0c2b34}.C{fill:#f9f9f9}.D{fill:#d7d9d9}.E{fill:#de5757}.F{fill:#e5e5e4}.G{fill:#656be8}.H{fill:#011721}.I{fill:#393eaf}.J{fill:#f9b299}.K{fill:#193a42}.L{fill:#f79570}]]></style><path d="M397.176 49.561l.709 2.551-2.298 16.213-4.275 1.189 2.26-15.496-5.636 1.568.77 2.77-3.499.973-1.662-5.977 13.631-3.79zm17.633 7.709c.837 3.012-.644 6.252-5.503 7.603-2.356.656-5.018.688-6.994-.019l.718-3.444c1.557.613 3.487.679 5.26.186 1.968-.547 2.952-1.711 2.568-3.096-.372-1.337-1.489-1.968-4.575-1.109l-4.349 1.209-1.788-9.816 10.375-2.885.879 3.159-7.095 1.972.631 3.305 1.385-.384c5.03-1.398 7.65.307 8.488 3.32zm18.62-4.35c-.607-2.187-1.999-3.239-3.604-2.793-1.578.439-2.259 2.041-1.644 4.252s2.025 3.233 3.603 2.793c1.605-.446 2.253-2.066 1.645-4.252zm-6.463 1.797c-.769-2.77.295-5.055 2.556-5.684 2.283-.636 4.352.779 5.122 3.549s-.271 5.048-2.555 5.684c-2.259.628-4.352-.78-5.123-3.549zm.238-13.546l1.434-.399-6.884 20.237-1.434.399 6.884-20.237zm-6.427 6.629c-.615-2.21-2.024-3.232-3.604-2.792-1.604.446-2.252 2.065-1.644 4.252s2 3.239 3.603 2.793c1.579-.439 2.26-2.041 1.645-4.253zm-6.463 1.798c-.77-2.769.271-5.049 2.555-5.683 2.26-.628 4.347.754 5.123 3.548s-.296 5.055-2.555 5.683c-2.284.636-4.352-.779-5.123-3.548z" class="D"/><path d="M434.326 286.279l50.791.396.5-64.111-50.791-.396-.5 64.111z" class="F"/><path d="M465.715 224.544l-.903 62.077-8.025-.063 1.72-62.071 7.208.057z" class="C"/><path d="M405.745 223.999l29.141.227 50.791.397-50.846 6.69-.429 54.994-29.129-.228.472-62.08z" class="D"/><path d="M421.426 224.187l-1.158 62.074-8.647-.067 1.414-62.073 8.391.066z" class="C"/><path d="M444.7 205.24c.004.129-.855.284-2.418.439l-6.659.296c-2.835-.046-6.198-.238-9.942-1.304-.479-.162-.97-.354-1.456-.65-.481-.29-.972-.692-1.328-1.255-.367-.556-.527-1.246-.533-1.857-.011-.619.095-1.182.214-1.703.49-1.98.992-4.034 1.88-6.103.45-1.027.992-2.018 1.646-2.926.663-.885 1.407-1.751 2.417-2.389.502-.314 1.066-.565 1.678-.692a4.28 4.28 0 0 1 1.845.034c1.177.292 2.053.939 2.807 1.535 2.97 2.392 5.143 5.094 6.621 7.542 1.482 2.454 2.266 4.652 2.677 6.183.396 1.542.442 2.424.329 2.449-.314.098-1.032-3.371-4.123-7.912a30.59 30.59 0 0 0-6.57-6.899c-.696-.531-1.424-.995-2.146-1.151-.708-.158-1.426.005-2.129.463-.699.444-1.32 1.156-1.892 1.933-.557.783-1.031 1.652-1.437 2.579-.802 1.856-1.315 3.863-1.813 5.778-.232.92-.277 1.688.05 2.185.31.53 1.041.942 1.826 1.219s1.673.483 2.5.668c.834.189 1.655.33 2.452.457a54.19 54.19 0 0 0 4.481.488c2.763.189 5.023.225 6.586.302 1.565.068 2.434.161 2.437.291z" class="D"/><path d="M443.604 205.7c-.02-.129.92-.401 2.634-.792l7.234-1.63c3.028-.737 6.612-1.705 10.375-3.277.934-.385 1.86-.815 2.601-1.382.366-.281.672-.601.837-.924s.212-.642.144-1.05-.26-.868-.494-1.372l-.735-1.552c-.499-1.03-1.037-2.039-1.661-2.988s-1.329-1.803-2.132-2.519-1.681-1.335-2.581-1.66c-.907-.336-1.83-.387-2.678-.116-.857.261-1.654.815-2.397 1.453-3.027 2.672-5.352 5.57-6.95 8.186a31.25 31.25 0 0 0-3.084 6.599c-.542 1.647-.758 2.597-.903 2.577-.111-.015-.141-1.008.196-2.763.341-1.748 1.104-4.257 2.641-7.078 1.526-2.824 3.82-5.922 6.958-8.822.81-.723 1.769-1.458 2.994-1.863 1.223-.418 2.636-.349 3.846.095a8.24 8.24 0 0 1 1.719.858 12.77 12.77 0 0 1 1.487 1.143c.945.834 1.753 1.825 2.451 2.874.692 1.053 1.266 2.141 1.777 3.211l.74 1.592c.241.538.505 1.136.621 1.848.127.702.019 1.554-.354 2.204-.359.658-.862 1.124-1.357 1.496-1.005.736-2.049 1.171-3.035 1.557-3.943 1.54-7.645 2.391-10.749 2.972a90.53 90.53 0 0 1-7.393 1.054c-1.753.168-2.731.196-2.752.069z" class="C"/><path d="M396.484 223.979l74.658.583.166-21.22-74.658-.583-.166 21.22z" class="D"/><path d="M423.828 224.223l67.483.527.166-21.22-67.483-.527-.166 21.22z" class="F"/><path d="M470.747 203.308l-.475 21.319-7.869-.163.548-21.217 7.796.061zm-55.816-.374l-.761 21.127-8.652-.069.463-21.233 8.95.175z" class="C"/><path d="M473.144 287.097l23.2.181.229-29.284-23.199-.182-.23 29.285z" class="F"/><path d="M487.476 258.815l-.412 28.355-3.666-.029.785-28.352 3.293.026z" class="C"/><path d="M459.932 258.667l13.311.103 23.201.181-23.226 3.057-.196 25.119-13.305-.103.215-28.357z" class="D"/><path d="M467.126 258.697l-.53 28.354-3.949-.031.645-28.353 3.834.03z" class="C"/><path d="M477.738 250.03c.004.24-1.545.599-4.16.696-1.322.021-2.864-.02-4.68-.512-.464-.161-1.07-.377-1.532-1.056-.223-.335-.321-.757-.324-1.101s.05-.644.106-.899c.221-.922.448-1.873.876-2.876.218-.496.484-.982.81-1.43.327-.435.699-.871 1.246-1.216.519-.347 1.315-.538 1.987-.354.661.171 1.102.517 1.462.805 1.388 1.152 2.383 2.449 3.038 3.621 1.307 2.383 1.292 4.111 1.07 4.138-.28.073-.735-1.459-2.186-3.418-.727-.971-1.715-2.037-2.987-2.977-.303-.225-.594-.386-.801-.421-.193-.031-.347 0-.594.158-.234.15-.486.434-.722.759-.227.324-.426.687-.6 1.084-.342.79-.58 1.694-.809 2.551-.105.401-.082.584-.05.625.021.079.254.256.573.371.67.233 1.475.411 2.165.538l2.006.282c2.494.241 4.103.354 4.106.632z" class="D"/><path d="M477.345 250.313c-.047-.27 1.696-.725 4.433-1.459 1.361-.38 2.967-.854 4.637-1.579.413-.176.804-.371 1.071-.585.132-.104.218-.21.241-.267s.023-.059.008-.166c-.023-.186-.313-.747-.525-1.194-.224-.46-.461-.9-.728-1.305s-.558-.76-.886-1.054c-.331-.301-.688-.55-1.01-.667-.332-.124-.621-.141-.906-.059-.292.081-.611.286-.932.554-1.353 1.158-2.423 2.427-3.173 3.566-1.525 2.293-1.844 4.058-2.134 4.011-.12-.017-.2-.481-.102-1.313s.405-2.02 1.086-3.363 1.716-2.815 3.181-4.202c.388-.354.871-.738 1.529-.962.661-.232 1.439-.195 2.074.037.323.112.618.265.892.44.259.173.51.356.742.566.471.414.869.901 1.206 1.409a12.41 12.41 0 0 1 .843 1.528l.34.738c.112.255.252.565.318.973a2.05 2.05 0 0 1-.219 1.32c-.216.393-.5.645-.761.839-.53.382-1.039.582-1.503.759-1.851.695-3.573 1.052-5.012 1.275-2.884.416-4.668.4-4.71.16z" class="C"/><path d="M455.811 258.594l34.102.267.075-9.693-34.102-.267-.075 9.693z" class="D"/><path d="M468.262 258.716l30.825.241.076-9.693-30.826-.241-.075 9.693z" class="F"/><path d="M489.652 249.174l-.217 9.737-3.595-.074.25-9.691 3.562.028zm-25.391-.193l-.348 9.651-3.952-.032.212-9.699 4.088.08z" class="C"/><path d="M31.738 287.017l41.608.324.41-52.519-41.608-.325-.41 52.52z" class="F"/><path d="M57.362 236.251l-.739 50.854-6.574-.051 1.408-50.848 5.905.045z" class="C"/><path d="M8.198 235.962l23.872.186 41.608.325-41.654 5.481-.352 45.05-23.861-.186.386-50.856z" class="D"/><path d="M21.215 236.017l-.948 50.851-7.084-.055 1.158-50.851 6.874.055z" class="C"/><path d="M40.126 220.59c.008.259-.69.531-1.969.791s-3.143.512-5.498.594a32.97 32.97 0 0 1-3.884-.094l-2.181-.27-2.38-.52c-.443-.143-.911-.319-1.408-.614-.489-.289-1.029-.715-1.438-1.352-.422-.632-.606-1.427-.614-2.068-.014-.653.091-1.196.193-1.661.398-1.661.802-3.37 1.581-5.191a13.79 13.79 0 0 1 1.472-2.601 12.4 12.4 0 0 1 .985-1.168c.378-.383.804-.746 1.303-1.059a5.23 5.23 0 0 1 1.738-.701c.649-.132 1.36-.108 1.97.046 1.232.321 2.039.959 2.69 1.484 2.502 2.086 4.286 4.435 5.454 6.559 1.172 2.131 1.724 4.03 1.943 5.351.208 1.331.102 2.091-.139 2.146-.554.139-1.42-2.588-4.037-6.058-1.312-1.72-3.082-3.607-5.353-5.271-.537-.397-1.043-.668-1.367-.716-.298-.039-.506 0-.921.264-.195.133-.405.314-.609.533a9.52 9.52 0 0 0-.631.781c-.399.569-.747 1.208-1.055 1.908-.605 1.395-1.032 3.012-1.445 4.542-.087.336-.131.603-.136.761-.001.164.005.181.017.216-.005.081.373.394.93.596.541.205 1.267.396 1.909.556l1.936.419 3.581.529 5.353.598c1.283.189 2 .41 2.008.67z" class="D"/><path d="M39.207 220.874c-.094-.537 3.027-1.402 7.92-2.751 2.435-.697 5.302-1.559 8.278-2.864.735-.314 1.424-.663 1.876-1.029.224-.177.357-.352.378-.419s.014-.019-.007-.179c-.027-.152-.14-.45-.329-.842l-.598-1.249c-.401-.821-.822-1.599-1.293-2.315s-.985-1.338-1.557-1.854c-.281-.265-.59-.494-.893-.708-.286-.192-.576-.347-.853-.452-.565-.212-1.032-.241-1.505-.109-.485.13-1.042.478-1.611.951-2.413 2.053-4.336 4.308-5.688 6.33-2.751 4.068-3.373 7.214-3.945 7.123-.243-.032-.412-.87-.257-2.372.159-1.495.69-3.652 1.902-6.081 1.207-2.437 3.067-5.091 5.704-7.602.703-.642 1.586-1.352 2.805-1.768 1.224-.431 2.671-.363 3.84.065.594.206 1.138.486 1.64.807.474.316.932.65 1.355 1.033.858.754 1.583 1.642 2.195 2.563.607.925 1.099 1.862 1.524 2.763l.61 1.328c.201.461.461 1.031.585 1.794.139.749.01 1.761-.416 2.488-.408.736-.937 1.204-1.419 1.563-.978.701-1.903 1.061-2.741 1.379-3.336 1.244-6.438 1.871-9.027 2.255-2.593.377-4.692.506-6.151.522-1.459.008-2.282-.114-2.323-.37z" class="C"/><path d="M.489 235.89l61.16.477.136-17.384-61.16-.477-.136 17.384z" class="D"/><path d="M23.193 236.012l55.283.432.136-17.384-55.283-.432-.136 17.384z" class="F"/><path d="M61.525 218.922l-.39 17.464-6.448-.133.45-17.381 6.387.05zm-45.757-.273l-.623 17.308-7.088-.057.38-17.394 7.331.143z" class="C"/><path d="M79.258 19.248l.705 2.745-11.003 2.826-.56-2.184 4.255-6.747c.974-1.558 1.011-2.365.829-3.072-.294-1.144-1.254-1.607-2.794-1.212-1.249.32-2.187 1.071-2.642 2.231l-2.861-.952c.701-1.931 2.468-3.516 5.088-4.188 3.246-.833 5.837.276 6.515 2.917.363 1.415.299 2.805-1.254 5.221l-2.537 4.022 6.261-1.607zm9.303-7.228c-.85-3.308-2.367-4.38-4.052-3.948-1.664.427-2.477 2.099-1.627 5.406s2.367 4.381 4.031 3.955c1.684-.433 2.497-2.105 1.648-5.412zm-9.09 2.334c-1.234-4.805.729-8.214 4.307-9.133 3.599-.924 6.94 1.123 8.174 5.928s-.708 8.208-4.307 9.132c-3.578.918-6.94-1.123-8.174-5.928zm29.463-3.929c-.48-1.873-1.648-2.792-3.02-2.44-1.353.347-1.959 1.7-1.473 3.592s1.669 2.787 3.021 2.439c1.374-.352 1.953-1.72 1.472-3.592zm-5.533 1.42c-.608-2.371.338-4.299 2.272-4.796 1.955-.501 3.692.737 4.301 3.109s-.316 4.294-2.271 4.795c-1.934.497-3.692-.737-4.302-3.108zm.432-11.529L105.061 0l-6.205 17.113-1.227.315L103.833.315zm-5.585 5.536c-.486-1.893-1.669-2.786-3.021-2.439-1.373.352-1.953 1.72-1.472 3.592s1.648 2.792 3.022 2.44c1.352-.347 1.958-1.7 1.472-3.593zm-5.534 1.421c-.608-2.372.317-4.294 2.272-4.796 1.935-.496 3.687.716 4.301 3.108s-.337 4.299-2.271 4.796c-1.956.502-3.693-.736-4.302-3.108zm123.169 57.58c.052 2.976-2.195 5.739-7.213 5.825-2.471.043-5.029-.594-6.765-1.775l1.535-3.154c1.353.985 3.229 1.533 5.07 1.501 2.042-.035 3.288-.889 3.264-2.326-.023-1.336-1.021-2.151-3.34-2.111l-1.866.032-.047-2.698 3.56-4.172-7.514.13-.057-3.278 12.356-.214.045 2.648-3.906 4.607c3.186.449 4.834 2.389 4.878 4.985zm12.912-3.659c-.069-4.009-1.51-5.648-3.552-5.614-2.018.035-3.401 1.723-3.332 5.732s1.51 5.648 3.527 5.614c2.042-.035 3.426-1.723 3.357-5.732zm-11.019.19c-.101-5.824 3.07-9.183 7.407-9.258 4.362-.075 7.62 3.173 7.721 8.997s-3.044 9.184-7.406 9.259c-4.338.075-7.621-3.173-7.722-8.998zm34.757 3.58c-.04-2.27-1.123-3.639-2.787-3.61-1.638.028-2.699 1.409-2.66 3.703s1.148 3.637 2.786 3.608c1.664-.028 2.7-1.434 2.661-3.702zm-6.707.115c-.05-2.874 1.556-4.82 3.9-4.86 2.371-.041 4.018 1.848 4.067 4.722s-1.532 4.819-3.901 4.859c-2.346.04-4.017-1.848-4.066-4.721zm3.633-13.052l1.488-.026-11.748 17.858-1.487.026 11.747-17.858zm-7.887 4.801c-.04-2.294-1.148-3.637-2.786-3.609-1.664.029-2.699 1.434-2.66 3.704s1.122 3.638 2.786 3.609c1.639-.028 2.7-1.409 2.66-3.703zm-6.707.116c-.049-2.875 1.531-4.819 3.902-4.86 2.344-.04 4.016 1.823 4.066 4.722s-1.556 4.819-3.901 4.859c-2.37.041-4.017-1.848-4.067-4.721z" class="D"/><path d="M301.353 10.278c-.344 2.254-2.299 3.965-5.935 3.41-1.765-.269-3.544-1.044-4.647-2.106l1.508-2.077c.854.875 2.117 1.495 3.443 1.698 1.473.225 2.477-.254 2.635-1.291.153-1-.402-1.754-2.71-2.108l-3.255-.497L294.14.244l7.764 1.187-.36 2.364-5.31-.812-.569 2.388 1.036.158c3.764.575 4.996 2.494 4.652 4.749zm9.448-.928c.441-2.891-.393-4.246-1.866-4.471-1.455-.222-2.656.822-3.098 3.713s.394 4.247 1.848 4.469c1.473.224 2.674-.819 3.116-3.711zm-7.945-1.213c.642-4.2 3.332-6.227 6.46-5.749 3.146.48 5.09 3.215 4.448 7.415s-3.314 6.229-6.46 5.749c-3.127-.478-5.09-3.215-4.448-7.415zm24.598 6.874c.251-1.637-.361-2.754-1.561-2.937-1.181-.18-2.113.682-2.366 2.337s.379 2.756 1.561 2.936c1.2.183 2.117-.7 2.366-2.336zm-4.836-.739c.317-2.073 1.709-3.274 3.401-3.015 1.708.26 2.662 1.82 2.344 3.893s-1.691 3.276-3.4 3.015c-1.691-.258-2.661-1.821-2.345-3.893zm-2.047-6.453c.253-1.655-.379-2.756-1.561-2.937-1.201-.183-2.117.7-2.366 2.337s.36 2.753 1.561 2.936c1.181.181 2.113-.682 2.366-2.336zm6.259-2.486l1.073.163-10.636 11.4-1.072-.164L326.83 5.333zM315.734 7.08c.318-2.073 1.692-3.277 3.401-3.016 1.691.258 2.664 1.803 2.345 3.893s-1.71 3.274-3.401 3.016c-1.709-.261-2.662-1.821-2.345-3.893zM11.947 71.574L9.307 82.85l-2.61-.611 2.15-9.182-2.255-.529.491-2.093 4.865 1.139zm7.541 7.667c.599-2.562-.054-3.836-1.359-4.141-1.288-.302-2.44.55-3.039 3.111s.053 3.836 1.342 4.137c1.305.306 2.457-.546 3.057-3.108zm-7.04-1.648c.871-3.72 3.427-5.348 6.198-4.7 2.787.654 4.338 3.243 3.468 6.963s-3.412 5.353-6.199 4.699c-2.77-.648-4.338-3.241-3.467-6.963zm21.695 7.832c.339-1.45-.129-2.494-1.192-2.743-1.047-.245-1.944.463-2.287 1.928s.146 2.499 1.193 2.744c1.063.249 1.946-.479 2.286-1.929zm-4.285-1.003c.43-1.837 1.764-2.815 3.262-2.465 1.514.355 2.259 1.821 1.829 3.657s-1.748 2.818-3.262 2.464c-1.498-.351-2.259-1.82-1.829-3.657zm-1.381-5.93c.343-1.467-.146-2.498-1.192-2.743-1.063-.249-1.947.479-2.287 1.929s.13 2.494 1.192 2.742c1.047.245 1.943-.462 2.287-1.927zm-4.285-1.004c.43-1.837 1.748-2.819 3.262-2.465 1.498.351 2.262 1.804 1.828 3.657s-1.763 2.816-3.261 2.464c-1.515-.354-2.259-1.82-1.829-3.656zm10.073-.785l.951.223-10.34 9.473-.95-.223 10.34-9.473z" fill="#f0f0f0"/><g class="G"><path d="M80.106 188.227c-12.557-12.853-32.231-18.252-49.589-13.611 15.078 10.11 32.022 15.528 50.175 15.677m-17.296-61.707c2.066-14.612-3.613-31.051-14.553-41.672-.361 14.482 5.752 30.778 14.553 41.672z"/><path d="M71.968 156.195c-7.797-14.903-20.595-27.133-35.835-34.247 4.567 16.825 18.958 30.589 35.969 34.403m1.728 5.204c-8.826.248-17.757-.062-26.293-2.321s-16.71-6.6-22.39-13.36a87.87 87.87 0 0 1 48.551 14.822m-4.362-16.68c4.481-16.79 11.872-28.405 25.069-37.815.998 8.17-1.01 16.673-5.557 23.533a35.28 35.28 0 0 1-19.513 14.282zm33.409 28.906c.231-9.756-6.058-19.345-15.099-23.02.733 8.671 7.544 18.701 15.099 23.02zm4.189-14.136c1.002-14.025 10.968-27.002 24.259-31.589-3.047 14.031-11.16 25.712-24.259 31.589zm-6.348 25.126c3.112-4.452 8.191-7.221 13.446-8.596s10.747-1.497 16.178-1.61c-7.327 8.061-18.328 12.643-29.211 12.166m-6.761 33.837c9.792-3.022 20.704-2.241 29.964 2.146s16.777 12.336 20.64 21.826c-18.382-3.489-36.521-11.652-50.604-23.972zm-20.237-12.434c3.054 9.027 2.468 19.937-4.321 27.716-2.762-9.262-1.13-19.733 4.321-27.716zm-11.736-5.004c-.85 11.605-8.27 22.506-18.756 27.553-.52.251-1.123.491-1.658.273-.827-.337-.903-1.466-.801-2.353 1.329-11.565 9.897-22.749 21.214-25.473zm-7.912-1.175c-5.164 5.579-12.693 8.893-20.295 8.932s-15.166-3.198-20.386-8.724c12.931-1.415 27.852-2.359 40.681-.208z"/></g><g class="B"><path d="M52.491 97.656c-.008.003.032.131.118.379l.394 1.094 1.56 4.187 2.428 6.639 1.498 4.152 1.615 4.677c2.29 6.548 4.834 14.407 7.58 23.158a936.46 936.46 0 0 1 8.315 28.654 868.1 868.1 0 0 1 7.26 28.948c2.015 8.947 3.748 17.024 5 23.847l.918 4.862.739 4.351 1.138 6.976.678 4.415.189 1.147c.045.258.073.39.081.389s-.001-.135-.031-.396l-.14-1.153-.587-4.43c-.24-1.927-.614-4.271-1.056-6.993l-.703-4.36-.883-4.872c-1.209-6.835-2.908-14.926-4.9-23.886-2.051-8.946-4.475-18.743-7.226-28.974-2.788-10.217-5.636-19.897-8.358-28.661l-7.686-23.137-1.649-4.668-1.534-4.141-2.508-6.612-1.647-4.155-.44-1.076c-.102-.241-.157-.364-.165-.36z"/><path d="M123.347 134.644c-.006-.006-.081.066-.223.21l-.618.65-2.3 2.572c-1.951 2.27-4.706 5.638-7.612 10.152-2.907 4.499-5.887 10.231-7.962 17.031-2.132 6.78-3.456 14.486-4.775 22.541-2.629 16.124-5.855 30.564-8.19 41.011l-2.801 12.365-.745 3.366-.182.879c-.038.199-.054.3-.045.303s.04-.097.095-.292l.23-.866.835-3.345 2.954-12.332c2.423-10.428 5.706-24.868 8.339-41.008 1.318-8.056 2.625-15.738 4.722-22.487 2.038-6.767 4.963-12.472 7.821-16.978 2.856-4.518 5.562-7.911 7.465-10.216l2.226-2.63.581-.682c.129-.156.193-.238.186-.244zm-72.81 65.935c-.001.018.159.046.466.085l1.338.148.967.095 1.143.172 2.776.468 1.606.32 1.72.436c1.197.269 2.433.707 3.751 1.106 2.6.911 5.399 2.084 8.188 3.607 2.78 1.545 5.241 3.326 7.341 5.1l2.817 2.704c.871.863 1.576 1.759 2.228 2.571.688.786 1.166 1.603 1.65 2.274.491.669.844 1.289 1.13 1.798l.686 1.159c.162.262.255.397.27.389s-.048-.157-.181-.434l-.607-1.208a14.88 14.88 0 0 0-1.065-1.854c-.466-.691-.929-1.53-1.606-2.337l-2.206-2.638c-.81-.939-1.793-1.824-2.817-2.768-2.109-1.814-4.591-3.627-7.401-5.187-2.82-1.542-5.653-2.713-8.283-3.608l-3.796-1.073-1.739-.41-1.623-.29c-1.03-.206-1.976-.303-2.804-.399l-1.154-.132-.975-.053-1.35-.055c-.308-.007-.47-.003-.471.014zm-3.661-65.568c-.022.026.31.345.932.898l2.66 2.308 8.902 7.475 8.996 7.365 2.761 2.187 1.055.749s-.313-.345-.934-.899l-2.663-2.309-8.9-7.473-8.991-7.361-2.762-2.188-1.057-.752zm-3.175 17.095c-.039.131 6.751 2.253 15.163 4.739l15.305 4.264c.038-.132-6.75-2.252-15.166-4.739s-15.264-4.395-15.303-4.264zm24.906-6.838c.03.017.278-.331.7-.975l1.79-2.727a160.14 160.14 0 0 1 6.221-8.766 169.49 169.49 0 0 1 6.818-8.315l2.15-2.454c.507-.58.776-.913.751-.936s-.34.264-.892.804-1.329 1.342-2.27 2.352c-1.88 2.02-4.387 4.9-6.95 8.248s-4.677 6.528-6.123 8.878a68.62 68.62 0 0 0-1.661 2.817c-.373.675-.566 1.056-.536 1.074z"/><path d="M92.289 154.786c-.059.043.579 1.025 1.593 2.62l3.817 6.315 3.478 6.508 1.438 2.708c.059-.025-.347-1.126-1.122-2.858l-3.365-6.602-3.955-6.265-1.884-2.426zm8.053 29.604c.036.066 1.331-.567 3.451-1.521l8.425-3.375 8.692-2.616 3.644-.963c-.007-.033-.365.005-1.011.105l-2.714.518c-2.282.49-5.408 1.314-8.774 2.49s-6.322 2.485-8.412 3.525l-2.444 1.288-.857.549zm-6.348 35.343c-.003.016.141.065.42.142l1.222.311 4.516 1.042c3.807.885 9.11 1.991 14.749 3.893 5.64 1.921 10.479 4.361 13.76 6.465 1.645 1.047 2.927 1.973 3.792 2.639s1.341 1.04 1.367 1.011c.011-.013-.094-.123-.304-.321s-.518-.494-.943-.84c-.831-.716-2.089-1.689-3.721-2.782-3.256-2.195-8.114-4.707-13.79-6.64-5.684-1.917-11.009-2.968-14.837-3.767l-4.549-.888c-1.076-.2-1.674-.299-1.682-.265zm-22.93 8.765c.136.02.944-4.744 1.806-10.636s1.451-10.689 1.316-10.709-.944 4.742-1.806 10.637-1.452 10.688-1.317 10.708zm-23.942-8.643c.057.044.862-.95 2.155-2.558l5.107-6.235 5.263-6.105 2.15-2.563c-.025-.023-.268.187-.685.587l-1.723 1.74-5.384 6.023-5.005 6.34-1.418 1.996c-.322.48-.488.756-.46.775z"/></g><path d="M110.428 241.943v11.816h-2.953l-10.503 33.147h-23.29l-10.174-32.819-3.938-.328v-11.816h50.858z" class="E"/><path d="M61.523 254.154c0 .135 10.283.246 22.967.246l22.969-.246c0-.137-10.282-.248-22.969-.248l-22.967.248zm-16.845-76.046c-.006.034.525.176 1.493.404l4.088.985a173.65 173.65 0 0 1 13.308 3.872 174.33 174.33 0 0 1 12.946 4.958l3.852 1.685 1.433.58s-.466-.297-1.35-.753l-3.794-1.832c-3.232-1.487-7.78-3.372-12.929-5.107a134.87 134.87 0 0 0-13.386-3.744c-1.736-.385-3.148-.668-4.129-.833s-1.525-.249-1.532-.215z" class="B"/><path d="M69.336 272.464c0 .137 7.215.248 16.113.248s16.115-.111 16.115-.248-7.215-.247-16.115-.247-16.113.111-16.113.247zm-.977-2.686c0 .137 7.647.247 17.076.247l17.078-.247c0-.136-7.645-.247-17.078-.247s-17.076.111-17.076.247z" class="C"/><path d="M412.017 215.486c-3.492 8.592-13.288 12.728-21.881 9.236s-12.728-13.289-9.236-21.881 13.289-12.728 21.881-9.236 12.728 13.289 9.236 21.881zm26.757-19.449l-48.091-54.027c-3.829-4.302-9.301-6.782-15.061-6.823l-158.334-1.153c-11.322-.083-20.537 9.087-20.511 20.41l.266 112.119c.027 11.26 9.187 20.361 20.448 20.314l157.781-.664c5.905-.025 11.507-2.611 15.356-7.088l48.377-56.275c6.649-7.735 6.551-19.194-.231-26.813z" class="G"/><path d="M217.404 286.877c-7.096 0-13.349-3.633-16.995-9.143l9.41 1.476c3.515 4.402 8.817 7.313 14.802 7.637l-7.13.03h-.087zm-12.083-44.312c-4.619-.473-7.838-.551-7.838-.551l-.5-.785-.051-21.597 6.509-28.174c.005-.011.009-.023.013-.035.115-.31.249-.641.402-.988l1.343.847.122 51.283zm-.197-82.925c-1.855-1.749-5.154-3.439-8.346-4.807l-.001-.389v-.033c-.008-11.257 9.117-20.378 20.359-20.378l.152.001 6.75.049c-10.585.736-18.951 9.57-18.926 20.361l.012 5.196zm199.675 66.339c-1.383 0-2.781-.171-4.164-.528 4.979-1.279 9.309-4.819 11.393-9.947.842-2.073 1.24-4.215 1.24-6.322-.003-6.63-3.956-12.91-10.476-15.559a17.07 17.07 0 0 0-2.154-.712 16.76 16.76 0 0 1 4.172-.528c2.106 0 4.246.398 6.317 1.24 8.593 3.492 12.727 13.288 9.236 21.881-2.65 6.521-8.933 10.475-15.564 10.475z" class="I"/><path d="M420.318 215.486c-3.491 8.592-13.288 12.728-21.881 9.236s-12.727-13.289-9.235-21.881 13.288-12.728 21.881-9.236 12.727 13.289 9.235 21.881zm26.758-19.449l-48.091-54.027a20.36 20.36 0 0 0-15.062-6.823l-158.334-1.153c-11.322-.083-20.537 9.087-20.511 20.41l.266 112.119c.027 11.26 9.187 20.361 20.448 20.314l157.782-.664c5.904-.025 11.507-2.611 15.356-7.088l48.377-56.275c6.648-7.735 6.55-19.194-.231-26.813z" class="G"/><path d="M340.611 231.107c.078-8.522-3.222-12.814-8.29-12.861-4.952-.046-8.445 4.067-8.525 12.704s3.336 12.816 8.287 12.862c5.069.047 8.448-4.183 8.528-12.705zm-28.332-.263c.126-13.59 8.5-22.15 20.13-22.042 11.747.11 19.959 8.824 19.833 22.412s-8.499 22.151-20.247 22.041c-11.631-.108-19.843-8.821-19.716-22.411zm13.794-59.187l13.706.128-55.799 80.103-13.704-.127 55.797-80.104zm-39.813 20.936c.08-8.637-3.221-12.813-8.289-12.86-4.951-.047-8.446 4.182-8.526 12.705s3.337 12.814 8.288 12.861c5.068.047 8.447-4.068 8.527-12.706zm-28.446-.264c.127-13.589 8.499-22.15 20.245-22.04s19.845 8.708 19.717 22.412-8.382 22.151-20.13 22.042-19.958-8.824-19.832-22.414z" fill="#fff"/><path d="M441.954 229.357c.043-.048.584.342 1.574 1.131l4.257 3.539 6.548 5.83c2.5 2.334 5.292 5.063 8.181 8.275 2.878 3.217 5.89 6.903 8.608 11.228l1.023 1.638.969 1.709a36.06 36.06 0 0 1 1.832 3.609c1.097 2.516 1.995 5.297 2.084 8.315.041 1.502-.16 3.056-.665 4.542a11.77 11.77 0 0 1-2.375 4.087c-2.115 2.404-5.069 4.016-8.255 4.721-3.196.699-6.548.497-9.746-.23-3.211-.731-6.299-1.945-9.295-3.417-6.003-2.965-11.145-7.097-15.516-11.56-2.188-2.239-4.181-4.586-6-6.973a198.73 198.73 0 0 1-5.166-7.074c-6.509-9.366-11.542-18.398-14.712-26.46a90.3 90.3 0 0 1-2.075-5.808c-.288-.933-.562-1.841-.787-2.738-.215-.906-.453-1.753-.521-2.667-.235-1.792.214-3.591 1.185-4.838.956-1.265 2.246-1.984 3.423-2.383.591-.216 1.176-.303 1.72-.398.551-.028 1.064-.09 1.543-.032.956.033 1.742.283 2.345.515.592.275 1.022.528 1.256.771.246.223.358.345.337.369s-.178-.05-.451-.214c-.257-.184-.698-.368-1.271-.571-.591-.161-1.336-.339-2.234-.312-.446-.027-.924.063-1.432.113-.5.118-1.035.222-1.566.447-1.059.414-2.173 1.113-2.947 2.221-.782 1.096-1.115 2.6-.865 4.181.073.788.334 1.648.564 2.506.24.864.532 1.749.836 2.657a95.07 95.07 0 0 0 2.171 5.681c3.272 7.865 8.373 16.746 14.897 25.966 1.635 2.306 3.36 4.633 5.172 6.973 1.797 2.331 3.752 4.608 5.893 6.781 4.276 4.33 9.268 8.316 15.038 11.166 2.876 1.414 5.857 2.584 8.87 3.275 3.007.691 6.084.868 8.942.254 2.836-.611 5.474-2.048 7.303-4.11 1.863-2.042 2.714-4.741 2.654-7.406-.053-2.679-.848-5.287-1.87-7.692-.52-1.207-1.084-2.372-1.725-3.495l-.925-1.68-.979-1.614c-2.601-4.267-5.504-7.942-8.284-11.175-2.79-3.23-5.494-6.003-7.912-8.395l-6.307-6.044-4.021-3.799c-.908-.879-1.365-1.366-1.323-1.415zM366.82 117.431c-.102.014-2.125-14.103-4.517-31.528l-4.145-31.582c.103-.014 2.125 14.101 4.517 31.531l4.145 31.579zm59.301-77.27c.005.003-.017.076-.068.219l-.232.628-.928 2.399-3.438 8.813-11.031 29.193-10.442 29.415-3.069 8.949-.842 2.43-.228.629-.09.21s.013-.077.054-.222l.192-.64.776-2.453 2.956-8.988 10.34-29.459 11.137-29.162 3.551-8.77.992-2.374.267-.613.103-.205zm42.843 55.543c.063.082-10.263 8.169-23.063 18.062l-23.294 17.765c-.063-.082 10.262-8.168 23.065-18.063l23.292-17.764zm-127.209 24.301c-.083.063-4.076-5.026-8.917-11.365l-8.618-11.594c.082-.063 4.074 5.026 8.916 11.366l8.619 11.593zm122.191 39.819c-.028.099-6.356-1.658-14.129-3.924l-14.026-4.285c.029-.099 6.354 1.657 14.13 3.925l14.025 4.284z" class="B"/><path d="M373.047 159.603l4.689-2.7 2.491-4.803 2.701 4.689 4.803 2.492-4.689 2.7-2.491 4.803-2.701-4.69-4.803-2.491zm-25.391-7.44l1.641-.945.873-1.682.945 1.642 1.682.872-1.643.946-.872 1.681-.945-1.641-1.681-.873zm16.357 33.091l3.174-1.827 1.686-3.251 1.828 3.174 3.249 1.686-3.173 1.828-1.686 3.25-1.827-3.173-3.251-1.687z" fill="#fff"/><path d="M497.015 286.931c0 .104-111.27.188-248.496.188-137.273 0-248.519-.084-248.519-.188s111.246-.188 248.519-.188l248.496.188z" class="B"/><path d="M145.018 274.17l-31.334 8.763c-1.814.639-1.51 7.288 1.314 7.184 1.336-.049 23.139.813 25.894.64s10.168-3.101 10.168-3.101l-6.042-13.486z" class="E"/><g class="B"><path d="M132.369 285.681c-.151.021-.355-1.573-1.328-3.235-.948-1.676-2.224-2.652-2.13-2.772.053-.117 1.55.732 2.568 2.521 1.034 1.778 1.017 3.499.89 3.486zm3.103-1.481c-.148.025-.452-1.399-1.254-2.972-.787-1.582-1.749-2.675-1.641-2.779.083-.098 1.26.887 2.091 2.552.843 1.659.933 3.191.804 3.199zm2.867-.725c-.152-.009-.036-1.514-.705-3.183-.64-1.68-1.746-2.707-1.64-2.817.06-.114 1.411.817 2.11 2.634.718 1.808.357 3.409.235 3.366z"/><path d="M138.018 279.582c-.053.013-.321-.827-.323-2.242.002-.703.083-1.546.305-2.456.111-.454.259-.924.448-1.397.098-.24.209-.515.483-.74.281-.251.793-.199 1.035.052.276.24.363.58.401.851.031.277.046.535.039.797-.007.518-.074 1.016-.185 1.474-.223.92-.583 1.691-.928 2.303-.702 1.222-1.31 1.848-1.353 1.814-.069-.049.435-.75 1.037-1.978.296-.615.605-1.37.791-2.24.092-.435.144-.898.145-1.377-.014-.463-.008-1.041-.278-1.264-.144-.119-.273-.127-.399-.033-.133.102-.245.308-.33.526-.187.45-.338.897-.456 1.33a12.03 12.03 0 0 0-.399 2.352l-.033 2.228z"/><path d="M137.94 279.244c-.014-.054.713-.305 1.942-.313a8.78 8.78 0 0 1 2.138.262c.39.106.809.207 1.231.454.413.209.845.782.681 1.376-.13.56-.609.953-1.086 1.075-.479.135-.944.087-1.351-.003-.826-.189-1.469-.597-1.957-.963-.966-.757-1.437-1.336-1.401-1.378.054-.064.624.431 1.605 1.086.494.315 1.112.657 1.848.8.366.07.761.092 1.117-.015.355-.098.649-.369.734-.716.086-.337-.118-.645-.448-.841-.323-.2-.722-.315-1.092-.426-.745-.213-1.443-.311-2.03-.354-1.18-.083-1.918.037-1.931-.044zm-10.133 6.728c-.149-.016-.001-1.305-.594-2.717-.563-1.424-1.57-2.242-1.475-2.358.05-.122 1.31.591 1.942 2.168.65 1.57.249 2.961.127 2.907zm20.968 1.389c.014.033-.4.226-1.165.549-.774.292-1.907.702-3.352 1.039-2.882.726-6.989 1.138-11.501 1.09s-8.583-.256-11.534-.373l-3.49-.186c-.824-.055-1.279-.101-1.278-.136s.458-.054 1.284-.059l3.495.024 11.525.225c4.492.048 8.55-.303 11.42-.932 2.88-.593 4.561-1.334 4.596-1.241z"/><path d="M149.633 288.084c-.041.07-.865-.412-2.257-1.023-1.375-.589-3.436-1.297-5.7-.948-2.27.349-3.88 1.873-4.927 2.932l-1.736 1.773c-.046-.038.468-.838 1.474-2.015.509-.582 1.154-1.256 1.998-1.868.834-.613 1.908-1.135 3.112-1.319 2.428-.372 4.568.439 5.93 1.123 1.382.707 2.137 1.296 2.106 1.345zm-30.093 1.224c-.054-.038.203-.436.44-1.14.24-.695.423-1.728.221-2.83s-.745-2.002-1.217-2.567c-.473-.572-.856-.852-.818-.906.024-.04.474.158 1.032.712.554.543 1.185 1.49 1.406 2.686s-.03 2.306-.354 3.011c-.323.716-.673 1.063-.71 1.034z"/></g><path d="M176.228 275.024L208.381 280c1.878.42 2.366 7.057-.45 7.29-1.333.11-22.879 3.557-25.635 3.714s-11.397-2.108-11.397-2.108l5.329-13.872z" class="E"/><g class="B"><path d="M190.066 284.947c.153.003.166-1.603.934-3.369.742-1.776 1.893-2.897 1.785-3.006-.067-.109-1.451.912-2.249 2.809-.817 1.888-.594 3.594-.47 3.566zm-3.205-1.056c.149.008.283-1.443.892-3.101.593-1.663 1.419-2.864 1.298-2.953-.094-.089-1.145 1.029-1.772 2.782-.639 1.747-.548 3.28-.418 3.272zm-2.895-.427c.15-.027-.145-1.506.321-3.244.436-1.744 1.412-2.894 1.294-2.991-.073-.107-1.304.978-1.782 2.866-.498 1.881.05 3.427.167 3.369z"/><path d="M183.946 279.619c.055.006.22-.86.054-2.264-.085-.699-.266-1.526-.594-2.403-.164-.438-.368-.887-.612-1.335-.126-.226-.268-.486-.567-.676-.309-.217-.81-.104-1.022.173-.245.272-.291.62-.297.894.003.279.019.537.056.795.069.514.195 1 .36 1.442a8.98 8.98 0 0 0 1.194 2.176c.843 1.13 1.522 1.679 1.56 1.64.063-.055-.522-.692-1.265-1.84-.368-.576-.764-1.288-1.051-2.131-.144-.42-.25-.873-.308-1.349-.042-.461-.117-1.034.126-1.288.128-.135.256-.159.392-.08.143.085.279.277.39.483.239.425.442.85.611 1.266.338.831.547 1.618.675 2.288.25 1.344.215 2.206.298 2.209z"/><path d="M183.791 279.309c.007-.056-.745-.218-1.967-.08-.608.071-1.329.223-2.091.515-.375.15-.779.301-1.168.596-.385.256-.746.877-.513 1.448.195.541.719.873 1.207.938.492.076.947-.027 1.341-.164.797-.287 1.388-.767 1.828-1.188.869-.867 1.268-1.498 1.227-1.536-.06-.058-.568.503-1.464 1.27-.453.372-1.026.784-1.74 1.014-.355.113-.744.181-1.111.118-.364-.056-.688-.289-.814-.625-.125-.324.041-.654.345-.887.297-.237.68-.399 1.035-.554a10.16 10.16 0 0 1 1.973-.593l1.912-.272zm10.942 5.406c.146-.035-.153-1.296.267-2.769.39-1.482 1.292-2.413 1.184-2.517-.064-.115-1.23.743-1.671 2.384-.458 1.635.106 2.969.22 2.902zm-20.661 3.915c-.009.034.425.176 1.222.406.804.198 1.977.47 3.452.633 2.947.379 7.075.299 11.549-.285s8.492-1.274 11.407-1.741l3.444-.599c.812-.153 1.258-.253 1.253-.288s-.461.001-1.282.093l-3.468.441-11.416 1.594c-4.455.58-8.526.714-11.45.43-2.93-.245-4.687-.781-4.711-.684z"/><path d="M173.341 289.421c.049.065.81-.512 2.12-1.284 1.295-.749 3.258-1.696 5.547-1.618 2.295.075 4.074 1.398 5.241 2.325l1.935 1.553c.04-.042-.565-.776-1.704-1.825-.575-.518-1.295-1.111-2.206-1.616-.901-.51-2.03-.901-3.247-.941-2.454-.08-4.483.98-5.754 1.82-1.288.866-1.968 1.541-1.932 1.586z"/></g><path d="M272.544 148.117c-.251-.596-.905-.888-.905-.888l.734-1.474s-.071-.862-.427-1.482-1.62-.571-1.62-.571l.191-.414c.272-.591.216-1.282-.156-1.815l-.184-.244c-.515-.629-1.599-.811-1.599-.811s.718-1.385.399-1.964c-.424-.768-1.95-1.591-3.073-1.214-1.22.409-3.806 1.668-5.593 2.666-.705.393-1.591.067-1.874-.689-.537-1.441-1.487-3.635-2.731-5.136-1.355-1.633-2.632-1.502-3.369-1.216a.61.61 0 0 0-.305.887l1.963 3.577c.351.941.745 8.052.745 8.052l-1.948 3.708-19.679 31.068-29.567-20.506-1.398 22.939 22.374 14.858a15.75 15.75 0 0 0 13.191 1.981c4.45-1.321 8.091-4.536 9.951-8.787l15.056-32.675 1.827-2.671 7.091-4.544s1.157-2.038.906-2.635z" class="J"/><g class="L"><path d="M269.201 140.358c.004.005-.045.049-.141.129l-.426.342-1.587 1.232-2.367 1.809-1.432 1.039c-.521.315-1.231.529-1.882.247-.32-.141-.563-.415-.699-.716a2.01 2.01 0 0 1-.165-.951c.034-.646.381-1.193.752-1.615.379-.427.8-.763 1.181-1.082l1.068-.887 1.554-1.273.428-.339.158-.109c.004.005-.043.052-.135.137l-.406.365-1.517 1.317-1.053.903c-.377.324-.791.662-1.153 1.077-.356.413-.673.926-.7 1.517-.042.573.195 1.238.76 1.492.276.122.592.141.887.087s.576-.174.833-.323c.511-.308.967-.692 1.421-1.019l2.39-1.778 1.622-1.186.447-.314c.102-.072.158-.106.162-.101z"/><path d="M270.843 143.8c.007.01-.11.107-.328.274l-.942.68-3.228 2.07-.968.527c-.33.145-.688.232-1.032.196-.692-.083-1.187-.588-1.334-1.075a1.58 1.58 0 0 1 .091-1.168c.063-.125.131-.211.178-.266l.084-.075c.013.01-.093.124-.198.371-.098.242-.189.649-.034 1.098.148.437.612.885 1.23.949.306.028.63-.052.943-.192s.624-.332.947-.521l3.249-2.019.974-.633.368-.216z"/><path d="M271.663 146.974c.006.012-.116.082-.34.2l-.96.483-3.197 1.534-.935.408c-.317.107-.66.15-.973.078-.31-.067-.589-.26-.723-.52a1.19 1.19 0 0 1-.111-.765c.09-.477.379-.763.565-.929.197-.168.325-.23.331-.223.009.013-.106.096-.282.274-.168.176-.425.466-.488.897-.029.212-.006.459.116.674s.352.374.628.429.582.02.881-.083.6-.257.914-.403l3.219-1.486.985-.431.37-.137z"/><path d="M272.218 149.985c.005.025-.426.135-1.128.294l-2.748.584-.785.158c-.252.05-.506.102-.758.092s-.495-.089-.672-.241c-.183-.149-.266-.378-.257-.573.03-.398.271-.635.433-.754.17-.121.288-.137.29-.129.007.015-.1.054-.246.184-.14.125-.342.365-.35.701a.59.59 0 0 0 .225.456c.15.121.36.186.582.189s.464-.044.718-.098l.784-.161 2.759-.533 1.153-.169zm-7.712-1.404c-.014.056-.895-.262-2.018-.202-1.124.046-1.969.445-1.989.392-.028-.033.813-.522 1.981-.571 1.168-.062 2.05.345 2.026.381z"/></g><g class="B"><path d="M158.409 141.841s-9.984-8.422-7.67-14.222 8.718-8.677 11.869-19.222c2.517-8.426 17.517-24.657 35.289-12.456 0 0 6.016-.949 9.439 1.791s4.245 8.209 5.698 14.525c2.239 9.731 3.465 17.213-.868 21.968s-5.915 6.042-5.683 11.454c.302 7.063 3.417 6.117.73 11.267l-14.907-4.865-.154-4.104-1.51 3.862-8.674-3.12-23.559-6.878z"/><path d="M208.118 106.323c-.968 2.226-.174 4.795.746 7.039s1.986 4.625 1.52 7.006c-.824 4.222-6.063 6.575-6.644 10.836-.312 2.284.834 4.608.391 6.87-.428 2.188-2.258 3.835-4.197 4.937s-4.088 1.832-5.91 3.116c0 0-4.011 3.288-10.919-2.134"/></g><path d="M179.842 100.805c-1.857-.434-3.737.627-4.328 2.439l-14.323 47.543c-1.849 5.559 5.145 11.496 11.113 13.43 6.027 1.955 7.247-.91 9.163-6.144l4.333-11.997s7.996 1.374 12.992-7.946c2.484-4.635 5.033-12.763 6.905-19.482 1.684-6.047.287-14.671-5.826-16.096l-20.029-1.747z" class="J"/><path d="M200.624 123.599c-.209.676-.953 1.057-1.664.852s-1.116-.918-.907-1.594.953-1.058 1.662-.854 1.117.919.909 1.596zm1.867-1.695c-.215.11-.927-.932-2.289-1.402-1.354-.489-2.596-.136-2.687-.354-.047-.099.217-.341.762-.506.538-.167 1.375-.219 2.221.078s1.452.86 1.75 1.323c.308.467.346.814.243.861zm-15.297-2.578c-.208.676-.952 1.057-1.662.852s-1.116-.917-.907-1.594.953-1.057 1.661-.853 1.117.919.908 1.595zm1.869-1.572c-.215.109-.928-.933-2.289-1.402-1.354-.489-2.597-.136-2.687-.354-.046-.099.215-.342.762-.507.538-.166 1.374-.219 2.221.079s1.452.86 1.75 1.322c.306.466.345.814.243.862zm1.367 11.847c.021-.08.918.067 2.35.369.36.085.713.131.854-.087.169-.223.154-.647.126-1.111l-.108-3.003.099-7.727c.171-.003.406 3.451.523 7.716l.059 3.005c-.005.441.065.967-.294 1.427-.184.227-.504.327-.748.309-.246-.009-.444-.073-.619-.123-1.405-.405-2.264-.697-2.242-.775z" class="B"/><path d="M185.813 146.056s-6.784-1.88-11.985-8.117c0 0 .975 7.941 11.168 10.451l.817-2.334zm2.946-13.332c-.264-.817-.998-1.471-1.881-1.676-.613-.141-1.309-.064-1.835.292s-.838 1.013-.672 1.585c.188.645.914 1.031 1.627 1.072s1.422-.193 2.101-.433c.188-.068.38-.138.529-.268s.24-.334.175-.507" class="L"/><g class="B"><path d="M189.933 113.869c-.213.359-1.592-.093-3.29-.21-1.697-.15-3.129.081-3.284-.306-.067-.184.236-.502.848-.771s1.532-.461 2.55-.381 1.901.413 2.459.774.812.723.717.894zm14.645 3.449c-.382.232-1.437-.418-2.81-.822-1.362-.443-2.606-.505-2.782-.91-.073-.194.201-.457.794-.612.587-.156 1.496-.161 2.436.129s1.681.809 2.069 1.266c.396.462.465.831.293.949z"/><path d="M163.086 132.001l8.057-26.984c.551-1.844 1.188-3.817 2.723-4.976 1.452-1.097 3.395-1.228 5.213-1.265a98.97 98.97 0 0 1 23.37 2.308c.367 1.831-1.216 3.569-2.987 4.164s-3.694.385-5.562.405-3.898.355-5.162 1.73c-1.346 1.461-1.477 3.723-2.747 5.25-2.185 2.629-6.758 2.074-8.928 4.714-1.642 1.998-1.199 4.918-1.74 7.445-.613 2.865-.613 2.865-2.855 7.08-1.375 2.586 2.087 7.52-1.362 13.921l-6.691-1.904 2.937-9.886-3.981 9.272-.285-11.274zm23.37-2.593c.142.082.07.441.061.959-.015.514.057 1.214.392 1.855s.87 1.097 1.301 1.377c.431.288.768.433.754.596-.006.145-.41.292-1.057.141-.634-.141-1.499-.649-1.996-1.591s-.417-1.947-.174-2.548c.246-.619.597-.866.719-.789z"/><path d="M184.521 107.79c.005.012-.124.084-.372.211-.253.117-.612.314-1.063.587a12.61 12.61 0 0 0-3.303 2.952c-1.152 1.467-2.248 3.503-2.602 5.96-.189 1.224-.129 2.525.028 3.876.142 1.35.36 2.767.253 4.243a7.67 7.67 0 0 1-.46 2.141c-.262.676-.613 1.289-.96 1.878-.704 1.167-1.351 2.305-1.51 3.528-.186 1.214-.061 2.401.09 3.497l.424 3.08c.169 1.906-.142 3.492-.662 4.44-.244.482-.53.794-.715 1.004l-.327.277c-.037-.031.455-.398.911-1.347.464-.939.727-2.481.528-4.351-.09-.933-.3-1.952-.467-3.058s-.309-2.317-.124-3.593c.282-2.657 2.846-4.603 2.898-7.524.103-1.418-.106-2.817-.245-4.176-.154-1.356-.209-2.707-.005-3.966.385-2.528 1.536-4.599 2.738-6.075 1.217-1.488 2.506-2.395 3.436-2.911.468-.258.841-.435 1.105-.531l.404-.142zm32.33 40.544c.005.006-.036.039-.12.101-.086.057-.206.158-.382.257-.346.21-.891.476-1.641.668s-1.712.283-2.802.102a6.27 6.27 0 0 1-3.318-1.651c-1.004-.966-1.783-2.383-1.988-4.02-.105-.816-.074-1.684.166-2.534s.651-1.663 1.189-2.409c1.077-1.504 2.579-2.717 3.987-4.07.702-.678 1.392-1.396 1.963-2.216s1.018-1.737 1.344-2.712c.653-1.955.805-4 .759-5.95-.052-1.954-.299-3.837-.585-5.615a52.88 52.88 0 0 0-2.406-9.263c-.915-2.571-1.855-4.576-2.529-5.947l-.799-1.567-.265-.556c.012-.006.125.172.331.519l.863 1.538c.716 1.353 1.697 3.349 2.649 5.922.959 2.569 1.889 5.716 2.497 9.296.298 1.789.554 3.681.612 5.664.051 1.975-.098 4.062-.771 6.079-.336 1.005-.8 1.957-1.394 2.806s-1.301 1.583-2.015 2.268c-1.428 1.363-2.914 2.56-3.96 4.006-.523.717-.918 1.495-1.152 2.296s-.269 1.627-.175 2.406c.182 1.566.915 2.933 1.865 3.868.955.944 2.122 1.443 3.169 1.635 1.053.195 1.996.13 2.731-.038 1.486-.343 2.154-.937 2.177-.883z"/></g><path d="M155.274 138.495c-.031-.065.988-.104 2.32-1.151 1.302-1.028 2.746-3.199 3.072-6.201.188-1.493.158-3.148.125-4.929-.02-1.773-.059-3.716.443-5.693.241-.985.615-1.97 1.164-2.89.555-.913 1.311-1.753 2.276-2.337 1.956-1.198 4.354-1.14 6.484-1.885 1.075-.358 2-1.01 2.761-1.806s1.369-1.724 1.954-2.638c1.152-1.817 2.26-3.729 4.019-4.856.862-.565 1.841-.88 2.793-1.016.956-.147 1.89-.147 2.782-.121 1.786.06 3.436.182 4.924-.039 2.991-.409 5.189-1.649 6.547-2.615.69-.486 1.172-.933 1.506-1.226l.367-.349c.084-.076.13-.114.135-.11s-.565.767-1.921 1.802c-1.346 1.013-3.554 2.309-6.597 2.762-1.517.241-3.199.132-4.968.085-1.748-.035-3.731.026-5.38 1.118-1.66 1.07-2.743 2.929-3.897 4.762-.585.921-1.198 1.866-1.993 2.698-.787.829-1.783 1.532-2.908 1.903-2.225.765-4.585.714-6.417 1.846-1.835 1.109-2.823 3.107-3.295 4.997-.498 1.918-.475 3.831-.468 5.605l-.173 4.966c-.366 3.061-1.883 5.266-3.245 6.281-.686.517-1.309.781-1.74.901-.213.072-.386.088-.497.114-.113.021-.171.028-.173.022zm7.324-29.79c.016-.041.483.243 1.424.383.928.145 2.35.064 3.893-.641 1.552-.692 3.095-2.045 4.662-3.669l2.56-2.488c.941-.81 2.007-1.583 3.251-2.083s2.557-.676 3.801-.699 2.441.092 3.57.198l3.195.228c.999.014 1.93-.068 2.762-.225 1.668-.309 2.919-.966 3.624-1.596.717-.621.984-1.094 1.02-1.067.011.007-.055.121-.194.335-.066.11-.162.235-.285.374-.116.148-.263.304-.444.467-.692.681-1.968 1.397-3.67 1.747a13.63 13.63 0 0 1-2.814.276c-1.02.005-2.097-.097-3.226-.194l-3.53-.176c-1.217.027-2.48.197-3.668.679-2.391.988-4.108 2.885-5.706 4.467-1.585 1.615-3.184 2.984-4.8 3.668-1.605.696-3.079.737-4.026.543-.479-.087-.829-.236-1.063-.335-.227-.115-.343-.181-.336-.193zm52.157 20.129c-.049-.018.264-.461.354-1.373.111-.903-.165-2.256-1.029-3.644-.833-1.422-2.385-2.654-3.957-4.193-.776-.777-1.561-1.67-2.099-2.772s-.808-2.352-.894-3.626c-.167-2.561.272-4.957.215-7.126-.014-2.163-.538-4.122-1.589-5.38-1.013-1.283-2.275-1.89-3.167-2.032-.901-.155-1.413.014-1.417-.036-.003-.012.12-.045.363-.096.241-.041.609-.071 1.077-.013.932.102 2.271.697 3.351 2.01 1.124 1.29 1.698 3.34 1.728 5.54.074 2.213-.351 4.612-.186 7.107.084 1.241.339 2.445.85 3.491s1.254 1.916 2.014 2.689c1.531 1.527 3.105 2.813 3.938 4.299.863 1.447 1.108 2.868.947 3.8-.067.467-.2.812-.306 1.034-.115.217-.182.327-.193.321z" class="E"/><path d="M151.008 133.191c-.007.011-.164-.076-.462-.254a5.28 5.28 0 0 1-1.124-1.01c-.851-.974-1.764-2.878-1.384-5.265.114-.585.306-1.185.616-1.763.328-.567.759-1.097 1.272-1.574 1.041-.944 2.372-1.633 3.751-2.311 1.373-.683 2.845-1.392 4.009-2.553 1.179-1.152 1.832-2.79 2.27-4.49l1.295-5.041c.548-1.603 1.28-3.072 2.094-4.392a22.71 22.71 0 0 1 5.488-6.093c1.856-1.438 3.565-2.299 4.77-2.801.596-.269 1.084-.417 1.409-.526l.504-.146c.015.043-.676.258-1.854.806a22.4 22.4 0 0 0-4.665 2.875 22.98 22.98 0 0 0-5.357 6.065c-.794 1.306-1.507 2.754-2.04 4.331-.545 1.572-.838 3.28-1.281 5.017-.443 1.722-1.122 3.439-2.372 4.655-1.23 1.217-2.742 1.928-4.116 2.604-1.385.669-2.688 1.335-3.697 2.23-.495.453-.912.956-1.228 1.486-.298.543-.489 1.112-.607 1.67a6.69 6.69 0 0 0 .17 3.055c.264.873.664 1.569 1.067 2.069.806 1.015 1.509 1.308 1.472 1.356zm65.723-3.67c-.032-.03.307-.345.767-1.026s.997-1.759 1.28-3.196.282-3.215-.177-5.094-1.404-3.825-2.585-5.733l-3.551-5.286c-1.085-1.637-1.962-3.187-2.552-4.558s-.904-2.545-1.042-3.366l-.118-.951c-.015-.219-.017-.334-.004-.335.036-.004.083.453.266 1.256s.528 1.949 1.14 3.289 1.503 2.857 2.598 4.473l3.582 5.28c1.193 1.93 2.151 3.911 2.602 5.85s.422 3.763.101 5.228-.914 2.565-1.42 3.228c-.258.33-.469.575-.634.722-.157.153-.244.228-.253.219zm-74.876 100.558l-5.925 10.308s-29.442-10.773-46.676-7.635c-6.553 1.193-13.566 16.062-4.019 25.609 9.315 9.315 25.976 22.484 57.23 26.747.78.106 13.581 2.855 12.793 2.762s17.947 2.872 17.947 2.872l4.399-16.633 34.909 5.479c20.572-1.405 30.641-23.403 18.251-30.485-11.557-6.606-33.288-7.135-33.288-7.135l-7.877-12.354-47.744.465z" class="B"/><g class="E"><path d="M173.99 291.358l.849-5.186 1.06-6.007.763-3.707.501-2.001.323-1.027c.13-.344.241-.69.53-1.027l.052.253c-7.431-2.638-16.718-6.123-26.619-10.298-6.088-2.589-11.831-5.205-16.884-7.926-2.518-1.369-4.888-2.748-6.925-4.295-2.055-1.517-3.884-3.032-5.598-4.351-3.397-2.68-6.477-4.411-8.781-5.148-.565-.217-1.088-.336-1.538-.454a8.94 8.94 0 0 0-1.149-.248l-.713-.13c-.16-.032-.243-.051-.242-.057s.084 0 .247.019l.721.093c.317.038.709.095 1.162.215.455.106.985.216 1.558.424 1.167.345 2.533.959 4.041 1.798s3.13 1.963 4.856 3.277l5.62 4.311c2.033 1.527 4.389 2.884 6.906 4.241 5.045 2.697 10.784 5.299 16.865 7.885 9.89 4.17 19.166 7.68 26.574 10.36l.207.075-.155.176c-.194.225-.341.582-.458.908a16.52 16.52 0 0 0-.324 1.005c-.192.672-.356 1.336-.51 1.984a116.72 116.72 0 0 0-.792 3.692l-1.13 5.99-.71 3.823-.211.997c-.052.224-.096.336-.096.336z"/><path d="M224.158 251.136c-.002.006-.065 0-.188-.017l-.544-.087-2.086-.329c-1.813-.268-4.472-.442-7.742-.274-3.273.156-7.141.787-11.335 1.87a94.59 94.59 0 0 0-6.501 1.991c-2.23.774-4.503 1.663-6.831 2.591-2.335.943-4.682 1.671-6.966 2.299s-4.516 1.122-6.651 1.536c-4.271.831-8.155 1.345-11.417 1.742l-7.735.853-2.105.206-.549.045c-.123.008-.187.009-.188.003s.061-.02.184-.041l.545-.082 2.097-.276 7.718-.972c3.255-.43 7.128-.97 11.383-1.818 2.127-.422 4.349-.919 6.622-1.551s4.606-1.356 6.923-2.293c2.326-.927 4.613-1.818 6.85-2.59s4.428-1.425 6.533-1.979c4.22-1.07 8.115-1.676 11.409-1.8 3.292-.135 5.963.082 7.778.395.914.11 1.604.313 2.079.4l.537.124c.121.029.181.048.18.054z"/></g><path d="M170.206 245.207c.022.246-1.563.643-4.178.888-2.61.248-6.255.293-10.244-.131-3.991-.43-7.542-1.248-10.042-2.043s-3.967-1.516-3.893-1.754c.165-.526 6.348 1.119 14.135 1.929 7.779.858 14.171.561 14.222 1.111z" class="B"/><path d="M197.971 242.193c.004.026-.407.134-1.153.307l-1.348.352-1.762.539c-1.305.406-2.808 1.037-4.457 1.771l-5.183 2.767c-3.574 2.158-6.601 4.437-8.739 6.145l-2.513 2.053c-.589.49-.923.752-.941.733s.284-.319.844-.843a61.59 61.59 0 0 1 2.442-2.148c2.101-1.766 5.117-4.091 8.714-6.262a56.01 56.01 0 0 1 5.232-2.761c1.67-.722 3.194-1.331 4.52-1.708.654-.217 1.259-.362 1.791-.49a13.13 13.13 0 0 1 1.37-.291c.758-.13 1.178-.189 1.183-.164zm-32.86 14.689c-.012.042-.819-.131-2.069-.59-1.251-.452-2.924-1.212-4.723-2.133l-4.58-2.399-1.883-1.023c.018-.044.793.232 2 .785l4.633 2.302 4.651 2.222 1.971.836zm3.311-25.559c.057.007-.044 1.082-.154 2.822l-.158 6.799.421 6.791.263 2.813c-.026.004-.091-.259-.188-.738l-.339-2.044c-.246-1.731-.479-4.142-.532-6.814a58.1 58.1 0 0 1 .269-6.829l.259-2.055c.077-.482.133-.748.159-.745zm3.06 1.049c.018.03-.124.114-.307.327a2.1 2.1 0 0 0-.46 1.064c-.061.48.026 1.115.453 1.579.412.474 1.191.614 1.88.355.692-.253 1.193-.867 1.196-1.496.021-.629-.326-1.168-.686-1.492-.373-.327-.766-.469-1.042-.508s-.441-.013-.446-.048c-.005-.014.15-.096.458-.097s.76.109 1.201.448c.423.338.862.929.861 1.707.017.784-.602 1.55-1.41 1.839-.802.307-1.769.131-2.269-.476-.507-.589-.559-1.323-.458-1.855.113-.545.384-.928.618-1.123s.405-.239.411-.224z" class="E"/><path d="M180.602 220.583c.019.017-.182.277-.562.736-.373.463-.964 1.094-1.735 1.832s-1.743 1.557-2.884 2.389c-1.151.815-2.473 1.638-3.928 2.371-1.463.721-2.915 1.282-4.26 1.71-1.351.41-2.591.7-3.645.865l-2.507.282-.925.006c-.005-.073 1.31-.145 3.384-.55 1.038-.196 2.258-.509 3.588-.933a33.33 33.33 0 0 0 4.197-1.716c1.438-.724 2.747-1.527 3.896-2.317 1.138-.807 2.123-1.592 2.905-2.303l2.476-2.372zm13.2 7.929c-.002.112-1.299.114-2.829.497-1.535.37-2.685.972-2.739.873-.055-.077 1.052-.851 2.648-1.238 1.593-.397 2.933-.226 2.92-.132z" class="B"/><path d="M169.899 230.348c-1.376 0-2.751-.014-4.128-.04l20.199-.572a211.23 211.23 0 0 1-16.071.612z" class="H"/><path d="M145.61 216.165c-.057.08-.95-1.166-3.111-2.017-1.064-.425-2.429-.709-3.944-.666s-3.168.443-4.715 1.263c-3.146 1.634-5.009 4.418-6.434 6.204-.674.937-1.108 1.773-1.416 2.345l-.5.881c-.021-.01.104-.349.368-.945s.671-1.458 1.329-2.434c.664-.972 1.531-2.049 2.531-3.236 1.028-1.165 2.346-2.306 3.947-3.148s3.318-1.254 4.882-1.276 2.97.297 4.052.766c1.095.455 1.862 1.051 2.342 1.497a4.53 4.53 0 0 1 .517.551c.11.133.162.207.152.215z" class="B"/><path d="M164.372 146.973l-10.075 2.141 5.037 18.849 17.831 3.831 12.233-8.683 1.678-10.39-10.489-3.967-16.215-1.781z" class="J"/><g class="E"><path d="M157.456 148.315s6.814 19.795 19.411 17.966 11.545-14.658 11.545-14.658 13.146 4.006 17.21 8.272 1.681 13.532 1.681 13.532l-3.409 16.751-7.415 32.09s2.835 8.752-4.411 10.916l-2.29-3.591-43.476 1.23s-9.298 10.72-12.196 7.022-5.688-10.904-5.688-10.904l19.955-76.261 9.083-2.365z"/><path d="M202.019 157.471c.352.203 30.869 22.387 30.869 22.387s-2.395 18.241 12.239 15.335c0 0-5.916 15.256-13.924 12.053-2.276-.911-30.402-18.709-30.402-18.709l-5.977-12.733 7.195-18.333zm-44.772-8.179l-1.854.131c-5.973.574-28.02 5.139-30.061 20.697-1.067 8.139-1.373 31.936-2.529 41.912 0 0 1.844 13.868 2.529 16.438 1.219 4.572 23.335-2.746 23.335-2.746l.046-44.039 7.845-32.375.689-.018z"/></g><g class="B"><path d="M143.372 189.331c.013.001.025.125.035.359l.07 1.019c.093.881.364 2.141.931 3.623s1.422 3.175 2.282 5.109c.425.97.842 2.008 1.152 3.127.304 1.12.508 2.309.598 3.532.187 2.451-.002 4.782-.176 6.883l-.619 5.58c-.255 1.581-.587 2.839-.87 3.688l-.36.967c-.092.217-.147.328-.158.323-.03-.012.138-.476.377-1.333s.529-2.11.748-3.685l.537-5.568c.156-2.1.331-4.414.146-6.826-.088-1.204-.285-2.368-.578-3.464-.299-1.095-.701-2.121-1.114-3.086l-2.214-5.154c-.542-1.513-.779-2.806-.827-3.703-.036-.449-.019-.797-.001-1.033s.028-.359.041-.358z"/><path d="M144.322 183.716c.061-.003.115 1.119.367 2.907a38.4 38.4 0 0 0 1.61 6.853l.692 1.885c.061.137.117.331.18.412l.258.399.464.812c.563 1.087.82 2.192.813 3.121.006.933-.238 1.657-.429 2.13-.227.46-.377.7-.397.688-.099-.028.608-1.017.56-2.813-.026-.884-.297-1.928-.854-2.966-.135-.26-.292-.518-.459-.779l-.263-.396c-.119-.186-.14-.311-.214-.471l-.708-1.903c-.889-2.637-1.334-5.13-1.517-6.939l-.137-2.15.034-.79zm.885-6.536c-.059.02-.387-.899-1.04-2.324s-1.669-3.343-3.052-5.29a32.97 32.97 0 0 0-4.003-4.614l-1.856-1.742c.015-.021.221.112.58.369s.861.656 1.456 1.176c1.19 1.041 2.722 2.623 4.128 4.593s2.398 3.936 2.991 5.402l.636 1.76c.126.424.184.662.16.67zm62.637-12.995c.052.009-.019.675-.15 1.748l-.483 4.191-.393 4.201-.214 1.742c-.051-.002-.077-.673-.051-1.756l.284-4.226.594-4.193c.199-1.066.363-1.717.413-1.707zm6.19 18.57c.009.069-.952.16-2.429.582-1.47.404-3.455 1.305-5.084 2.981-.807.84-1.43 1.765-1.94 2.64-.478.892-.849 1.729-1.116 2.451l-.351.978-.23.752c-.13.413-.214.639-.239.634s.01-.244.098-.67l.169-.775.303-1.007a16.88 16.88 0 0 1 1.063-2.53c.505-.905 1.138-1.866 1.974-2.734 1.687-1.739 3.771-2.633 5.284-2.977l1.033-.209.787-.101c.435-.034.676-.041.678-.015zm20.182 20.129c-.023.012-.195-.275-.489-.808l-.5-.989-.587-1.346c-.415-1.007-.814-2.245-1.162-3.644-.327-1.403-.59-2.971-.709-4.631-.105-1.662-.054-3.251.083-4.686.158-1.433.387-2.714.663-3.767.117-.532.278-.998.402-1.412l.363-1.048.377-.865c.068.024-.414 1.28-.883 3.387-.241 1.051-.44 2.32-.577 3.738-.117 1.419-.156 2.987-.054 4.627.119 1.64.368 3.187.672 4.578.326 1.387.694 2.619 1.073 3.628l1.328 3.238z"/><path d="M226.455 197.424c-.025.007-.123-.267-.282-.772-.152-.507-.331-1.254-.453-2.193-.256-1.872-.204-4.559.679-7.33.866-2.781 2.375-5.004 3.688-6.376.676-.682 1.424-1.055 1.983-1.064.277-.011.485.062.614.118.125.07.185.114.178.125-.006.018-.072-.016-.195-.051a1.55 1.55 0 0 0-.586-.047c-.502.051-1.18.429-1.803 1.104-1.23 1.383-2.675 3.585-3.52 6.304a18.3 18.3 0 0 0-.774 7.187c.183 1.86.542 2.975.471 2.995zm-49.772-3.576c.026.007-.039.31-.178.856-.065.274-.156.607-.295.982l-.48 1.272c-.378.935-.936 2.004-1.648 3.134a23.22 23.22 0 0 1-2.703 3.394 23.38 23.38 0 0 1-3.331 2.78c-1.113.738-2.169 1.321-3.096 1.721-.452.224-.887.366-1.26.508-.372.148-.703.247-.975.318l-.851.198c-.023-.073 1.18-.399 2.974-1.265.9-.426 1.927-1.023 3.012-1.765a24.78 24.78 0 0 0 3.259-2.758c1.054-1.091 1.945-2.232 2.681-3.321.716-1.1 1.291-2.141 1.695-3.051l1.196-3.003z"/></g><path d="M147.509 231.04l-.048-.201.111-.004-.063.205z" class="H"/><g class="K"><path d="M147.514 230.784l-1.03-4.347 2.275-.714.037-35.66 2.972 10.851c1.256 4.587 2.523 9.31 1.993 14.037-.642 5.724-4.414 10.338-6.136 15.829l-.111.004z"/><path d="M146.517 226.548l-.701-2.962c1.662-5.487 2.256-12.566 2.21-18.316a20.34 20.34 0 0 1 .088.904c.184 2.412.009 4.727-.147 6.826-.162 2.103-.309 3.994-.537 5.568-.219 1.575-.509 2.829-.748 3.686s-.406 1.32-.377 1.332h.001c.014 0 .067-.111.157-.323.095-.217.217-.542.36-.967.283-.849.615-2.107.871-3.688.262-1.581.437-3.479.618-5.58.175-2.101.363-4.431.176-6.883-.079-1.077-.247-2.127-.493-3.127.053-.061.187-.291.376-.671.191-.474.434-1.198.429-2.131.007-.929-.251-2.034-.813-3.12-.136-.274-.295-.543-.464-.813l-.258-.399c-.063-.08-.119-.274-.18-.412a37.68 37.68 0 0 1-.693-1.885c-.88-2.609-1.361-5.064-1.61-6.852-.001-.01-.003-.019-.004-.029-.011-.465.011-.937.092-1.369.12-.645.672-1.255 1.305-1.255a.93.93 0 0 1 .173.016c.755.136 1.093 1.006 1.295 1.745l1.186 4.331-.037 35.66s-.87.288-2.275.714zm-.285-32.282c-.461-1.027-.745-2.044-.948-3.146.205.832.453 1.702.752 2.587l.196.559z"/></g><g class="H"><path d="M146.244 223.571h0c-.03-.012.137-.476.377-1.333s.529-2.11.748-3.685l.537-5.568c.155-2.1.331-4.414.146-6.826l-.088-.905-.052-2.234h.002c.004 0 .01-.006.02-.017.246 1 .413 2.05.493 3.127.186 2.451-.002 4.782-.177 6.883l-.618 5.58c-.255 1.581-.588 2.839-.87 3.688l-.36.967-.158.323z"/><path d="M147.973 202.975h-.002s1.972-2.414-1.02-7.391c-.281-.467-.519-.923-.722-1.378l-.196-.56-.752-2.586c-.198-1.077-.319-2.234-.451-3.565l-.055-.849.005.028a38.4 38.4 0 0 0 1.61 6.853l.692 1.885c.061.137.117.331.18.412l.258.399.464.812c.563 1.087.82 2.192.813 3.121.006.933-.238 1.657-.428 2.13l-.376.672c-.01.011-.016.017-.02.017z"/></g><path d="M217.823 199.181l-4.444-2.77 4.444 2.77h0z" class="I"/><path d="M217.862 199.174l-4.443-2.77c-3.142-2.078-6.23-4.267-9.562-6.019.202-.459.439-.946.71-1.451l.165-.277a3.04 3.04 0 0 1 .918-.27c.156-.022.312-.033.467-.033 1.003 0 1.987.431 2.88.917 3.829 2.086 6.977 5.973 8.865 9.903zm-13.967-9.648a1.35 1.35 0 0 1 .095-.204l-.095.204z" class="K"/><path d="M204.001 190.448l-.032-.016a1.68 1.68 0 0 1 .07-.843l.095-.204c.161-.284.419-.506.742-.664l-.165.277-.71 1.45zm-.032-.016l-.112-.059.112.059z" class="H"/><path d="M232.189 179.367l.177-.168-.177.168z" class="I"/><path d="M226.964 198.256a1.07 1.07 0 0 1-.202-.02c-.843-.165-1.158-1.19-1.261-2.042a22.44 22.44 0 0 1-.06-4.777c-.064 1.137-.012 2.173.107 3.037.122.939.301 1.686.453 2.193l.281.771h.001c.071-.019-.288-1.134-.471-2.994a18.3 18.3 0 0 1 .774-7.187c.845-2.72 2.289-4.921 3.52-6.304.533-.577 1.105-.937 1.574-1.061-1.677 1.906-2.567 4.451-2.931 6.985-.41 2.861-.223 5.772-.213 8.664.002.622-.01 1.269-.282 1.829-.242.498-.751.906-1.29.906zm-.354-12.224a22.3 22.3 0 0 1 1.618-3.603c.815-1.454 2.068-2.965 3.723-2.965l.066.001.17-.144-.339.364c-.552.029-1.277.401-1.933 1.063-1.136 1.187-2.419 3.012-3.305 5.284z" class="K"/><path d="M226.454 197.421c-.026 0-.124-.273-.281-.771-.151-.507-.33-1.255-.453-2.194-.118-.863-.171-1.899-.107-3.037a22.91 22.91 0 0 1 1.17-5.384c.886-2.272 2.168-4.098 3.304-5.284.656-.662 1.381-1.034 1.934-1.063l-.168.186c-.469.124-1.041.484-1.575 1.061-1.23 1.383-2.674 3.585-3.52 6.305a18.3 18.3 0 0 0-.774 7.187c.183 1.859.543 2.975.471 2.994h-.001z" class="H"/><g fill="#fff"><path d="M155.762 184.845a.68.68 0 0 1 .169-.021l.501-.033 1.953-.104 7.391-.341 26.163-1.111.171-.007.003.17.725 29.646.026 1.074.005.19-.191.002a256.97 256.97 0 0 0-32.211 2.405l-.141.02-.037-.137c-2.564-9.425-3.5-17.542-3.841-23.206a106.99 106.99 0 0 1-.203-6.589c-.001-.761.017-1.344.024-1.737l.014-.445a.76.76 0 0 1 .013-.15c.005 0 .008.051.013.15l.011.446.025 1.734a128.47 128.47 0 0 0 .291 6.578 118.37 118.37 0 0 0 3.965 23.133l-.178-.117a250.87 250.87 0 0 1 32.251-2.461l-.186.192-.026-1.072-.683-29.648.173.163-26.169.975-7.393.248-1.955.053-.503.006c-.113 0-.17-.003-.17-.006zm9.527 21.928c-.102.018-1.005-4.857-2.014-10.886s-1.746-10.934-1.645-10.95 1.005 4.856 2.015 10.888 1.747 10.932 1.644 10.948z"/><path d="M166.304 216.052c-.102.015-.462-1.745-.804-3.932l-.433-3.99c.102-.016.462 1.744.804 3.932l.433 3.99zm6.195-14.121c-.025.005-.097-.233-.203-.67l-.394-1.86-.889-6.211-.355-6.266.019-1.901c.018-.449.04-.697.066-.697.055-.001.097.991.18 2.59l.464 6.236.777 6.205.335 2.574zm-.794 13.144c-.103.013-.47-2.269-.82-5.097l-.448-5.144c.103-.013.471 2.269.821 5.097l.447 5.144zm8.287-.56c-.025.002-.076-.421-.146-1.188l-.282-3.245-1.067-10.688-1.388-10.654-.462-3.224-.127-1.19s.121.411.271 1.166l.581 3.208a208.66 208.66 0 0 1 1.499 10.651c.478 4.172.789 7.964.958 10.712l.163 3.255c.025.77.026 1.196 0 1.197zm6.782.318c-.026-.001-.043-.433-.052-1.212l-.028-3.3c-.026-2.787-.101-6.635-.302-10.879s-.493-8.085-.731-10.861l-.285-3.288c-.065-.777-.089-1.207-.062-1.211s.098.423.208 1.195.25 1.893.403 3.278c.306 2.773.639 6.615.842 10.869a181.32 181.32 0 0 1 .192 10.897l-.09 3.302c-.037.78-.069 1.211-.095 1.21z"/></g><path d="M165.888 210.033c-.078 0-.157-.002-.236-.005-.207-1.113-.381-1.851-.449-1.851-.066.011-.012.74.125 1.834-.983-.078-1.949-.366-2.762-.919l-.083-.152.361-.099c.273-.071.603-.17.975-.318l1.261-.508c.926-.4 1.982-.983 3.095-1.721 1.099-.758 2.246-1.683 3.331-2.78a23.22 23.22 0 0 0 2.703-3.394c.712-1.13 1.27-2.199 1.649-3.134.212-.458.345-.895.479-1.272l.195-.597c.053-.031.116-.049.175-.049.076 0 .148.028.192.09s.052.153.054.236c.055 1.879.11 3.772-.185 5.629s-.965 3.697-2.204 5.113c-.917 1.048-2.102 1.816-3.362 2.426l-.635-3.668h-.001c-.086.011.041 1.636.291 3.83l-.658.286c-1.225.51-2.509.922-3.834 1.007l-.477.016zm-3.457-1.191l-.077-.143c.996-.279 1.967-.636 2.905-1.066l-.292.141c-1.136.548-2.035.88-2.536 1.068z" class="K"/><path d="M162.406 208.891l-.052-.098 2.536-1.068.292-.141c2.841-1.303 5.379-3.267 7.382-5.67l.011.007c.005-.001.008-.012.01-.033 1.573-1.893 2.814-4.06 3.61-6.392.049-.145.101-.298.218-.397.013-.011.028-.021.042-.031l-.195.597-.48 1.272c-.378.935-.936 2.004-1.648 3.134a23.22 23.22 0 0 1-2.703 3.394 23.38 23.38 0 0 1-3.331 2.78c-1.113.738-2.169 1.32-3.096 1.721-.452.223-.887.366-1.26.508-.372.148-.702.247-.975.318l-.361.099z" class="H"/><path d="M165.517 209.981l-.324-.017c-.137-1.094-.192-1.823-.126-1.833.068-.001.243.737.45 1.85zm5.211-1.317l-.291-3.83h.001c.086 0 .349 1.545.635 3.667l-.345.163z" fill="#a8abab"/><path d="M158.102 269.473l-4.408-8.267-9.91-46.393s-9.12-5.232-16.581 6.242c-.3.462 10.269 33.686 13.218 42.93l.414 8.84s-.523 10.467 0 11.383 1.832 1.439 1.832 1.439-.393 2.616 2.616 2.877c0 0 .262 2.879 2.486 2.486s3.01-1.831 3.01-1.831 0 3.663 1.962 3.271 2.283-1.963 2.646-2.486.776-5.888.776-5.888l-.035-8.862 5.11 4.138c1.476.736 3.637 1.647 4.866.548l-8.002-10.427z" class="J"/><path d="M156.152 274.78c.107-.018.418 2.129.29 4.774l-.162 3.369-.128 1.395c-.117.007-.214-2.146-.086-4.777l.086-4.761zm-5.624 6.104c.104-.002.215 1.96.247 4.381l-.129 4.387c-.103.001-.213-1.96-.247-4.382l.129-4.386zm-4.901 1.709c.098-.008.268 1.372.101 3.07-.159 1.699-.589 3.021-.683 2.994-.107-.026.153-1.364.31-3.03l.272-3.034zm-3.071-1.099c.103.01.099.901-.009 1.99s-.278 1.963-.382 1.953-.099-.901.008-1.99.28-1.964.383-1.953z" class="L"/><path d="M152.471 100.753l-6.637-11.698c2.936-4.766 4.633-10.377 4.633-16.386 0-17.279-14.008-31.288-31.288-31.288S87.891 55.39 87.891 72.669s14.008 31.289 31.288 31.289c7.215 0 13.856-2.449 19.148-6.552l-.01.014 14.154 3.333z" fill="#fff"/><path d="M152.629 100.778l-14.176-3.242-.07-.112.017-.037.011-.014.131.131c-1.784 1.382-3.922 2.744-6.435 3.879-2.516 1.116-5.4 2.027-8.582 2.45-1.589.203-3.249.334-4.955.251l-2.595-.143-2.644-.4c-3.544-.699-7.166-2.044-10.545-4.141-3.378-2.09-6.505-4.927-9.012-8.413-2.502-3.48-4.4-7.607-5.288-12.09-.88-4.478-.806-9.276.369-13.921 1.185-4.628 3.396-9.15 6.707-12.87l1.278-1.406c.42-.473.921-.863 1.376-1.297.477-.41.907-.875 1.419-1.237l1.502-1.123c.486-.393 1.022-.71 1.555-1.028l1.587-.965 1.663-.807c.558-.257 1.093-.561 1.678-.746 4.546-1.805 9.394-2.492 14.028-2.156s9.071 1.663 12.875 3.805a31.78 31.78 0 0 1 9.52 8.13c2.492 3.17 4.248 6.667 5.335 10.148 1.08 3.498 1.372 6.968 1.36 10.179-.093 3.22-.679 6.185-1.532 8.789s-1.979 4.848-3.139 6.735l.002-.092 6.559 11.742-6.715-11.653.001-.092a31.72 31.72 0 0 0 3.081-6.709 31.07 31.07 0 0 0 1.484-8.727c-.001-3.186-.301-6.623-1.381-10.085-1.087-3.446-2.834-6.903-5.308-10.036-2.466-3.132-5.655-5.932-9.434-8.028-3.766-2.113-8.152-3.421-12.735-3.746s-9.372.355-13.862 2.14c-.578.182-1.107.483-1.658.738l-1.643.798-1.567.953c-.527.315-1.057.628-1.537 1.017l-1.484 1.109c-.506.358-.931.818-1.402 1.223-.449.428-.945.813-1.36 1.281l-1.263 1.389c-3.273 3.675-5.458 8.143-6.63 12.716-1.165 4.588-1.241 9.332-.376 13.759.874 4.432 2.745 8.514 5.215 11.96s5.563 6.264 8.9 8.339c3.34 2.082 6.923 3.423 10.431 4.125l2.618.404c.867.075 1.727.098 2.572.148 1.691.089 3.337-.035 4.913-.231 3.157-.408 6.021-1.3 8.524-2.396 2.5-1.115 4.631-2.456 6.413-3.82l.132.017.001.115-.011.014-.053-.148 14.133 3.425z" class="B"/><path d="M110.103 66.733c-.459-.247-1.027-.335-1.557-.401-1.666-.211-3.088.263-4.298 1.588l11.292 6.446 4.16-2.379-9.597-5.254z" class="G"/><path d="M115.54 74.367l-11.292-6.446c1.027-1.126 2.207-1.637 3.56-1.637a5.89 5.89 0 0 1 .738.048c.53.066 1.098.154 1.557.401l9.597 5.255-4.16 2.379z" class="I"/><path d="M127.603 83.865a2.62 2.62 0 0 0 2.631-2.524c.038-1.477-1.087-2.656-2.552-2.675-1.413-.017-2.599 1.105-2.651 2.508-.052 1.412 1.147 2.667 2.572 2.691zm.03-13.763a2.57 2.57 0 0 0 2.602-2.626c-.013-1.405-1.179-2.567-2.582-2.572-1.425-.007-2.642 1.22-2.622 2.642.019 1.397 1.193 2.551 2.602 2.557zm-4.806 8.667l-.153-.126c-1.036-.599-2.134-1.742-3.184-1.721-.399.008-.829.352-1.861.934l-6.339 3.618c-1.476.814-3.276 1.425-4.957.896-.817-.258-1.468-.716-2.329-1.408l18.82-10.91-.288-.819a5.38 5.38 0 0 1 2.009-6.123c1.973-1.387 4.631-1.287 6.52.244 1.838 1.49 2.469 4.058 1.537 6.252-.94 2.212-3.185 3.504-5.564 3.263-.408-.042-.878.074-1.253.253-.717.342-1.386.782-2.241 1.277 1.448.651 2.432 1.686 4.123 1.529 2.335-.217 4.411 1.476 5.121 3.733.695 2.209-.112 4.613-2.004 5.969a5.42 5.42 0 0 1-6.381-.074c-1.852-1.389-2.608-3.821-1.868-6.016l.292-.77z" class="G"/><path d="M120.561 74.265c-.065.021-.038-.49-.565-.869-.251-.178-.647-.267-1.02-.12a1.07 1.07 0 0 0-.68.989c-.004.458.31.853.68.99.373.147.769.058 1.02-.12.527-.379.5-.89.565-.869.022-.001.059.11.033.317s-.137.512-.436.763a1.35 1.35 0 0 1-1.3.234 1.4 1.4 0 0 1-.938-1.315 1.4 1.4 0 0 1 .938-1.315 1.35 1.35 0 0 1 1.299.234c.3.251.411.561.437.763s-.011.318-.033.317zm4.767-.9c.006.009-.131.1-.382.255l-1.069.648-3.558 2.09-3.581 2.051-1.093.607-.411.205c-.005-.009.132-.1.383-.256l1.069-.648 3.558-2.089 3.579-2.05 1.094-.607.411-.205zm-3.221-2.93c.003.004-.058.045-.175.12l-.518.323-1.917 1.16-6.378 3.738-6.43 3.651-1.957 1.091-.536.29-.192.092a1.13 1.13 0 0 1 .177-.119l.523-.315 1.932-1.133 6.408-3.688 6.399-3.699 1.942-1.12.531-.298.191-.094z" class="B"/><path d="M241.176 109.741l1.369 2.503 2.503 1.369-2.503 1.368-1.369 2.503-1.369-2.503-2.502-1.368 2.502-1.369 1.369-2.503zm9.312-34.215l1.424-.094 1.147-.847.093 1.423.847 1.148-1.422.094-1.149.847-.094-1.423-.846-1.148zm230.713 113.77l1.423-.095 1.148-.847.094 1.424.847 1.147-1.423.094-1.148.847-.094-1.423-.847-1.147zm-162.597-71.168l1.423-.094 1.147-.846.094 1.423.847 1.147-1.423.095-1.148.846-.094-1.423-.846-1.148zm8.788-61.035l1.424-.094 1.148-.847.094 1.423.847 1.148-1.424.094-1.148.847-.094-1.423-.847-1.148zm-43.701 37.923l2.165-1.246 1.149-2.218 1.248 2.165 2.216 1.15-2.164 1.246-1.15 2.218-1.247-2.165-2.217-1.151zm181.885 122.925l2.165-1.246 1.15-2.217 1.247 2.164 2.217 1.15-2.164 1.247-1.151 2.217-1.247-2.165-2.217-1.15zm-10.986-39.55l2.165-1.247 1.15-2.217 1.246 2.165 2.218 1.15-2.165 1.246-1.15 2.218-1.247-2.165-2.217-1.15z" class="G"/></svg>